<svg xmlns="http://www.w3.org/2000/svg" viewBox="0 0 1000.58 463.63">
  <defs>
    <style>
      .cls-1{fill:#fff}.cls-2{fill:#0b0b0b}.cls-3{fill:#dadada}.cls-4{fill:#004a1e}.cls-5{fill:#00823b}
    </style>
  </defs>
  <g id="Layer_2" data-name="Layer 2">
    <path class="cls-1" d="M-1.37 29.9h620.85V388H-1.37z"/>
    <circle class="cls-1" cx="18.97" cy="14.95" r="6.35"/>
    <circle class="cls-1" cx="36.72" cy="14.95" r="6.35"/>
    <circle class="cls-1" cx="54.47" cy="14.95" r="6.35"/>
    <path class="cls-2" d="M.75 29.9h621.72v48.58H.75z"/>
    <path class="cls-1" d="M199.55 44.64l-8 9.7v-9.7h-4.54v22.41h4.54v-6.82l2.89-3.23 5.92 10.05h5.27l-8.29-13.5 7.79-8.91h-5.58zM171.63 63a4 4 0 0 1-1.47-.87 4.12 4.12 0 0 1-1-1.49 5.66 5.66 0 0 1-.36-2.12V44.61h-4.48v14.56a8.21 8.21 0 0 0 .68 3.39 7.39 7.39 0 0 0 1.9 2.58 8.63 8.63 0 0 0 2.89 1.64 11.83 11.83 0 0 0 7.31 0 8.56 8.56 0 0 0 2.9-1.64 7.43 7.43 0 0 0 1.89-2.58 8.2 8.2 0 0 0 .68-3.39V44.61h-4.45V58.5a5.69 5.69 0 0 1-.36 2.12 4.14 4.14 0 0 1-1 1.49 4 4 0 0 1-1.47.87 6 6 0 0 1-3.67 0M155.25 65.63a2.94 2.94 0 0 0 .62.91 2.8 2.8 0 0 0 .92.61 2.83 2.83 0 0 0 1.1.22 2.78 2.78 0 0 0 1.09-.22 2.83 2.83 0 0 0 .91-.61 3 3 0 0 0 .62-.91 2.74 2.74 0 0 0 .23-1.11 2.63 2.63 0 0 0-.23-1.08 2.88 2.88 0 0 0-.62-.89 3 3 0 0 0-.91-.61 2.67 2.67 0 0 0-1.09-.23 2.72 2.72 0 0 0-1.1.23 3 3 0 0 0-.92.61 2.87 2.87 0 0 0-.62.89 2.64 2.64 0 0 0-.23 1.08 2.75 2.75 0 0 0 .23 1.11M148.06 67.05l6.33-22.41h-5.02l-4.23 16.85h-.16l-4.33-16.85h-5.08l6.33 22.41h6.16zM120.56 62.71a5.3 5.3 0 0 1-1.88-1.54 6.94 6.94 0 0 1-1.15-2.33 10.53 10.53 0 0 1-.39-2.94v-.13a10.56 10.56 0 0 1 .39-2.93 6.93 6.93 0 0 1 1.15-2.34 5.29 5.29 0 0 1 1.88-1.5 6.33 6.33 0 0 1 5.18 0 5.38 5.38 0 0 1 1.88 1.54 6.85 6.85 0 0 1 1.16 2.34 10.51 10.51 0 0 1 .39 2.93v.13a10.48 10.48 0 0 1-.39 2.94 6.86 6.86 0 0 1-1.16 2.33 5.39 5.39 0 0 1-1.88 1.54 6.33 6.33 0 0 1-5.18 0m-1.9-17.49a10 10 0 0 0-3.36 2.45 10.68 10.68 0 0 0-2.11 3.66 14.36 14.36 0 0 0 0 9A10.8 10.8 0 0 0 115.3 64a9.81 9.81 0 0 0 3.36 2.45 11.75 11.75 0 0 0 9 0A9.78 9.78 0 0 0 131 64a10.8 10.8 0 0 0 2.11-3.66 14.39 14.39 0 0 0 0-9 10.69 10.69 0 0 0-2.11-3.66 9.93 9.93 0 0 0-3.37-2.45 11.68 11.68 0 0 0-9 0M93.93 55.75a10.52 10.52 0 0 1 .36-2.75 7.11 7.11 0 0 1 1.09-2.35A5.51 5.51 0 0 1 97.26 49a5.63 5.63 0 0 1 2.72-.62 6 6 0 0 1 1.81.26 5.13 5.13 0 0 1 2.56 1.77 7.71 7.71 0 0 1 .84 1.34l4-2.23a8.37 8.37 0 0 0-1.47-2.13 9.08 9.08 0 0 0-2.09-1.64 10.3 10.3 0 0 0-2.61-1 12.08 12.08 0 0 0-3-.37 10.6 10.6 0 0 0-4.43.9 10.12 10.12 0 0 0-3.37 2.45A11 11 0 0 0 90 51.34a13.19 13.19 0 0 0-.76 4.51 14.52 14.52 0 0 0 .68 4.52 10.87 10.87 0 0 0 2 3.66 9.19 9.19 0 0 0 3.21 2.45 10.2 10.2 0 0 0 4.36.89 8.65 8.65 0 0 0 2-.22 8 8 0 0 0 1.71-.6 6.54 6.54 0 0 0 1.41-.92 5.52 5.52 0 0 0 1-1.2V67h4V54.77H99.46v3.45h5.73v.22A5.67 5.67 0 0 1 105 60a4.33 4.33 0 0 1-.84 1.57 4.68 4.68 0 0 1-1.61 1.21 5.81 5.81 0 0 1-2.52.48 5.63 5.63 0 0 1-2.72-.62A5.5 5.5 0 0 1 95.38 61a7.12 7.12 0 0 1-1.09-2.34 10.5 10.5 0 0 1-.36-2.77zM46.56 49.2a2 2 0 1 0-1.06-2.55 2 2 0 0 0 1.06 2.55M42.1 51.81a2 2 0 1 0-1.1-2.55 2 2 0 0 0 1.06 2.55M40.8 56.76a2 2 0 1 0-1.06-2.55 2 2 0 0 0 1.06 2.55M51.53 50.77a2 2 0 1 0-1.06-2.55 2 2 0 0 0 1.06 2.55M69.54 49.2a2 2 0 1 1 1.06-2.55 2 2 0 0 1-1.06 2.55M74 51.81a2 2 0 1 1 1.06-2.55A2 2 0 0 1 74 51.81M75.3 56.76a2 2 0 1 1 1.06-2.55 2 2 0 0 1-1.06 2.55M64.57 50.77a2 2 0 1 1 1.06-2.55 2 2 0 0 1-1.06 2.55M59.09 45.69L61.58 47v-3.68l-2.48.79a1.24 1.24 0 0 0-.24-.24l1-3.15h-3.61l1 3.15a1.27 1.27 0 0 0-.24.24l-2.48-.79V47L57 45.68a1.32 1.32 0 0 0 .26.25l-1.43 4.31a2.32 2.32 0 0 0 1.88 3h.58a2.32 2.32 0 0 0 2-2.29 2.35 2.35 0 0 0-.1-.68l-1.43-4.31a1.34 1.34 0 0 0 .26-.25M58 66.77a94 94 0 0 1 13.17.89c1.13-4.75 2.51-7.48 3.93-9.42l-2.68-1a4.89 4.89 0 0 1 0 2.86 5.42 5.42 0 0 1-1.19-2.44L70 62a4 4 0 0 1 2.09-.91c-1.23 2.66-2.77 3.34-3.77 3.16a1.9 1.9 0 0 1-1.59-2.23c.28-1.31 1.62-1.65 2.25-.13 1.2-2.44-.83-3.21-2.14-2.48 2-2 2.24-3.79.62-5.94-2.26 1.73-2.29 3.44-1.27 5.84-1.32-1.51-3.37-.7-2.63 1.74 1-1.47 2.21-.55 2 .85-.17 1.22-1.78 2.2-3.78 2-2.87-.26-3-2.24-3.11-3.88.7-.13 2 .52 3.06 2l.4-4.58a4.46 4.46 0 0 1-3.44 1.5 13.41 13.41 0 0 1 2.22-3.26h-5.72a13.45 13.45 0 0 1 2.22 3.26A4.46 4.46 0 0 1 54 57.55l.4 4.58c1.09-1.52 2.36-2.18 3.06-2-.07 1.64-.24 3.62-3.11 3.88-2 .17-3.61-.81-3.78-2-.2-1.4 1.06-2.33 2-.85.74-2.44-1.31-3.25-2.63-1.74 1-2.41 1-4.12-1.27-5.84-1.62 2.15-1.39 3.94.62 5.94-1.31-.72-3.34 0-2.14 2.48.63-1.52 2-1.18 2.25.13a1.9 1.9 0 0 1-1.59 2.23c-1 .19-2.54-.5-3.77-3.16a4 4 0 0 1 2.06.8l-1.3-4.32a5.41 5.41 0 0 1-1.19 2.44 4.89 4.89 0 0 1 0-2.86l-2.67 1c1.42 1.94 2.8 4.66 3.93 9.41a94.18 94.18 0 0 1 13.13-.9"/>
    <path class="cls-3" d="M2.99 389.34V29.89h617.67v359.45h2.99V26.91H0v362.43h2.99z"/>
    <g>
      <path class="cls-2" d="M40.92 108.44h7.53a6 6 0 0 1 6.32 6.24c0 3.58-2.69 6.24-6.62 6.24h-3.41v6.35h-3.82zm6.51 3.44h-2.69v5.6h2.69c2.1 0 3.42-1 3.42-2.74v-.11c0-1.78-1.32-2.75-3.42-2.75zM60.94 127.53c-2.56 0-4.87-1.61-4.87-4.41 0-2.26 1.48-3.77 4-4.12l4.28-.59V118c0-1.24-.83-1.8-2.21-1.8a9.47 9.47 0 0 0-4.14 1.09l-1.43-2.8a11.89 11.89 0 0 1 5.7-1.56c2.58 0 5.7.7 5.7 4.52v6c0 .83.46 1.13 1.21 1.45l-1.64 2.61a3.2 3.2 0 0 1-2.64-1.59 4.86 4.86 0 0 1-3.96 1.61zm.43-5.94c-.89.13-1.48.65-1.48 1.45a1.71 1.71 0 0 0 1.91 1.64 2.35 2.35 0 0 0 2.5-2.58v-1zM74.18 127.83l.11-.46H74l-4.31-14.17h4l2.58 9.74 2.53-9.74h4L78 129.34c-.62 2.1-2.26 2.66-4.39 2.66a23.85 23.85 0 0 1-3.31-.27l.75-3.2a13 13 0 0 0 1.94.16 1.07 1.07 0 0 0 1.19-.86zM95.6 113.2h2.69v3.25H95.6v10.81H92v-10.81h-2.27v-3.25H92v-1.45c0-2.45 1.75-3.58 4.25-3.58a24.59 24.59 0 0 1 2.88.19l-.3 3.09a12.44 12.44 0 0 0-1.77-.13c-1 0-1.43.43-1.43 1zM113.51 120.24c0 4.17-2.77 7.29-6.91 7.29s-6.91-3.15-6.91-7.29c0-4.14 2.74-7.29 6.91-7.29s6.91 3.15 6.91 7.29zm-3.71 0c0-2.29-1.13-3.93-3.2-3.93s-3.17 1.64-3.2 3.93c0 2.29 1.13 3.93 3.2 3.93s3.17-1.64 3.2-3.93zM124.36 116.72h-.65c-2.07 0-3.9.7-3.9 3.71v6.83h-3.63V113.2h3.63v1.59a4.36 4.36 0 0 1 3.74-1.83h.81zM135.6 121.48a3.31 3.31 0 0 0 3.42 2.74 5.05 5.05 0 0 0 3.55-1.32l1.8 2.74a8.42 8.42 0 0 1-5.46 1.88 6.84 6.84 0 0 1-7.07-7.21v-.16c0-4.14 2.82-7.24 6.81-7.24 3.71 0 6.46 2.82 6.46 6.91v1.64zm0-2.74h5.68a2.71 2.71 0 0 0-2.77-2.66 2.81 2.81 0 0 0-2.88 2.66zM150.67 119.89l-4.28-6.7h4.2l2.15 3.79 2.26-3.78h4.22l-4.36 6.72 4.84 7.34h-4.28l-2.77-4.3-2.53 4.3h-4.22zM165.41 127.53c-2.56 0-4.87-1.61-4.87-4.41 0-2.26 1.48-3.77 4-4.12l4.28-.59V118c0-1.24-.83-1.8-2.21-1.8a9.47 9.47 0 0 0-4.14 1.13l-1.43-2.8a11.89 11.89 0 0 1 5.7-1.56c2.58 0 5.7.7 5.7 4.52v6c0 .83.46 1.13 1.21 1.45l-1.65 2.59a3.2 3.2 0 0 1-2.64-1.59 4.86 4.86 0 0 1-3.95 1.59zm.43-5.94c-.89.13-1.48.65-1.48 1.45a1.71 1.71 0 0 0 1.91 1.64 2.35 2.35 0 0 0 2.5-2.58v-1zM187.66 127.27H184v-8.18c0-2-.94-2.72-2.13-2.72-1.4 0-2.47 1-2.47 3.23v7.67h-3.6V113.2h3.63v1.24a4.71 4.71 0 0 1 3.6-1.51 4.07 4.07 0 0 1 3.63 1.91 5 5 0 0 1 4.25-1.91 4.71 4.71 0 0 1 5 4.73v9.6h-3.66v-8.18c0-2-.94-2.72-2.13-2.72-1.4 0-2.47 1-2.47 3.23zM202.84 113.2v1.21a4.65 4.65 0 0 1 3.55-1.48c3.71 0 6.19 3.07 6.19 7.24v.13c0 4.17-2.56 7.24-6.27 7.24a4.47 4.47 0 0 1-3.47-1.48v5.65h-3.63V113.2zm-.11 8.34a2.65 2.65 0 0 0 2.91 2.64c2.07 0 3.2-1.64 3.2-3.87v-.13c0-2.23-1.13-3.87-3.2-3.87a2.65 2.65 0 0 0-2.91 2.64zM215.22 108.44h3.63v15c0 .59.32.91 1.08.91a7.19 7.19 0 0 0 1.37-.13l.3 3.09a29.89 29.89 0 0 1-3.07.22c-2 0-3.31-1.08-3.31-3.09zM226.33 121.48a3.31 3.31 0 0 0 3.42 2.74 5.05 5.05 0 0 0 3.55-1.32l1.8 2.74a8.42 8.42 0 0 1-5.46 1.88 6.84 6.84 0 0 1-7.07-7.21v-.16c0-4.14 2.82-7.24 6.81-7.24 3.71 0 6.46 2.82 6.46 6.91v1.64zm0-2.74H232a2.71 2.71 0 0 0-2.77-2.66 2.81 2.81 0 0 0-2.88 2.66zM245.7 122.75a6.52 6.52 0 0 0 4.11 1.69c1.1 0 2-.3 2-1.13 0-.67-.54-.94-1.72-1.24a24.13 24.13 0 0 1-3.5-1 3.78 3.78 0 0 1-2.47-3.66c0-3 2.66-4.49 5.78-4.49a8.08 8.08 0 0 1 5.57 2l-2.31 2.39a4.84 4.84 0 0 0-3.23-1.29c-1 0-2 .35-2 1.18 0 .65.62.89 1.67 1.16a19.81 19.81 0 0 1 4 1.29 3.72 3.72 0 0 1 2 3.36c0 3-2.56 4.52-5.68 4.52a10.34 10.34 0 0 1-6.35-2.13zM261.31 121.48a3.31 3.31 0 0 0 3.42 2.74 5.05 5.05 0 0 0 3.55-1.32l1.8 2.74a8.42 8.42 0 0 1-5.46 1.88 6.84 6.84 0 0 1-7.07-7.21v-.16c0-4.14 2.82-7.24 6.81-7.24 3.71 0 6.46 2.82 6.46 6.91v1.64zm0-2.74H267a2.71 2.71 0 0 0-2.77-2.66 2.81 2.81 0 0 0-2.9 2.66zM281.56 116.72h-.65c-2.07 0-3.9.7-3.9 3.71v6.83h-3.63V113.2H277v1.59a4.36 4.36 0 0 1 3.74-1.83h.81zM286.81 127.27l-4.3-14.07h4l2.53 9.68 2.58-9.68h4l-4.28 14.07zM299.51 107.76a2.29 2.29 0 1 1-2.29 2.29 2.28 2.28 0 0 1 2.29-2.29zm1.83 19.5h-3.63V113.2h3.63zM304 120.19c0-4.14 2.85-7.26 6.81-7.26a6.33 6.33 0 0 1 6.11 3.63l-3.23 1.64a2.87 2.87 0 0 0-2.8-1.91c-2.21 0-3.15 2-3.15 3.87v.16c0 1.83.94 3.85 3.15 3.85a2.87 2.87 0 0 0 2.8-1.91l3.23 1.64a6.44 6.44 0 0 1-6.16 3.63c-4 0-6.75-3.12-6.75-7.26zM322.33 121.48a3.31 3.31 0 0 0 3.42 2.74 5.05 5.05 0 0 0 3.55-1.32l1.8 2.74a8.42 8.42 0 0 1-5.46 1.88 6.84 6.84 0 0 1-7.07-7.21v-.16c0-4.14 2.82-7.24 6.81-7.24 3.71 0 6.46 2.82 6.46 6.91v1.64zm0-2.74H328a2.71 2.71 0 0 0-2.77-2.66 2.81 2.81 0 0 0-2.88 2.66z"/>
    </g>
    <path class="cls-4" d="M38.77 316.26h181.64v25.81H38.77z"/>
    <path class="cls-5" d="M38.77 313.28h181.64v25.81H38.77z"/>
    <g>
      <path class="cls-1" d="M64.11 321.55h4a3.16 3.16 0 0 1 3.34 3.29 3.27 3.27 0 0 1-3.49 3.29h-1.8v3.35h-2zm3.44 1.82h-1.43v3h1.42c1.11 0 1.8-.51 1.8-1.45v-.06c.01-.98-.69-1.49-1.8-1.49zM76.94 325.93h-.34c-1.09 0-2.06.37-2.06 2v3.61h-1.91v-7.43h1.92v.84a2.3 2.3 0 0 1 2-1h.43zM84.94 327.79a3.65 3.65 0 1 1-7.3 0 3.65 3.65 0 1 1 7.3 0zm-2 0c0-1.21-.6-2.07-1.69-2.07s-1.68.87-1.69 2.07c0 1.21.6 2.07 1.69 2.07S83 329 83 327.79zM86 327.76a3.61 3.61 0 0 1 3.59-3.83 3.34 3.34 0 0 1 3.22 1.92l-1.7.87a1.52 1.52 0 0 0-1.48-1c-1.17 0-1.66 1.06-1.66 2v.09c0 1 .5 2 1.66 2a1.52 1.52 0 0 0 1.48-1l1.7.87a3.4 3.4 0 0 1-3.25 1.92 3.59 3.59 0 0 1-3.56-3.8zM95.63 328.44a1.75 1.75 0 0 0 1.8 1.45 2.67 2.67 0 0 0 1.87-.7l1 1.45a4.44 4.44 0 0 1-2.88 1 3.61 3.61 0 0 1-3.73-3.81v-.09a3.59 3.59 0 0 1 3.59-3.82 3.4 3.4 0 0 1 3.41 3.65v.87zm0-1.45h3a1.43 1.43 0 0 0-1.46-1.41 1.49 1.49 0 0 0-1.52 1.42zM103.61 328.44a1.75 1.75 0 0 0 1.8 1.45 2.67 2.67 0 0 0 1.87-.7l1 1.45a4.44 4.44 0 0 1-2.88 1 3.61 3.61 0 0 1-3.73-3.81v-.09a3.59 3.59 0 0 1 3.59-3.82 3.4 3.4 0 0 1 3.41 3.65v.87zm0-1.45h3a1.43 1.43 0 0 0-1.46-1.41 1.49 1.49 0 0 0-1.52 1.42zM109.62 327.74c0-2.2 1.31-3.82 3.27-3.82a2.46 2.46 0 0 1 1.87.78v-3.15h1.92v9.94h-1.92v-.64a2.36 2.36 0 0 1-1.83.78c-2 0-3.31-1.62-3.31-3.82zm5.2-.65a1.4 1.4 0 0 0-1.53-1.39c-1.09 0-1.69.87-1.69 2v.07c0 1.18.6 2 1.69 2a1.4 1.4 0 0 0 1.53-1.39zM124.34 329.28c0 .36.16.63.82.63a4.75 4.75 0 0 0 1-.09l.17 1.69a15.35 15.35 0 0 1-1.76.13c-1.32 0-2.1-.58-2.1-1.89v-4h-1.33v-1.72h1.33V322l1.92-.51v2.61h1.95v1.72h-1.95zM134.55 327.79a3.65 3.65 0 1 1-7.3 0 3.65 3.65 0 1 1 7.3 0zm-2 0c0-1.21-.6-2.07-1.69-2.07s-1.68.87-1.69 2.07c0 1.21.6 2.07 1.69 2.07s1.68-.87 1.69-2.07zM141.31 324.07v.64a2.46 2.46 0 0 1 1.87-.78c2 0 3.27 1.62 3.27 3.82v.07c0 2.2-1.35 3.82-3.31 3.82a2.36 2.36 0 0 1-1.83-.78v3h-1.91v-9.77zm-.06 4.4a1.4 1.4 0 0 0 1.53 1.39c1.09 0 1.69-.87 1.69-2v-.07c0-1.18-.6-2-1.69-2a1.4 1.4 0 0 0-1.53 1.39zM150 331.63a2.38 2.38 0 0 1-2.57-2.33 2.15 2.15 0 0 1 2.09-2.17l2.26-.31v-.24c0-.65-.44-1-1.16-1a5 5 0 0 0-2.19.6l-.75-1.48a6.27 6.27 0 0 1 3-.82c1.36 0 3 .37 3 2.39v3.18c0 .44.24.6.64.77l-.87 1.38a1.69 1.69 0 0 1-1.39-.84 2.57 2.57 0 0 1-2.06.87zm.23-3.14c-.47.07-.78.34-.78.77a.9.9 0 0 0 1 .87 1.24 1.24 0 0 0 1.32-1.36v-.51zM157 331.79l.06-.24h-.14l-2.29-7.48h2.13l1.36 5.14 1.33-5.14h2.1l-2.55 8.52c-.33 1.11-1.19 1.41-2.31 1.41a12.63 12.63 0 0 1-1.75-.14l.4-1.69a6.89 6.89 0 0 0 1 .08.56.56 0 0 0 .66-.46zM168.86 331.49h-1.92v-4.32c0-1.07-.5-1.43-1.12-1.43s-1.31.51-1.31 1.7v4h-1.91v-7.43h1.92v.65a2.49 2.49 0 0 1 1.9-.8 2.15 2.15 0 0 1 1.92 1 2.62 2.62 0 0 1 2.24-1 2.49 2.49 0 0 1 2.64 2.5v5.07h-1.93v-4.32c0-1.07-.5-1.43-1.12-1.43s-1.31.51-1.31 1.7zM176.56 328.44a1.75 1.75 0 0 0 1.8 1.45 2.67 2.67 0 0 0 1.87-.7l1 1.45a4.44 4.44 0 0 1-2.88 1 3.61 3.61 0 0 1-3.73-3.81v-.09a3.59 3.59 0 0 1 3.59-3.82 3.4 3.4 0 0 1 3.41 3.65v.87zm0-1.45h3a1.43 1.43 0 0 0-1.46-1.41 1.49 1.49 0 0 0-1.53 1.42zM182.93 324.07h1.92v.64a2.52 2.52 0 0 1 1.89-.78 2.43 2.43 0 0 1 2.57 2.56v5h-1.92v-4.32c0-1.05-.5-1.45-1.16-1.45s-1.38.55-1.38 1.7v4.06h-1.92zM193.78 329.28c0 .36.16.63.82.63a4.75 4.75 0 0 0 1-.09l.17 1.69a15.35 15.35 0 0 1-1.76.13c-1.32 0-2.1-.58-2.1-1.89v-4h-1.33v-1.72h1.33V322l1.92-.51v2.61h1.95v1.72h-1.95z"/>
    </g>
    <g>
      <path class="cls-2" d="M46.31 160.59v-6.4h1.19v6.52a3.67 3.67 0 0 1-7.34 0v-6.52h1.21v6.4a2.48 2.48 0 1 0 4.94 0zM49.18 163.25l.71-.82a3.36 3.36 0 0 0 2.14.87c.81 0 1.42-.37 1.42-1.07s-.77-.94-1.73-1.19-2.2-.61-2.2-2.07c0-1.19 1.09-2.06 2.58-2.06a3.82 3.82 0 0 1 2.46.88l-.68.78a2.59 2.59 0 0 0-1.75-.68c-.94 0-1.41.41-1.41 1.05s.4.77 1 .94l1.16.34c1 .3 1.73.8 1.73 1.93 0 1.46-1.29 2.13-2.67 2.13a4.26 4.26 0 0 1-2.76-1.03zM57.21 160.95a2.23 2.23 0 0 0 2.2 2.3 2.84 2.84 0 0 0 1.86-.7l.6.84a4 4 0 0 1-2.51.88 3.35 3.35 0 0 1-3.36-3.68c0-2.16 1.26-3.69 3.22-3.69s3 1.55 3 3.68v.37zm0-.94H61c0-1.09-.65-2.09-1.77-2.09a2.06 2.06 0 0 0-2.01 2.08zM69.55 162.37c0 .47.09.87.91.87a6.12 6.12 0 0 0 .88-.09l.13 1a10.36 10.36 0 0 1-1.26.1c-1.12 0-1.82-.44-1.82-1.65v-4.56h-1.34v-1h1.33v-2.31l1.16-.41V157h2v1h-2zM73 154.19h1.16v3.66a2.44 2.44 0 0 1 2.07-1 2.26 2.26 0 0 1 2.37 2.41v4.81h-1.15v-4.44c0-1.25-.64-1.72-1.46-1.72a1.81 1.81 0 0 0-1.82 2v4.2H73zM81.35 154.19a.87.87 0 0 1 .85.87.86.86 0 1 1-1.72 0 .87.87 0 0 1 .87-.87zm.57 9.94h-1.17V157h1.16zM83.48 163.25l.71-.82a3.36 3.36 0 0 0 2.14.87c.81 0 1.42-.37 1.42-1.07S87 161.29 86 161s-2.2-.61-2.2-2.07c0-1.19 1.09-2.06 2.58-2.06a3.82 3.82 0 0 1 2.46.88l-.68.78a2.59 2.59 0 0 0-1.75-.68c-.94 0-1.41.41-1.41 1.05s.4.77 1 .94l1.16.34c1 .3 1.73.8 1.73 1.93 0 1.46-1.29 2.13-2.67 2.13a4.26 4.26 0 0 1-2.74-.99zM100.59 160.59c0 2.13-1.31 3.68-3.27 3.68s-3.27-1.55-3.27-3.68 1.31-3.69 3.27-3.69 3.27 1.53 3.27 3.69zm-1.21 0v-.09c0-1.42-.71-2.63-2.06-2.63s-2.06 1.21-2.06 2.63v.09c0 1.39.71 2.61 2.06 2.61s2.06-1.2 2.06-2.56zM103.57 157v.81a2.48 2.48 0 0 1 2.07-1c1.83 0 3 1.55 3 3.69s-1.18 3.68-3 3.68a2.48 2.48 0 0 1-2.07-1v3h-1.17V157zm3.88 3.51c0-1.48-.71-2.61-2-2.61a1.85 1.85 0 0 0-1.87 2.07v1.15a1.85 1.85 0 0 0 1.87 2.07c1.31 0 2-1.14 2-2.61zM112.14 162.37c0 .47.09.87.91.87a6.12 6.12 0 0 0 .88-.09l.13 1a10.36 10.36 0 0 1-1.26.1c-1.12 0-1.82-.44-1.82-1.65v-4.56h-1.33v-1H111v-2.31l1.16-.41V157h2v1h-2zM116.19 154.19a.87.87 0 0 1 .85.87.86.86 0 1 1-1.72 0 .87.87 0 0 1 .87-.87zm.57 9.94h-1.16V157h1.16zM125.05 160.59c0 2.13-1.31 3.68-3.27 3.68s-3.27-1.55-3.27-3.68 1.31-3.69 3.27-3.69 3.27 1.53 3.27 3.69zm-1.21 0v-.09c0-1.42-.71-2.63-2.06-2.63s-2.06 1.21-2.06 2.63v.09c0 1.39.71 2.61 2.06 2.61s2.06-1.2 2.06-2.56zM126.86 157H128v.81a2.44 2.44 0 0 1 2.07-1 2.26 2.26 0 0 1 2.37 2.41v4.81h-1.16v-4.44c0-1.25-.64-1.72-1.46-1.72a1.82 1.82 0 0 0-1.82 2v4.2h-1.16zM136.55 164.27a2.22 2.22 0 0 1-2.47-2.14 2 2 0 0 1 1.89-2l2.5-.34v-.45c0-1.08-.7-1.41-1.58-1.41a4.31 4.31 0 0 0-2 .55l-.44-.92a5.35 5.35 0 0 1 2.6-.65c1.72 0 2.63.77 2.63 2.26v3.31a1 1 0 0 0 .58 1l-.65.84a1.4 1.4 0 0 1-1-.85 2.63 2.63 0 0 1-2.06.8zm0-3.29c-.78.11-1.29.37-1.29 1.09a1.31 1.31 0 0 0 1.45 1.28c.87 0 1.75-.55 1.75-1.38v-1.28zM141.8 154.19h1.2v8.35c0 .47.14.71.68.71h.73l.11 1a11.29 11.29 0 0 1-1.18.09c-.84 0-1.5-.37-1.5-1.39zM150.62 157v.81a2.48 2.48 0 0 1 2.07-1c1.83 0 3 1.55 3 3.69s-1.18 3.68-3 3.68a2.48 2.48 0 0 1-2.07-1v3h-1.16V157zm3.88 3.51c0-1.48-.71-2.61-2-2.61a1.85 1.85 0 0 0-1.9 2.1v1.15a1.85 1.85 0 0 0 1.87 2.07c1.31 0 2-1.14 2-2.61zM159.49 164.27a2.22 2.22 0 0 1-2.47-2.14 2 2 0 0 1 1.89-2l2.5-.34v-.45c0-1.08-.7-1.41-1.58-1.41a4.31 4.31 0 0 0-2 .55l-.44-.92a5.35 5.35 0 0 1 2.6-.65c1.72 0 2.63.77 2.63 2.26v3.31a1 1 0 0 0 .58 1l-.65.84a1.4 1.4 0 0 1-1-.85 2.63 2.63 0 0 1-2.06.8zm0-3.29c-.78.11-1.29.37-1.29 1.09a1.31 1.31 0 0 0 1.45 1.28c.87 0 1.75-.55 1.75-1.38v-1.28zM168.41 158.08h-.18c-1.19 0-2.27.48-2.27 2.41v3.64h-1.16V157h1.2v1.12a2.21 2.21 0 0 1 2.12-1.25h.34zM171.91 164.27a2.22 2.22 0 0 1-2.47-2.14 2 2 0 0 1 1.89-2l2.5-.34v-.45c0-1.08-.7-1.41-1.58-1.41a4.31 4.31 0 0 0-2 .55l-.44-.92a5.35 5.35 0 0 1 2.6-.65c1.72 0 2.63.77 2.63 2.26v3.31a1 1 0 0 0 .58 1l-.65.84a1.4 1.4 0 0 1-1-.85 2.63 2.63 0 0 1-2.06.8zm0-3.29c-.78.11-1.29.37-1.29 1.09a1.31 1.31 0 0 0 1.45 1.28c.87 0 1.75-.55 1.75-1.38v-1.28zM179.57 156.9a2.4 2.4 0 0 1 2 1v-.9h1.17v7.14c0 1.76-1.55 2.27-3 2.27a6.14 6.14 0 0 1-2.63-.57l.4-1a5.76 5.76 0 0 0 2.26.5c1.19 0 1.85-.44 1.85-1.53v-1.35a2.4 2.4 0 0 1-2 1c-1.76 0-2.87-1.43-2.87-3.29s1.06-3.27 2.82-3.27zm2 3.27c0-1.26-.54-2.23-1.82-2.23s-1.87 1-1.87 2.23v.06c0 1.24.58 2.23 1.87 2.23s1.82-1 1.82-2.23zM188.54 158.08h-.18c-1.19 0-2.27.48-2.27 2.41v3.64h-1.16V157h1.16v1.12a2.21 2.21 0 0 1 2.12-1.25h.34zM192 164.27a2.22 2.22 0 0 1-2.47-2.14 2 2 0 0 1 1.89-2l2.5-.34v-.45c0-1.08-.7-1.41-1.58-1.41a4.31 4.31 0 0 0-2 .55l-.44-.92a5.35 5.35 0 0 1 2.6-.65c1.72 0 2.63.77 2.63 2.26v3.31a1 1 0 0 0 .58 1l-.65.84a1.4 1.4 0 0 1-1-.85 2.63 2.63 0 0 1-2.06.8zm0-3.29c-.78.11-1.29.37-1.29 1.09a1.31 1.31 0 0 0 1.45 1.28c.87 0 1.75-.55 1.75-1.38v-1.28zM198.5 157v.81a2.48 2.48 0 0 1 2.07-1c1.83 0 3 1.55 3 3.69s-1.18 3.68-3 3.68a2.48 2.48 0 0 1-2.07-1v3h-1.16V157zm3.88 3.51c0-1.48-.71-2.61-2-2.61a1.85 1.85 0 0 0-1.87 2.07v1.15a1.85 1.85 0 0 0 1.87 2.07c1.31 0 2-1.14 2-2.61zM205.4 154.19h1.16v3.66a2.44 2.44 0 0 1 2.07-1 2.26 2.26 0 0 1 2.37 2.41v4.81h-1.16v-4.44c0-1.25-.64-1.72-1.46-1.72a1.81 1.81 0 0 0-1.82 2v4.2h-1.16zM218.77 162.37c0 .47.09.87.91.87a6.14 6.14 0 0 0 .88-.09l.13 1a10.36 10.36 0 0 1-1.26.1c-1.12 0-1.82-.44-1.82-1.65v-4.56h-1.33v-1h1.33v-2.31l1.16-.41V157h2v1h-2zM228.2 160.59c0 2.13-1.31 3.68-3.27 3.68s-3.27-1.55-3.27-3.68 1.31-3.69 3.27-3.69 3.27 1.53 3.27 3.69zm-1.21 0v-.09c0-1.42-.71-2.63-2.06-2.63s-2.06 1.21-2.06 2.63v.09c0 1.39.71 2.61 2.06 2.61s2.07-1.2 2.07-2.56zM236.24 156.9a2.4 2.4 0 0 1 2 1v-.9h1.17v7.14c0 1.76-1.55 2.27-3 2.27a6.14 6.14 0 0 1-2.63-.57l.4-1a5.76 5.76 0 0 0 2.26.5c1.19 0 1.85-.44 1.85-1.53v-1.35a2.4 2.4 0 0 1-2 1c-1.76 0-2.87-1.43-2.87-3.29s1.06-3.27 2.82-3.27zm2 3.27c0-1.26-.54-2.23-1.82-2.23s-1.87 1-1.87 2.23v.06c0 1.24.58 2.23 1.87 2.23s1.82-1 1.82-2.23zM242.2 154.19a.87.87 0 0 1 .85.87.86.86 0 1 1-1.72 0 .87.87 0 0 1 .87-.87zm.57 9.94h-1.16V157h1.16zM246.48 164.13l-2.24-7.13h1.32l1.7 6 1.69-6h1.32l-2.27 7.13zM252.36 160.95a2.23 2.23 0 0 0 2.2 2.3 2.84 2.84 0 0 0 1.86-.7l.6.84a4 4 0 0 1-2.51.88 3.35 3.35 0 0 1-3.37-3.68c0-2.16 1.26-3.69 3.22-3.69s3 1.55 3 3.68v.37zm0-.94h3.75c0-1.09-.65-2.09-1.77-2.09a2.06 2.06 0 0 0-1.96 2.08zM262.09 157h1.32l1.75 5.85 1.66-5.85h1.31l-2.58 8.15a1.7 1.7 0 0 1-1.88 1.25 8.32 8.32 0 0 1-1.26-.11l.17-1a5.39 5.39 0 0 0 .94.1.8.8 0 0 0 .89-.71l.07-.33zM275.51 160.59c0 2.13-1.31 3.68-3.27 3.68s-3.27-1.55-3.27-3.68 1.31-3.69 3.27-3.69 3.27 1.53 3.27 3.69zm-1.21 0v-.09c0-1.42-.71-2.63-2.06-2.63s-2.06 1.21-2.06 2.63v.09c0 1.39.71 2.61 2.06 2.61s2.06-1.2 2.06-2.56zM282.86 164.13h-1.17v-.81a2.44 2.44 0 0 1-2.07 1 2.26 2.26 0 0 1-2.37-2.41V157h1.16v4.44c0 1.25.64 1.72 1.46 1.72a1.78 1.78 0 0 0 1.82-2V157h1.17zM288.66 158.08h-.18c-1.19 0-2.27.48-2.27 2.41v3.64H285V157h1.16v1.12a2.21 2.21 0 0 1 2.12-1.25h.34zM299.44 164.13h-1.17v-.81a2.44 2.44 0 0 1-2.07 1 2.26 2.26 0 0 1-2.37-2.41V157H295v4.44c0 1.25.64 1.72 1.46 1.72a1.78 1.78 0 0 0 1.82-2V157h1.17zM301 163.25l.71-.82a3.36 3.36 0 0 0 2.14.87c.81 0 1.42-.37 1.42-1.07s-.77-.94-1.73-1.19-2.2-.61-2.2-2.07c0-1.19 1.09-2.06 2.58-2.06a3.83 3.83 0 0 1 2.46.88l-.68.78a2.59 2.59 0 0 0-1.75-.68c-.94 0-1.41.41-1.41 1.05s.4.77 1 .94l1.16.34c1 .3 1.73.8 1.73 1.93 0 1.46-1.29 2.13-2.67 2.13a4.26 4.26 0 0 1-2.76-1.03zM309 160.95a2.23 2.23 0 0 0 2.2 2.3 2.84 2.84 0 0 0 1.86-.7l.6.84a4 4 0 0 1-2.51.88 3.35 3.35 0 0 1-3.37-3.68c0-2.16 1.26-3.69 3.22-3.69s3 1.55 3 3.68v.37zm0-.94h3.75c0-1.09-.65-2.09-1.77-2.09a2.06 2.06 0 0 0-1.92 2.08zM319.44 158.08h-.18c-1.19 0-2.27.48-2.27 2.41v3.64h-1.16V157H317v1.12a2.21 2.21 0 0 1 2.12-1.25h.34zM320.36 163.25l.71-.82a3.36 3.36 0 0 0 2.14.87c.81 0 1.42-.37 1.42-1.07s-.77-.94-1.73-1.19-2.2-.61-2.2-2.07c0-1.19 1.09-2.06 2.58-2.06a3.83 3.83 0 0 1 2.46.88l-.68.78a2.59 2.59 0 0 0-1.75-.68c-.94 0-1.41.41-1.41 1.05s.4.77 1 .94l1.16.34c1 .3 1.73.8 1.73 1.93 0 1.46-1.29 2.13-2.67 2.13a4.26 4.26 0 0 1-2.76-1.03zM336.68 164.13h-1.17v-4.46c0-1.26-.64-1.7-1.42-1.7s-1.56.6-1.56 2v4.19h-1.16V157h1.16v.81a2.18 2.18 0 0 1 1.86-1 2.1 2.1 0 0 1 1.92 1.18 2.43 2.43 0 0 1 2.16-1.18 2.28 2.28 0 0 1 2.39 2.37v4.86h-1.16v-4.46c0-1.26-.68-1.7-1.45-1.7s-1.56.6-1.56 2zM349.14 160.59c0 2.13-1.31 3.68-3.27 3.68s-3.27-1.55-3.27-3.68 1.31-3.69 3.27-3.69 3.27 1.53 3.27 3.69zm-1.21 0v-.09c0-1.42-.71-2.63-2.06-2.63s-2.06 1.21-2.06 2.63v.09c0 1.39.71 2.61 2.06 2.61s2.06-1.2 2.06-2.56zM354.57 158.08h-.18c-1.19 0-2.27.48-2.27 2.41v3.64h-1.16V157h1.16v1.12a2.21 2.21 0 0 1 2.12-1.25h.34zM356.74 160.95a2.23 2.23 0 0 0 2.2 2.3 2.84 2.84 0 0 0 1.86-.7l.6.84a4 4 0 0 1-2.51.88 3.35 3.35 0 0 1-3.37-3.68c0-2.16 1.26-3.69 3.22-3.69s3 1.55 3 3.68v.37zm0-.94h3.75c0-1.09-.65-2.09-1.77-2.09a2.06 2.06 0 0 0-1.97 2.08zM367.84 154.19a.87.87 0 0 1 .85.87.86.86 0 1 1-1.72 0 .87.87 0 0 1 .87-.87zm.57 9.94h-1.16V157h1.16zM370.58 157h1.16v.81a2.44 2.44 0 0 1 2.07-1 2.26 2.26 0 0 1 2.37 2.41v4.81H375v-4.44c0-1.25-.64-1.72-1.46-1.72a1.82 1.82 0 0 0-1.82 2v4.2h-1.16zM379.89 157h1.41v1h-1.41v6.06h-1.16V158h-1.18v-1h1.18v-1.32c0-1.22.82-1.66 1.95-1.66a6.62 6.62 0 0 1 1.14.1l-.09 1c-.27 0-.78-.06-1-.06-.67 0-.82.41-.82.85zM388.77 160.59c0 2.13-1.31 3.68-3.27 3.68s-3.27-1.55-3.27-3.68 1.31-3.69 3.27-3.69 3.27 1.53 3.27 3.69zm-1.21 0v-.09c0-1.42-.71-2.63-2.06-2.63s-2.06 1.21-2.06 2.63v.09c0 1.39.71 2.61 2.06 2.61s2.06-1.2 2.06-2.56zM394.2 158.08h-.2c-1.19 0-2.27.48-2.27 2.41v3.64h-1.16V157h1.16v1.12a2.21 2.21 0 0 1 2.12-1.25h.34zM401 164.13h-1.2v-4.46c0-1.26-.64-1.7-1.42-1.7s-1.56.6-1.56 2v4.19h-1.16V157h1.16v.81a2.18 2.18 0 0 1 1.86-1 2.1 2.1 0 0 1 1.92 1.18 2.43 2.43 0 0 1 2.16-1.18 2.28 2.28 0 0 1 2.39 2.37v4.86H404v-4.46c0-1.26-.68-1.7-1.45-1.7s-1.56.6-1.56 2zM409.23 164.27a2.22 2.22 0 0 1-2.47-2.14 2 2 0 0 1 1.89-2l2.5-.34v-.45c0-1.08-.7-1.41-1.58-1.41a4.31 4.31 0 0 0-2 .55l-.44-.92a5.35 5.35 0 0 1 2.6-.65c1.72 0 2.63.77 2.63 2.26v3.31a1 1 0 0 0 .58 1l-.65.84a1.4 1.4 0 0 1-1-.85 2.63 2.63 0 0 1-2.06.8zm0-3.29c-.78.11-1.29.37-1.29 1.09a1.31 1.31 0 0 0 1.45 1.28c.87 0 1.75-.55 1.75-1.38v-1.28zM416.23 162.37c0 .47.09.87.91.87a6.12 6.12 0 0 0 .88-.09l.13 1a10.36 10.36 0 0 1-1.26.1c-1.12 0-1.82-.44-1.82-1.65v-4.56h-1.33v-1h1.33v-2.31l1.16-.41V157h2v1h-2zM420.29 154.19a.87.87 0 0 1 .85.87.86.86 0 1 1-1.72 0 .87.87 0 0 1 .87-.87zm.57 9.94h-1.16V157h1.16zM429.14 160.59c0 2.13-1.31 3.68-3.27 3.68s-3.27-1.55-3.27-3.68 1.31-3.69 3.27-3.69 3.27 1.53 3.27 3.69zm-1.21 0v-.09c0-1.42-.71-2.63-2.06-2.63s-2.06 1.21-2.06 2.63v.09c0 1.39.71 2.61 2.06 2.61s2.07-1.2 2.07-2.56zM431 157h1.16v.81a2.44 2.44 0 0 1 2.07-1 2.26 2.26 0 0 1 2.37 2.41v4.81h-1.2v-4.44c0-1.25-.64-1.72-1.46-1.72a1.82 1.82 0 0 0-1.82 2v4.2H431zM439.58 162.37a1 1 0 1 1-1 1 1 1 0 0 1 1-1zM40.26 171.23h5.95v1.05h-4.73v3.27h4.34v1.05h-4.34v4.57h-1.22zM54 177.63c0 2.13-1.31 3.68-3.27 3.68s-3.27-1.55-3.27-3.68 1.31-3.69 3.27-3.69 3.27 1.53 3.27 3.69zm-1.21 0v-.09c0-1.42-.71-2.63-2.06-2.63s-2.06 1.21-2.06 2.63v.09c0 1.39.71 2.61 2.06 2.61s2.05-1.17 2.05-2.56zM59.42 175.12h-.18c-1.19 0-2.27.48-2.27 2.41v3.64H55.8v-7.09H57v1.12a2.21 2.21 0 0 1 2.08-1.2h.34zM65.44 178a2.23 2.23 0 0 0 2.2 2.3 2.84 2.84 0 0 0 1.86-.7l.6.84a4 4 0 0 1-2.51.88 3.35 3.35 0 0 1-3.37-3.68c0-2.16 1.26-3.69 3.22-3.69s3 1.55 3 3.68v.37zm0-.94h3.75c0-1.09-.65-2.09-1.77-2.09a2.06 2.06 0 0 0-1.96 2.08zM73.7 177.43l-2.17-3.35h1.33l1.52 2.44 1.45-2.44h1.35L75 177.43l2.46 3.73h-1.38l-1.78-2.75-1.62 2.75h-1.37zM80.74 181.31a2.22 2.22 0 0 1-2.47-2.14 2 2 0 0 1 1.89-2l2.5-.34v-.45c0-1.08-.7-1.41-1.58-1.41a4.31 4.31 0 0 0-2 .55l-.44-.92a5.35 5.35 0 0 1 2.6-.65c1.72 0 2.63.77 2.63 2.26v3.31a1 1 0 0 0 .58 1l-.65.84a1.4 1.4 0 0 1-1-.85 2.63 2.63 0 0 1-2.06.8zm0-3.29c-.78.11-1.29.37-1.29 1.09a1.31 1.31 0 0 0 1.45 1.28c.87 0 1.75-.55 1.75-1.38v-1.28zM91.35 181.17h-1.17v-4.46c0-1.26-.64-1.7-1.42-1.7s-1.56.6-1.56 2v4.19H86v-7.09h1.2v.81a2.18 2.18 0 0 1 1.86-1 2.1 2.1 0 0 1 1.94 1.2 2.43 2.43 0 0 1 2.16-1.18 2.28 2.28 0 0 1 2.39 2.37v4.86h-1.19v-4.46c0-1.26-.68-1.7-1.45-1.7s-1.56.6-1.56 2zM98.85 174.08v.81a2.48 2.48 0 0 1 2.07-1c1.83 0 3 1.55 3 3.69s-1.18 3.68-3 3.68a2.48 2.48 0 0 1-2.07-1v3h-1.16v-9.24zm3.88 3.51c0-1.48-.71-2.61-2-2.61a1.85 1.85 0 0 0-1.87 2.07v1.15a1.85 1.85 0 0 0 1.87 2.07c1.31 0 2-1.14 2-2.61zM105.73 171.23h1.16v8.35c0 .47.14.71.68.71h.73l.11 1a11.29 11.29 0 0 1-1.18.09c-.84 0-1.5-.37-1.5-1.39zM110.33 178a2.23 2.23 0 0 0 2.2 2.3 2.84 2.84 0 0 0 1.86-.7l.6.84a4 4 0 0 1-2.51.88 3.35 3.35 0 0 1-3.37-3.68c0-2.16 1.26-3.69 3.22-3.69s3 1.55 3 3.68v.37zm0-.94h3.75c0-1.09-.65-2.09-1.77-2.09a2.06 2.06 0 0 0-1.97 2.08zM118.86 180.64a1.67 1.67 0 0 1-1.66 1.8h-.2v-.53h.17c.37-.06.72-.18.72-.57h-.11a.91.91 0 0 1-.94-.92 1 1 0 0 1 1-1 1.12 1.12 0 0 1 1.02 1.22zM123.91 174.08h1.32l1.75 5.85 1.66-5.85H130l-2.58 8.15a1.7 1.7 0 0 1-1.88 1.25 8.32 8.32 0 0 1-1.26-.11l.17-1a5.39 5.39 0 0 0 .94.1.8.8 0 0 0 .89-.71l.07-.33zM137.34 177.63c0 2.13-1.31 3.68-3.27 3.68s-3.27-1.55-3.27-3.68 1.31-3.69 3.27-3.69 3.27 1.53 3.27 3.69zm-1.21 0v-.09c0-1.42-.71-2.63-2.06-2.63s-2.06 1.21-2.06 2.63v.09c0 1.39.71 2.61 2.06 2.61s2.06-1.17 2.06-2.56zM144.68 181.17h-1.17v-.81a2.44 2.44 0 0 1-2.07 1 2.26 2.26 0 0 1-2.37-2.41v-4.81h1.16v4.44c0 1.25.64 1.72 1.46 1.72a1.78 1.78 0 0 0 1.82-2v-4.2h1.17zM151.46 177.66c0 1.42.7 2.63 2.06 2.63a2 2 0 0 0 1.83-1.19l1 .55a3 3 0 0 1-2.8 1.66c-2 0-3.27-1.53-3.27-3.68s1.31-3.69 3.27-3.69a3 3 0 0 1 2.8 1.66l-1 .55a2 2 0 0 0-1.83-1.19c-1.36 0-2.06 1.21-2.06 2.63zM164 177.63c0 2.13-1.31 3.68-3.27 3.68s-3.27-1.55-3.27-3.68 1.31-3.69 3.27-3.69 3.27 1.53 3.27 3.69zm-1.21 0v-.09c0-1.42-.71-2.63-2.06-2.63s-2.06 1.21-2.06 2.63v.09c0 1.39.71 2.61 2.06 2.61s2.1-1.17 2.1-2.56zM171.38 181.17h-1.17v-.81a2.44 2.44 0 0 1-2.07 1 2.26 2.26 0 0 1-2.37-2.41v-4.81h1.16v4.44c0 1.25.64 1.72 1.46 1.72a1.78 1.78 0 0 0 1.82-2v-4.2h1.17zM173.55 171.23h1.16v8.35c0 .47.14.71.68.71h.73l.11 1a11.29 11.29 0 0 1-1.18.09c-.84 0-1.5-.37-1.5-1.39zM182 180.36a2.48 2.48 0 0 1-2.07 1c-1.83 0-3-1.53-3-3.68s1.18-3.69 3-3.69a2.48 2.48 0 0 1 2.07 1v-3.66h1.17v9.94H182zm-3.88-2.7c0 1.48.71 2.61 2 2.61a1.85 1.85 0 0 0 1.87-2.07v-1.15a1.85 1.85 0 0 0-1.87-2.07c-1.31 0-2 1.14-2 2.61zM191 179.41c0 .47.09.87.91.87a6.14 6.14 0 0 0 .88-.09l.13 1a10.36 10.36 0 0 1-1.26.1c-1.12 0-1.82-.44-1.82-1.65v-4.54h-1.33v-1h1.33v-2.31l1.16-.41v2.73h2v1h-2zM195.17 178a2.23 2.23 0 0 0 2.2 2.3 2.84 2.84 0 0 0 1.86-.7l.6.84a4 4 0 0 1-2.51.88 3.35 3.35 0 0 1-3.37-3.68c0-2.16 1.26-3.69 3.22-3.69s3 1.55 3 3.68v.37zm0-.94h3.75c0-1.09-.65-2.09-1.77-2.09a2.06 2.06 0 0 0-1.97 2.08zM201.9 171.23h1.16v8.35c0 .47.14.71.68.71h.73l.11 1a11.29 11.29 0 0 1-1.18.09c-.84 0-1.5-.37-1.5-1.39zM205.83 171.23H207v8.35c0 .47.14.71.68.71h.73l.11 1a11.29 11.29 0 0 1-1.18.09c-.84 0-1.5-.37-1.5-1.39zM215.31 179.41c0 .47.09.87.91.87a6.12 6.12 0 0 0 .88-.09l.13 1a10.36 10.36 0 0 1-1.26.1c-1.12 0-1.82-.44-1.82-1.65v-4.54h-1.33v-1h1.33v-2.31l1.16-.41v2.73h2v1h-2zM218.78 171.23h1.16v3.66a2.44 2.44 0 0 1 2.07-1 2.26 2.26 0 0 1 2.37 2.41v4.81h-1.16v-4.44c0-1.25-.64-1.72-1.46-1.72a1.81 1.81 0 0 0-1.82 2v4.2h-1.16zM227.37 178a2.23 2.23 0 0 0 2.2 2.3 2.84 2.84 0 0 0 1.86-.7l.6.84a4 4 0 0 1-2.51.88 3.35 3.35 0 0 1-3.37-3.68c0-2.16 1.26-3.69 3.22-3.69s3 1.55 3 3.68v.37zm0-.94h3.75c0-1.09-.65-2.09-1.77-2.09a2.06 2.06 0 0 0-1.97 2.08zM239.45 181.17h-1.17v-4.46c0-1.26-.64-1.7-1.42-1.7s-1.56.6-1.56 2v4.19h-1.16v-7.09h1.16v.81a2.18 2.18 0 0 1 1.86-1 2.1 2.1 0 0 1 1.92 1.18 2.43 2.43 0 0 1 2.16-1.18 2.28 2.28 0 0 1 2.39 2.37v4.86h-1.16v-4.46c0-1.26-.68-1.7-1.45-1.7s-1.56.6-1.56 2zM249.56 171.23h1.16v3.66a2.44 2.44 0 0 1 2.07-1 2.26 2.26 0 0 1 2.37 2.41v4.81H254v-4.44c0-1.25-.64-1.72-1.46-1.72a1.81 1.81 0 0 0-1.82 2v4.2h-1.16zM263.47 177.63c0 2.13-1.31 3.68-3.27 3.68s-3.27-1.55-3.27-3.68 1.31-3.69 3.27-3.69 3.27 1.53 3.27 3.69zm-1.21 0v-.09c0-1.42-.71-2.63-2.06-2.63s-2.06 1.21-2.06 2.63v.09c0 1.39.71 2.61 2.06 2.61s2.06-1.17 2.06-2.56zM271.24 179.79l1.28-5.71h1.24l-1.76 7.09h-1.49l-1.43-5.68-1.46 5.68h-1.42l-1.72-7.09h1.25l1.24 5.71 1.49-5.71h1.32zM279.08 171.23h1.16v8.35c0 .47.14.71.68.71h.73l.11 1a11.29 11.29 0 0 1-1.18.09c-.84 0-1.5-.37-1.5-1.39zM289 177.63c0 2.13-1.31 3.68-3.27 3.68s-3.27-1.55-3.27-3.68 1.31-3.69 3.27-3.69 3.27 1.53 3.27 3.69zm-1.21 0v-.09c0-1.42-.71-2.63-2.06-2.63s-2.06 1.21-2.06 2.63v.09c0 1.39.71 2.61 2.06 2.61s2.05-1.17 2.05-2.56zM290.8 174.08h1.2v.81a2.44 2.44 0 0 1 2.07-1 2.26 2.26 0 0 1 2.37 2.41v4.81h-1.16v-4.44c0-1.25-.64-1.72-1.46-1.72a1.82 1.82 0 0 0-1.82 2v4.2h-1.2zM301 173.94a2.4 2.4 0 0 1 2 1v-.81h1.17v7.14c0 1.76-1.55 2.27-3 2.27a6.14 6.14 0 0 1-2.63-.57l.4-1a5.76 5.76 0 0 0 2.26.5c1.19 0 1.85-.44 1.85-1.53v-1.35a2.4 2.4 0 0 1-2 1c-1.76 0-2.87-1.43-2.87-3.29s1.07-3.36 2.82-3.36zm2 3.27c0-1.26-.54-2.23-1.82-2.23s-1.87 1-1.87 2.23v.06c0 1.24.58 2.23 1.87 2.23s1.82-1 1.82-2.23zM310.76 171.23a.87.87 0 0 1 .85.87.86.86 0 1 1-1.72 0 .87.87 0 0 1 .87-.87zm.57 9.94h-1.16v-7.09h1.16zM315.32 179.41c0 .47.09.87.91.87a6.14 6.14 0 0 0 .88-.09l.13 1a10.36 10.36 0 0 1-1.26.1c-1.12 0-1.82-.44-1.82-1.65v-4.54h-1.33v-1h1.33v-2.31l1.16-.41v2.73h2v1h-2zM324.43 179.41c0 .47.09.87.91.87a6.12 6.12 0 0 0 .88-.09l.13 1a10.36 10.36 0 0 1-1.26.1c-1.12 0-1.82-.44-1.82-1.65v-4.54h-1.33v-1h1.33v-2.31l1.16-.41v2.73h2v1h-2zM329.93 181.31a2.22 2.22 0 0 1-2.47-2.14 2 2 0 0 1 1.89-2l2.5-.34v-.45c0-1.08-.7-1.41-1.58-1.41a4.31 4.31 0 0 0-2 .55l-.44-.92a5.35 5.35 0 0 1 2.6-.65c1.72 0 2.63.77 2.63 2.26v3.31a1 1 0 0 0 .58 1l-.65.84a1.4 1.4 0 0 1-1-.85 2.63 2.63 0 0 1-2.06.8zm0-3.29c-.78.11-1.29.37-1.29 1.09a1.31 1.31 0 0 0 1.45 1.28c.87 0 1.75-.55 1.75-1.38v-1.28zM336.39 177.56l3.34-3.48h1.46l-2.7 2.81 2.83 4.27h-1.42l-2.23-3.49-1.28 1.33v2.19h-1.16v-9.94h1.16zM343.18 178a2.23 2.23 0 0 0 2.2 2.3 2.84 2.84 0 0 0 1.86-.7l.6.84a4 4 0 0 1-2.51.88 3.35 3.35 0 0 1-3.37-3.68c0-2.16 1.26-3.69 3.22-3.69s3 1.55 3 3.68v.37zm0-.94h3.75c0-1.09-.65-2.09-1.77-2.09a2.06 2.06 0 0 0-1.97 2.08zM349.3 180.29l.71-.82a3.36 3.36 0 0 0 2.14.87c.81 0 1.42-.37 1.42-1.07s-.77-.94-1.73-1.19-2.2-.61-2.2-2.07c0-1.19 1.09-2.06 2.58-2.06a3.83 3.83 0 0 1 2.46.88l-.68.78a2.59 2.59 0 0 0-1.75-.68c-.94 0-1.41.41-1.41 1.05s.4.77 1 .94l1.16.34c1 .3 1.73.8 1.73 1.93 0 1.46-1.29 2.13-2.67 2.13a4.26 4.26 0 0 1-2.76-1.03zM362 174.08h1.41v1H362v6.06h-1.2v-6.04h-1.18v-1h1.18v-1.32c0-1.22.82-1.66 1.95-1.66a6.62 6.62 0 0 1 1.14.1l-.09 1c-.27 0-.78-.06-1-.06-.67 0-.82.41-.82.85zM370.84 177.63c0 2.13-1.31 3.68-3.27 3.68s-3.27-1.55-3.27-3.68 1.31-3.69 3.27-3.69 3.27 1.53 3.27 3.69zm-1.21 0v-.09c0-1.42-.71-2.63-2.06-2.63s-2.06 1.21-2.06 2.63v.09c0 1.39.71 2.61 2.06 2.61s2.06-1.17 2.06-2.56zM376.27 175.12h-.18c-1.19 0-2.27.48-2.27 2.41v3.64h-1.16v-7.09h1.16v1.12a2.21 2.21 0 0 1 2.12-1.25h.34zM383.33 179.41c0 .47.09.87.91.87a6.12 6.12 0 0 0 .88-.09l.13 1a10.36 10.36 0 0 1-1.26.1c-1.12 0-1.82-.44-1.82-1.65v-4.54h-1.33v-1h1.33v-2.31l1.16-.41v2.73h2v1h-2zM386.79 171.23H388v3.66a2.44 2.44 0 0 1 2.07-1 2.26 2.26 0 0 1 2.37 2.41v4.81h-1.16v-4.44c0-1.25-.64-1.72-1.46-1.72a1.81 1.81 0 0 0-1.82 2v4.2h-1.16zM395.38 178a2.23 2.23 0 0 0 2.2 2.3 2.84 2.84 0 0 0 1.86-.7l.6.84a4 4 0 0 1-2.51.88 3.35 3.35 0 0 1-3.37-3.68c0-2.16 1.26-3.69 3.22-3.69s3 1.55 3 3.68v.37zm0-.94h3.75c0-1.09-.65-2.09-1.77-2.09a2.06 2.06 0 0 0-1.96 2.08zM402.73 171.23a.87.87 0 0 1 .85.87.86.86 0 1 1-1.72 0 .87.87 0 0 1 .87-.87zm.57 9.94h-1.16v-7.09h1.16zM409.09 175.12h-.18c-1.19 0-2.27.48-2.27 2.41v3.64h-1.16v-7.09h1.16v1.12a2.21 2.21 0 0 1 2.12-1.25h.34zM41.91 198.35a2.22 2.22 0 0 1-2.47-2.14 2 2 0 0 1 1.89-2l2.5-.34v-.45c0-1.08-.7-1.41-1.58-1.41a4.31 4.31 0 0 0-2 .55l-.44-.92a5.35 5.35 0 0 1 2.6-.65c1.72 0 2.63.77 2.63 2.26v3.31a1 1 0 0 0 .58 1l-.65.84a1.4 1.4 0 0 1-1-.85 2.63 2.63 0 0 1-2.06.8zm0-3.29c-.78.11-1.29.37-1.29 1.09a1.31 1.31 0 0 0 1.45 1.28c.87 0 1.75-.55 1.75-1.38v-1.28zM48.37 191.12v.81a2.48 2.48 0 0 1 2.07-1c1.83 0 3 1.55 3 3.69s-1.18 3.68-3 3.68a2.48 2.48 0 0 1-2.07-1v3H47.2v-9.24zm3.88 3.51c0-1.48-.71-2.61-2-2.61a1.85 1.85 0 0 0-1.87 2.07v1.15a1.85 1.85 0 0 0 1.87 2.07c1.31 0 2-1.14 2-2.61zM56.43 191.12v.81a2.48 2.48 0 0 1 2.07-1c1.83 0 3 1.55 3 3.69s-1.18 3.68-3 3.68a2.48 2.48 0 0 1-2.07-1v3h-1.16v-9.24zm3.88 3.51c0-1.48-.71-2.61-2-2.61a1.85 1.85 0 0 0-1.87 2.07v1.15a1.85 1.85 0 0 0 1.87 2.07c1.31 0 2-1.14 2-2.61zM63.31 188.27h1.16v8.35c0 .47.14.71.68.71h.73l.11 1a11.29 11.29 0 0 1-1.18.09c-.84 0-1.5-.37-1.5-1.39zM67.91 188.27a.87.87 0 0 1 .85.87.86.86 0 1 1-1.72 0 .87.87 0 0 1 .87-.87zm.57 9.94h-1.17v-7.09h1.16zM71.44 194.7c0 1.42.7 2.63 2.06 2.63a2 2 0 0 0 1.83-1.19l1 .55a3 3 0 0 1-2.8 1.66c-2 0-3.27-1.53-3.27-3.68S71.54 191 73.5 191a3 3 0 0 1 2.8 1.66l-1 .55a2 2 0 0 0-1.8-1.21c-1.36 0-2.06 1.21-2.06 2.63zM80.08 198.35a2.22 2.22 0 0 1-2.47-2.14 2 2 0 0 1 1.89-2l2.5-.34v-.45c0-1.08-.7-1.41-1.58-1.41a4.31 4.31 0 0 0-2 .55l-.44-.92a5.35 5.35 0 0 1 2.6-.65c1.72 0 2.63.77 2.63 2.26v3.31a1 1 0 0 0 .58 1l-.65.84a1.4 1.4 0 0 1-1-.85 2.63 2.63 0 0 1-2.06.8zm0-3.29c-.78.11-1.29.37-1.29 1.09a1.31 1.31 0 0 0 1.45 1.28c.87 0 1.75-.55 1.75-1.38v-1.28zM87.08 196.45c0 .47.09.87.91.87a6.12 6.12 0 0 0 .88-.09l.13 1a10.36 10.36 0 0 1-1.26.1c-1.12 0-1.82-.44-1.82-1.65v-4.56h-1.34v-1h1.33v-2.31l1.16-.41v2.73h2v1h-2zM91.14 188.27a.87.87 0 0 1 .85.87.86.86 0 1 1-1.72 0 .87.87 0 0 1 .87-.87zm.57 9.94h-1.17v-7.09h1.16zM100 194.67c0 2.13-1.31 3.68-3.27 3.68s-3.27-1.55-3.27-3.68 1.31-3.67 3.27-3.67 3.27 1.51 3.27 3.67zm-1.21 0v-.09c0-1.42-.71-2.63-2.06-2.63s-2.06 1.21-2.06 2.63v.09c0 1.39.71 2.61 2.06 2.61s2.05-1.17 2.05-2.56zM101.8 191.12h1.2v.81a2.44 2.44 0 0 1 2.07-1 2.26 2.26 0 0 1 2.37 2.41v4.81h-1.16v-4.44c0-1.25-.64-1.72-1.46-1.72a1.82 1.82 0 0 0-1.82 2v4.2h-1.2zM115.18 196.45c0 .47.09.87.91.87a6.14 6.14 0 0 0 .88-.09l.13 1a10.36 10.36 0 0 1-1.26.1c-1.12 0-1.82-.44-1.82-1.65v-4.56h-1.33v-1H114v-2.31l1.16-.41v2.73h2v1h-2zM124.61 194.67c0 2.13-1.31 3.68-3.27 3.68s-3.27-1.55-3.27-3.68 1.31-3.69 3.27-3.69 3.27 1.53 3.27 3.69zm-1.21 0v-.09c0-1.42-.71-2.63-2.06-2.63s-2.06 1.21-2.06 2.63v.09c0 1.39.71 2.61 2.06 2.61s2.06-1.17 2.06-2.56zM131.34 198.21h-1.16v-9.94h1.16v3.66a2.48 2.48 0 0 1 2.07-1c1.83 0 3 1.55 3 3.69s-1.18 3.68-3 3.68a2.48 2.48 0 0 1-2.07-1zm3.88-3.58c0-1.48-.71-2.61-2-2.61a1.85 1.85 0 0 0-1.87 2.07v1.15a1.85 1.85 0 0 0 1.87 2.07c1.31 0 2-1.14 2-2.61zM139.1 195a2.23 2.23 0 0 0 2.2 2.3 2.84 2.84 0 0 0 1.86-.7l.6.84a4 4 0 0 1-2.51.88 3.35 3.35 0 0 1-3.37-3.68c0-2.16 1.26-3.69 3.22-3.69s3 1.55 3 3.68v.37zm0-.94h3.75c0-1.09-.65-2.09-1.77-2.09a2.06 2.06 0 0 0-1.96 2.12zM150.77 191.12v.81a2.48 2.48 0 0 1 2.07-1c1.83 0 3 1.55 3 3.69s-1.18 3.68-3 3.68a2.48 2.48 0 0 1-2.07-1v3h-1.16v-9.24zm3.88 3.51c0-1.48-.71-2.61-2-2.61a1.85 1.85 0 0 0-1.87 2.07v1.15a1.85 1.85 0 0 0 1.87 2.07c1.31 0 2-1.14 2-2.61zM161.3 192.16h-.18c-1.19 0-2.27.48-2.27 2.41v3.64h-1.16v-7.09h1.16v1.12A2.21 2.21 0 0 1 161 191h.34zM168.77 194.67c0 2.13-1.31 3.68-3.27 3.68s-3.27-1.55-3.27-3.68 1.31-3.69 3.27-3.69 3.27 1.53 3.27 3.69zm-1.21 0v-.09c0-1.42-.71-2.63-2.06-2.63s-2.06 1.21-2.06 2.63v.09c0 1.39.71 2.61 2.06 2.61s2.06-1.17 2.06-2.56zM171.4 194.7c0 1.42.7 2.63 2.06 2.63a2 2 0 0 0 1.83-1.19l1 .55a3 3 0 0 1-2.8 1.66c-2 0-3.27-1.53-3.27-3.68s1.31-3.69 3.27-3.69a3 3 0 0 1 2.8 1.66l-1 .55a2 2 0 0 0-1.83-1.19c-1.36 0-2.06 1.21-2.06 2.63zM178.67 195a2.23 2.23 0 0 0 2.2 2.3 2.84 2.84 0 0 0 1.86-.7l.6.84a4 4 0 0 1-2.51.88 3.35 3.35 0 0 1-3.37-3.68c0-2.16 1.26-3.69 3.22-3.69s3 1.55 3 3.68v.37zm0-.94h3.75c0-1.09-.65-2.09-1.77-2.09a2.06 2.06 0 0 0-1.97 2.12zM184.79 197.33l.71-.82a3.36 3.36 0 0 0 2.14.87c.81 0 1.42-.37 1.42-1.07s-.77-.94-1.73-1.19-2.2-.61-2.2-2.07c0-1.19 1.09-2.06 2.58-2.06a3.83 3.83 0 0 1 2.46.88l-.68.78a2.59 2.59 0 0 0-1.75-.68c-.94 0-1.41.41-1.41 1.05s.4.77 1 .94l1.16.34c1 .3 1.73.8 1.73 1.93 0 1.46-1.29 2.13-2.67 2.13a4.26 4.26 0 0 1-2.76-1.03zM191.48 197.33l.71-.82a3.36 3.36 0 0 0 2.14.87c.81 0 1.42-.37 1.42-1.07s-.77-.94-1.73-1.19-2.2-.61-2.2-2.07c0-1.19 1.09-2.06 2.58-2.06a3.82 3.82 0 0 1 2.46.88l-.68.78a2.59 2.59 0 0 0-1.75-.68c-.94 0-1.41.41-1.41 1.05s.4.77 1 .94l1.16.34c1 .3 1.73.8 1.73 1.93 0 1.46-1.29 2.13-2.67 2.13a4.26 4.26 0 0 1-2.76-1.03zM199.51 195a2.23 2.23 0 0 0 2.2 2.3 2.84 2.84 0 0 0 1.86-.7l.6.84a4 4 0 0 1-2.51.88 3.35 3.35 0 0 1-3.37-3.68c0-2.16 1.26-3.69 3.22-3.69s3 1.55 3 3.68v.37zm0-.94h3.75c0-1.09-.65-2.09-1.77-2.09a2.06 2.06 0 0 0-1.97 2.12zM211 197.4a2.48 2.48 0 0 1-2.07 1c-1.83 0-3-1.53-3-3.68s1.18-3.69 3-3.69a2.48 2.48 0 0 1 2.07 1v-3.66h1.17v9.94H211zm-3.88-2.7c0 1.48.71 2.61 2 2.61a1.85 1.85 0 0 0 1.87-2.07v-1.15a1.85 1.85 0 0 0-1.87-2.07c-1.31 0-2 1.14-2 2.61zM215.22 196.45a1 1 0 1 1-1 1 1 1 0 0 1 1-1z"/>
    </g>
    <g>
      <path class="cls-2" d="M40.22 230.44h8.47v2.3h-5.92v2.67h5.45v2.3h-5.45v3H49V243h-8.78zM50.84 233.62h2.42v.81a3.18 3.18 0 0 1 2.39-1 3.07 3.07 0 0 1 3.25 3.23V243h-2.42v-5.45c0-1.33-.63-1.83-1.47-1.83s-1.74.7-1.74 2.15V243h-2.43zM64.55 240.2c0 .45.2.79 1 .79a6 6 0 0 0 1.2-.11L67 243a19.36 19.36 0 0 1-2.22.16c-1.67 0-2.65-.74-2.65-2.39v-5h-1.69v-2.17h1.69V231l2.42-.65v3.3H67v2.17h-2.45zM70.74 239.14A2.21 2.21 0 0 0 73 241a3.37 3.37 0 0 0 2.37-.88l1.2 1.83a5.61 5.61 0 0 1-3.64 1.26 4.56 4.56 0 0 1-4.72-4.81v-.11a4.54 4.54 0 0 1 4.54-4.83 4.3 4.3 0 0 1 4.32 4.54v1.09zm0-1.83h3.78a1.8 1.8 0 0 0-1.85-1.78 1.88 1.88 0 0 0-1.92 1.78zM84.24 236h-.43c-1.38 0-2.6.47-2.6 2.48V243h-2.42v-9.38h2.42v1.06a2.91 2.91 0 0 1 2.49-1.22h.54zM92.8 240.2c0 .45.2.79 1 .79a6 6 0 0 0 1.2-.11l.21 2.13a19.36 19.36 0 0 1-2.22.16c-1.67 0-2.65-.74-2.65-2.39v-5h-1.65v-2.17h1.69V231l2.42-.65v3.3h2.46v2.17H92.8zM97 230.44h2.42v4a3.18 3.18 0 0 1 2.39-1 3.07 3.07 0 0 1 3.25 3.23V243h-2.42v-5.45c0-1.33-.63-1.83-1.47-1.83s-1.74.7-1.74 2.15V243H97zM109.23 239.14a2.21 2.21 0 0 0 2.27 1.86 3.37 3.37 0 0 0 2.37-.88l1.2 1.83a5.61 5.61 0 0 1-3.64 1.26 4.56 4.56 0 0 1-4.72-4.81v-.11a4.54 4.54 0 0 1 4.54-4.83 4.3 4.3 0 0 1 4.31 4.61v1.09zm0-1.83H113a1.8 1.8 0 0 0-1.85-1.78 1.88 1.88 0 0 0-1.91 1.78zM124.08 243.18a3 3 0 0 1-3.25-2.94 2.71 2.71 0 0 1 2.64-2.74l2.85-.39v-.3c0-.83-.56-1.2-1.47-1.2a6.32 6.32 0 0 0-2.76.75l-1-1.87a7.93 7.93 0 0 1 3.8-1c1.72 0 3.8.47 3.8 3v4c0 .56.3.75.81 1l-1.09 1.74a2.13 2.13 0 0 1-1.76-1.06 3.24 3.24 0 0 1-2.57 1.01zm.29-4c-.59.09-1 .43-1 1a1.14 1.14 0 0 0 1.27 1.09 1.57 1.57 0 0 0 1.67-1.72v-.65zM138.91 243h-2.42v-5.45c0-1.35-.63-1.81-1.42-1.81s-1.65.65-1.65 2.15V243H131v-9.38h2.42v.83a3.14 3.14 0 0 1 2.4-1 2.71 2.71 0 0 1 2.42 1.27 3.31 3.31 0 0 1 2.83-1.27 3.14 3.14 0 0 1 3.34 3.16V243H142v-5.45c0-1.35-.63-1.81-1.42-1.81s-1.65.65-1.65 2.15zM155.34 238.32a4.62 4.62 0 1 1-9.22 0 4.62 4.62 0 1 1 9.22 0zm-2.48 0c0-1.52-.75-2.62-2.13-2.62s-2.12 1.09-2.13 2.62c0 1.52.75 2.62 2.13 2.62s2.12-1.09 2.13-2.62zM165.1 243h-2.42v-.81a3.18 3.18 0 0 1-2.39 1 3.07 3.07 0 0 1-3.25-3.23v-6.33h2.42v5.45c0 1.33.63 1.83 1.47 1.83s1.74-.7 1.74-2.15v-5.13h2.42zM167.36 233.62h2.42v.81a3.18 3.18 0 0 1 2.39-1 3.07 3.07 0 0 1 3.25 3.23V243H173v-5.45c0-1.33-.63-1.83-1.47-1.83s-1.74.7-1.74 2.15V243h-2.42zM181.06 240.2c0 .45.2.79 1 .79a6 6 0 0 0 1.2-.11l.21 2.13a19.36 19.36 0 0 1-2.22.16c-1.67 0-2.65-.74-2.65-2.39v-5H177v-2.17h1.69V231l2.42-.65v3.3h2.46v2.17h-2.46zM191.21 243.37l.07-.3h-.18l-2.89-9.45h2.69l1.72 6.49 1.69-6.49H197l-3.23 10.76c-.41 1.4-1.51 1.78-2.92 1.78a15.94 15.94 0 0 1-2.21-.18l.5-2.13a8.71 8.71 0 0 0 1.29.11.71.71 0 0 0 .78-.59zM206.87 238.32a4.62 4.62 0 1 1-9.22 0 4.62 4.62 0 1 1 9.22 0zm-2.48 0c0-1.52-.75-2.62-2.13-2.62s-2.12 1.09-2.13 2.62c0 1.52.75 2.62 2.13 2.62s2.12-1.09 2.13-2.62zM216.63 243h-2.42v-.81a3.18 3.18 0 0 1-2.39 1 3.07 3.07 0 0 1-3.25-3.23v-6.33H211v5.45c0 1.33.63 1.83 1.47 1.83s1.74-.7 1.74-2.15v-5.13h2.42zM231.73 239.93l1.15-6.31h2.57l-2.17 9.38h-2.87l-1.4-6.1-1.49 6.1h-2.83l-2.17-9.38h2.64l1.11 6.31 1.63-6.31h2.31zM239.59 243.18a3 3 0 0 1-3.25-2.94 2.72 2.72 0 0 1 2.64-2.74l2.85-.39v-.3c0-.83-.56-1.2-1.47-1.2a6.32 6.32 0 0 0-2.76.75l-1-1.87a7.93 7.93 0 0 1 3.8-1c1.72 0 3.8.47 3.8 3v4c0 .56.3.75.81 1l-1.01 1.69a2.13 2.13 0 0 1-1.76-1.06 3.24 3.24 0 0 1-2.65 1.06zm.29-4c-.59.09-1 .43-1 1a1.14 1.14 0 0 0 1.27 1.09 1.57 1.57 0 0 0 1.67-1.72v-.65zM246.51 233.62h2.42v.81a3.18 3.18 0 0 1 2.39-1 3.07 3.07 0 0 1 3.25 3.23V243h-2.42v-5.45c0-1.33-.63-1.83-1.47-1.83s-1.74.7-1.74 2.15V243h-2.42zM260.22 240.2c0 .45.2.79 1 .79a6 6 0 0 0 1.2-.11l.21 2.13a19.36 19.36 0 0 1-2.22.16c-1.67 0-2.65-.74-2.65-2.39v-5h-1.69v-2.17h1.69V231l2.42-.65v3.3h2.46v2.17h-2.46zM271.8 240.2c0 .45.2.79 1 .79a6 6 0 0 0 1.2-.11l.21 2.13a19.36 19.36 0 0 1-2.22.16c-1.67 0-2.65-.74-2.65-2.39v-5h-1.69v-2.17h1.69V231l2.42-.65v3.3h2.46v2.17h-2.42zM284.7 238.32a4.62 4.62 0 1 1-9.22 0 4.62 4.62 0 1 1 9.22 0zm-2.48 0c0-1.52-.75-2.62-2.13-2.62s-2.09 1.07-2.09 2.6c0 1.52.75 2.62 2.13 2.62s2.12-1.09 2.13-2.62zM293.24 233.62v.81a3.1 3.1 0 0 1 2.37-1c2.48 0 4.13 2 4.13 4.83v.09c0 2.78-1.7 4.83-4.18 4.83a3 3 0 0 1-2.31-1V246h-2.42v-12.38zm-.07 5.56a1.77 1.77 0 0 0 1.94 1.76c1.38 0 2.13-1.09 2.13-2.58v-.09c0-1.49-.75-2.58-2.13-2.58a1.77 1.77 0 0 0-1.94 1.76zM304.21 243.18a3 3 0 0 1-3.25-2.94 2.72 2.72 0 0 1 2.64-2.74l2.85-.39v-.3c0-.83-.56-1.2-1.47-1.2a6.32 6.32 0 0 0-2.76.75l-1-1.87a7.93 7.93 0 0 1 3.8-1c1.72 0 3.8.47 3.8 3v4c0 .56.3.75.81 1l-1.09 1.74a2.13 2.13 0 0 1-1.76-1.06 3.24 3.24 0 0 1-2.57 1.01zm.29-4c-.59.09-1 .43-1 1a1.14 1.14 0 0 0 1.27 1.09 1.57 1.57 0 0 0 1.67-1.72v-.65zM313 243.37l.07-.3h-.18l-2.89-9.45h2.69l1.72 6.49 1.69-6.49h2.65l-3.23 10.76c-.41 1.4-1.51 1.78-2.92 1.78a15.94 15.94 0 0 1-2.21-.18l.5-2.13a8.71 8.71 0 0 0 1.29.11.71.71 0 0 0 .82-.59z"/>
    </g>
    <path class="cls-2" d="M166.75 263v26.9H41.63V263h125.12m1.49-1.49H40.14v29.9h128.11V261.5z"/>
    <path class="cls-2" d="M55.25 272.28a2.46 2.46 0 0 0-2.15-1.11 2.36 2.36 0 0 0-2.3 2.64v2h2.92v1.33H50.8v4.11h5.61v1.33h-8.07v-1.33h.93v-4.15h-.93v-1.33h.93v-1.94c0-2.51 1.51-4 3.8-4a3.92 3.92 0 0 1 3.41 1.56z"/>
    <path class="cls-3" d="M0 29.9V10A10 10 0 0 1 10 0h603.65a10 10 0 0 1 10 10v19.9"/>
    <g>
      <circle class="cls-1" cx="18.97" cy="14.95" r="6.35"/>
      <circle class="cls-1" cx="36.72" cy="14.95" r="6.35"/>
      <circle class="cls-1" cx="54.47" cy="14.95" r="6.35"/>
    </g>
    <path class="cls-3" d="M0 386.35h623.65v2.99H0z"/>
    <path class="cls-3" d="M2.99 389.34V29.89h617.67v359.45h2.99V26.91H0v362.43h2.99z"/>
    <path class="cls-1" d="M379.73 132.83h620.85v326.32H379.73z"/>
    <g>
      <path class="cls-2" d="M377.49 88.45h619.63v48.58H377.49z"/>
      <path class="cls-1" d="M576.29 103.2l-8 9.7v-9.7h-4.53v22.4h4.53v-6.81l2.89-3.23 5.92 10.04h5.27l-8.28-13.5 7.78-8.9h-5.58zM548.37 121.53a4 4 0 0 1-1.47-.87 4.12 4.12 0 0 1-1-1.49 5.66 5.66 0 0 1-.36-2.12v-13.88h-4.48v14.56a8.21 8.21 0 0 0 .68 3.39 7.39 7.39 0 0 0 1.9 2.58 8.63 8.63 0 0 0 2.89 1.64 11.83 11.83 0 0 0 7.31 0 8.56 8.56 0 0 0 2.88-1.64 7.43 7.43 0 0 0 1.89-2.58 8.2 8.2 0 0 0 .68-3.39v-14.56h-4.45v13.89a5.69 5.69 0 0 1-.36 2.12 4.14 4.14 0 0 1-1 1.49 4 4 0 0 1-1.47.87 6 6 0 0 1-3.67 0M532 124.18a2.94 2.94 0 0 0 .62.91 2.8 2.8 0 0 0 .92.61 2.83 2.83 0 0 0 1.1.22 2.78 2.78 0 0 0 1.09-.22 2.83 2.83 0 0 0 .91-.61 3 3 0 0 0 .62-.91 2.74 2.74 0 0 0 .23-1.11 2.63 2.63 0 0 0-.23-1.08 2.88 2.88 0 0 0-.62-.89 3 3 0 0 0-.91-.61 2.67 2.67 0 0 0-1.09-.23 2.72 2.72 0 0 0-1.1.23 3 3 0 0 0-.92.61 2.87 2.87 0 0 0-.62.89 2.64 2.64 0 0 0-.23 1.08 2.75 2.75 0 0 0 .23 1.11M524.8 125.6l6.33-22.4h-5.01l-4.24 16.84h-.16l-4.33-16.84h-5.07l6.33 22.4h6.15zM497.3 121.27a5.3 5.3 0 0 1-1.88-1.54 6.94 6.94 0 0 1-1.15-2.33 10.53 10.53 0 0 1-.39-2.94v-.13a10.56 10.56 0 0 1 .39-2.93 6.93 6.93 0 0 1 1.15-2.34 5.29 5.29 0 0 1 1.88-1.54 6.33 6.33 0 0 1 5.18 0 5.38 5.38 0 0 1 1.88 1.54 6.85 6.85 0 0 1 1.16 2.34 10.51 10.51 0 0 1 .39 2.93v.13a10.48 10.48 0 0 1-.39 2.94 6.86 6.86 0 0 1-1.16 2.33 5.39 5.39 0 0 1-1.88 1.54 6.33 6.33 0 0 1-5.18 0m-1.9-17.49a10 10 0 0 0-3.36 2.45 10.68 10.68 0 0 0-2.11 3.66 14.36 14.36 0 0 0 0 9 10.8 10.8 0 0 0 2.11 3.66 9.81 9.81 0 0 0 3.36 2.45 11.75 11.75 0 0 0 9 0 9.78 9.78 0 0 0 3.37-2.45 10.8 10.8 0 0 0 2.11-3.66 14.39 14.39 0 0 0 0-9 10.69 10.69 0 0 0-2.11-3.66 9.93 9.93 0 0 0-3.37-2.45 11.68 11.68 0 0 0-9 0M470.67 114.31a10.52 10.52 0 0 1 .36-2.76 7.11 7.11 0 0 1 1.09-2.35 5.51 5.51 0 0 1 1.88-1.63 5.63 5.63 0 0 1 2.72-.62 6 6 0 0 1 1.81.26 5.13 5.13 0 0 1 2.57 1.79 7.71 7.71 0 0 1 .84 1.34l4-2.23a8.37 8.37 0 0 0-1.47-2.13 9.08 9.08 0 0 0-2.09-1.64 10.3 10.3 0 0 0-2.61-1 12.08 12.08 0 0 0-3-.37 10.6 10.6 0 0 0-4.43.9 10.12 10.12 0 0 0-3.37 2.45 11 11 0 0 0-2.16 3.66 13.19 13.19 0 0 0-.76 4.51 14.52 14.52 0 0 0 .68 4.52 10.87 10.87 0 0 0 2 3.66 9.19 9.19 0 0 0 3.21 2.45 10.2 10.2 0 0 0 4.36.89 8.65 8.65 0 0 0 2-.22 8 8 0 0 0 1.71-.6 6.54 6.54 0 0 0 1.41-.92 5.52 5.52 0 0 0 1-1.2v2.63h4v-12.38H476.2v3.45h5.73v.23a5.67 5.67 0 0 1-.24 1.56 4.33 4.33 0 0 1-.84 1.57 4.68 4.68 0 0 1-1.61 1.21 5.81 5.81 0 0 1-2.52.48 5.63 5.63 0 0 1-2.72-.62 5.5 5.5 0 0 1-1.88-1.63 7.12 7.12 0 0 1-1.09-2.34 10.5 10.5 0 0 1-.36-2.77zM423.3 107.75a2 2 0 1 0-1.06-2.55 2 2 0 0 0 1.06 2.55M418.84 110.36a2 2 0 1 0-1.06-2.55 2 2 0 0 0 1.06 2.55M417.54 115.32a2 2 0 1 0-1.06-2.55 2 2 0 0 0 1.06 2.55M428.27 109.32a2 2 0 1 0-1.06-2.55 2 2 0 0 0 1.06 2.55M446.29 107.75a2 2 0 1 1 1.06-2.55 2 2 0 0 1-1.06 2.55M450.74 110.36a2 2 0 1 1 1.06-2.55 2 2 0 0 1-1.06 2.55M452 115.32a2 2 0 1 1 1.06-2.55 2 2 0 0 1-1.06 2.55M441.31 109.32a2 2 0 1 1 1.06-2.55 2 2 0 0 1-1.06 2.55M435.83 104.24l2.49 1.31v-3.67l-2.48.79a1.24 1.24 0 0 0-.24-.24l1-3.15H433l1 3.15a1.27 1.27 0 0 0-.24.24l-2.48-.79v3.67l2.49-1.31a1.32 1.32 0 0 0 .26.25l-1.43 4.31a2.32 2.32 0 0 0 1.88 3h.58a2.32 2.32 0 0 0 2-2.29 2.35 2.35 0 0 0-.1-.68l-1.43-4.31a1.34 1.34 0 0 0 .26-.25M434.79 125.33a94 94 0 0 1 13.17.89c1.13-4.75 2.51-7.48 3.93-9.42l-2.68-1a4.89 4.89 0 0 1 0 2.86 5.42 5.42 0 0 1-1.19-2.44l-1.29 4.32a4 4 0 0 1 2.09-.91c-1.23 2.66-2.77 3.34-3.77 3.16a1.9 1.9 0 0 1-1.59-2.23c.28-1.31 1.62-1.65 2.25-.13 1.2-2.44-.83-3.21-2.14-2.48 2-2 2.24-3.79.62-5.94-2.26 1.73-2.29 3.44-1.27 5.84-1.32-1.51-3.37-.7-2.63 1.74 1-1.47 2.21-.55 2 .85-.17 1.22-1.78 2.2-3.78 2-2.87-.26-3-2.24-3.11-3.88.7-.13 2 .52 3.06 2l.4-4.58a4.46 4.46 0 0 1-3.44 1.5 13.41 13.41 0 0 1 2.22-3.26h-5.71a13.45 13.45 0 0 1 2.22 3.26 4.46 4.46 0 0 1-3.44-1.5l.4 4.58c1.09-1.52 2.36-2.18 3.06-2-.07 1.64-.24 3.62-3.11 3.88-2 .17-3.61-.81-3.78-2-.2-1.4 1.06-2.33 2-.85.74-2.44-1.31-3.25-2.63-1.74 1-2.41 1-4.12-1.27-5.84-1.62 2.15-1.39 3.94.62 5.94-1.31-.72-3.34 0-2.14 2.48.63-1.52 2-1.18 2.25.13a1.9 1.9 0 0 1-1.59 2.23c-1 .19-2.54-.5-3.77-3.16a4 4 0 0 1 2.09.91l-1.3-4.32a5.41 5.41 0 0 1-1.19 2.44 4.89 4.89 0 0 1 0-2.86l-2.67 1c1.42 1.94 2.8 4.66 3.93 9.41a94.18 94.18 0 0 1 13.17-.89"/>
      <path class="cls-4" d="M415.51 396h181.64v25.81H415.51z"/>
      <path class="cls-5" d="M415.51 393.02h181.64v25.81H415.51z"/>
      <g>
        <path class="cls-1" d="M440.85 401.29h4a3.16 3.16 0 0 1 3.34 3.29 3.27 3.27 0 0 1-3.49 3.29h-1.8v3.35h-2zm3.44 1.82h-1.42v3h1.42c1.11 0 1.8-.51 1.8-1.45v-.06c0-.98-.7-1.49-1.8-1.49zM453.69 405.67h-.34c-1.09 0-2.06.37-2.06 2v3.61h-1.92v-7.43h1.92v.84a2.3 2.3 0 0 1 2-1h.43zM461.68 407.53a3.65 3.65 0 1 1-7.3 0 3.65 3.65 0 1 1 7.3 0zm-2 0c0-1.21-.6-2.07-1.69-2.07s-1.68.87-1.69 2.07c0 1.21.6 2.07 1.69 2.07s1.68-.87 1.69-2.07zM462.7 407.5a3.61 3.61 0 0 1 3.59-3.83 3.34 3.34 0 0 1 3.22 1.92l-1.7.87a1.52 1.52 0 0 0-1.48-1c-1.17 0-1.66 1.06-1.66 2v.09c0 1 .5 2 1.66 2a1.52 1.52 0 0 0 1.48-1l1.7.87a3.4 3.4 0 0 1-3.25 1.92 3.59 3.59 0 0 1-3.56-3.83zM472.37 408.18a1.75 1.75 0 0 0 1.8 1.45 2.67 2.67 0 0 0 1.87-.7l1 1.45a4.44 4.44 0 0 1-2.88 1 3.61 3.61 0 0 1-3.73-3.81v-.09a3.59 3.59 0 0 1 3.59-3.82 3.4 3.4 0 0 1 3.41 3.65v.87zm0-1.45h3a1.43 1.43 0 0 0-1.46-1.41 1.49 1.49 0 0 0-1.52 1.41zM480.35 408.18a1.75 1.75 0 0 0 1.8 1.45 2.67 2.67 0 0 0 1.87-.7l1 1.45a4.44 4.44 0 0 1-2.88 1 3.61 3.61 0 0 1-3.73-3.81v-.09a3.59 3.59 0 0 1 3.59-3.82 3.4 3.4 0 0 1 3.41 3.65v.87zm0-1.45h3a1.43 1.43 0 0 0-1.46-1.41 1.49 1.49 0 0 0-1.52 1.41zM486.36 407.48c0-2.2 1.31-3.82 3.27-3.82a2.46 2.46 0 0 1 1.87.78v-3.15h1.92v9.94h-1.92v-.64a2.36 2.36 0 0 1-1.83.78c-2 0-3.31-1.62-3.31-3.82zm5.2-.65a1.4 1.4 0 0 0-1.53-1.39c-1.09 0-1.69.87-1.69 2v.07c0 1.18.6 2 1.69 2a1.4 1.4 0 0 0 1.53-1.39zM501.09 409c0 .36.16.62.82.62a4.75 4.75 0 0 0 1-.08l.17 1.69a15.35 15.35 0 0 1-1.76.13c-1.32 0-2.1-.58-2.1-1.89v-4h-1.33v-1.72h1.33v-2.1l1.92-.51v2.61H503v1.72h-1.95zM511.3 407.53a3.65 3.65 0 1 1-7.3 0 3.65 3.65 0 1 1 7.3 0zm-2 0c0-1.21-.6-2.07-1.69-2.07s-1.68.87-1.69 2.07c0 1.21.6 2.07 1.69 2.07s1.68-.87 1.69-2.07zM518.06 403.81v.64a2.46 2.46 0 0 1 1.87-.78c2 0 3.27 1.62 3.27 3.82v.07c0 2.2-1.35 3.82-3.31 3.82a2.36 2.36 0 0 1-1.83-.78v3h-1.92v-9.77zm-.06 4.4a1.4 1.4 0 0 0 1.53 1.39c1.09 0 1.69-.87 1.69-2v-.07c0-1.18-.6-2-1.69-2a1.4 1.4 0 0 0-1.53 1.39zM526.75 411.37a2.38 2.38 0 0 1-2.57-2.33 2.15 2.15 0 0 1 2.09-2.17l2.26-.31v-.24c0-.65-.44-1-1.16-1a5 5 0 0 0-2.19.6l-.75-1.48a6.27 6.27 0 0 1 3-.82c1.36 0 3 .37 3 2.39v3.18c0 .44.24.6.64.77l-.87 1.38a1.69 1.69 0 0 1-1.39-.84 2.57 2.57 0 0 1-2.06.87zm.23-3.14c-.47.07-.78.34-.78.77a.9.9 0 0 0 1 .87 1.24 1.24 0 0 0 1.32-1.36V408zM533.73 411.53l.06-.24h-.14l-2.29-7.48h2.13l1.36 5.14 1.33-5.14h2.1l-2.56 8.52c-.33 1.11-1.19 1.41-2.31 1.41a12.63 12.63 0 0 1-1.75-.14l.4-1.69a6.89 6.89 0 0 0 1 .08.56.56 0 0 0 .67-.46zM545.6 411.23h-1.92v-4.32c0-1.06-.5-1.43-1.12-1.43s-1.31.51-1.31 1.7v4h-1.92v-7.43h1.92v.65a2.49 2.49 0 0 1 1.9-.8 2.15 2.15 0 0 1 1.92 1 2.62 2.62 0 0 1 2.24-1 2.49 2.49 0 0 1 2.64 2.5v5.07H548v-4.32c0-1.06-.5-1.43-1.12-1.43s-1.31.51-1.31 1.7zM553.3 408.18a1.75 1.75 0 0 0 1.8 1.45 2.67 2.67 0 0 0 1.87-.7l1 1.45a4.44 4.44 0 0 1-2.88 1 3.61 3.61 0 0 1-3.73-3.81v-.09a3.59 3.59 0 0 1 3.59-3.82 3.4 3.4 0 0 1 3.41 3.65v.87zm0-1.45h3a1.43 1.43 0 0 0-1.46-1.41 1.49 1.49 0 0 0-1.53 1.41zM559.68 403.81h1.92v.64a2.52 2.52 0 0 1 1.89-.78 2.43 2.43 0 0 1 2.57 2.56v5h-1.92v-4.32c0-1.05-.5-1.45-1.16-1.45s-1.38.55-1.38 1.7v4.06h-1.92zM570.52 409c0 .36.16.62.82.62a4.75 4.75 0 0 0 1-.08l.17 1.69a15.35 15.35 0 0 1-1.76.13c-1.32 0-2.1-.58-2.1-1.89v-4h-1.33v-1.72h1.33v-2.1l1.92-.51v2.61h1.95v1.72h-1.95z"/>
      </g>
      <path fill="#8c8c8c" stroke="#b4b4b4" stroke-miterlimit="10" stroke-width="8" d="M419.33 314.58v54.3"/>
      <g>
        <path class="cls-2" d="M446.92 337.57a3.69 3.69 0 0 0-3.23-1.67c-2 0-3.44 1.56-3.44 4v3h4.39v2h-4.39v6.1h8.42v2h-12.1v-2H438v-6.16h-1.4v-2h1.4v-2.91c0-3.77 2.26-6 5.7-6a5.89 5.89 0 0 1 5.11 2.34zM454.4 348.15a4.26 4.26 0 0 0 4.36 3.07c2.74 0 4-1.59 4-3.5 0-2.1-1.56-3.28-4.41-3.28h-.83v-2h.48c2.45 0 4.47-.86 4.47-3.25 0-2.21-1.72-3.26-3.66-3.26a4.33 4.33 0 0 0-4.14 2.85l-2.13-.81a6.32 6.32 0 0 1 6.29-4.06c3.28 0 6 2.1 6 5a4.23 4.23 0 0 1-3.5 4.33 4.42 4.42 0 0 1 3.85 4.57c0 3.66-3.07 5.41-6.51 5.41-3 0-5.57-1.4-6.62-4.36zM471.65 334.32v-.19h2.26V353h-2.34v-13.81h-3.47v-2h.35c2.47-.02 3.2-.88 3.2-2.87zM480.29 349.63a1.8 1.8 0 1 1-1.8 1.8 1.8 1.8 0 0 1 1.8-1.8zM499.06 343.57c0 4.87-1.77 9.66-6.83 9.66s-6.83-4.79-6.83-9.66 1.78-9.68 6.83-9.68 6.83 4.79 6.83 9.68zm-2.45.54V343c0-4.52-1.75-7.1-4.38-7.1s-4.39 2.58-4.39 7.1v1.1c0 4.52 1.75 7.1 4.39 7.1s4.39-2.57 4.39-7.09zM516.23 343.57c0 4.87-1.77 9.66-6.83 9.66s-6.83-4.79-6.83-9.66 1.78-9.68 6.83-9.68 6.83 4.79 6.83 9.68zm-2.45.54V343c0-4.52-1.75-7.1-4.38-7.1s-4.4 2.59-4.4 7.1v1.1c0 4.52 1.75 7.1 4.39 7.1s4.39-2.57 4.39-7.09z"/>
      </g>
      <g>
        <path class="cls-2" d="M423.05 219.15v-6.4h1.19v6.52a3.67 3.67 0 0 1-7.34 0v-6.52h1.21v6.4a2.48 2.48 0 1 0 4.94 0zM425.92 221.8l.71-.82a3.36 3.36 0 0 0 2.14.87c.81 0 1.42-.37 1.42-1.07s-.77-.94-1.73-1.19-2.2-.61-2.2-2.07c0-1.19 1.09-2.06 2.58-2.06a3.82 3.82 0 0 1 2.46.88l-.68.78a2.59 2.59 0 0 0-1.75-.68c-.94 0-1.41.41-1.41 1.05s.4.77 1 .94l1.16.34c1 .3 1.73.8 1.73 1.93 0 1.46-1.29 2.13-2.67 2.13a4.26 4.26 0 0 1-2.76-1.03zM434 219.5a2.23 2.23 0 0 0 2.2 2.3 2.84 2.84 0 0 0 1.86-.7l.6.84a4 4 0 0 1-2.51.88 3.35 3.35 0 0 1-3.37-3.68c0-2.16 1.26-3.69 3.22-3.69s3 1.55 3 3.68v.37zm0-.94h3.75c0-1.09-.65-2.09-1.77-2.09a2.06 2.06 0 0 0-1.98 2.09zM446.29 220.92c0 .47.09.87.91.87a6.12 6.12 0 0 0 .88-.09l.13 1a10.36 10.36 0 0 1-1.26.1c-1.12 0-1.82-.44-1.82-1.65v-4.56h-1.33v-1h1.33v-2.31l1.16-.41v2.73h2v1h-2zM449.75 212.74h1.16v3.66a2.44 2.44 0 0 1 2.07-1 2.26 2.26 0 0 1 2.37 2.41v4.81h-1.15v-4.44c0-1.25-.64-1.72-1.46-1.72a1.81 1.81 0 0 0-1.82 2v4.2h-1.16zM458.09 212.74a.87.87 0 0 1 .85.87.86.86 0 1 1-1.72 0 .87.87 0 0 1 .87-.87zm.57 9.94h-1.16v-7.08h1.16zM460.22 221.8l.71-.82a3.36 3.36 0 0 0 2.14.87c.81 0 1.42-.37 1.42-1.07s-.77-.94-1.73-1.19-2.2-.61-2.2-2.07c0-1.19 1.09-2.06 2.58-2.06a3.82 3.82 0 0 1 2.46.88l-.68.78a2.59 2.59 0 0 0-1.75-.68c-.94 0-1.41.41-1.41 1.05s.4.77 1 .94l1.16.34c1 .3 1.73.8 1.73 1.93 0 1.46-1.29 2.13-2.67 2.13a4.26 4.26 0 0 1-2.76-1.03zM477.33 219.15c0 2.13-1.31 3.68-3.27 3.68s-3.27-1.55-3.27-3.68 1.31-3.69 3.27-3.69 3.27 1.54 3.27 3.69zm-1.21 0v-.09c0-1.42-.71-2.63-2.06-2.63s-2.06 1.25-2.06 2.67v.09c0 1.39.71 2.61 2.06 2.61s2.06-1.22 2.06-2.61zM480.31 215.6v.81a2.48 2.48 0 0 1 2.07-1c1.83 0 3 1.55 3 3.69s-1.18 3.68-3 3.68a2.48 2.48 0 0 1-2.07-1v3h-1.16v-9.18zm3.88 3.51c0-1.48-.71-2.61-2-2.61a1.85 1.85 0 0 0-1.87 2.07v1.15a1.85 1.85 0 0 0 1.87 2.07c1.31 0 2-1.14 2-2.61zM488.88 220.92c0 .47.09.87.91.87a6.12 6.12 0 0 0 .88-.09l.13 1a10.36 10.36 0 0 1-1.26.1c-1.12 0-1.82-.44-1.82-1.65v-4.56h-1.33v-1h1.33v-2.31l1.16-.41v2.73h2v1h-2zM492.94 212.74a.87.87 0 0 1 .85.87.86.86 0 1 1-1.72 0 .87.87 0 0 1 .87-.87zm.57 9.94h-1.16v-7.08h1.16zM501.79 219.15c0 2.13-1.31 3.68-3.27 3.68s-3.27-1.55-3.27-3.68 1.31-3.69 3.27-3.69 3.27 1.54 3.27 3.69zm-1.21 0v-.09c0-1.42-.71-2.63-2.06-2.63s-2.06 1.21-2.06 2.63v.09c0 1.39.71 2.61 2.06 2.61s2.07-1.18 2.07-2.57zM503.61 215.6h1.16v.81a2.44 2.44 0 0 1 2.07-1 2.26 2.26 0 0 1 2.37 2.41v4.81h-1.16v-4.44c0-1.25-.64-1.72-1.46-1.72a1.82 1.82 0 0 0-1.82 2v4.2h-1.16zM513.29 222.82a2.22 2.22 0 0 1-2.47-2.14 2 2 0 0 1 1.89-2l2.5-.34v-.45c0-1.08-.7-1.41-1.58-1.41a4.31 4.31 0 0 0-2 .55l-.44-.92a5.35 5.35 0 0 1 2.6-.65c1.72 0 2.63.77 2.63 2.26V221a1 1 0 0 0 .58 1l-.65.84a1.4 1.4 0 0 1-1-.85 2.63 2.63 0 0 1-2.06.83zm0-3.29c-.78.11-1.29.37-1.29 1.09a1.31 1.31 0 0 0 1.45 1.28c.87 0 1.75-.55 1.75-1.38v-1.28zM518.54 212.74h1.16v8.35c0 .47.14.71.68.71h.73l.11 1a11.29 11.29 0 0 1-1.18.09c-.84 0-1.5-.37-1.5-1.39zM527.36 215.6v.81a2.48 2.48 0 0 1 2.07-1c1.83 0 3 1.55 3 3.69s-1.18 3.68-3 3.68a2.48 2.48 0 0 1-2.07-1v3h-1.16v-9.18zm3.88 3.51c0-1.48-.71-2.61-2-2.61a1.85 1.85 0 0 0-1.87 2.07v1.15a1.85 1.85 0 0 0 1.87 2.07c1.31 0 2-1.14 2-2.61zM536.24 222.82a2.22 2.22 0 0 1-2.47-2.14 2 2 0 0 1 1.89-2l2.5-.34v-.45c0-1.08-.7-1.41-1.58-1.41a4.31 4.31 0 0 0-2 .55l-.44-.92a5.35 5.35 0 0 1 2.6-.65c1.72 0 2.63.77 2.63 2.26V221a1 1 0 0 0 .58 1l-.65.84a1.4 1.4 0 0 1-1-.85 2.63 2.63 0 0 1-2.06.83zm0-3.29c-.78.11-1.29.37-1.29 1.09a1.31 1.31 0 0 0 1.45 1.28c.87 0 1.75-.55 1.75-1.38v-1.28zM545.15 216.63H545c-1.19 0-2.27.48-2.27 2.41v3.64h-1.16v-7.08h1.16v1.12a2.21 2.21 0 0 1 2.12-1.25h.34zM548.65 222.82a2.22 2.22 0 0 1-2.47-2.14 2 2 0 0 1 1.89-2l2.5-.34v-.45c0-1.08-.7-1.41-1.58-1.41a4.31 4.31 0 0 0-2 .55l-.44-.92a5.35 5.35 0 0 1 2.6-.65c1.72 0 2.63.77 2.63 2.26V221a1 1 0 0 0 .58 1l-.65.84a1.4 1.4 0 0 1-1-.85 2.63 2.63 0 0 1-2.06.83zm0-3.29c-.78.11-1.29.37-1.29 1.09a1.31 1.31 0 0 0 1.45 1.28c.87 0 1.75-.55 1.75-1.38v-1.28zM556.31 215.46a2.4 2.4 0 0 1 2 1v-.81h1.17v7.14c0 1.76-1.55 2.27-3 2.27a6.14 6.14 0 0 1-2.63-.57l.4-1a5.76 5.76 0 0 0 2.26.5c1.19 0 1.85-.44 1.85-1.53v-1.35a2.4 2.4 0 0 1-2 1c-1.76 0-2.87-1.43-2.87-3.29s1.06-3.36 2.82-3.36zm2 3.27c0-1.26-.54-2.23-1.82-2.23s-1.87 1-1.87 2.23v.06c0 1.24.58 2.23 1.87 2.23s1.82-1 1.82-2.23zM565.28 216.63h-.18c-1.19 0-2.27.48-2.27 2.41v3.64h-1.16v-7.08h1.16v1.12a2.21 2.21 0 0 1 2.12-1.25h.34zM568.78 222.82a2.22 2.22 0 0 1-2.47-2.14 2 2 0 0 1 1.89-2l2.5-.34v-.45c0-1.08-.7-1.41-1.58-1.41a4.31 4.31 0 0 0-2 .55l-.44-.92a5.35 5.35 0 0 1 2.6-.65c1.72 0 2.63.77 2.63 2.26V221a1 1 0 0 0 .58 1l-.65.84a1.4 1.4 0 0 1-1-.85 2.63 2.63 0 0 1-2.06.83zm0-3.29c-.78.11-1.29.37-1.29 1.09a1.31 1.31 0 0 0 1.45 1.28c.87 0 1.75-.55 1.75-1.38v-1.28zM575.24 215.6v.81a2.48 2.48 0 0 1 2.07-1c1.83 0 3 1.55 3 3.69s-1.18 3.68-3 3.68a2.48 2.48 0 0 1-2.07-1v3h-1.16v-9.18zm3.88 3.51c0-1.48-.71-2.61-2-2.61a1.85 1.85 0 0 0-1.87 2.07v1.15a1.85 1.85 0 0 0 1.87 2.07c1.31 0 2-1.14 2-2.61zM582.14 212.74h1.16v3.66a2.44 2.44 0 0 1 2.07-1 2.26 2.26 0 0 1 2.37 2.41v4.81h-1.16v-4.44c0-1.25-.64-1.72-1.46-1.72a1.81 1.81 0 0 0-1.82 2v4.2h-1.16zM595.51 220.92c0 .47.09.87.91.87a6.14 6.14 0 0 0 .88-.09l.13 1a10.36 10.36 0 0 1-1.26.1c-1.12 0-1.82-.44-1.82-1.65v-4.56H593v-1h1.33v-2.31l1.16-.41v2.73h2v1h-2zM604.94 219.15c0 2.13-1.31 3.68-3.27 3.68s-3.27-1.55-3.27-3.68 1.31-3.69 3.27-3.69 3.27 1.54 3.27 3.69zm-1.21 0v-.09c0-1.42-.71-2.63-2.06-2.63s-2.06 1.21-2.06 2.63v.09c0 1.39.71 2.61 2.06 2.61s2.07-1.18 2.07-2.57zM613 215.46a2.4 2.4 0 0 1 2 1v-.81h1.17v7.14c0 1.76-1.55 2.27-3 2.27a6.14 6.14 0 0 1-2.63-.57l.4-1a5.76 5.76 0 0 0 2.26.5c1.19 0 1.85-.44 1.85-1.53v-1.35a2.4 2.4 0 0 1-2 1c-1.76 0-2.87-1.43-2.87-3.29s1.04-3.36 2.82-3.36zm2 3.27c0-1.26-.54-2.23-1.82-2.23s-1.87 1-1.87 2.23v.06c0 1.24.58 2.23 1.87 2.23s1.82-1 1.82-2.23zM618.95 212.74a.87.87 0 0 1 .85.87.86.86 0 1 1-1.72 0 .87.87 0 0 1 .87-.87zm.57 9.94h-1.16v-7.08h1.16zM623.22 222.68L621 215.6h1.32l1.7 6 1.69-6H627l-2.24 7.09zM629.1 219.5a2.23 2.23 0 0 0 2.2 2.3 2.84 2.84 0 0 0 1.86-.7l.6.84a4 4 0 0 1-2.51.88 3.35 3.35 0 0 1-3.37-3.68c0-2.16 1.26-3.69 3.22-3.69s3 1.55 3 3.68v.37zm0-.94h3.75c0-1.09-.65-2.09-1.77-2.09a2.06 2.06 0 0 0-1.96 2.09zM638.83 215.6h1.32l1.75 5.85 1.66-5.85h1.31l-2.58 8.15a1.7 1.7 0 0 1-1.88 1.25 8.32 8.32 0 0 1-1.26-.11l.17-1a5.39 5.39 0 0 0 .94.1.8.8 0 0 0 .89-.71l.07-.33zM652.25 219.15c0 2.13-1.31 3.68-3.27 3.68s-3.27-1.55-3.27-3.68 1.31-3.69 3.27-3.69 3.27 1.54 3.27 3.69zm-1.21 0v-.09c0-1.42-.71-2.63-2.06-2.63s-2.06 1.21-2.06 2.63v.09c0 1.39.71 2.61 2.06 2.61s2.02-1.18 2.02-2.57zM659.6 222.68h-1.17v-.81a2.44 2.44 0 0 1-2.07 1 2.26 2.26 0 0 1-2.37-2.41v-4.86h1.16v4.4c0 1.25.64 1.72 1.46 1.72a1.78 1.78 0 0 0 1.82-2v-4.2h1.17zM665.41 216.63h-.18c-1.19 0-2.27.48-2.27 2.41v3.64h-1.16v-7.08h1.16v1.12a2.21 2.21 0 0 1 2.12-1.25h.34zM676.18 222.68H675v-.81a2.44 2.44 0 0 1-2.07 1 2.26 2.26 0 0 1-2.37-2.41v-4.86h1.16v4.4c0 1.25.64 1.72 1.46 1.72a1.78 1.78 0 0 0 1.82-2v-4.2h1.17zM677.75 221.8l.71-.82a3.36 3.36 0 0 0 2.14.87c.81 0 1.42-.37 1.42-1.07s-.77-.94-1.73-1.19-2.2-.61-2.2-2.07c0-1.19 1.09-2.06 2.58-2.06a3.83 3.83 0 0 1 2.46.88l-.68.78a2.59 2.59 0 0 0-1.75-.68c-.94 0-1.41.41-1.41 1.05s.4.77 1 .94l1.16.34c1 .3 1.73.8 1.73 1.93 0 1.46-1.29 2.13-2.67 2.13a4.26 4.26 0 0 1-2.76-1.03zM685.78 219.5a2.23 2.23 0 0 0 2.2 2.3 2.84 2.84 0 0 0 1.86-.7l.6.84a4 4 0 0 1-2.51.88 3.35 3.35 0 0 1-3.37-3.68c0-2.16 1.26-3.69 3.22-3.69s3 1.55 3 3.68v.37zm0-.94h3.75c0-1.09-.65-2.09-1.77-2.09a2.06 2.06 0 0 0-1.96 2.09zM696.18 216.63H696c-1.19 0-2.27.48-2.27 2.41v3.64h-1.16v-7.08h1.16v1.12a2.21 2.21 0 0 1 2.12-1.25h.34zM697.11 221.8l.71-.82a3.36 3.36 0 0 0 2.14.87c.81 0 1.42-.37 1.42-1.07s-.77-.94-1.73-1.19-2.2-.61-2.2-2.07c0-1.19 1.09-2.06 2.58-2.06a3.83 3.83 0 0 1 2.46.88l-.68.78a2.59 2.59 0 0 0-1.75-.68c-.94 0-1.41.41-1.41 1.05s.4.77 1 .94l1.16.34c1 .3 1.73.8 1.73 1.93 0 1.46-1.29 2.13-2.67 2.13a4.26 4.26 0 0 1-2.76-1.03zM713.42 222.68h-1.17v-4.46c0-1.26-.64-1.7-1.42-1.7s-1.56.6-1.56 2v4.19h-1.16v-7.11h1.16v.81a2.18 2.18 0 0 1 1.86-1 2.1 2.1 0 0 1 1.92 1.18 2.43 2.43 0 0 1 2.16-1.18 2.28 2.28 0 0 1 2.39 2.37v4.86h-1.16v-4.46c0-1.26-.68-1.7-1.45-1.7s-1.56.6-1.56 2zM725.88 219.15c0 2.13-1.31 3.68-3.27 3.68s-3.27-1.55-3.27-3.68 1.31-3.69 3.27-3.69 3.27 1.54 3.27 3.69zm-1.21 0v-.09c0-1.42-.71-2.63-2.06-2.63s-2.06 1.21-2.06 2.63v.09c0 1.39.71 2.61 2.06 2.61s2.06-1.18 2.06-2.57zM731.31 216.63h-.18c-1.19 0-2.27.48-2.27 2.41v3.64h-1.16v-7.08h1.16v1.12a2.21 2.21 0 0 1 2.12-1.25h.34zM733.48 219.5a2.23 2.23 0 0 0 2.2 2.3 2.84 2.84 0 0 0 1.86-.7l.6.84a4 4 0 0 1-2.51.88 3.35 3.35 0 0 1-3.37-3.68c0-2.16 1.26-3.69 3.22-3.69s3 1.55 3 3.68v.37zm0-.94h3.75c0-1.09-.65-2.09-1.77-2.09a2.06 2.06 0 0 0-1.96 2.09zM744.59 212.74a.87.87 0 0 1 .85.87.86.86 0 1 1-1.72 0 .87.87 0 0 1 .87-.87zm.57 9.94H744v-7.08h1.16zM747.33 215.6h1.16v.81a2.44 2.44 0 0 1 2.07-1 2.26 2.26 0 0 1 2.37 2.41v4.81h-1.16v-4.44c0-1.25-.64-1.72-1.46-1.72a1.82 1.82 0 0 0-1.82 2v4.2h-1.16zM756.64 215.6H758v1h-1.41v6.06h-1.16v-6.06h-1.18v-1h1.18v-1.32c0-1.22.82-1.66 1.95-1.66a6.62 6.62 0 0 1 1.14.1l-.09 1c-.27 0-.78-.06-1-.06-.67 0-.82.41-.82.85zM765.51 219.15c0 2.13-1.31 3.68-3.27 3.68s-3.27-1.55-3.27-3.68 1.31-3.69 3.27-3.69 3.27 1.54 3.27 3.69zm-1.21 0v-.09c0-1.42-.71-2.63-2.06-2.63s-2.06 1.21-2.06 2.63v.09c0 1.39.71 2.61 2.06 2.61s2.07-1.18 2.07-2.57zM770.95 216.63h-.18c-1.19 0-2.27.48-2.27 2.41v3.64h-1.16v-7.08h1.16v1.12a2.21 2.21 0 0 1 2.12-1.25h.34zM777.71 222.68h-1.17v-4.46c0-1.26-.64-1.7-1.42-1.7s-1.56.6-1.56 2v4.19h-1.16v-7.11h1.16v.81a2.18 2.18 0 0 1 1.86-1 2.1 2.1 0 0 1 1.92 1.18 2.43 2.43 0 0 1 2.16-1.18 2.28 2.28 0 0 1 2.39 2.37v4.86h-1.16v-4.46c0-1.26-.68-1.7-1.45-1.7s-1.56.6-1.56 2zM786 222.82a2.22 2.22 0 0 1-2.47-2.14 2 2 0 0 1 1.89-2l2.5-.34v-.45c0-1.08-.7-1.41-1.58-1.41a4.31 4.31 0 0 0-2 .55l-.44-.92a5.35 5.35 0 0 1 2.6-.65c1.72 0 2.63.77 2.63 2.26V221a1 1 0 0 0 .58 1l-.65.84a1.4 1.4 0 0 1-1-.85 2.63 2.63 0 0 1-2.06.83zm0-3.29c-.78.11-1.29.37-1.29 1.09a1.31 1.31 0 0 0 1.45 1.28c.87 0 1.75-.55 1.75-1.38v-1.28zM793 220.92c0 .47.09.87.91.87a6.12 6.12 0 0 0 .88-.09l.13 1a10.36 10.36 0 0 1-1.26.1c-1.12 0-1.82-.44-1.82-1.65v-4.56h-1.33v-1h1.33v-2.31l1.16-.41v2.73h2v1h-2zM797 212.74a.87.87 0 0 1 .85.87.86.86 0 1 1-1.72 0 .87.87 0 0 1 .87-.87zm.57 9.94h-1.16v-7.08h1.16zM805.89 219.15c0 2.13-1.31 3.68-3.27 3.68s-3.27-1.55-3.27-3.68 1.31-3.69 3.27-3.69 3.27 1.54 3.27 3.69zm-1.21 0v-.09c0-1.42-.71-2.63-2.06-2.63s-2.06 1.21-2.06 2.63v.09c0 1.39.71 2.61 2.06 2.61s2.06-1.18 2.06-2.57zM807.7 215.6h1.16v.81a2.44 2.44 0 0 1 2.07-1 2.26 2.26 0 0 1 2.37 2.41v4.81h-1.16v-4.44c0-1.25-.64-1.72-1.46-1.72a1.82 1.82 0 0 0-1.82 2v4.2h-1.16zM816.32 220.92a1 1 0 1 1-1 1 1 1 0 0 1 1-1zM417 229.78h6v1.05h-4.73v3.27h4.34v1.05h-4.34v4.57H417zM430.73 236.19c0 2.13-1.31 3.68-3.27 3.68s-3.27-1.55-3.27-3.68 1.31-3.69 3.27-3.69 3.27 1.5 3.27 3.69zm-1.21 0v-.09c0-1.42-.71-2.63-2.06-2.63s-2.06 1.21-2.06 2.63v.09c0 1.39.71 2.61 2.06 2.61s2.07-1.18 2.07-2.57zM436.17 233.67H436c-1.19 0-2.27.48-2.27 2.41v3.64h-1.16v-7.09h1.16v1.12a2.21 2.21 0 0 1 2.12-1.25h.34zM442.19 236.54a2.23 2.23 0 0 0 2.2 2.3 2.84 2.84 0 0 0 1.86-.7l.6.84a4 4 0 0 1-2.51.88 3.35 3.35 0 0 1-3.37-3.68c0-2.16 1.26-3.69 3.22-3.69s3 1.55 3 3.68v.37zm0-.94h3.75c0-1.09-.65-2.09-1.77-2.09a2.06 2.06 0 0 0-1.97 2.1zM450.44 236l-2.17-3.35h1.33l1.52 2.44 1.45-2.44h1.35l-2.16 3.35 2.46 3.73h-1.39l-1.78-2.73-1.62 2.75h-1.38zM457.49 239.87a2.22 2.22 0 0 1-2.47-2.14 2 2 0 0 1 1.89-2l2.5-.34v-.45c0-1.08-.7-1.41-1.58-1.41a4.31 4.31 0 0 0-2 .55l-.44-.92a5.35 5.35 0 0 1 2.6-.65c1.72 0 2.63.77 2.63 2.26v3.31a1 1 0 0 0 .58 1l-.65.84a1.4 1.4 0 0 1-1-.85 2.63 2.63 0 0 1-2.06.8zm0-3.29c-.78.11-1.29.37-1.29 1.09a1.31 1.31 0 0 0 1.45 1.28c.87 0 1.75-.55 1.75-1.38v-1.28zM468.09 239.72h-1.17v-4.46c0-1.26-.64-1.7-1.42-1.7s-1.56.6-1.56 2v4.19h-1.16v-7.09h1.16v.81a2.18 2.18 0 0 1 1.86-1 2.1 2.1 0 0 1 1.92 1.18 2.43 2.43 0 0 1 2.16-1.18 2.28 2.28 0 0 1 2.39 2.37v4.86h-1.17v-4.46c0-1.26-.68-1.7-1.45-1.7s-1.56.6-1.56 2zM475.6 232.64v.81a2.48 2.48 0 0 1 2.07-1c1.83 0 3 1.55 3 3.69s-1.18 3.68-3 3.68a2.48 2.48 0 0 1-2.07-1v3h-1.16v-9.24zm3.88 3.51c0-1.48-.71-2.61-2-2.61a1.85 1.85 0 0 0-1.87 2.07v1.15a1.85 1.85 0 0 0 1.87 2.07c1.31 0 2-1.14 2-2.61zM482.48 229.78h1.16v8.35c0 .47.14.71.68.71h.73l.11 1a11.29 11.29 0 0 1-1.18.09c-.84 0-1.5-.37-1.5-1.39zM487.07 236.54a2.23 2.23 0 0 0 2.2 2.3 2.84 2.84 0 0 0 1.86-.7l.6.84a4 4 0 0 1-2.51.88 3.35 3.35 0 0 1-3.37-3.68c0-2.16 1.26-3.69 3.22-3.69s3 1.55 3 3.68v.37zm0-.94h3.75c0-1.09-.65-2.09-1.77-2.09a2.06 2.06 0 0 0-1.96 2.1zM495.6 239.2a1.67 1.67 0 0 1-1.66 1.8h-.2v-.53h.17c.37-.06.72-.18.72-.57h-.11a.91.91 0 0 1-.94-.92 1 1 0 0 1 1-1 1.12 1.12 0 0 1 1.02 1.22zM500.66 232.64H502l1.75 5.85 1.66-5.85h1.31l-2.58 8.15a1.7 1.7 0 0 1-1.88 1.25 8.32 8.32 0 0 1-1.26-.11l.17-1a5.39 5.39 0 0 0 .94.1.8.8 0 0 0 .89-.71V240zM514.08 236.19c0 2.13-1.31 3.68-3.27 3.68s-3.27-1.55-3.27-3.68 1.31-3.69 3.27-3.69 3.27 1.5 3.27 3.69zm-1.21 0v-.09c0-1.42-.71-2.63-2.06-2.63s-2.06 1.21-2.06 2.63v.09c0 1.39.71 2.61 2.06 2.61s2.06-1.18 2.06-2.57zM521.43 239.72h-1.17v-.81a2.44 2.44 0 0 1-2.07 1 2.26 2.26 0 0 1-2.37-2.41v-4.81H517v4.44c0 1.25.64 1.72 1.46 1.72a1.78 1.78 0 0 0 1.82-2v-4.2h1.17zM528.2 236.22c0 1.42.7 2.63 2.06 2.63a2 2 0 0 0 1.83-1.19l1 .55a3 3 0 0 1-2.8 1.66c-2 0-3.27-1.53-3.27-3.68s1.31-3.69 3.27-3.69a3 3 0 0 1 2.8 1.66l-1 .55a2 2 0 0 0-1.83-1.19c-1.36 0-2.06 1.21-2.06 2.63zM540.78 236.19c0 2.13-1.31 3.68-3.27 3.68s-3.27-1.55-3.27-3.68 1.31-3.69 3.27-3.69 3.27 1.5 3.27 3.69zm-1.21 0v-.09c0-1.42-.71-2.63-2.06-2.63s-2.06 1.21-2.06 2.63v.09c0 1.39.71 2.61 2.06 2.61s2.06-1.18 2.06-2.57zM548.13 239.72H547v-.81a2.44 2.44 0 0 1-2.07 1 2.26 2.26 0 0 1-2.37-2.41v-4.81h1.16v4.44c0 1.25.64 1.72 1.46 1.72a1.78 1.78 0 0 0 1.82-2v-4.2h1.17zM550.29 229.78h1.16v8.35c0 .47.14.71.68.71h.73l.11 1a11.29 11.29 0 0 1-1.18.09c-.84 0-1.5-.37-1.5-1.39zM558.79 238.91a2.48 2.48 0 0 1-2.07 1c-1.83 0-3-1.53-3-3.68s1.18-3.69 3-3.69a2.48 2.48 0 0 1 2.07 1v-3.66H560v9.94h-1.17zm-3.88-2.7c0 1.48.71 2.61 2 2.61a1.85 1.85 0 0 0 1.87-2.07v-1.15a1.85 1.85 0 0 0-1.87-2.07c-1.31 0-2 1.14-2 2.61zM567.78 238c0 .47.09.87.91.87a6.14 6.14 0 0 0 .88-.09l.13 1a10.36 10.36 0 0 1-1.26.1c-1.12 0-1.82-.44-1.82-1.65v-4.56h-1.33v-1h1.33v-2.31l1.16-.41v2.73h2v1h-2zM571.91 236.54a2.23 2.23 0 0 0 2.2 2.3 2.84 2.84 0 0 0 1.86-.7l.6.84a4 4 0 0 1-2.51.88 3.35 3.35 0 0 1-3.37-3.68c0-2.16 1.26-3.69 3.22-3.69s3 1.55 3 3.68v.37zm0-.94h3.75c0-1.09-.65-2.09-1.77-2.09a2.06 2.06 0 0 0-1.96 2.1zM578.64 229.78h1.16v8.35c0 .47.14.71.68.71h.73l.11 1a11.29 11.29 0 0 1-1.18.09c-.84 0-1.5-.37-1.5-1.39zM582.57 229.78h1.16v8.35c0 .47.14.71.68.71h.73l.11 1a11.29 11.29 0 0 1-1.18.09c-.84 0-1.5-.37-1.5-1.39zM592.06 238c0 .47.09.87.91.87a6.12 6.12 0 0 0 .88-.09l.13 1a10.36 10.36 0 0 1-1.26.1c-1.12 0-1.82-.44-1.82-1.65v-4.56h-1.33v-1h1.33v-2.31l1.16-.41v2.73h2v1h-2zM595.52 229.78h1.16v3.66a2.44 2.44 0 0 1 2.07-1 2.26 2.26 0 0 1 2.37 2.41v4.81H600v-4.44c0-1.25-.64-1.72-1.46-1.72a1.81 1.81 0 0 0-1.82 2v4.2h-1.16zM604.11 236.54a2.23 2.23 0 0 0 2.2 2.3 2.84 2.84 0 0 0 1.86-.7l.6.84a4 4 0 0 1-2.51.88 3.35 3.35 0 0 1-3.37-3.68c0-2.16 1.26-3.69 3.22-3.69s3 1.55 3 3.68v.37zm0-.94h3.75c0-1.09-.65-2.09-1.77-2.09a2.06 2.06 0 0 0-1.97 2.1zM616.2 239.72H615v-4.46c0-1.26-.64-1.7-1.42-1.7s-1.56.6-1.56 2v4.19h-1.16v-7.09H612v.81a2.18 2.18 0 0 1 1.86-1 2.1 2.1 0 0 1 1.92 1.18 2.43 2.43 0 0 1 2.22-1.15 2.28 2.28 0 0 1 2.39 2.37v4.86h-1.16v-4.46c0-1.26-.68-1.7-1.45-1.7s-1.56.6-1.56 2zM626.31 229.78h1.16v3.66a2.44 2.44 0 0 1 2.07-1 2.26 2.26 0 0 1 2.37 2.41v4.81h-1.16v-4.44c0-1.25-.64-1.72-1.46-1.72a1.81 1.81 0 0 0-1.82 2v4.2h-1.16zM640.21 236.19c0 2.13-1.31 3.68-3.27 3.68s-3.27-1.55-3.27-3.68 1.31-3.69 3.27-3.69 3.27 1.5 3.27 3.69zm-1.21 0v-.09c0-1.42-.71-2.63-2.06-2.63s-2.06 1.21-2.06 2.63v.09c0 1.39.71 2.61 2.06 2.61s2.06-1.18 2.06-2.57zM648 238.35l1.28-5.71h1.24l-1.73 7.09h-1.49l-1.46-5.73-1.46 5.68h-1.43l-1.72-7.09h1.25l1.24 5.71 1.49-5.71h1.32zM655.83 229.78H657v8.35c0 .47.14.71.68.71h.73l.11 1a11.29 11.29 0 0 1-1.18.09c-.84 0-1.5-.37-1.5-1.39zM665.73 236.19c0 2.13-1.31 3.68-3.27 3.68s-3.27-1.55-3.27-3.68 1.31-3.69 3.27-3.69 3.27 1.5 3.27 3.69zm-1.21 0v-.09c0-1.42-.71-2.63-2.06-2.63s-2.06 1.21-2.06 2.63v.09c0 1.39.71 2.61 2.06 2.61s2.07-1.18 2.07-2.57zM667.55 232.64h1.16v.81a2.44 2.44 0 0 1 2.07-1 2.26 2.26 0 0 1 2.37 2.41v4.81H672v-4.44c0-1.25-.64-1.72-1.46-1.72a1.82 1.82 0 0 0-1.82 2v4.2h-1.16zM677.75 232.5a2.4 2.4 0 0 1 2 1v-.81h1.17v7.14c0 1.76-1.55 2.27-3 2.27a6.14 6.14 0 0 1-2.63-.57l.4-1a5.76 5.76 0 0 0 2.26.5c1.19 0 1.85-.44 1.85-1.53v-1.35a2.4 2.4 0 0 1-2 1c-1.76 0-2.87-1.43-2.87-3.29s1.07-3.36 2.82-3.36zm2 3.27c0-1.26-.54-2.23-1.82-2.23s-1.87 1-1.87 2.23v.06c0 1.24.58 2.23 1.87 2.23s1.82-1 1.82-2.23zM687.5 229.78a.87.87 0 0 1 .85.87.86.86 0 1 1-1.72 0 .87.87 0 0 1 .87-.87zm.57 9.94h-1.16v-7.09h1.16zM692.07 238c0 .47.09.87.91.87a6.14 6.14 0 0 0 .88-.09l.13 1a10.36 10.36 0 0 1-1.26.1c-1.12 0-1.82-.44-1.82-1.65v-4.56h-1.33v-1h1.33v-2.31l1.16-.41v2.73h2v1h-2zM701.17 238c0 .47.09.87.91.87a6.12 6.12 0 0 0 .88-.09l.13 1a10.36 10.36 0 0 1-1.26.1c-1.12 0-1.82-.44-1.82-1.65v-4.56h-1.33v-1H700v-2.31l1.16-.41v2.73h2v1h-2zM706.67 239.87a2.22 2.22 0 0 1-2.47-2.14 2 2 0 0 1 1.89-2l2.5-.34v-.45c0-1.08-.7-1.41-1.58-1.41a4.31 4.31 0 0 0-2 .55l-.44-.92a5.35 5.35 0 0 1 2.6-.65c1.72 0 2.63.77 2.63 2.26v3.31a1 1 0 0 0 .58 1l-.65.84a1.4 1.4 0 0 1-1-.85 2.63 2.63 0 0 1-2.06.8zm0-3.29c-.78.11-1.29.37-1.29 1.09a1.31 1.31 0 0 0 1.45 1.28c.87 0 1.75-.55 1.75-1.38v-1.28zM713.13 236.12l3.34-3.48h1.46l-2.7 2.81 2.83 4.27h-1.42l-2.23-3.49-1.28 1.31v2.19H712v-9.94h1.16zM719.92 236.54a2.23 2.23 0 0 0 2.2 2.3 2.84 2.84 0 0 0 1.86-.7l.6.84a4 4 0 0 1-2.51.88 3.35 3.35 0 0 1-3.37-3.68c0-2.16 1.26-3.69 3.22-3.69s3 1.55 3 3.68v.37zm0-.94h3.75c0-1.09-.65-2.09-1.77-2.09a2.06 2.06 0 0 0-1.97 2.1zM726 238.84l.71-.82a3.36 3.36 0 0 0 2.14.87c.81 0 1.42-.37 1.42-1.07s-.77-.94-1.73-1.19-2.2-.61-2.2-2.07c0-1.19 1.09-2.06 2.58-2.06a3.83 3.83 0 0 1 2.46.88l-.68.78a2.59 2.59 0 0 0-1.75-.68c-.94 0-1.41.41-1.41 1.05s.4.77 1 .94l1.16.34c1 .3 1.73.8 1.73 1.93 0 1.46-1.29 2.13-2.67 2.13a4.26 4.26 0 0 1-2.76-1.03zM738.71 232.64h1.41v1h-1.41v6.06h-1.16v-6.06h-1.18v-1h1.18v-1.32c0-1.22.82-1.66 1.95-1.66a6.62 6.62 0 0 1 1.14.1l-.09 1c-.27 0-.78-.06-1-.06-.67 0-.82.41-.82.85zM747.58 236.19c0 2.13-1.31 3.68-3.27 3.68s-3.27-1.55-3.27-3.68 1.31-3.69 3.27-3.69 3.27 1.5 3.27 3.69zm-1.21 0v-.09c0-1.42-.71-2.63-2.06-2.63s-2.06 1.21-2.06 2.63v.09c0 1.39.71 2.61 2.06 2.61s2.07-1.18 2.07-2.57zM753 233.67h-.18c-1.19 0-2.27.48-2.27 2.41v3.64h-1.15v-7.09h1.16v1.12a2.21 2.21 0 0 1 2.12-1.25h.32zM760.08 238c0 .47.09.87.91.87a6.12 6.12 0 0 0 .88-.09l.13 1a10.36 10.36 0 0 1-1.26.1c-1.12 0-1.82-.44-1.82-1.65v-4.56h-1.33v-1h1.33v-2.31l1.16-.41v2.73h2v1h-2zM763.54 229.78h1.16v3.66a2.44 2.44 0 0 1 2.07-1 2.26 2.26 0 0 1 2.37 2.41v4.81H768v-4.44c0-1.25-.64-1.72-1.46-1.72a1.81 1.81 0 0 0-1.82 2v4.2h-1.16zM772.13 236.54a2.23 2.23 0 0 0 2.2 2.3 2.84 2.84 0 0 0 1.86-.7l.6.84a4 4 0 0 1-2.51.88 3.35 3.35 0 0 1-3.37-3.68c0-2.16 1.26-3.69 3.22-3.69s3 1.55 3 3.68v.37zm0-.94h3.75c0-1.09-.65-2.09-1.77-2.09a2.06 2.06 0 0 0-1.97 2.1zM779.47 229.78a.87.87 0 0 1 .85.87.86.86 0 1 1-1.72 0 .87.87 0 0 1 .87-.87zm.57 9.94h-1.16v-7.09H780zM785.83 233.67h-.18c-1.19 0-2.27.48-2.27 2.41v3.64h-1.16v-7.09h1.16v1.12a2.21 2.21 0 0 1 2.12-1.25h.34zM793 239.87a2.22 2.22 0 0 1-2.47-2.14 2 2 0 0 1 1.89-2l2.5-.34v-.45c0-1.08-.7-1.41-1.58-1.41a4.31 4.31 0 0 0-2 .55l-.44-.92a5.35 5.35 0 0 1 2.6-.65c1.72 0 2.63.77 2.63 2.26v3.31a1 1 0 0 0 .58 1l-.65.84a1.4 1.4 0 0 1-1-.85 2.63 2.63 0 0 1-2.06.8zm0-3.29c-.78.11-1.29.37-1.29 1.09a1.31 1.31 0 0 0 1.45 1.28c.87 0 1.75-.55 1.75-1.38v-1.28zM799.46 232.64v.81a2.48 2.48 0 0 1 2.07-1c1.83 0 3 1.55 3 3.69s-1.18 3.68-3 3.68a2.48 2.48 0 0 1-2.07-1v3h-1.16v-9.24zm3.88 3.51c0-1.48-.71-2.61-2-2.61a1.85 1.85 0 0 0-1.87 2.07v1.15a1.85 1.85 0 0 0 1.87 2.07c1.31 0 2-1.14 2-2.61zM807.53 232.64v.81a2.48 2.48 0 0 1 2.07-1c1.83 0 3 1.55 3 3.69s-1.18 3.68-3 3.68a2.48 2.48 0 0 1-2.07-1v3h-1.16v-9.24zm3.88 3.51c0-1.48-.71-2.61-2-2.61a1.85 1.85 0 0 0-1.87 2.07v1.15a1.85 1.85 0 0 0 1.87 2.07c1.31 0 2-1.14 2-2.61zM814.41 229.78h1.16v8.35c0 .47.14.71.68.71h.73l.11 1a11.29 11.29 0 0 1-1.18.09c-.84 0-1.5-.37-1.5-1.39zM819 229.78a.87.87 0 0 1 .85.87.86.86 0 1 1-1.72 0 .87.87 0 0 1 .87-.87zm.57 9.94h-1.16v-7.09h1.16zM822.54 236.22c0 1.42.7 2.63 2.06 2.63a2 2 0 0 0 1.83-1.19l1 .55a3 3 0 0 1-2.8 1.66c-2 0-3.27-1.53-3.27-3.68s1.31-3.69 3.27-3.69a3 3 0 0 1 2.8 1.66l-1 .55a2 2 0 0 0-1.83-1.19c-1.36 0-2.06 1.21-2.06 2.63zM831.18 239.87a2.22 2.22 0 0 1-2.47-2.14 2 2 0 0 1 1.89-2l2.5-.34v-.45c0-1.08-.7-1.41-1.58-1.41a4.31 4.31 0 0 0-2 .55l-.44-.92a5.35 5.35 0 0 1 2.6-.65c1.72 0 2.63.77 2.63 2.26v3.31a1 1 0 0 0 .58 1l-.65.84a1.4 1.4 0 0 1-1-.85 2.63 2.63 0 0 1-2.06.8zm0-3.29c-.78.11-1.29.37-1.29 1.09a1.31 1.31 0 0 0 1.45 1.28c.87 0 1.75-.55 1.75-1.38v-1.28zM838.18 238c0 .47.09.87.91.87a6.12 6.12 0 0 0 .88-.09l.13 1a10.36 10.36 0 0 1-1.26.1c-1.12 0-1.82-.44-1.82-1.65v-4.56h-1.33v-1H837v-2.31l1.16-.41v2.73h2v1h-2zM842.23 229.78a.87.87 0 0 1 .85.87.86.86 0 1 1-1.72 0 .87.87 0 0 1 .87-.87zm.57 9.94h-1.16v-7.09h1.16zM851.09 236.19c0 2.13-1.31 3.68-3.27 3.68s-3.27-1.55-3.27-3.68 1.31-3.69 3.27-3.69 3.27 1.5 3.27 3.69zm-1.21 0v-.09c0-1.42-.71-2.63-2.06-2.63s-2.06 1.21-2.06 2.63v.09c0 1.39.71 2.61 2.06 2.61s2.06-1.18 2.06-2.57zM852.9 232.64h1.16v.81a2.44 2.44 0 0 1 2.07-1 2.26 2.26 0 0 1 2.37 2.41v4.81h-1.16v-4.44c0-1.25-.64-1.72-1.46-1.72a1.82 1.82 0 0 0-1.82 2v4.2h-1.16zM418.54 255c0 .47.09.87.91.87a6.12 6.12 0 0 0 .88-.09l.13 1a10.36 10.36 0 0 1-1.26.1c-1.12 0-1.82-.44-1.82-1.65v-4.53H416v-1h1.33v-2.31l1.16-.41v2.73h2v1h-2zM428 253.23c0 2.13-1.31 3.68-3.27 3.68s-3.27-1.55-3.27-3.68 1.31-3.69 3.27-3.69 3.27 1.53 3.27 3.69zm-1.21 0v-.09c0-1.42-.71-2.63-2.06-2.63s-2.06 1.21-2.06 2.63v.09c0 1.39.71 2.61 2.06 2.61s2.03-1.18 2.03-2.57zM434.7 256.76h-1.16v-9.94h1.16v3.66a2.48 2.48 0 0 1 2.07-1c1.83 0 3 1.55 3 3.69s-1.18 3.68-3 3.68a2.48 2.48 0 0 1-2.07-1zm3.88-3.58c0-1.48-.71-2.61-2-2.61a1.85 1.85 0 0 0-1.87 2.07v1.15a1.85 1.85 0 0 0 1.87 2.07c1.31 0 2-1.14 2-2.61zM442.46 253.58a2.23 2.23 0 0 0 2.2 2.3 2.84 2.84 0 0 0 1.86-.7l.6.84a4 4 0 0 1-2.51.88 3.35 3.35 0 0 1-3.37-3.68c0-2.16 1.26-3.69 3.22-3.69s3 1.55 3 3.68v.37zm0-.94h3.75c0-1.09-.65-2.09-1.77-2.09a2.06 2.06 0 0 0-1.97 2.1zM454.13 249.68v.81a2.48 2.48 0 0 1 2.07-1c1.83 0 3 1.55 3 3.69s-1.18 3.68-3 3.68a2.48 2.48 0 0 1-2.07-1v3H453v-9.24zm3.88 3.51c0-1.48-.71-2.61-2-2.61a1.85 1.85 0 0 0-1.87 2.07v1.15a1.85 1.85 0 0 0 1.87 2.07c1.31 0 2-1.14 2-2.61zM464.65 250.71h-.18c-1.19 0-2.27.48-2.27 2.41v3.64H461v-7.09h1.16v1.12a2.21 2.21 0 0 1 2.12-1.25h.34zM472.13 253.23c0 2.13-1.31 3.68-3.27 3.68s-3.27-1.55-3.27-3.68 1.31-3.69 3.27-3.69 3.27 1.53 3.27 3.69zm-1.21 0v-.09c0-1.42-.71-2.63-2.06-2.63s-2.06 1.21-2.06 2.63v.09c0 1.39.71 2.61 2.06 2.61s2.06-1.18 2.06-2.57zM474.75 253.26c0 1.42.7 2.63 2.06 2.63a2 2 0 0 0 1.83-1.19l1 .55a3 3 0 0 1-2.8 1.66c-2 0-3.27-1.53-3.27-3.68s1.31-3.69 3.27-3.69a3 3 0 0 1 2.8 1.66l-1 .55a2 2 0 0 0-1.83-1.19c-1.36 0-2.06 1.21-2.06 2.63zM482 253.58a2.23 2.23 0 0 0 2.2 2.3 2.84 2.84 0 0 0 1.86-.7l.6.84a4 4 0 0 1-2.51.88 3.35 3.35 0 0 1-3.37-3.68c0-2.16 1.26-3.69 3.22-3.69s3 1.55 3 3.68v.37zm0-.94h3.75c0-1.09-.65-2.09-1.77-2.09a2.06 2.06 0 0 0-1.98 2.1zM488.15 255.88l.71-.82a3.36 3.36 0 0 0 2.14.87c.81 0 1.42-.37 1.42-1.07s-.77-.94-1.73-1.19-2.2-.61-2.2-2.07c0-1.19 1.09-2.06 2.58-2.06a3.82 3.82 0 0 1 2.46.88l-.68.78a2.59 2.59 0 0 0-1.75-.68c-.94 0-1.41.41-1.41 1.05s.4.77 1 .94l1.16.34c1 .3 1.73.8 1.73 1.93 0 1.46-1.29 2.13-2.67 2.13a4.26 4.26 0 0 1-2.76-1.03zM494.83 255.88l.71-.82a3.36 3.36 0 0 0 2.14.87c.81 0 1.42-.37 1.42-1.07s-.77-.94-1.73-1.19-2.2-.61-2.2-2.07c0-1.19 1.09-2.06 2.58-2.06a3.82 3.82 0 0 1 2.46.88l-.68.78a2.59 2.59 0 0 0-1.75-.68c-.94 0-1.41.41-1.41 1.05s.4.77 1 .94l1.16.34c1 .3 1.73.8 1.73 1.93 0 1.46-1.29 2.13-2.67 2.13a4.26 4.26 0 0 1-2.76-1.03zM502.86 253.58a2.23 2.23 0 0 0 2.2 2.3 2.84 2.84 0 0 0 1.86-.7l.6.84a4 4 0 0 1-2.51.88 3.35 3.35 0 0 1-3.37-3.68c0-2.16 1.26-3.69 3.22-3.69s3 1.55 3 3.68v.37zm0-.94h3.75c0-1.09-.65-2.09-1.77-2.09a2.06 2.06 0 0 0-1.96 2.1zM514.35 256a2.48 2.48 0 0 1-2.07 1c-1.83 0-3-1.53-3-3.68s1.18-3.69 3-3.69a2.48 2.48 0 0 1 2.07 1v-3.66h1.17v9.94h-1.17zm-3.88-2.7c0 1.48.71 2.61 2 2.61a1.85 1.85 0 0 0 1.87-2.07v-1.15a1.85 1.85 0 0 0-1.87-2.07c-1.31 0-2 1.14-2 2.61zM518.57 255a1 1 0 1 1-1 1 1 1 0 0 1 1-1z"/>
      </g>
      <g>
        <path class="cls-2" d="M417 289h5a4 4 0 0 1 4.22 4.16 4.13 4.13 0 0 1-4.41 4.16h-2.28v4.23H417zm4.34 2.3h-1.79v3.7h1.79c1.4 0 2.28-.65 2.28-1.83v-.07c-.03-1.16-.91-1.81-2.31-1.81zM430.31 301.73a3 3 0 0 1-3.25-2.94 2.71 2.71 0 0 1 2.64-2.79l2.85-.39v-.3c0-.83-.56-1.2-1.47-1.2a6.32 6.32 0 0 0-2.76.75l-1-1.87a7.93 7.93 0 0 1 3.8-1c1.72 0 3.8.47 3.8 3v4c0 .56.3.75.81 1l-1.09 1.74a2.13 2.13 0 0 1-1.76-1.06 3.24 3.24 0 0 1-2.57 1.06zm.29-4c-.59.09-1 .43-1 1a1.14 1.14 0 0 0 1.27 1.09 1.57 1.57 0 0 0 1.67-1.72v-.65zM439.14 301.93l.07-.3H439l-2.89-9.45h2.69l1.72 6.49 1.69-6.49h2.65l-3.23 10.76c-.41 1.4-1.51 1.78-2.92 1.78a15.91 15.91 0 0 1-2.21-.18l.5-2.13a8.71 8.71 0 0 0 1.29.11.71.71 0 0 0 .85-.59zM454.13 301.55h-2.42v-5.45c0-1.35-.63-1.81-1.42-1.81s-1.65.65-1.65 2.15v5.11h-2.42v-9.38h2.42v.83a3.14 3.14 0 0 1 2.4-1 2.71 2.71 0 0 1 2.42 1.27 3.31 3.31 0 0 1 2.84-1.27 3.14 3.14 0 0 1 3.34 3.16v6.4h-2.44v-5.46c0-1.35-.63-1.81-1.42-1.81s-1.65.65-1.65 2.15zM463.85 297.7a2.21 2.21 0 0 0 2.28 1.83 3.37 3.37 0 0 0 2.37-.88l1.2 1.83a5.61 5.61 0 0 1-3.64 1.26 4.56 4.56 0 0 1-4.72-4.81v-.11a4.54 4.54 0 0 1 4.54-4.83 4.3 4.3 0 0 1 4.31 4.61v1.09zm0-1.83h3.78a1.8 1.8 0 0 0-1.85-1.78 1.88 1.88 0 0 0-1.91 1.78zM471.91 292.17h2.42v.83a3.18 3.18 0 0 1 2.39-1 3.07 3.07 0 0 1 3.25 3.23v6.33h-2.42v-5.46c0-1.33-.63-1.83-1.47-1.83s-1.74.7-1.74 2.15v5.13h-2.42zM485.61 298.75c0 .45.2.79 1 .79a6 6 0 0 0 1.2-.11l.21 2.13a19.36 19.36 0 0 1-2.22.16c-1.67 0-2.65-.74-2.65-2.39v-5h-1.65v-2.17h1.69v-2.65l2.42-.65v3.3h2.46v2.17h-2.46zM496.8 301.73a3 3 0 0 1-3.25-2.94 2.71 2.71 0 0 1 2.64-2.74l2.85-.39v-.3c0-.83-.56-1.2-1.47-1.2a6.32 6.32 0 0 0-2.76.75l-1-1.87a7.93 7.93 0 0 1 3.8-1c1.72 0 3.8.47 3.8 3v4c0 .56.3.75.81 1l-1.09 1.74a2.13 2.13 0 0 1-1.76-1.06 3.24 3.24 0 0 1-2.57 1.01zm.29-4c-.59.09-1 .43-1 1a1.14 1.14 0 0 0 1.27 1.09 1.57 1.57 0 0 0 1.67-1.72v-.65zM511.64 301.55h-2.42v-5.45c0-1.35-.63-1.81-1.42-1.81s-1.65.65-1.65 2.15v5.11h-2.42v-9.38h2.42v.83a3.14 3.14 0 0 1 2.4-1 2.71 2.71 0 0 1 2.42 1.27 3.31 3.31 0 0 1 2.83-1.27 3.14 3.14 0 0 1 3.34 3.16v6.4h-2.44v-5.46c0-1.35-.63-1.81-1.42-1.81s-1.65.65-1.65 2.15zM528.07 296.87a4.62 4.62 0 1 1-9.22 0 4.62 4.62 0 1 1 9.22 0zm-2.48 0c0-1.52-.75-2.62-2.13-2.62s-2.12 1.09-2.13 2.62c0 1.53.75 2.62 2.13 2.62s2.12-1.09 2.13-2.62zM537.82 301.55h-2.42v-.81a3.18 3.18 0 0 1-2.39 1 3.07 3.07 0 0 1-3.25-3.23v-6.33h2.42v5.45c0 1.33.63 1.83 1.47 1.83s1.74-.7 1.74-2.15v-5.13h2.42zM540.08 292.17h2.42v.83a3.18 3.18 0 0 1 2.39-1 3.07 3.07 0 0 1 3.25 3.23v6.33h-2.42v-5.46c0-1.33-.63-1.83-1.47-1.83s-1.74.7-1.74 2.15v5.13h-2.42zM553.79 298.75c0 .45.2.79 1 .79a6 6 0 0 0 1.2-.11l.21 2.13a19.36 19.36 0 0 1-2.22.16c-1.67 0-2.65-.74-2.65-2.39v-5h-1.69v-2.17h1.69v-2.65l2.42-.65v3.3h2.46v2.17h-2.46z"/>
      </g>
      <path class="cls-3" d="M376.74 459.15h623.37v2.99H376.74z"/>
      <g>
        <path class="cls-2" d="M417.67 167h7.53a6 6 0 0 1 6.32 6.24c0 3.58-2.69 6.24-6.62 6.24h-3.42v6.35h-3.82zm6.51 3.44h-2.69V176h2.69c2.1 0 3.42-1 3.42-2.74v-.11c-.01-1.75-1.33-2.72-3.42-2.72zM437.68 186.09c-2.56 0-4.87-1.61-4.87-4.41 0-2.26 1.48-3.77 4-4.12L441 177v-.46c0-1.24-.83-1.8-2.21-1.8a9.47 9.47 0 0 0-4.14 1.13l-1.43-2.8a11.89 11.89 0 0 1 5.7-1.56c2.58 0 5.7.7 5.7 4.52v6c0 .83.46 1.13 1.21 1.45l-1.64 2.61a3.2 3.2 0 0 1-2.64-1.59 4.86 4.86 0 0 1-3.87 1.59zm.43-5.94c-.89.13-1.48.65-1.48 1.45a1.71 1.71 0 0 0 1.91 1.64 2.35 2.35 0 0 0 2.5-2.58v-1zM450.92 186.38l.11-.46h-.27l-4.33-14.18h4l2.58 9.74 2.53-9.74h4l-4.84 16.14c-.62 2.1-2.26 2.66-4.39 2.66a23.76 23.76 0 0 1-3.31-.27l.75-3.2a13 13 0 0 0 1.94.16 1.07 1.07 0 0 0 1.23-.85zM472.34 171.75H475V175h-2.69v10.81h-3.63V175h-2.23v-3.25h2.23v-1.45c0-2.45 1.75-3.58 4.25-3.58a24.59 24.59 0 0 1 2.88.19l-.3 3.09a12.52 12.52 0 0 0-1.77-.13c-1 0-1.43.43-1.43 1zM490.25 178.8c0 4.17-2.77 7.29-6.91 7.29s-6.91-3.15-6.91-7.29c0-4.14 2.74-7.29 6.91-7.29s6.91 3.15 6.91 7.29zm-3.71 0c0-2.29-1.13-3.93-3.2-3.93s-3.17 1.64-3.2 3.93c0 2.29 1.13 3.93 3.2 3.93s3.17-1.64 3.2-3.93zM501.1 175.28h-.65c-2.07 0-3.9.7-3.9 3.71v6.83h-3.63v-14.07h3.63v1.59a4.36 4.36 0 0 1 3.74-1.83h.81zM512.35 180a3.31 3.31 0 0 0 3.42 2.74 5.05 5.05 0 0 0 3.55-1.32l1.8 2.74a8.42 8.42 0 0 1-5.46 1.88 6.84 6.84 0 0 1-7.07-7.21v-.16c0-4.14 2.82-7.24 6.81-7.24 3.71 0 6.46 2.82 6.46 6.91V180zm0-2.74H518a2.71 2.71 0 0 0-2.77-2.66 2.81 2.81 0 0 0-2.86 2.69zM527.41 178.45l-4.28-6.7h4.2l2.15 3.79 2.26-3.79H536l-4.36 6.72 4.84 7.34h-4.28l-2.77-4.3-2.53 4.3h-4.22zM542.16 186.09c-2.56 0-4.87-1.61-4.87-4.41 0-2.26 1.48-3.77 4-4.12l4.28-.59v-.46c0-1.24-.83-1.8-2.21-1.8a9.47 9.47 0 0 0-4.14 1.13l-1.43-2.8a11.89 11.89 0 0 1 5.7-1.56c2.58 0 5.7.7 5.7 4.52v6c0 .83.46 1.13 1.21 1.45l-1.64 2.61a3.2 3.2 0 0 1-2.64-1.59 4.86 4.86 0 0 1-3.96 1.62zm.43-5.94c-.89.13-1.48.65-1.48 1.45a1.71 1.71 0 0 0 1.91 1.64 2.35 2.35 0 0 0 2.5-2.58v-1zM564.41 185.82h-3.63v-8.18c0-2-.94-2.72-2.13-2.72-1.4 0-2.47 1-2.47 3.23v7.67h-3.63v-14.07h3.63V173a4.71 4.71 0 0 1 3.6-1.51 4.07 4.07 0 0 1 3.63 1.91 5 5 0 0 1 4.25-1.91 4.71 4.71 0 0 1 5 4.73v9.6H569v-8.18c0-2-.94-2.72-2.13-2.72-1.4 0-2.47 1-2.47 3.23zM579.58 171.75V173a4.65 4.65 0 0 1 3.55-1.48c3.71 0 6.19 3.07 6.19 7.24v.13c0 4.17-2.56 7.24-6.27 7.24a4.47 4.47 0 0 1-3.47-1.48v5.65H576v-18.55zm-.11 8.34a2.65 2.65 0 0 0 2.91 2.64c2.07 0 3.2-1.64 3.2-3.87v-.13c0-2.23-1.13-3.87-3.2-3.87a2.65 2.65 0 0 0-2.91 2.64zM592 167h3.63v15c0 .59.32.91 1.08.91a7.2 7.2 0 0 0 1.37-.13l.3 3.09a29.89 29.89 0 0 1-3.07.22c-2 0-3.31-1.08-3.31-3.09zM603.07 180a3.31 3.31 0 0 0 3.42 2.74 5.05 5.05 0 0 0 3.55-1.32l1.8 2.74a8.42 8.42 0 0 1-5.46 1.88 6.84 6.84 0 0 1-7.07-7.21v-.16c0-4.14 2.82-7.24 6.81-7.24 3.71 0 6.46 2.82 6.46 6.91V180zm0-2.74h5.68a2.71 2.71 0 0 0-2.77-2.66 2.81 2.81 0 0 0-2.88 2.69zM622.44 181.3a6.52 6.52 0 0 0 4.11 1.69c1.1 0 2-.3 2-1.13 0-.67-.54-.94-1.72-1.24a24.13 24.13 0 0 1-3.5-1 3.78 3.78 0 0 1-2.47-3.66c0-3 2.66-4.49 5.78-4.49a8.08 8.08 0 0 1 5.57 2l-2.31 2.39a4.84 4.84 0 0 0-3.23-1.29c-1 0-2 .35-2 1.18 0 .65.62.89 1.67 1.16a19.81 19.81 0 0 1 4 1.29 3.72 3.72 0 0 1 2 3.36c0 3-2.56 4.52-5.68 4.52a10.34 10.34 0 0 1-6.35-2.13zM638 180a3.31 3.31 0 0 0 3.42 2.74 5.05 5.05 0 0 0 3.55-1.32l1.8 2.74a8.42 8.42 0 0 1-5.46 1.88 6.84 6.84 0 0 1-7.07-7.21v-.16c0-4.14 2.82-7.24 6.81-7.24 3.71 0 6.46 2.82 6.46 6.91V180zm0-2.74h5.68a2.71 2.71 0 0 0-2.77-2.66 2.81 2.81 0 0 0-2.84 2.69zM658.31 175.28h-.65c-2.07 0-3.9.7-3.9 3.71v6.83h-3.63v-14.07h3.63v1.59a4.36 4.36 0 0 1 3.74-1.83h.81zM663.56 185.82l-4.3-14.07h4l2.53 9.68 2.58-9.68h4l-4.28 14.07zM676.25 166.32a2.29 2.29 0 1 1-2.25 2.28 2.28 2.28 0 0 1 2.25-2.28zm1.83 19.5h-3.63v-14.07h3.63zM680.75 178.75c0-4.14 2.85-7.26 6.81-7.26a6.33 6.33 0 0 1 6.11 3.63l-3.23 1.64a2.87 2.87 0 0 0-2.8-1.91c-2.21 0-3.15 2-3.15 3.87v.16c0 1.83.94 3.85 3.15 3.85a2.87 2.87 0 0 0 2.8-1.91l3.23 1.64a6.44 6.44 0 0 1-6.16 3.63c-4 0-6.75-3.12-6.75-7.26zM699.07 180a3.31 3.31 0 0 0 3.42 2.74 5.05 5.05 0 0 0 3.55-1.32l1.8 2.74a8.42 8.42 0 0 1-5.46 1.88 6.84 6.84 0 0 1-7.07-7.21v-.16c0-4.14 2.82-7.24 6.81-7.24 3.71 0 6.46 2.82 6.46 6.91V180zm0-2.74h5.68a2.71 2.71 0 0 0-2.77-2.66 2.81 2.81 0 0 0-2.88 2.69z"/>
      </g>
      <g>
        <circle class="cls-1" cx="395.71" cy="73.5" r="6.35"/>
        <circle class="cls-1" cx="413.46" cy="73.5" r="6.35"/>
        <circle class="cls-1" cx="431.21" cy="73.5" r="6.35"/>
      </g>
      <path class="cls-3" d="M376.74 88.45v-19.9a10 10 0 0 1 10-10h603.37a10 10 0 0 1 10 10v19.9"/>
      <g>
        <circle class="cls-1" cx="395.71" cy="73.5" r="6.35"/>
        <circle class="cls-1" cx="413.46" cy="73.5" r="6.35"/>
        <circle class="cls-1" cx="431.21" cy="73.5" r="6.35"/>
      </g>
      <path class="cls-3" d="M379.73 462.14V87.95h617.4v374.19h2.98V85.46H376.74v376.68h2.99z"/>
    </g>
  </g>
</svg>
