<svg viewBox="0 0 1000.58 463.63" xmlns="http://www.w3.org/2000/svg"><g fill="#fff"><path d="m-1.37 29.9h620.85v358.1h-620.85z"/><circle cx="18.97" cy="14.95" r="6.35"/><circle cx="36.72" cy="14.95" r="6.35"/><circle cx="54.47" cy="14.95" r="6.35"/></g><path d="m.75 29.9h621.72v48.58h-621.72z" fill="#0b0b0b"/><path d="m199.55 44.64-8 9.7v-9.7h-4.54v22.41h4.54v-6.82l2.89-3.23 5.92 10.05h5.27l-8.29-13.5 7.79-8.91zm-27.92 18.36a4 4 0 0 1 -1.47-.87 4.12 4.12 0 0 1 -1-1.49 5.66 5.66 0 0 1 -.36-2.12v-13.91h-4.48v14.56a8.21 8.21 0 0 0 .68 3.39 7.39 7.39 0 0 0 1.9 2.58 8.63 8.63 0 0 0 2.89 1.64 11.83 11.83 0 0 0 7.31 0 8.56 8.56 0 0 0 2.9-1.64 7.43 7.43 0 0 0 1.89-2.58 8.2 8.2 0 0 0 .68-3.39v-14.56h-4.45v13.89a5.69 5.69 0 0 1 -.36 2.12 4.14 4.14 0 0 1 -1 1.49 4 4 0 0 1 -1.47.87 6 6 0 0 1 -3.67 0m-16.37 2.65a2.94 2.94 0 0 0 .62.91 2.8 2.8 0 0 0 .92.61 2.83 2.83 0 0 0 1.1.22 2.78 2.78 0 0 0 1.09-.22 2.83 2.83 0 0 0 .91-.61 3 3 0 0 0 .62-.91 2.74 2.74 0 0 0 .23-1.11 2.63 2.63 0 0 0 -.23-1.08 2.88 2.88 0 0 0 -.62-.89 3 3 0 0 0 -.91-.61 2.67 2.67 0 0 0 -1.09-.23 2.72 2.72 0 0 0 -1.1.23 3 3 0 0 0 -.92.61 2.87 2.87 0 0 0 -.62.89 2.64 2.64 0 0 0 -.23 1.08 2.75 2.75 0 0 0 .23 1.11m-7.19 1.42 6.33-22.41h-5.02l-4.23 16.85h-.16l-4.33-16.85h-5.08l6.33 22.41zm-27.5-4.34a5.3 5.3 0 0 1 -1.88-1.54 6.94 6.94 0 0 1 -1.15-2.33 10.53 10.53 0 0 1 -.39-2.94v-.13a10.56 10.56 0 0 1 .39-2.93 6.93 6.93 0 0 1 1.15-2.34 5.29 5.29 0 0 1 1.88-1.5 6.33 6.33 0 0 1 5.18 0 5.38 5.38 0 0 1 1.88 1.54 6.85 6.85 0 0 1 1.16 2.34 10.51 10.51 0 0 1 .39 2.93v.13a10.48 10.48 0 0 1 -.39 2.94 6.86 6.86 0 0 1 -1.16 2.33 5.39 5.39 0 0 1 -1.88 1.54 6.33 6.33 0 0 1 -5.18 0m-1.9-17.49a10 10 0 0 0 -3.36 2.45 10.68 10.68 0 0 0 -2.11 3.66 14.36 14.36 0 0 0 0 9 10.8 10.8 0 0 0 2.11 3.63 9.81 9.81 0 0 0 3.36 2.45 11.75 11.75 0 0 0 9 0 9.78 9.78 0 0 0 3.34-2.45 10.8 10.8 0 0 0 2.11-3.66 14.39 14.39 0 0 0 0-9 10.69 10.69 0 0 0 -2.11-3.66 9.93 9.93 0 0 0 -3.37-2.45 11.68 11.68 0 0 0 -9 0m-24.7 10.52a10.52 10.52 0 0 1 .36-2.75 7.11 7.11 0 0 1 1.09-2.35 5.51 5.51 0 0 1 1.88-1.65 5.63 5.63 0 0 1 2.72-.62 6 6 0 0 1 1.81.26 5.13 5.13 0 0 1 2.56 1.77 7.71 7.71 0 0 1 .84 1.34l4-2.23a8.37 8.37 0 0 0 -1.47-2.13 9.08 9.08 0 0 0 -2.09-1.64 10.3 10.3 0 0 0 -2.61-1 12.08 12.08 0 0 0 -3-.37 10.6 10.6 0 0 0 -4.43.9 10.12 10.12 0 0 0 -3.37 2.45 11 11 0 0 0 -2.22 3.61 13.19 13.19 0 0 0 -.76 4.51 14.52 14.52 0 0 0 .68 4.52 10.87 10.87 0 0 0 2 3.66 9.19 9.19 0 0 0 3.21 2.45 10.2 10.2 0 0 0 4.36.89 8.65 8.65 0 0 0 2-.22 8 8 0 0 0 1.71-.6 6.54 6.54 0 0 0 1.41-.92 5.52 5.52 0 0 0 1-1.2v2.57h4v-12.23h-10.15v3.45h5.73v.22a5.67 5.67 0 0 1 -.19 1.56 4.33 4.33 0 0 1 -.84 1.57 4.68 4.68 0 0 1 -1.61 1.21 5.81 5.81 0 0 1 -2.52.48 5.63 5.63 0 0 1 -2.72-.62 5.5 5.5 0 0 1 -1.93-1.64 7.12 7.12 0 0 1 -1.09-2.34 10.5 10.5 0 0 1 -.36-2.77zm-47.37-6.55a2 2 0 1 0 -1.06-2.55 2 2 0 0 0 1.06 2.55m-4.46 2.61a2 2 0 1 0 -1.1-2.55 2 2 0 0 0 1.06 2.55m-1.26 4.95a2 2 0 1 0 -1.06-2.55 2 2 0 0 0 1.06 2.55m10.73-5.99a2 2 0 1 0 -1.06-2.55 2 2 0 0 0 1.06 2.55m18.01-1.57a2 2 0 1 1 1.06-2.55 2 2 0 0 1 -1.06 2.55m4.46 2.61a2 2 0 1 1 1.06-2.55 2 2 0 0 1 -1.06 2.55m1.3 4.95a2 2 0 1 1 1.06-2.55 2 2 0 0 1 -1.06 2.55m-10.73-5.99a2 2 0 1 1 1.06-2.55 2 2 0 0 1 -1.06 2.55m-5.48-5.08 2.49 1.31v-3.68l-2.48.79a1.24 1.24 0 0 0 -.24-.24l1-3.15h-3.61l1 3.15a1.27 1.27 0 0 0 -.24.24l-2.48-.79v3.68l2.47-1.32a1.32 1.32 0 0 0 .26.25l-1.43 4.31a2.32 2.32 0 0 0 1.88 3h.58a2.32 2.32 0 0 0 2-2.29 2.35 2.35 0 0 0 -.1-.68l-1.43-4.31a1.34 1.34 0 0 0 .26-.25m-1.02 21.06a94 94 0 0 1 13.17.89c1.13-4.75 2.51-7.48 3.93-9.42l-2.68-1a4.89 4.89 0 0 1 0 2.86 5.42 5.42 0 0 1 -1.19-2.44l-1.23 4.34a4 4 0 0 1 2.09-.91c-1.23 2.66-2.77 3.34-3.77 3.16a1.9 1.9 0 0 1 -1.59-2.23c.28-1.31 1.62-1.65 2.25-.13 1.2-2.44-.83-3.21-2.14-2.48 2-2 2.24-3.79.62-5.94-2.26 1.73-2.29 3.44-1.27 5.84-1.32-1.51-3.37-.7-2.63 1.74 1-1.47 2.21-.55 2 .85-.17 1.22-1.78 2.2-3.78 2-2.87-.26-3-2.24-3.11-3.88.7-.13 2 .52 3.06 2l.4-4.58a4.46 4.46 0 0 1 -3.44 1.5 13.41 13.41 0 0 1 2.22-3.26h-5.72a13.45 13.45 0 0 1 2.22 3.26 4.46 4.46 0 0 1 -3.41-1.39l.4 4.58c1.09-1.52 2.36-2.18 3.06-2-.07 1.64-.24 3.62-3.11 3.88-2 .17-3.61-.81-3.78-2-.2-1.4 1.06-2.33 2-.85.74-2.44-1.31-3.25-2.63-1.74 1-2.41 1-4.12-1.27-5.84-1.62 2.15-1.39 3.94.62 5.94-1.31-.72-3.34 0-2.14 2.48.63-1.52 2-1.18 2.25.13a1.9 1.9 0 0 1 -1.59 2.23c-1 .19-2.54-.5-3.77-3.16a4 4 0 0 1 2.06.8l-1.3-4.32a5.41 5.41 0 0 1 -1.19 2.44 4.89 4.89 0 0 1 0-2.86l-2.67 1c1.42 1.94 2.8 4.66 3.93 9.41a94.18 94.18 0 0 1 13.13-.9" fill="#fff"/><path d="m2.99 389.34v-359.45h617.67v359.45h2.99v-362.43h-623.65v362.43z" fill="#dadada"/><path d="m40.92 108.44h7.53a6 6 0 0 1 6.32 6.24c0 3.58-2.69 6.24-6.62 6.24h-3.41v6.35h-3.82zm6.51 3.44h-2.69v5.6h2.69c2.1 0 3.42-1 3.42-2.74v-.11c0-1.78-1.32-2.75-3.42-2.75zm13.51 15.65c-2.56 0-4.87-1.61-4.87-4.41 0-2.26 1.48-3.77 4-4.12l4.28-.59v-.41c0-1.24-.83-1.8-2.21-1.8a9.47 9.47 0 0 0 -4.14 1.09l-1.43-2.8a11.89 11.89 0 0 1 5.7-1.56c2.58 0 5.7.7 5.7 4.52v6c0 .83.46 1.13 1.21 1.45l-1.64 2.61a3.2 3.2 0 0 1 -2.64-1.59 4.86 4.86 0 0 1 -3.96 1.61zm.43-5.94c-.89.13-1.48.65-1.48 1.45a1.71 1.71 0 0 0 1.91 1.64 2.35 2.35 0 0 0 2.5-2.58v-1zm12.81 6.24.11-.46h-.29l-4.31-14.17h4l2.58 9.74 2.53-9.74h4l-4.8 16.14c-.62 2.1-2.26 2.66-4.39 2.66a23.85 23.85 0 0 1 -3.31-.27l.75-3.2a13 13 0 0 0 1.94.16 1.07 1.07 0 0 0 1.19-.86zm21.42-14.63h2.69v3.25h-2.69v10.81h-3.6v-10.81h-2.27v-3.25h2.27v-1.45c0-2.45 1.75-3.58 4.25-3.58a24.59 24.59 0 0 1 2.88.19l-.3 3.09a12.44 12.44 0 0 0 -1.77-.13c-1 0-1.43.43-1.43 1zm17.91 7.04c0 4.17-2.77 7.29-6.91 7.29s-6.91-3.15-6.91-7.29 2.74-7.29 6.91-7.29 6.91 3.15 6.91 7.29zm-3.71 0c0-2.29-1.13-3.93-3.2-3.93s-3.17 1.64-3.2 3.93c0 2.29 1.13 3.93 3.2 3.93s3.17-1.64 3.2-3.93zm14.56-3.52h-.65c-2.07 0-3.9.7-3.9 3.71v6.83h-3.63v-14.06h3.63v1.59a4.36 4.36 0 0 1 3.74-1.83h.81zm11.24 4.76a3.31 3.31 0 0 0 3.42 2.74 5.05 5.05 0 0 0 3.55-1.32l1.8 2.74a8.42 8.42 0 0 1 -5.46 1.88 6.84 6.84 0 0 1 -7.07-7.21v-.16c0-4.14 2.82-7.24 6.81-7.24 3.71 0 6.46 2.82 6.46 6.91v1.64zm0-2.74h5.68a2.71 2.71 0 0 0 -2.77-2.66 2.81 2.81 0 0 0 -2.88 2.66zm15.07 1.15-4.28-6.7h4.2l2.15 3.79 2.26-3.78h4.22l-4.36 6.72 4.84 7.34h-4.28l-2.77-4.3-2.53 4.3h-4.22zm14.74 7.64c-2.56 0-4.87-1.61-4.87-4.41 0-2.26 1.48-3.77 4-4.12l4.28-.59v-.41c0-1.24-.83-1.8-2.21-1.8a9.47 9.47 0 0 0 -4.14 1.13l-1.43-2.8a11.89 11.89 0 0 1 5.7-1.56c2.58 0 5.7.7 5.7 4.52v6c0 .83.46 1.13 1.21 1.45l-1.65 2.59a3.2 3.2 0 0 1 -2.64-1.59 4.86 4.86 0 0 1 -3.95 1.59zm.43-5.94c-.89.13-1.48.65-1.48 1.45a1.71 1.71 0 0 0 1.91 1.64 2.35 2.35 0 0 0 2.5-2.58v-1zm21.82 5.68h-3.66v-8.18c0-2-.94-2.72-2.13-2.72-1.4 0-2.47 1-2.47 3.23v7.67h-3.6v-14.07h3.63v1.24a4.71 4.71 0 0 1 3.6-1.51 4.07 4.07 0 0 1 3.63 1.91 5 5 0 0 1 4.25-1.91 4.71 4.71 0 0 1 5 4.73v9.6h-3.66v-8.18c0-2-.94-2.72-2.13-2.72-1.4 0-2.47 1-2.47 3.23zm15.18-14.07v1.21a4.65 4.65 0 0 1 3.55-1.48c3.71 0 6.19 3.07 6.19 7.24v.13c0 4.17-2.56 7.24-6.27 7.24a4.47 4.47 0 0 1 -3.47-1.48v5.65h-3.63v-18.51zm-.11 8.34a2.65 2.65 0 0 0 2.91 2.64c2.07 0 3.2-1.64 3.2-3.87v-.13c0-2.23-1.13-3.87-3.2-3.87a2.65 2.65 0 0 0 -2.91 2.64zm12.49-13.1h3.63v15c0 .59.32.91 1.08.91a7.19 7.19 0 0 0 1.37-.13l.3 3.09a29.89 29.89 0 0 1 -3.07.22c-2 0-3.31-1.08-3.31-3.09zm11.11 13.04a3.31 3.31 0 0 0 3.42 2.74 5.05 5.05 0 0 0 3.55-1.32l1.8 2.74a8.42 8.42 0 0 1 -5.46 1.88 6.84 6.84 0 0 1 -7.07-7.21v-.16c0-4.14 2.82-7.24 6.81-7.24 3.71 0 6.46 2.82 6.46 6.91v1.64zm0-2.74h5.67a2.71 2.71 0 0 0 -2.77-2.66 2.81 2.81 0 0 0 -2.88 2.66zm19.37 4.01a6.52 6.52 0 0 0 4.11 1.69c1.1 0 2-.3 2-1.13 0-.67-.54-.94-1.72-1.24a24.13 24.13 0 0 1 -3.5-1 3.78 3.78 0 0 1 -2.47-3.66c0-3 2.66-4.49 5.78-4.49a8.08 8.08 0 0 1 5.57 2l-2.31 2.39a4.84 4.84 0 0 0 -3.23-1.29c-1 0-2 .35-2 1.18 0 .65.62.89 1.67 1.16a19.81 19.81 0 0 1 4 1.29 3.72 3.72 0 0 1 2 3.36c0 3-2.56 4.52-5.68 4.52a10.34 10.34 0 0 1 -6.35-2.13zm15.61-1.27a3.31 3.31 0 0 0 3.42 2.74 5.05 5.05 0 0 0 3.55-1.32l1.8 2.74a8.42 8.42 0 0 1 -5.46 1.88 6.84 6.84 0 0 1 -7.07-7.21v-.16c0-4.14 2.82-7.24 6.81-7.24 3.71 0 6.46 2.82 6.46 6.91v1.64zm0-2.74h5.69a2.71 2.71 0 0 0 -2.77-2.66 2.81 2.81 0 0 0 -2.9 2.66zm20.25-2.02h-.65c-2.07 0-3.9.7-3.9 3.71v6.83h-3.63v-14.06h3.62v1.59a4.36 4.36 0 0 1 3.74-1.83h.81zm5.25 10.55-4.3-14.07h4l2.53 9.68 2.58-9.68h4l-4.28 14.07zm12.7-19.51a2.29 2.29 0 1 1 -2.29 2.29 2.28 2.28 0 0 1 2.29-2.29zm1.83 19.5h-3.63v-14.06h3.63zm2.66-7.07c0-4.14 2.85-7.26 6.81-7.26a6.33 6.33 0 0 1 6.11 3.63l-3.23 1.64a2.87 2.87 0 0 0 -2.8-1.91c-2.21 0-3.15 2-3.15 3.87v.16c0 1.83.94 3.85 3.15 3.85a2.87 2.87 0 0 0 2.8-1.91l3.23 1.64a6.44 6.44 0 0 1 -6.16 3.63c-4 0-6.75-3.12-6.75-7.26zm18.33 1.29a3.31 3.31 0 0 0 3.42 2.74 5.05 5.05 0 0 0 3.55-1.32l1.8 2.74a8.42 8.42 0 0 1 -5.46 1.88 6.84 6.84 0 0 1 -7.07-7.21v-.16c0-4.14 2.82-7.24 6.81-7.24 3.71 0 6.46 2.82 6.46 6.91v1.64zm0-2.74h5.67a2.71 2.71 0 0 0 -2.77-2.66 2.81 2.81 0 0 0 -2.88 2.66z" fill="#0b0b0b"/><path d="m38.77 316.26h181.64v25.81h-181.64z" fill="#004a1e"/><path d="m38.77 313.28h181.64v25.81h-181.64z" fill="#00823b"/><path d="m64.11 321.55h4a3.16 3.16 0 0 1 3.34 3.29 3.27 3.27 0 0 1 -3.49 3.29h-1.8v3.35h-2zm3.44 1.82h-1.43v3h1.42c1.11 0 1.8-.51 1.8-1.45v-.06c.01-.98-.69-1.49-1.8-1.49zm9.39 2.56h-.34c-1.09 0-2.06.37-2.06 2v3.61h-1.91v-7.43h1.92v.84a2.3 2.3 0 0 1 2-1h.43zm8 1.86a3.65 3.65 0 1 1 -7.3 0 3.65 3.65 0 1 1 7.3 0zm-2 0c0-1.21-.6-2.07-1.69-2.07s-1.68.87-1.69 2.07c0 1.21.6 2.07 1.69 2.07s1.75-.86 1.75-2.07zm3.06-.03a3.61 3.61 0 0 1 3.59-3.83 3.34 3.34 0 0 1 3.22 1.92l-1.7.87a1.52 1.52 0 0 0 -1.48-1c-1.17 0-1.66 1.06-1.66 2v.09c0 1 .5 2 1.66 2a1.52 1.52 0 0 0 1.48-1l1.7.87a3.4 3.4 0 0 1 -3.25 1.92 3.59 3.59 0 0 1 -3.56-3.8zm9.63.68a1.75 1.75 0 0 0 1.8 1.45 2.67 2.67 0 0 0 1.87-.7l1 1.45a4.44 4.44 0 0 1 -2.88 1 3.61 3.61 0 0 1 -3.73-3.81v-.09a3.59 3.59 0 0 1 3.59-3.82 3.4 3.4 0 0 1 3.41 3.65v.87zm0-1.45h3a1.43 1.43 0 0 0 -1.46-1.41 1.49 1.49 0 0 0 -1.52 1.42zm7.98 1.45a1.75 1.75 0 0 0 1.8 1.45 2.67 2.67 0 0 0 1.87-.7l1 1.45a4.44 4.44 0 0 1 -2.88 1 3.61 3.61 0 0 1 -3.73-3.81v-.09a3.59 3.59 0 0 1 3.59-3.82 3.4 3.4 0 0 1 3.41 3.65v.87zm0-1.45h3a1.43 1.43 0 0 0 -1.46-1.41 1.49 1.49 0 0 0 -1.52 1.42zm6.01.75c0-2.2 1.31-3.82 3.27-3.82a2.46 2.46 0 0 1 1.87.78v-3.15h1.92v9.94h-1.92v-.64a2.36 2.36 0 0 1 -1.83.78c-2 0-3.31-1.62-3.31-3.82zm5.2-.65a1.4 1.4 0 0 0 -1.53-1.39c-1.09 0-1.69.87-1.69 2v.07c0 1.18.6 2 1.69 2a1.4 1.4 0 0 0 1.53-1.39zm9.52 2.19c0 .36.16.63.82.63a4.75 4.75 0 0 0 1-.09l.17 1.69a15.35 15.35 0 0 1 -1.76.13c-1.32 0-2.1-.58-2.1-1.89v-4h-1.33v-1.72h1.33v-2.03l1.92-.51v2.61h1.95v1.72h-1.95zm10.21-1.49a3.65 3.65 0 1 1 -7.3 0 3.65 3.65 0 1 1 7.3 0zm-2 0c0-1.21-.6-2.07-1.69-2.07s-1.68.87-1.69 2.07c0 1.21.6 2.07 1.69 2.07s1.68-.87 1.69-2.07zm8.76-3.72v.64a2.46 2.46 0 0 1 1.87-.78c2 0 3.27 1.62 3.27 3.82v.07c0 2.2-1.35 3.82-3.31 3.82a2.36 2.36 0 0 1 -1.83-.78v3h-1.91v-9.77zm-.06 4.4a1.4 1.4 0 0 0 1.53 1.39c1.09 0 1.69-.87 1.69-2v-.07c0-1.18-.6-2-1.69-2a1.4 1.4 0 0 0 -1.53 1.39zm8.75 3.16a2.38 2.38 0 0 1 -2.57-2.33 2.15 2.15 0 0 1 2.09-2.17l2.26-.31v-.24c0-.65-.44-1-1.16-1a5 5 0 0 0 -2.19.6l-.75-1.48a6.27 6.27 0 0 1 3-.82c1.36 0 3 .37 3 2.39v3.18c0 .44.24.6.64.77l-.87 1.38a1.69 1.69 0 0 1 -1.39-.84 2.57 2.57 0 0 1 -2.06.87zm.23-3.14c-.47.07-.78.34-.78.77a.9.9 0 0 0 1 .87 1.24 1.24 0 0 0 1.32-1.36v-.51zm6.77 3.3.06-.24h-.14l-2.29-7.48h2.13l1.36 5.14 1.33-5.14h2.1l-2.55 8.52c-.33 1.11-1.19 1.41-2.31 1.41a12.63 12.63 0 0 1 -1.75-.14l.4-1.69a6.89 6.89 0 0 0 1 .08.56.56 0 0 0 .66-.46zm11.86-.3h-1.92v-4.32c0-1.07-.5-1.43-1.12-1.43s-1.31.51-1.31 1.7v4h-1.91v-7.43h1.92v.65a2.49 2.49 0 0 1 1.9-.8 2.15 2.15 0 0 1 1.92 1 2.62 2.62 0 0 1 2.24-1 2.49 2.49 0 0 1 2.64 2.5v5.07h-1.93v-4.32c0-1.07-.5-1.43-1.12-1.43s-1.31.51-1.31 1.7zm7.7-3.05a1.75 1.75 0 0 0 1.8 1.45 2.67 2.67 0 0 0 1.87-.7l1 1.45a4.44 4.44 0 0 1 -2.88 1 3.61 3.61 0 0 1 -3.73-3.81v-.09a3.59 3.59 0 0 1 3.59-3.82 3.4 3.4 0 0 1 3.41 3.65v.87zm0-1.45h3a1.43 1.43 0 0 0 -1.46-1.41 1.49 1.49 0 0 0 -1.53 1.42zm6.37-2.92h1.92v.64a2.52 2.52 0 0 1 1.89-.78 2.43 2.43 0 0 1 2.57 2.56v5h-1.92v-4.32c0-1.05-.5-1.45-1.16-1.45s-1.38.55-1.38 1.7v4.06h-1.92zm10.85 5.21c0 .36.16.63.82.63a4.75 4.75 0 0 0 1-.09l.17 1.69a15.35 15.35 0 0 1 -1.76.13c-1.32 0-2.1-.58-2.1-1.89v-4h-1.33v-1.72h1.33v-2.03l1.92-.51v2.61h1.95v1.72h-1.95z" fill="#fff"/><path d="m46.31 160.59v-6.4h1.19v6.52a3.67 3.67 0 0 1 -7.34 0v-6.52h1.21v6.4a2.48 2.48 0 1 0 4.94 0zm2.87 2.66.71-.82a3.36 3.36 0 0 0 2.14.87c.81 0 1.42-.37 1.42-1.07s-.77-.94-1.73-1.19-2.2-.61-2.2-2.07c0-1.19 1.09-2.06 2.58-2.06a3.82 3.82 0 0 1 2.46.88l-.68.78a2.59 2.59 0 0 0 -1.75-.68c-.94 0-1.41.41-1.41 1.05s.4.77 1 .94l1.16.34c1 .3 1.73.8 1.73 1.93 0 1.46-1.29 2.13-2.67 2.13a4.26 4.26 0 0 1 -2.76-1.03zm8.03-2.3a2.23 2.23 0 0 0 2.2 2.3 2.84 2.84 0 0 0 1.86-.7l.6.84a4 4 0 0 1 -2.51.88 3.35 3.35 0 0 1 -3.36-3.68c0-2.16 1.26-3.69 3.22-3.69s3 1.55 3 3.68v.37zm0-.94h3.79c0-1.09-.65-2.09-1.77-2.09a2.06 2.06 0 0 0 -2.01 2.08zm12.34 2.36c0 .47.09.87.91.87a6.12 6.12 0 0 0 .88-.09l.13 1a10.36 10.36 0 0 1 -1.26.1c-1.12 0-1.82-.44-1.82-1.65v-4.56h-1.34v-1h1.33v-2.31l1.16-.41v2.68h2v1h-2zm3.45-8.18h1.16v3.66a2.44 2.44 0 0 1 2.07-1 2.26 2.26 0 0 1 2.37 2.41v4.81h-1.15v-4.44c0-1.25-.64-1.72-1.46-1.72a1.81 1.81 0 0 0 -1.82 2v4.2h-1.17zm8.35 0a.87.87 0 0 1 .85.87.86.86 0 1 1 -1.72 0 .87.87 0 0 1 .87-.87zm.57 9.94h-1.17v-7.13h1.16zm1.56-.88.71-.82a3.36 3.36 0 0 0 2.14.87c.81 0 1.42-.37 1.42-1.07s-.75-.94-1.75-1.23-2.2-.61-2.2-2.07c0-1.19 1.09-2.06 2.58-2.06a3.82 3.82 0 0 1 2.46.88l-.68.78a2.59 2.59 0 0 0 -1.75-.68c-.94 0-1.41.41-1.41 1.05s.4.77 1 .94l1.16.34c1 .3 1.73.8 1.73 1.93 0 1.46-1.29 2.13-2.67 2.13a4.26 4.26 0 0 1 -2.74-.99zm17.11-2.66c0 2.13-1.31 3.68-3.27 3.68s-3.27-1.55-3.27-3.68 1.31-3.69 3.27-3.69 3.27 1.53 3.27 3.69zm-1.21 0v-.09c0-1.42-.71-2.63-2.06-2.63s-2.06 1.21-2.06 2.63v.09c0 1.39.71 2.61 2.06 2.61s2.06-1.2 2.06-2.56zm4.19-3.59v.81a2.48 2.48 0 0 1 2.07-1c1.83 0 3 1.55 3 3.69s-1.18 3.68-3 3.68a2.48 2.48 0 0 1 -2.07-1v3h-1.17v-9.18zm3.88 3.51c0-1.48-.71-2.61-2-2.61a1.85 1.85 0 0 0 -1.87 2.07v1.15a1.85 1.85 0 0 0 1.87 2.07c1.31 0 2-1.14 2-2.61zm4.69 1.86c0 .47.09.87.91.87a6.12 6.12 0 0 0 .88-.09l.13 1a10.36 10.36 0 0 1 -1.26.1c-1.12 0-1.82-.44-1.82-1.65v-4.56h-1.33v-1h1.35v-2.31l1.16-.41v2.68h2v1h-2zm4.05-8.18a.87.87 0 0 1 .85.87.86.86 0 1 1 -1.72 0 .87.87 0 0 1 .87-.87zm.57 9.94h-1.16v-7.13h1.16zm8.29-3.54c0 2.13-1.31 3.68-3.27 3.68s-3.27-1.55-3.27-3.68 1.31-3.69 3.27-3.69 3.27 1.53 3.27 3.69zm-1.21 0v-.09c0-1.42-.71-2.63-2.06-2.63s-2.06 1.21-2.06 2.63v.09c0 1.39.71 2.61 2.06 2.61s2.06-1.2 2.06-2.56zm3.02-3.59h1.14v.81a2.44 2.44 0 0 1 2.07-1 2.26 2.26 0 0 1 2.37 2.41v4.81h-1.16v-4.44c0-1.25-.64-1.72-1.46-1.72a1.82 1.82 0 0 0 -1.82 2v4.2h-1.16zm9.69 7.27a2.22 2.22 0 0 1 -2.47-2.14 2 2 0 0 1 1.89-2l2.5-.34v-.45c0-1.08-.7-1.41-1.58-1.41a4.31 4.31 0 0 0 -2 .55l-.44-.92a5.35 5.35 0 0 1 2.6-.65c1.72 0 2.63.77 2.63 2.26v3.31a1 1 0 0 0 .58 1l-.65.84a1.4 1.4 0 0 1 -1-.85 2.63 2.63 0 0 1 -2.06.8zm0-3.29c-.78.11-1.29.37-1.29 1.09a1.31 1.31 0 0 0 1.45 1.28c.87 0 1.75-.55 1.75-1.38v-1.28zm5.25-6.79h1.2v8.35c0 .47.14.71.68.71h.73l.11 1a11.29 11.29 0 0 1 -1.18.09c-.84 0-1.5-.37-1.5-1.39zm8.82 2.81v.81a2.48 2.48 0 0 1 2.07-1c1.83 0 3 1.55 3 3.69s-1.18 3.68-3 3.68a2.48 2.48 0 0 1 -2.07-1v3h-1.16v-9.18zm3.88 3.51c0-1.48-.71-2.61-2-2.61a1.85 1.85 0 0 0 -1.9 2.1v1.15a1.85 1.85 0 0 0 1.87 2.07c1.31 0 2-1.14 2-2.61zm4.99 3.76a2.22 2.22 0 0 1 -2.47-2.14 2 2 0 0 1 1.89-2l2.5-.34v-.45c0-1.08-.7-1.41-1.58-1.41a4.31 4.31 0 0 0 -2 .55l-.44-.92a5.35 5.35 0 0 1 2.6-.65c1.72 0 2.63.77 2.63 2.26v3.31a1 1 0 0 0 .58 1l-.65.84a1.4 1.4 0 0 1 -1-.85 2.63 2.63 0 0 1 -2.06.8zm0-3.29c-.78.11-1.29.37-1.29 1.09a1.31 1.31 0 0 0 1.45 1.28c.87 0 1.75-.55 1.75-1.38v-1.28zm8.92-2.9h-.18c-1.19 0-2.27.48-2.27 2.41v3.64h-1.16v-7.13h1.2v1.12a2.21 2.21 0 0 1 2.12-1.25h.34zm3.5 6.19a2.22 2.22 0 0 1 -2.47-2.14 2 2 0 0 1 1.89-2l2.5-.34v-.45c0-1.08-.7-1.41-1.58-1.41a4.31 4.31 0 0 0 -2 .55l-.44-.92a5.35 5.35 0 0 1 2.6-.65c1.72 0 2.63.77 2.63 2.26v3.31a1 1 0 0 0 .58 1l-.65.84a1.4 1.4 0 0 1 -1-.85 2.63 2.63 0 0 1 -2.06.8zm0-3.29c-.78.11-1.29.37-1.29 1.09a1.31 1.31 0 0 0 1.45 1.28c.87 0 1.75-.55 1.75-1.38v-1.28zm7.66-4.08a2.4 2.4 0 0 1 2 1v-.9h1.17v7.14c0 1.76-1.55 2.27-3 2.27a6.14 6.14 0 0 1 -2.63-.57l.4-1a5.76 5.76 0 0 0 2.26.5c1.19 0 1.85-.44 1.85-1.53v-1.35a2.4 2.4 0 0 1 -2 1c-1.76 0-2.87-1.43-2.87-3.29s1.06-3.27 2.82-3.27zm2 3.27c0-1.26-.54-2.23-1.82-2.23s-1.87 1-1.87 2.23v.06c0 1.24.58 2.23 1.87 2.23s1.82-1 1.82-2.23zm6.97-2.09h-.18c-1.19 0-2.27.48-2.27 2.41v3.64h-1.16v-7.13h1.16v1.12a2.21 2.21 0 0 1 2.12-1.25h.34zm3.46 6.19a2.22 2.22 0 0 1 -2.47-2.14 2 2 0 0 1 1.89-2l2.5-.34v-.45c0-1.08-.7-1.41-1.58-1.41a4.31 4.31 0 0 0 -2 .55l-.44-.92a5.35 5.35 0 0 1 2.6-.65c1.72 0 2.63.77 2.63 2.26v3.31a1 1 0 0 0 .58 1l-.65.84a1.4 1.4 0 0 1 -1-.85 2.63 2.63 0 0 1 -2.06.8zm0-3.29c-.78.11-1.29.37-1.29 1.09a1.31 1.31 0 0 0 1.45 1.28c.87 0 1.75-.55 1.75-1.38v-1.28zm6.5-3.98v.81a2.48 2.48 0 0 1 2.07-1c1.83 0 3 1.55 3 3.69s-1.18 3.68-3 3.68a2.48 2.48 0 0 1 -2.07-1v3h-1.16v-9.18zm3.88 3.51c0-1.48-.71-2.61-2-2.61a1.85 1.85 0 0 0 -1.87 2.07v1.15a1.85 1.85 0 0 0 1.87 2.07c1.31 0 2-1.14 2-2.61zm3.02-6.32h1.16v3.66a2.44 2.44 0 0 1 2.07-1 2.26 2.26 0 0 1 2.37 2.41v4.81h-1.16v-4.44c0-1.25-.64-1.72-1.46-1.72a1.81 1.81 0 0 0 -1.82 2v4.2h-1.16zm13.37 8.18c0 .47.09.87.91.87a6.14 6.14 0 0 0 .88-.09l.13 1a10.36 10.36 0 0 1 -1.26.1c-1.12 0-1.82-.44-1.82-1.65v-4.56h-1.33v-1h1.33v-2.31l1.16-.41v2.68h2v1h-2zm9.43-1.78c0 2.13-1.31 3.68-3.27 3.68s-3.27-1.55-3.27-3.68 1.31-3.69 3.27-3.69 3.27 1.53 3.27 3.69zm-1.21 0v-.09c0-1.42-.71-2.63-2.06-2.63s-2.06 1.21-2.06 2.63v.09c0 1.39.71 2.61 2.06 2.61s2.07-1.2 2.07-2.56zm9.25-3.69a2.4 2.4 0 0 1 2 1v-.9h1.17v7.14c0 1.76-1.55 2.27-3 2.27a6.14 6.14 0 0 1 -2.63-.57l.4-1a5.76 5.76 0 0 0 2.26.5c1.19 0 1.85-.44 1.85-1.53v-1.35a2.4 2.4 0 0 1 -2 1c-1.76 0-2.87-1.43-2.87-3.29s1.06-3.27 2.82-3.27zm2 3.27c0-1.26-.54-2.23-1.82-2.23s-1.87 1-1.87 2.23v.06c0 1.24.58 2.23 1.87 2.23s1.82-1 1.82-2.23zm3.96-5.98a.87.87 0 0 1 .85.87.86.86 0 1 1 -1.72 0 .87.87 0 0 1 .87-.87zm.57 9.94h-1.16v-7.13h1.16zm3.71 0-2.24-7.13h1.32l1.7 6 1.69-6h1.32l-2.27 7.13zm5.88-3.18a2.23 2.23 0 0 0 2.2 2.3 2.84 2.84 0 0 0 1.86-.7l.6.84a4 4 0 0 1 -2.51.88 3.35 3.35 0 0 1 -3.37-3.68c0-2.16 1.26-3.69 3.22-3.69s3 1.55 3 3.68v.37zm0-.94h3.75c0-1.09-.65-2.09-1.77-2.09a2.06 2.06 0 0 0 -1.96 2.08zm9.73-3.01h1.32l1.75 5.85 1.66-5.85h1.31l-2.58 8.15a1.7 1.7 0 0 1 -1.88 1.25 8.32 8.32 0 0 1 -1.26-.11l.17-1a5.39 5.39 0 0 0 .94.1.8.8 0 0 0 .89-.71l.07-.33zm13.42 3.59c0 2.13-1.31 3.68-3.27 3.68s-3.27-1.55-3.27-3.68 1.31-3.69 3.27-3.69 3.27 1.53 3.27 3.69zm-1.21 0v-.09c0-1.42-.71-2.63-2.06-2.63s-2.06 1.21-2.06 2.63v.09c0 1.39.71 2.61 2.06 2.61s2.06-1.2 2.06-2.56zm8.56 3.54h-1.17v-.81a2.44 2.44 0 0 1 -2.07 1 2.26 2.26 0 0 1 -2.37-2.41v-4.91h1.16v4.44c0 1.25.64 1.72 1.46 1.72a1.78 1.78 0 0 0 1.82-2v-4.16h1.17zm5.8-6.05h-.18c-1.19 0-2.27.48-2.27 2.41v3.64h-1.21v-7.13h1.16v1.12a2.21 2.21 0 0 1 2.12-1.25h.34zm10.78 6.05h-1.17v-.81a2.44 2.44 0 0 1 -2.07 1 2.26 2.26 0 0 1 -2.37-2.41v-4.91h1.17v4.44c0 1.25.64 1.72 1.46 1.72a1.78 1.78 0 0 0 1.82-2v-4.16h1.17zm1.56-.88.71-.82a3.36 3.36 0 0 0 2.14.87c.81 0 1.42-.37 1.42-1.07s-.77-.94-1.73-1.19-2.2-.61-2.2-2.07c0-1.19 1.09-2.06 2.58-2.06a3.83 3.83 0 0 1 2.46.88l-.68.78a2.59 2.59 0 0 0 -1.75-.68c-.94 0-1.41.41-1.41 1.05s.4.77 1 .94l1.16.34c1 .3 1.73.8 1.73 1.93 0 1.46-1.29 2.13-2.67 2.13a4.26 4.26 0 0 1 -2.76-1.03zm8-2.3a2.23 2.23 0 0 0 2.2 2.3 2.84 2.84 0 0 0 1.86-.7l.6.84a4 4 0 0 1 -2.51.88 3.35 3.35 0 0 1 -3.37-3.68c0-2.16 1.26-3.69 3.22-3.69s3 1.55 3 3.68v.37zm0-.94h3.75c0-1.09-.65-2.09-1.77-2.09a2.06 2.06 0 0 0 -1.92 2.08zm10.44-1.93h-.18c-1.19 0-2.27.48-2.27 2.41v3.64h-1.16v-7.13h1.17v1.12a2.21 2.21 0 0 1 2.12-1.25h.34zm.92 5.17.71-.82a3.36 3.36 0 0 0 2.14.87c.81 0 1.42-.37 1.42-1.07s-.77-.94-1.73-1.19-2.2-.61-2.2-2.07c0-1.19 1.09-2.06 2.58-2.06a3.83 3.83 0 0 1 2.46.88l-.68.78a2.59 2.59 0 0 0 -1.75-.68c-.94 0-1.41.41-1.41 1.05s.4.77 1 .94l1.16.34c1 .3 1.73.8 1.73 1.93 0 1.46-1.29 2.13-2.67 2.13a4.26 4.26 0 0 1 -2.76-1.03zm16.32.88h-1.17v-4.46c0-1.26-.64-1.7-1.42-1.7s-1.56.6-1.56 2v4.19h-1.16v-7.16h1.16v.81a2.18 2.18 0 0 1 1.86-1 2.1 2.1 0 0 1 1.92 1.18 2.43 2.43 0 0 1 2.16-1.18 2.28 2.28 0 0 1 2.39 2.37v4.86h-1.16v-4.46c0-1.26-.68-1.7-1.45-1.7s-1.56.6-1.56 2zm12.46-3.54c0 2.13-1.31 3.68-3.27 3.68s-3.27-1.55-3.27-3.68 1.31-3.69 3.27-3.69 3.27 1.53 3.27 3.69zm-1.21 0v-.09c0-1.42-.71-2.63-2.06-2.63s-2.06 1.21-2.06 2.63v.09c0 1.39.71 2.61 2.06 2.61s2.06-1.2 2.06-2.56zm6.64-2.51h-.18c-1.19 0-2.27.48-2.27 2.41v3.64h-1.16v-7.13h1.16v1.12a2.21 2.21 0 0 1 2.12-1.25h.34zm2.17 2.87a2.23 2.23 0 0 0 2.2 2.3 2.84 2.84 0 0 0 1.86-.7l.6.84a4 4 0 0 1 -2.51.88 3.35 3.35 0 0 1 -3.37-3.68c0-2.16 1.26-3.69 3.22-3.69s3 1.55 3 3.68v.37zm0-.94h3.75c0-1.09-.65-2.09-1.77-2.09a2.06 2.06 0 0 0 -1.97 2.08zm11.1-5.82a.87.87 0 0 1 .85.87.86.86 0 1 1 -1.72 0 .87.87 0 0 1 .87-.87zm.57 9.94h-1.16v-7.13h1.16zm2.17-7.13h1.16v.81a2.44 2.44 0 0 1 2.07-1 2.26 2.26 0 0 1 2.37 2.41v4.81h-1.18v-4.44c0-1.25-.64-1.72-1.46-1.72a1.82 1.82 0 0 0 -1.82 2v4.2h-1.16zm9.31 0h1.41v1h-1.41v6.06h-1.16v-6.06h-1.18v-1h1.18v-1.32c0-1.22.82-1.66 1.95-1.66a6.62 6.62 0 0 1 1.14.1l-.09 1c-.27 0-.78-.06-1-.06-.67 0-.82.41-.82.85zm8.88 3.59c0 2.13-1.31 3.68-3.27 3.68s-3.27-1.55-3.27-3.68 1.31-3.69 3.27-3.69 3.27 1.53 3.27 3.69zm-1.21 0v-.09c0-1.42-.71-2.63-2.06-2.63s-2.06 1.21-2.06 2.63v.09c0 1.39.71 2.61 2.06 2.61s2.06-1.2 2.06-2.56zm6.64-2.51h-.2c-1.19 0-2.27.48-2.27 2.41v3.64h-1.16v-7.13h1.16v1.12a2.21 2.21 0 0 1 2.12-1.25h.34zm6.8 6.05h-1.2v-4.46c0-1.26-.64-1.7-1.42-1.7s-1.56.6-1.56 2v4.19h-1.16v-7.16h1.16v.81a2.18 2.18 0 0 1 1.86-1 2.1 2.1 0 0 1 1.92 1.18 2.43 2.43 0 0 1 2.16-1.18 2.28 2.28 0 0 1 2.39 2.37v4.86h-1.15v-4.46c0-1.26-.68-1.7-1.45-1.7s-1.56.6-1.56 2zm8.23.14a2.22 2.22 0 0 1 -2.47-2.14 2 2 0 0 1 1.89-2l2.5-.34v-.45c0-1.08-.7-1.41-1.58-1.41a4.31 4.31 0 0 0 -2 .55l-.44-.92a5.35 5.35 0 0 1 2.6-.65c1.72 0 2.63.77 2.63 2.26v3.31a1 1 0 0 0 .58 1l-.65.84a1.4 1.4 0 0 1 -1-.85 2.63 2.63 0 0 1 -2.06.8zm0-3.29c-.78.11-1.29.37-1.29 1.09a1.31 1.31 0 0 0 1.45 1.28c.87 0 1.75-.55 1.75-1.38v-1.28zm7 1.39c0 .47.09.87.91.87a6.12 6.12 0 0 0 .88-.09l.13 1a10.36 10.36 0 0 1 -1.26.1c-1.12 0-1.82-.44-1.82-1.65v-4.56h-1.33v-1h1.33v-2.31l1.16-.41v2.68h2v1h-2zm4.06-8.18a.87.87 0 0 1 .85.87.86.86 0 1 1 -1.72 0 .87.87 0 0 1 .87-.87zm.57 9.94h-1.16v-7.13h1.16zm8.28-3.54c0 2.13-1.31 3.68-3.27 3.68s-3.27-1.55-3.27-3.68 1.31-3.69 3.27-3.69 3.27 1.53 3.27 3.69zm-1.21 0v-.09c0-1.42-.71-2.63-2.06-2.63s-2.06 1.21-2.06 2.63v.09c0 1.39.71 2.61 2.06 2.61s2.07-1.2 2.07-2.56zm3.07-3.59h1.16v.81a2.44 2.44 0 0 1 2.07-1 2.26 2.26 0 0 1 2.37 2.41v4.81h-1.2v-4.44c0-1.25-.64-1.72-1.46-1.72a1.82 1.82 0 0 0 -1.82 2v4.2h-1.12zm8.58 5.37a1 1 0 1 1 -1 1 1 1 0 0 1 1-1zm-399.32 8.86h5.95v1.05h-4.73v3.27h4.34v1.05h-4.34v4.57h-1.22zm13.74 6.4c0 2.13-1.31 3.68-3.27 3.68s-3.27-1.55-3.27-3.68 1.31-3.69 3.27-3.69 3.27 1.53 3.27 3.69zm-1.21 0v-.09c0-1.42-.71-2.63-2.06-2.63s-2.06 1.21-2.06 2.63v.09c0 1.39.71 2.61 2.06 2.61s2.05-1.17 2.05-2.56zm6.63-2.51h-.18c-1.19 0-2.27.48-2.27 2.41v3.64h-1.17v-7.09h1.2v1.12a2.21 2.21 0 0 1 2.08-1.2h.34zm6.02 2.88a2.23 2.23 0 0 0 2.2 2.3 2.84 2.84 0 0 0 1.86-.7l.6.84a4 4 0 0 1 -2.51.88 3.35 3.35 0 0 1 -3.37-3.68c0-2.16 1.26-3.69 3.22-3.69s3 1.55 3 3.68v.37zm0-.94h3.75c0-1.09-.65-2.09-1.77-2.09a2.06 2.06 0 0 0 -1.96 2.08zm8.26.37-2.17-3.35h1.33l1.52 2.44 1.45-2.44h1.35l-2.18 3.35 2.46 3.73h-1.38l-1.78-2.75-1.62 2.75h-1.37zm7.04 3.88a2.22 2.22 0 0 1 -2.47-2.14 2 2 0 0 1 1.89-2l2.5-.34v-.45c0-1.08-.7-1.41-1.58-1.41a4.31 4.31 0 0 0 -2 .55l-.44-.92a5.35 5.35 0 0 1 2.6-.65c1.72 0 2.63.77 2.63 2.26v3.31a1 1 0 0 0 .58 1l-.65.84a1.4 1.4 0 0 1 -1-.85 2.63 2.63 0 0 1 -2.06.8zm0-3.29c-.78.11-1.29.37-1.29 1.09a1.31 1.31 0 0 0 1.45 1.28c.87 0 1.75-.55 1.75-1.38v-1.28zm10.61 3.15h-1.17v-4.46c0-1.26-.64-1.7-1.42-1.7s-1.56.6-1.56 2v4.19h-1.2v-7.09h1.2v.81a2.18 2.18 0 0 1 1.86-1 2.1 2.1 0 0 1 1.94 1.2 2.43 2.43 0 0 1 2.16-1.18 2.28 2.28 0 0 1 2.39 2.37v4.86h-1.19v-4.46c0-1.26-.68-1.7-1.45-1.7s-1.56.6-1.56 2zm7.5-7.09v.81a2.48 2.48 0 0 1 2.07-1c1.83 0 3 1.55 3 3.69s-1.18 3.68-3 3.68a2.48 2.48 0 0 1 -2.07-1v3h-1.16v-9.24zm3.88 3.51c0-1.48-.71-2.61-2-2.61a1.85 1.85 0 0 0 -1.87 2.07v1.15a1.85 1.85 0 0 0 1.87 2.07c1.31 0 2-1.14 2-2.61zm3-6.36h1.16v8.35c0 .47.14.71.68.71h.73l.11 1a11.29 11.29 0 0 1 -1.18.09c-.84 0-1.5-.37-1.5-1.39zm4.6 6.77a2.23 2.23 0 0 0 2.2 2.3 2.84 2.84 0 0 0 1.86-.7l.6.84a4 4 0 0 1 -2.51.88 3.35 3.35 0 0 1 -3.37-3.68c0-2.16 1.26-3.69 3.22-3.69s3 1.55 3 3.68v.37zm0-.94h3.75c0-1.09-.65-2.09-1.77-2.09a2.06 2.06 0 0 0 -1.97 2.08zm8.53 3.58a1.67 1.67 0 0 1 -1.66 1.8h-.2v-.53h.17c.37-.06.72-.18.72-.57h-.11a.91.91 0 0 1 -.94-.92 1 1 0 0 1 1-1 1.12 1.12 0 0 1 1.02 1.22zm5.05-6.56h1.32l1.75 5.85 1.66-5.85h1.36l-2.58 8.15a1.7 1.7 0 0 1 -1.88 1.25 8.32 8.32 0 0 1 -1.26-.11l.17-1a5.39 5.39 0 0 0 .94.1.8.8 0 0 0 .89-.71l.07-.33zm13.43 3.55c0 2.13-1.31 3.68-3.27 3.68s-3.27-1.55-3.27-3.68 1.31-3.69 3.27-3.69 3.27 1.53 3.27 3.69zm-1.21 0v-.09c0-1.42-.71-2.63-2.06-2.63s-2.06 1.21-2.06 2.63v.09c0 1.39.71 2.61 2.06 2.61s2.06-1.17 2.06-2.56zm8.55 3.54h-1.17v-.81a2.44 2.44 0 0 1 -2.07 1 2.26 2.26 0 0 1 -2.37-2.41v-4.81h1.16v4.44c0 1.25.64 1.72 1.46 1.72a1.78 1.78 0 0 0 1.82-2v-4.2h1.17zm6.78-3.51c0 1.42.7 2.63 2.06 2.63a2 2 0 0 0 1.83-1.19l1 .55a3 3 0 0 1 -2.8 1.66c-2 0-3.27-1.53-3.27-3.68s1.31-3.69 3.27-3.69a3 3 0 0 1 2.8 1.66l-1 .55a2 2 0 0 0 -1.83-1.19c-1.36 0-2.06 1.21-2.06 2.63zm12.54-.03c0 2.13-1.31 3.68-3.27 3.68s-3.27-1.55-3.27-3.68 1.31-3.69 3.27-3.69 3.27 1.53 3.27 3.69zm-1.21 0v-.09c0-1.42-.71-2.63-2.06-2.63s-2.06 1.21-2.06 2.63v.09c0 1.39.71 2.61 2.06 2.61s2.1-1.17 2.1-2.56zm8.59 3.54h-1.17v-.81a2.44 2.44 0 0 1 -2.07 1 2.26 2.26 0 0 1 -2.37-2.41v-4.81h1.16v4.44c0 1.25.64 1.72 1.46 1.72a1.78 1.78 0 0 0 1.82-2v-4.2h1.17zm2.17-9.94h1.16v8.35c0 .47.14.71.68.71h.73l.11 1a11.29 11.29 0 0 1 -1.18.09c-.84 0-1.5-.37-1.5-1.39zm8.45 9.13a2.48 2.48 0 0 1 -2.07 1c-1.83 0-3-1.53-3-3.68s1.18-3.69 3-3.69a2.48 2.48 0 0 1 2.07 1v-3.66h1.17v9.94h-1.17zm-3.88-2.7c0 1.48.71 2.61 2 2.61a1.85 1.85 0 0 0 1.87-2.07v-1.15a1.85 1.85 0 0 0 -1.87-2.07c-1.31 0-2 1.14-2 2.61zm12.88 1.75c0 .47.09.87.91.87a6.14 6.14 0 0 0 .88-.09l.13 1a10.36 10.36 0 0 1 -1.26.1c-1.12 0-1.82-.44-1.82-1.65v-4.54h-1.33v-1h1.33v-2.31l1.16-.41v2.73h2v1h-2zm4.17-1.41a2.23 2.23 0 0 0 2.2 2.3 2.84 2.84 0 0 0 1.86-.7l.6.84a4 4 0 0 1 -2.51.88 3.35 3.35 0 0 1 -3.37-3.68c0-2.16 1.26-3.69 3.22-3.69s3 1.55 3 3.68v.37zm0-.94h3.75c0-1.09-.65-2.09-1.77-2.09a2.06 2.06 0 0 0 -1.97 2.08zm6.73-5.83h1.16v8.35c0 .47.14.71.68.71h.73l.11 1a11.29 11.29 0 0 1 -1.18.09c-.84 0-1.5-.37-1.5-1.39zm3.93 0h1.17v8.35c0 .47.14.71.68.71h.73l.11 1a11.29 11.29 0 0 1 -1.18.09c-.84 0-1.5-.37-1.5-1.39zm9.48 8.18c0 .47.09.87.91.87a6.12 6.12 0 0 0 .88-.09l.13 1a10.36 10.36 0 0 1 -1.26.1c-1.12 0-1.82-.44-1.82-1.65v-4.54h-1.33v-1h1.33v-2.31l1.16-.41v2.73h2v1h-2zm3.47-8.18h1.16v3.66a2.44 2.44 0 0 1 2.07-1 2.26 2.26 0 0 1 2.37 2.41v4.81h-1.16v-4.44c0-1.25-.64-1.72-1.46-1.72a1.81 1.81 0 0 0 -1.82 2v4.2h-1.16zm8.59 6.77a2.23 2.23 0 0 0 2.2 2.3 2.84 2.84 0 0 0 1.86-.7l.6.84a4 4 0 0 1 -2.51.88 3.35 3.35 0 0 1 -3.37-3.68c0-2.16 1.26-3.69 3.22-3.69s3 1.55 3 3.68v.37zm0-.94h3.75c0-1.09-.65-2.09-1.77-2.09a2.06 2.06 0 0 0 -1.97 2.08zm12.08 4.11h-1.17v-4.46c0-1.26-.64-1.7-1.42-1.7s-1.56.6-1.56 2v4.19h-1.16v-7.09h1.16v.81a2.18 2.18 0 0 1 1.86-1 2.1 2.1 0 0 1 1.92 1.18 2.43 2.43 0 0 1 2.16-1.18 2.28 2.28 0 0 1 2.39 2.37v4.86h-1.16v-4.46c0-1.26-.68-1.7-1.45-1.7s-1.56.6-1.56 2zm10.11-9.94h1.16v3.66a2.44 2.44 0 0 1 2.07-1 2.26 2.26 0 0 1 2.37 2.41v4.81h-1.16v-4.44c0-1.25-.64-1.72-1.46-1.72a1.81 1.81 0 0 0 -1.82 2v4.2h-1.16zm13.91 6.4c0 2.13-1.31 3.68-3.27 3.68s-3.27-1.55-3.27-3.68 1.31-3.69 3.27-3.69 3.27 1.53 3.27 3.69zm-1.21 0v-.09c0-1.42-.71-2.63-2.06-2.63s-2.06 1.21-2.06 2.63v.09c0 1.39.71 2.61 2.06 2.61s2.06-1.17 2.06-2.56zm8.98 2.16 1.28-5.71h1.24l-1.76 7.09h-1.49l-1.43-5.68-1.46 5.68h-1.42l-1.72-7.09h1.25l1.24 5.71 1.49-5.71h1.32zm7.84-8.56h1.16v8.35c0 .47.14.71.68.71h.73l.11 1a11.29 11.29 0 0 1 -1.18.09c-.84 0-1.5-.37-1.5-1.39zm9.92 6.4c0 2.13-1.31 3.68-3.27 3.68s-3.27-1.55-3.27-3.68 1.31-3.69 3.27-3.69 3.27 1.53 3.27 3.69zm-1.21 0v-.09c0-1.42-.71-2.63-2.06-2.63s-2.06 1.21-2.06 2.63v.09c0 1.39.71 2.61 2.06 2.61s2.05-1.17 2.05-2.56zm3.01-3.55h1.2v.81a2.44 2.44 0 0 1 2.07-1 2.26 2.26 0 0 1 2.37 2.41v4.81h-1.16v-4.44c0-1.25-.64-1.72-1.46-1.72a1.82 1.82 0 0 0 -1.82 2v4.2h-1.2zm10.2-.14a2.4 2.4 0 0 1 2 1v-.81h1.17v7.14c0 1.76-1.55 2.27-3 2.27a6.14 6.14 0 0 1 -2.63-.57l.4-1a5.76 5.76 0 0 0 2.26.5c1.19 0 1.85-.44 1.85-1.53v-1.35a2.4 2.4 0 0 1 -2 1c-1.76 0-2.87-1.43-2.87-3.29s1.07-3.36 2.82-3.36zm2 3.27c0-1.26-.54-2.23-1.82-2.23s-1.87 1-1.87 2.23v.06c0 1.24.58 2.23 1.87 2.23s1.82-1 1.82-2.23zm7.76-5.98a.87.87 0 0 1 .85.87.86.86 0 1 1 -1.72 0 .87.87 0 0 1 .87-.87zm.57 9.94h-1.16v-7.09h1.16zm3.99-1.76c0 .47.09.87.91.87a6.14 6.14 0 0 0 .88-.09l.13 1a10.36 10.36 0 0 1 -1.26.1c-1.12 0-1.82-.44-1.82-1.65v-4.54h-1.33v-1h1.33v-2.31l1.16-.41v2.73h2v1h-2zm9.11 0c0 .47.09.87.91.87a6.12 6.12 0 0 0 .88-.09l.13 1a10.36 10.36 0 0 1 -1.26.1c-1.12 0-1.82-.44-1.82-1.65v-4.54h-1.33v-1h1.33v-2.31l1.16-.41v2.73h2v1h-2zm5.5 1.9a2.22 2.22 0 0 1 -2.47-2.14 2 2 0 0 1 1.89-2l2.5-.34v-.45c0-1.08-.7-1.41-1.58-1.41a4.31 4.31 0 0 0 -2 .55l-.44-.92a5.35 5.35 0 0 1 2.6-.65c1.72 0 2.63.77 2.63 2.26v3.31a1 1 0 0 0 .58 1l-.65.84a1.4 1.4 0 0 1 -1-.85 2.63 2.63 0 0 1 -2.06.8zm0-3.29c-.78.11-1.29.37-1.29 1.09a1.31 1.31 0 0 0 1.45 1.28c.87 0 1.75-.55 1.75-1.38v-1.28zm6.46-.46 3.34-3.48h1.46l-2.7 2.81 2.83 4.27h-1.42l-2.23-3.49-1.28 1.33v2.19h-1.16v-9.94h1.16zm6.79.44a2.23 2.23 0 0 0 2.2 2.3 2.84 2.84 0 0 0 1.86-.7l.6.84a4 4 0 0 1 -2.51.88 3.35 3.35 0 0 1 -3.37-3.68c0-2.16 1.26-3.69 3.22-3.69s3 1.55 3 3.68v.37zm0-.94h3.75c0-1.09-.65-2.09-1.77-2.09a2.06 2.06 0 0 0 -1.97 2.08zm6.12 3.23.71-.82a3.36 3.36 0 0 0 2.14.87c.81 0 1.42-.37 1.42-1.07s-.77-.94-1.73-1.19-2.2-.61-2.2-2.07c0-1.19 1.09-2.06 2.58-2.06a3.83 3.83 0 0 1 2.46.88l-.68.78a2.59 2.59 0 0 0 -1.75-.68c-.94 0-1.41.41-1.41 1.05s.4.77 1 .94l1.16.34c1 .3 1.73.8 1.73 1.93 0 1.46-1.29 2.13-2.67 2.13a4.26 4.26 0 0 1 -2.76-1.03zm12.7-6.21h1.41v1h-1.41v6.06h-1.2v-6.04h-1.18v-1h1.18v-1.32c0-1.22.82-1.66 1.95-1.66a6.62 6.62 0 0 1 1.14.1l-.09 1c-.27 0-.78-.06-1-.06-.67 0-.82.41-.82.85zm8.84 3.55c0 2.13-1.31 3.68-3.27 3.68s-3.27-1.55-3.27-3.68 1.31-3.69 3.27-3.69 3.27 1.53 3.27 3.69zm-1.21 0v-.09c0-1.42-.71-2.63-2.06-2.63s-2.06 1.21-2.06 2.63v.09c0 1.39.71 2.61 2.06 2.61s2.06-1.17 2.06-2.56zm6.64-2.51h-.18c-1.19 0-2.27.48-2.27 2.41v3.64h-1.16v-7.09h1.16v1.12a2.21 2.21 0 0 1 2.12-1.25h.34zm7.06 4.29c0 .47.09.87.91.87a6.12 6.12 0 0 0 .88-.09l.13 1a10.36 10.36 0 0 1 -1.26.1c-1.12 0-1.82-.44-1.82-1.65v-4.54h-1.33v-1h1.33v-2.31l1.16-.41v2.73h2v1h-2zm3.46-8.18h1.21v3.66a2.44 2.44 0 0 1 2.07-1 2.26 2.26 0 0 1 2.37 2.41v4.81h-1.16v-4.44c0-1.25-.64-1.72-1.46-1.72a1.81 1.81 0 0 0 -1.82 2v4.2h-1.16zm8.59 6.77a2.23 2.23 0 0 0 2.2 2.3 2.84 2.84 0 0 0 1.86-.7l.6.84a4 4 0 0 1 -2.51.88 3.35 3.35 0 0 1 -3.37-3.68c0-2.16 1.26-3.69 3.22-3.69s3 1.55 3 3.68v.37zm0-.94h3.75c0-1.09-.65-2.09-1.77-2.09a2.06 2.06 0 0 0 -1.96 2.08zm7.35-5.83a.87.87 0 0 1 .85.87.86.86 0 1 1 -1.72 0 .87.87 0 0 1 .87-.87zm.57 9.94h-1.16v-7.09h1.16zm5.79-6.05h-.18c-1.19 0-2.27.48-2.27 2.41v3.64h-1.16v-7.09h1.16v1.12a2.21 2.21 0 0 1 2.12-1.25h.34zm-367.18 23.23a2.22 2.22 0 0 1 -2.47-2.14 2 2 0 0 1 1.89-2l2.5-.34v-.45c0-1.08-.7-1.41-1.58-1.41a4.31 4.31 0 0 0 -2 .55l-.44-.92a5.35 5.35 0 0 1 2.6-.65c1.72 0 2.63.77 2.63 2.26v3.31a1 1 0 0 0 .58 1l-.65.84a1.4 1.4 0 0 1 -1-.85 2.63 2.63 0 0 1 -2.06.8zm0-3.29c-.78.11-1.29.37-1.29 1.09a1.31 1.31 0 0 0 1.45 1.28c.87 0 1.75-.55 1.75-1.38v-1.28zm6.46-3.94v.81a2.48 2.48 0 0 1 2.07-1c1.83 0 3 1.55 3 3.69s-1.18 3.68-3 3.68a2.48 2.48 0 0 1 -2.07-1v3h-1.17v-9.24zm3.88 3.51c0-1.48-.71-2.61-2-2.61a1.85 1.85 0 0 0 -1.87 2.07v1.15a1.85 1.85 0 0 0 1.87 2.07c1.31 0 2-1.14 2-2.61zm4.18-3.51v.81a2.48 2.48 0 0 1 2.07-1c1.83 0 3 1.55 3 3.69s-1.18 3.68-3 3.68a2.48 2.48 0 0 1 -2.07-1v3h-1.16v-9.24zm3.88 3.51c0-1.48-.71-2.61-2-2.61a1.85 1.85 0 0 0 -1.87 2.07v1.15a1.85 1.85 0 0 0 1.87 2.07c1.31 0 2-1.14 2-2.61zm3-6.36h1.16v8.35c0 .47.14.71.68.71h.73l.11 1a11.29 11.29 0 0 1 -1.18.09c-.84 0-1.5-.37-1.5-1.39zm4.6 0a.87.87 0 0 1 .85.87.86.86 0 1 1 -1.72 0 .87.87 0 0 1 .87-.87zm.57 9.94h-1.17v-7.09h1.16zm2.96-3.51c0 1.42.7 2.63 2.06 2.63a2 2 0 0 0 1.83-1.19l1 .55a3 3 0 0 1 -2.8 1.66c-2 0-3.27-1.53-3.27-3.68s1.28-3.67 3.24-3.67a3 3 0 0 1 2.8 1.66l-1 .55a2 2 0 0 0 -1.8-1.21c-1.36 0-2.06 1.21-2.06 2.63zm8.64 3.65a2.22 2.22 0 0 1 -2.47-2.14 2 2 0 0 1 1.89-2l2.5-.34v-.45c0-1.08-.7-1.41-1.58-1.41a4.31 4.31 0 0 0 -2 .55l-.44-.92a5.35 5.35 0 0 1 2.6-.65c1.72 0 2.63.77 2.63 2.26v3.31a1 1 0 0 0 .58 1l-.65.84a1.4 1.4 0 0 1 -1-.85 2.63 2.63 0 0 1 -2.06.8zm0-3.29c-.78.11-1.29.37-1.29 1.09a1.31 1.31 0 0 0 1.45 1.28c.87 0 1.75-.55 1.75-1.38v-1.28zm7 1.39c0 .47.09.87.91.87a6.12 6.12 0 0 0 .88-.09l.13 1a10.36 10.36 0 0 1 -1.26.1c-1.12 0-1.82-.44-1.82-1.65v-4.56h-1.34v-1h1.33v-2.31l1.16-.41v2.73h2v1h-2zm4.06-8.18a.87.87 0 0 1 .85.87.86.86 0 1 1 -1.72 0 .87.87 0 0 1 .87-.87zm.57 9.94h-1.17v-7.09h1.16zm8.29-3.54c0 2.13-1.31 3.68-3.27 3.68s-3.27-1.55-3.27-3.68 1.31-3.67 3.27-3.67 3.27 1.51 3.27 3.67zm-1.21 0v-.09c0-1.42-.71-2.63-2.06-2.63s-2.06 1.21-2.06 2.63v.09c0 1.39.71 2.61 2.06 2.61s2.05-1.17 2.05-2.56zm3.01-3.55h1.2v.81a2.44 2.44 0 0 1 2.07-1 2.26 2.26 0 0 1 2.37 2.41v4.81h-1.16v-4.44c0-1.25-.64-1.72-1.46-1.72a1.82 1.82 0 0 0 -1.82 2v4.2h-1.2zm13.38 5.33c0 .47.09.87.91.87a6.14 6.14 0 0 0 .88-.09l.13 1a10.36 10.36 0 0 1 -1.26.1c-1.12 0-1.82-.44-1.82-1.65v-4.56h-1.33v-1h1.31v-2.31l1.16-.41v2.73h2v1h-2zm9.43-1.78c0 2.13-1.31 3.68-3.27 3.68s-3.27-1.55-3.27-3.68 1.31-3.69 3.27-3.69 3.27 1.53 3.27 3.69zm-1.21 0v-.09c0-1.42-.71-2.63-2.06-2.63s-2.06 1.21-2.06 2.63v.09c0 1.39.71 2.61 2.06 2.61s2.06-1.17 2.06-2.56zm7.94 3.54h-1.16v-9.94h1.16v3.66a2.48 2.48 0 0 1 2.07-1c1.83 0 3 1.55 3 3.69s-1.18 3.68-3 3.68a2.48 2.48 0 0 1 -2.07-1zm3.88-3.58c0-1.48-.71-2.61-2-2.61a1.85 1.85 0 0 0 -1.87 2.07v1.15a1.85 1.85 0 0 0 1.87 2.07c1.31 0 2-1.14 2-2.61zm3.88.37a2.23 2.23 0 0 0 2.2 2.3 2.84 2.84 0 0 0 1.86-.7l.6.84a4 4 0 0 1 -2.51.88 3.35 3.35 0 0 1 -3.37-3.68c0-2.16 1.26-3.69 3.22-3.69s3 1.55 3 3.68v.37zm0-.94h3.75c0-1.09-.65-2.09-1.77-2.09a2.06 2.06 0 0 0 -1.96 2.12zm11.67-2.94v.81a2.48 2.48 0 0 1 2.07-1c1.83 0 3 1.55 3 3.69s-1.18 3.68-3 3.68a2.48 2.48 0 0 1 -2.07-1v3h-1.16v-9.24zm3.88 3.51c0-1.48-.71-2.61-2-2.61a1.85 1.85 0 0 0 -1.87 2.07v1.15a1.85 1.85 0 0 0 1.87 2.07c1.31 0 2-1.14 2-2.61zm6.65-2.47h-.18c-1.19 0-2.27.48-2.27 2.41v3.64h-1.16v-7.09h1.16v1.12a2.21 2.21 0 0 1 2.15-1.24h.34zm7.47 2.51c0 2.13-1.31 3.68-3.27 3.68s-3.27-1.55-3.27-3.68 1.31-3.69 3.27-3.69 3.27 1.53 3.27 3.69zm-1.21 0v-.09c0-1.42-.71-2.63-2.06-2.63s-2.06 1.21-2.06 2.63v.09c0 1.39.71 2.61 2.06 2.61s2.06-1.17 2.06-2.56zm3.84.03c0 1.42.7 2.63 2.06 2.63a2 2 0 0 0 1.83-1.19l1 .55a3 3 0 0 1 -2.8 1.66c-2 0-3.27-1.53-3.27-3.68s1.31-3.69 3.27-3.69a3 3 0 0 1 2.8 1.66l-1 .55a2 2 0 0 0 -1.83-1.19c-1.36 0-2.06 1.21-2.06 2.63zm7.27.3a2.23 2.23 0 0 0 2.2 2.3 2.84 2.84 0 0 0 1.86-.7l.6.84a4 4 0 0 1 -2.51.88 3.35 3.35 0 0 1 -3.37-3.68c0-2.16 1.26-3.69 3.22-3.69s3 1.55 3 3.68v.37zm0-.94h3.75c0-1.09-.65-2.09-1.77-2.09a2.06 2.06 0 0 0 -1.97 2.12zm6.12 3.27.71-.82a3.36 3.36 0 0 0 2.14.87c.81 0 1.42-.37 1.42-1.07s-.77-.94-1.73-1.19-2.2-.61-2.2-2.07c0-1.19 1.09-2.06 2.58-2.06a3.83 3.83 0 0 1 2.46.88l-.68.78a2.59 2.59 0 0 0 -1.75-.68c-.94 0-1.41.41-1.41 1.05s.4.77 1 .94l1.16.34c1 .3 1.73.8 1.73 1.93 0 1.46-1.29 2.13-2.67 2.13a4.26 4.26 0 0 1 -2.76-1.03zm6.69 0 .71-.82a3.36 3.36 0 0 0 2.14.87c.81 0 1.42-.37 1.42-1.07s-.77-.94-1.73-1.19-2.2-.61-2.2-2.07c0-1.19 1.09-2.06 2.58-2.06a3.82 3.82 0 0 1 2.46.88l-.68.78a2.59 2.59 0 0 0 -1.75-.68c-.94 0-1.41.41-1.41 1.05s.4.77 1 .94l1.16.34c1 .3 1.73.8 1.73 1.93 0 1.46-1.29 2.13-2.67 2.13a4.26 4.26 0 0 1 -2.76-1.03zm8.03-2.33a2.23 2.23 0 0 0 2.2 2.3 2.84 2.84 0 0 0 1.86-.7l.6.84a4 4 0 0 1 -2.51.88 3.35 3.35 0 0 1 -3.37-3.68c0-2.16 1.26-3.69 3.22-3.69s3 1.55 3 3.68v.37zm0-.94h3.75c0-1.09-.65-2.09-1.77-2.09a2.06 2.06 0 0 0 -1.97 2.12zm11.49 3.34a2.48 2.48 0 0 1 -2.07 1c-1.83 0-3-1.53-3-3.68s1.18-3.69 3-3.69a2.48 2.48 0 0 1 2.07 1v-3.66h1.17v9.94h-1.17zm-3.88-2.7c0 1.48.71 2.61 2 2.61a1.85 1.85 0 0 0 1.87-2.07v-1.15a1.85 1.85 0 0 0 -1.87-2.07c-1.31 0-2 1.14-2 2.61zm8.1 1.75a1 1 0 1 1 -1 1 1 1 0 0 1 1-1z" fill="#0b0b0b"/><path d="m40.22 230.44h8.47v2.3h-5.92v2.67h5.45v2.3h-5.45v3h6.23v2.29h-8.78zm10.62 3.18h2.42v.81a3.18 3.18 0 0 1 2.39-1 3.07 3.07 0 0 1 3.25 3.23v6.34h-2.42v-5.45c0-1.33-.63-1.83-1.47-1.83s-1.74.7-1.74 2.15v5.13h-2.43zm13.71 6.58c0 .45.2.79 1 .79a6 6 0 0 0 1.2-.11l.25 2.12a19.36 19.36 0 0 1 -2.22.16c-1.67 0-2.65-.74-2.65-2.39v-5h-1.69v-2.17h1.69v-2.6l2.42-.65v3.3h2.45v2.17h-2.45zm6.19-1.06a2.21 2.21 0 0 0 2.26 1.86 3.37 3.37 0 0 0 2.37-.88l1.2 1.83a5.61 5.61 0 0 1 -3.64 1.26 4.56 4.56 0 0 1 -4.72-4.81v-.11a4.54 4.54 0 0 1 4.54-4.83 4.3 4.3 0 0 1 4.32 4.54v1.09zm0-1.83h3.78a1.8 1.8 0 0 0 -1.85-1.78 1.88 1.88 0 0 0 -1.92 1.78zm13.5-1.31h-.43c-1.38 0-2.6.47-2.6 2.48v4.52h-2.42v-9.38h2.42v1.06a2.91 2.91 0 0 1 2.49-1.22h.54zm8.56 4.2c0 .45.2.79 1 .79a6 6 0 0 0 1.2-.11l.21 2.13a19.36 19.36 0 0 1 -2.22.16c-1.67 0-2.65-.74-2.65-2.39v-5h-1.65v-2.17h1.69v-2.61l2.42-.65v3.3h2.46v2.17h-2.46zm4.2-9.76h2.42v4a3.18 3.18 0 0 1 2.39-1 3.07 3.07 0 0 1 3.25 3.23v6.33h-2.42v-5.45c0-1.33-.63-1.83-1.47-1.83s-1.74.7-1.74 2.15v5.13h-2.43zm12.23 8.7a2.21 2.21 0 0 0 2.27 1.86 3.37 3.37 0 0 0 2.37-.88l1.2 1.83a5.61 5.61 0 0 1 -3.64 1.26 4.56 4.56 0 0 1 -4.72-4.81v-.11a4.54 4.54 0 0 1 4.54-4.83 4.3 4.3 0 0 1 4.31 4.61v1.09zm0-1.83h3.77a1.8 1.8 0 0 0 -1.85-1.78 1.88 1.88 0 0 0 -1.91 1.78zm14.85 5.87a3 3 0 0 1 -3.25-2.94 2.71 2.71 0 0 1 2.64-2.74l2.85-.39v-.3c0-.83-.56-1.2-1.47-1.2a6.32 6.32 0 0 0 -2.76.75l-1-1.87a7.93 7.93 0 0 1 3.8-1c1.72 0 3.8.47 3.8 3v4c0 .56.3.75.81 1l-1.09 1.74a2.13 2.13 0 0 1 -1.76-1.06 3.24 3.24 0 0 1 -2.57 1.01zm.29-4c-.59.09-1 .43-1 1a1.14 1.14 0 0 0 1.27 1.09 1.57 1.57 0 0 0 1.67-1.72v-.65zm14.54 3.82h-2.42v-5.45c0-1.35-.63-1.81-1.42-1.81s-1.65.65-1.65 2.15v5.11h-2.42v-9.38h2.42v.83a3.14 3.14 0 0 1 2.4-1 2.71 2.71 0 0 1 2.42 1.27 3.31 3.31 0 0 1 2.83-1.27 3.14 3.14 0 0 1 3.34 3.16v6.39h-2.41v-5.45c0-1.35-.63-1.81-1.42-1.81s-1.65.65-1.65 2.15zm16.43-4.68a4.62 4.62 0 1 1 -9.22 0 4.62 4.62 0 1 1 9.22 0zm-2.48 0c0-1.52-.75-2.62-2.13-2.62s-2.12 1.09-2.13 2.62c0 1.52.75 2.62 2.13 2.62s2.12-1.09 2.13-2.62zm12.24 4.68h-2.42v-.81a3.18 3.18 0 0 1 -2.39 1 3.07 3.07 0 0 1 -3.25-3.23v-6.33h2.42v5.45c0 1.33.63 1.83 1.47 1.83s1.74-.7 1.74-2.15v-5.13h2.42zm2.26-9.38h2.42v.81a3.18 3.18 0 0 1 2.39-1 3.07 3.07 0 0 1 3.25 3.23v6.34h-2.42v-5.45c0-1.33-.63-1.83-1.47-1.83s-1.74.7-1.74 2.15v5.13h-2.42zm13.7 6.58c0 .45.2.79 1 .79a6 6 0 0 0 1.2-.11l.21 2.13a19.36 19.36 0 0 1 -2.22.16c-1.67 0-2.65-.74-2.65-2.39v-5h-1.6v-2.17h1.69v-2.61l2.42-.65v3.3h2.46v2.17h-2.46zm10.15 3.17.07-.3h-.18l-2.89-9.45h2.69l1.72 6.49 1.69-6.49h2.69l-3.23 10.76c-.41 1.4-1.51 1.78-2.92 1.78a15.94 15.94 0 0 1 -2.21-.18l.5-2.13a8.71 8.71 0 0 0 1.29.11.71.71 0 0 0 .78-.59zm15.66-5.05a4.62 4.62 0 1 1 -9.22 0 4.62 4.62 0 1 1 9.22 0zm-2.48 0c0-1.52-.75-2.62-2.13-2.62s-2.12 1.09-2.13 2.62c0 1.52.75 2.62 2.13 2.62s2.12-1.09 2.13-2.62zm12.24 4.68h-2.42v-.81a3.18 3.18 0 0 1 -2.39 1 3.07 3.07 0 0 1 -3.25-3.23v-6.33h2.43v5.45c0 1.33.63 1.83 1.47 1.83s1.74-.7 1.74-2.15v-5.13h2.42zm15.1-3.07 1.15-6.31h2.57l-2.17 9.38h-2.87l-1.4-6.1-1.49 6.1h-2.83l-2.17-9.38h2.64l1.11 6.31 1.63-6.31h2.31zm7.86 3.25a3 3 0 0 1 -3.25-2.94 2.72 2.72 0 0 1 2.64-2.74l2.85-.39v-.3c0-.83-.56-1.2-1.47-1.2a6.32 6.32 0 0 0 -2.76.75l-1-1.87a7.93 7.93 0 0 1 3.8-1c1.72 0 3.8.47 3.8 3v4c0 .56.3.75.81 1l-1.01 1.69a2.13 2.13 0 0 1 -1.76-1.06 3.24 3.24 0 0 1 -2.65 1.06zm.29-4c-.59.09-1 .43-1 1a1.14 1.14 0 0 0 1.27 1.09 1.57 1.57 0 0 0 1.67-1.72v-.65zm6.63-5.56h2.42v.81a3.18 3.18 0 0 1 2.39-1 3.07 3.07 0 0 1 3.25 3.23v6.34h-2.42v-5.45c0-1.33-.63-1.83-1.47-1.83s-1.74.7-1.74 2.15v5.13h-2.42zm13.71 6.58c0 .45.2.79 1 .79a6 6 0 0 0 1.2-.11l.21 2.13a19.36 19.36 0 0 1 -2.22.16c-1.67 0-2.65-.74-2.65-2.39v-5h-1.69v-2.17h1.69v-2.61l2.42-.65v3.3h2.46v2.17h-2.46zm11.58 0c0 .45.2.79 1 .79a6 6 0 0 0 1.2-.11l.21 2.13a19.36 19.36 0 0 1 -2.22.16c-1.67 0-2.65-.74-2.65-2.39v-5h-1.69v-2.17h1.69v-2.61l2.42-.65v3.3h2.46v2.17h-2.42zm12.9-1.88a4.62 4.62 0 1 1 -9.22 0 4.62 4.62 0 1 1 9.22 0zm-2.48 0c0-1.52-.75-2.62-2.13-2.62s-2.09 1.07-2.09 2.6c0 1.52.75 2.62 2.13 2.62s2.12-1.09 2.13-2.62zm11.02-4.7v.81a3.1 3.1 0 0 1 2.37-1c2.48 0 4.13 2 4.13 4.83v.09c0 2.78-1.7 4.83-4.18 4.83a3 3 0 0 1 -2.31-1v3.82h-2.42v-12.38zm-.07 5.56a1.77 1.77 0 0 0 1.94 1.76c1.38 0 2.13-1.09 2.13-2.58v-.09c0-1.49-.75-2.58-2.13-2.58a1.77 1.77 0 0 0 -1.94 1.76zm11.04 4a3 3 0 0 1 -3.25-2.94 2.72 2.72 0 0 1 2.64-2.74l2.85-.39v-.3c0-.83-.56-1.2-1.47-1.2a6.32 6.32 0 0 0 -2.76.75l-1-1.87a7.93 7.93 0 0 1 3.8-1c1.72 0 3.8.47 3.8 3v4c0 .56.3.75.81 1l-1.09 1.74a2.13 2.13 0 0 1 -1.76-1.06 3.24 3.24 0 0 1 -2.57 1.01zm.29-4c-.59.09-1 .43-1 1a1.14 1.14 0 0 0 1.27 1.09 1.57 1.57 0 0 0 1.67-1.72v-.65zm8.5 4.19.07-.3h-.18l-2.89-9.45h2.69l1.72 6.49 1.69-6.49h2.65l-3.23 10.76c-.41 1.4-1.51 1.78-2.92 1.78a15.94 15.94 0 0 1 -2.21-.18l.5-2.13a8.71 8.71 0 0 0 1.29.11.71.71 0 0 0 .82-.59z" fill="#0b0b0b"/><path d="m166.75 263v26.9h-125.12v-26.9zm1.49-1.49h-128.1v29.9h128.11v-29.91z" fill="#0b0b0b"/><path d="m55.25 272.28a2.46 2.46 0 0 0 -2.15-1.11 2.36 2.36 0 0 0 -2.3 2.64v2h2.92v1.33h-2.92v4.11h5.61v1.33h-8.07v-1.33h.93v-4.15h-.93v-1.33h.93v-1.94c0-2.51 1.51-4 3.8-4a3.92 3.92 0 0 1 3.41 1.56z" fill="#0b0b0b"/><path d="m0 29.9v-19.9a10 10 0 0 1 10-10h603.65a10 10 0 0 1 10 10v19.9" fill="#dadada"/><circle cx="18.97" cy="14.95" fill="#fff" r="6.35"/><circle cx="36.72" cy="14.95" fill="#fff" r="6.35"/><circle cx="54.47" cy="14.95" fill="#fff" r="6.35"/><path d="m0 386.35h623.65v2.99h-623.65z" fill="#dadada"/><path d="m2.99 389.34v-359.45h617.67v359.45h2.99v-362.43h-623.65v362.43z" fill="#dadada"/><path d="m379.73 132.83h620.85v326.32h-620.85z" fill="#fff"/><path d="m377.49 88.45h619.63v48.58h-619.63z" fill="#0b0b0b"/><path d="m576.29 103.2-8 9.7v-9.7h-4.53v22.4h4.53v-6.81l2.89-3.23 5.92 10.04h5.27l-8.28-13.5 7.78-8.9zm-27.92 18.33a4 4 0 0 1 -1.47-.87 4.12 4.12 0 0 1 -1-1.49 5.66 5.66 0 0 1 -.36-2.12v-13.88h-4.48v14.56a8.21 8.21 0 0 0 .68 3.39 7.39 7.39 0 0 0 1.9 2.58 8.63 8.63 0 0 0 2.89 1.64 11.83 11.83 0 0 0 7.31 0 8.56 8.56 0 0 0 2.88-1.64 7.43 7.43 0 0 0 1.89-2.58 8.2 8.2 0 0 0 .68-3.39v-14.56h-4.45v13.89a5.69 5.69 0 0 1 -.36 2.12 4.14 4.14 0 0 1 -1 1.49 4 4 0 0 1 -1.47.87 6 6 0 0 1 -3.67 0m-16.34 2.64a2.94 2.94 0 0 0 .62.91 2.8 2.8 0 0 0 .92.61 2.83 2.83 0 0 0 1.1.22 2.78 2.78 0 0 0 1.09-.22 2.83 2.83 0 0 0 .91-.61 3 3 0 0 0 .62-.91 2.74 2.74 0 0 0 .23-1.11 2.63 2.63 0 0 0 -.23-1.08 2.88 2.88 0 0 0 -.62-.89 3 3 0 0 0 -.91-.61 2.67 2.67 0 0 0 -1.09-.23 2.72 2.72 0 0 0 -1.1.23 3 3 0 0 0 -.92.61 2.87 2.87 0 0 0 -.62.89 2.64 2.64 0 0 0 -.23 1.08 2.75 2.75 0 0 0 .23 1.11m-7.2 1.42 6.33-22.4h-5.01l-4.24 16.84h-.16l-4.33-16.84h-5.07l6.33 22.4zm-27.5-4.33a5.3 5.3 0 0 1 -1.88-1.54 6.94 6.94 0 0 1 -1.15-2.33 10.53 10.53 0 0 1 -.39-2.94v-.13a10.56 10.56 0 0 1 .39-2.93 6.93 6.93 0 0 1 1.15-2.34 5.29 5.29 0 0 1 1.88-1.54 6.33 6.33 0 0 1 5.18 0 5.38 5.38 0 0 1 1.88 1.54 6.85 6.85 0 0 1 1.16 2.34 10.51 10.51 0 0 1 .39 2.93v.13a10.48 10.48 0 0 1 -.39 2.94 6.86 6.86 0 0 1 -1.16 2.33 5.39 5.39 0 0 1 -1.88 1.54 6.33 6.33 0 0 1 -5.18 0m-1.9-17.49a10 10 0 0 0 -3.36 2.45 10.68 10.68 0 0 0 -2.11 3.66 14.36 14.36 0 0 0 0 9 10.8 10.8 0 0 0 2.11 3.66 9.81 9.81 0 0 0 3.36 2.45 11.75 11.75 0 0 0 9 0 9.78 9.78 0 0 0 3.37-2.45 10.8 10.8 0 0 0 2.11-3.66 14.39 14.39 0 0 0 0-9 10.69 10.69 0 0 0 -2.11-3.66 9.93 9.93 0 0 0 -3.37-2.45 11.68 11.68 0 0 0 -9 0m-24.73 10.53a10.52 10.52 0 0 1 .36-2.76 7.11 7.11 0 0 1 1.09-2.35 5.51 5.51 0 0 1 1.88-1.63 5.63 5.63 0 0 1 2.72-.62 6 6 0 0 1 1.81.26 5.13 5.13 0 0 1 2.57 1.79 7.71 7.71 0 0 1 .84 1.34l4-2.23a8.37 8.37 0 0 0 -1.47-2.13 9.08 9.08 0 0 0 -2.09-1.64 10.3 10.3 0 0 0 -2.61-1 12.08 12.08 0 0 0 -3-.37 10.6 10.6 0 0 0 -4.43.9 10.12 10.12 0 0 0 -3.37 2.45 11 11 0 0 0 -2.16 3.66 13.19 13.19 0 0 0 -.76 4.51 14.52 14.52 0 0 0 .68 4.52 10.87 10.87 0 0 0 2 3.66 9.19 9.19 0 0 0 3.21 2.45 10.2 10.2 0 0 0 4.36.89 8.65 8.65 0 0 0 2-.22 8 8 0 0 0 1.71-.6 6.54 6.54 0 0 0 1.41-.92 5.52 5.52 0 0 0 1-1.2v2.63h4v-12.38h-10.22v3.45h5.73v.23a5.67 5.67 0 0 1 -.24 1.56 4.33 4.33 0 0 1 -.84 1.57 4.68 4.68 0 0 1 -1.61 1.21 5.81 5.81 0 0 1 -2.52.48 5.63 5.63 0 0 1 -2.72-.62 5.5 5.5 0 0 1 -1.88-1.63 7.12 7.12 0 0 1 -1.09-2.34 10.5 10.5 0 0 1 -.36-2.77zm-47.37-6.56a2 2 0 1 0 -1.06-2.55 2 2 0 0 0 1.06 2.55m-4.46 2.61a2 2 0 1 0 -1.06-2.55 2 2 0 0 0 1.06 2.55m-1.3 4.96a2 2 0 1 0 -1.06-2.55 2 2 0 0 0 1.06 2.55m10.73-6a2 2 0 1 0 -1.06-2.55 2 2 0 0 0 1.06 2.55m18.02-1.57a2 2 0 1 1 1.06-2.55 2 2 0 0 1 -1.06 2.55m4.45 2.61a2 2 0 1 1 1.06-2.55 2 2 0 0 1 -1.06 2.55m1.26 4.96a2 2 0 1 1 1.06-2.55 2 2 0 0 1 -1.06 2.55m-10.69-6a2 2 0 1 1 1.06-2.55 2 2 0 0 1 -1.06 2.55m-5.48-5.08 2.49 1.31v-3.67l-2.48.79a1.24 1.24 0 0 0 -.24-.24l1-3.15h-3.6l1 3.15a1.27 1.27 0 0 0 -.24.24l-2.48-.79v3.67l2.49-1.31a1.32 1.32 0 0 0 .26.25l-1.43 4.31a2.32 2.32 0 0 0 1.88 3h.58a2.32 2.32 0 0 0 2-2.29 2.35 2.35 0 0 0 -.1-.68l-1.43-4.31a1.34 1.34 0 0 0 .26-.25m-1 21.06a94 94 0 0 1 13.17.89c1.13-4.75 2.51-7.48 3.93-9.42l-2.68-1a4.89 4.89 0 0 1 0 2.86 5.42 5.42 0 0 1 -1.19-2.44l-1.29 4.32a4 4 0 0 1 2.09-.91c-1.23 2.66-2.77 3.34-3.77 3.16a1.9 1.9 0 0 1 -1.59-2.23c.28-1.31 1.62-1.65 2.25-.13 1.2-2.44-.83-3.21-2.14-2.48 2-2 2.24-3.79.62-5.94-2.26 1.73-2.29 3.44-1.27 5.84-1.32-1.51-3.37-.7-2.63 1.74 1-1.47 2.21-.55 2 .85-.17 1.22-1.78 2.2-3.78 2-2.87-.26-3-2.24-3.11-3.88.7-.13 2 .52 3.06 2l.4-4.58a4.46 4.46 0 0 1 -3.44 1.5 13.41 13.41 0 0 1 2.22-3.26h-5.71a13.45 13.45 0 0 1 2.22 3.26 4.46 4.46 0 0 1 -3.44-1.5l.4 4.58c1.09-1.52 2.36-2.18 3.06-2-.07 1.64-.24 3.62-3.11 3.88-2 .17-3.61-.81-3.78-2-.2-1.4 1.06-2.33 2-.85.74-2.44-1.31-3.25-2.63-1.74 1-2.41 1-4.12-1.27-5.84-1.62 2.15-1.39 3.94.62 5.94-1.31-.72-3.34 0-2.14 2.48.63-1.52 2-1.18 2.25.13a1.9 1.9 0 0 1 -1.59 2.23c-1 .19-2.54-.5-3.77-3.16a4 4 0 0 1 2.09.91l-1.3-4.32a5.41 5.41 0 0 1 -1.19 2.44 4.89 4.89 0 0 1 0-2.86l-2.67 1c1.42 1.94 2.8 4.66 3.93 9.41a94.18 94.18 0 0 1 13.17-.89" fill="#fff"/><path d="m415.51 396h181.64v25.81h-181.64z" fill="#004a1e"/><path d="m415.51 393.02h181.64v25.81h-181.64z" fill="#00823b"/><path d="m440.85 401.29h4a3.16 3.16 0 0 1 3.34 3.29 3.27 3.27 0 0 1 -3.49 3.29h-1.8v3.35h-2zm3.44 1.82h-1.42v3h1.42c1.11 0 1.8-.51 1.8-1.45v-.06c0-.98-.7-1.49-1.8-1.49zm9.4 2.56h-.34c-1.09 0-2.06.37-2.06 2v3.61h-1.92v-7.43h1.92v.84a2.3 2.3 0 0 1 2-1h.43zm7.99 1.86a3.65 3.65 0 1 1 -7.3 0 3.65 3.65 0 1 1 7.3 0zm-2 0c0-1.21-.6-2.07-1.69-2.07s-1.68.87-1.69 2.07c0 1.21.6 2.07 1.69 2.07s1.68-.87 1.69-2.07zm3.02-.03a3.61 3.61 0 0 1 3.59-3.83 3.34 3.34 0 0 1 3.22 1.92l-1.7.87a1.52 1.52 0 0 0 -1.48-1c-1.17 0-1.66 1.06-1.66 2v.09c0 1 .5 2 1.66 2a1.52 1.52 0 0 0 1.48-1l1.7.87a3.4 3.4 0 0 1 -3.25 1.92 3.59 3.59 0 0 1 -3.56-3.83zm9.67.68a1.75 1.75 0 0 0 1.8 1.45 2.67 2.67 0 0 0 1.87-.7l1 1.45a4.44 4.44 0 0 1 -2.88 1 3.61 3.61 0 0 1 -3.73-3.81v-.09a3.59 3.59 0 0 1 3.59-3.82 3.4 3.4 0 0 1 3.41 3.65v.87zm0-1.45h3a1.43 1.43 0 0 0 -1.46-1.41 1.49 1.49 0 0 0 -1.52 1.41zm7.98 1.45a1.75 1.75 0 0 0 1.8 1.45 2.67 2.67 0 0 0 1.87-.7l1 1.45a4.44 4.44 0 0 1 -2.88 1 3.61 3.61 0 0 1 -3.73-3.81v-.09a3.59 3.59 0 0 1 3.59-3.82 3.4 3.4 0 0 1 3.41 3.65v.87zm0-1.45h3a1.43 1.43 0 0 0 -1.46-1.41 1.49 1.49 0 0 0 -1.52 1.41zm6.01.75c0-2.2 1.31-3.82 3.27-3.82a2.46 2.46 0 0 1 1.87.78v-3.15h1.92v9.94h-1.92v-.64a2.36 2.36 0 0 1 -1.83.78c-2 0-3.31-1.62-3.31-3.82zm5.2-.65a1.4 1.4 0 0 0 -1.53-1.39c-1.09 0-1.69.87-1.69 2v.07c0 1.18.6 2 1.69 2a1.4 1.4 0 0 0 1.53-1.39zm9.53 2.17c0 .36.16.62.82.62a4.75 4.75 0 0 0 1-.08l.17 1.69a15.35 15.35 0 0 1 -1.76.13c-1.32 0-2.1-.58-2.1-1.89v-4h-1.33v-1.72h1.33v-2.1l1.92-.51v2.61h1.86v1.72h-1.95zm10.21-1.47a3.65 3.65 0 1 1 -7.3 0 3.65 3.65 0 1 1 7.3 0zm-2 0c0-1.21-.6-2.07-1.69-2.07s-1.68.87-1.69 2.07c0 1.21.6 2.07 1.69 2.07s1.68-.87 1.69-2.07zm8.76-3.72v.64a2.46 2.46 0 0 1 1.87-.78c2 0 3.27 1.62 3.27 3.82v.07c0 2.2-1.35 3.82-3.31 3.82a2.36 2.36 0 0 1 -1.83-.78v3h-1.92v-9.77zm-.06 4.4a1.4 1.4 0 0 0 1.53 1.39c1.09 0 1.69-.87 1.69-2v-.07c0-1.18-.6-2-1.69-2a1.4 1.4 0 0 0 -1.53 1.39zm8.75 3.16a2.38 2.38 0 0 1 -2.57-2.33 2.15 2.15 0 0 1 2.09-2.17l2.26-.31v-.24c0-.65-.44-1-1.16-1a5 5 0 0 0 -2.19.6l-.75-1.48a6.27 6.27 0 0 1 3-.82c1.36 0 3 .37 3 2.39v3.18c0 .44.24.6.64.77l-.87 1.38a1.69 1.69 0 0 1 -1.39-.84 2.57 2.57 0 0 1 -2.06.87zm.23-3.14c-.47.07-.78.34-.78.77a.9.9 0 0 0 1 .87 1.24 1.24 0 0 0 1.32-1.36v-.51zm6.75 3.3.06-.24h-.14l-2.29-7.48h2.13l1.36 5.14 1.33-5.14h2.1l-2.56 8.52c-.33 1.11-1.19 1.41-2.31 1.41a12.63 12.63 0 0 1 -1.75-.14l.4-1.69a6.89 6.89 0 0 0 1 .08.56.56 0 0 0 .67-.46zm11.87-.3h-1.92v-4.32c0-1.06-.5-1.43-1.12-1.43s-1.31.51-1.31 1.7v4h-1.92v-7.43h1.92v.65a2.49 2.49 0 0 1 1.9-.8 2.15 2.15 0 0 1 1.92 1 2.62 2.62 0 0 1 2.24-1 2.49 2.49 0 0 1 2.64 2.5v5.07h-1.95v-4.32c0-1.06-.5-1.43-1.12-1.43s-1.31.51-1.31 1.7zm7.7-3.05a1.75 1.75 0 0 0 1.8 1.45 2.67 2.67 0 0 0 1.87-.7l1 1.45a4.44 4.44 0 0 1 -2.88 1 3.61 3.61 0 0 1 -3.73-3.81v-.09a3.59 3.59 0 0 1 3.59-3.82 3.4 3.4 0 0 1 3.41 3.65v.87zm0-1.45h3a1.43 1.43 0 0 0 -1.46-1.41 1.49 1.49 0 0 0 -1.53 1.41zm6.38-2.92h1.92v.64a2.52 2.52 0 0 1 1.89-.78 2.43 2.43 0 0 1 2.57 2.56v5h-1.92v-4.32c0-1.05-.5-1.45-1.16-1.45s-1.38.55-1.38 1.7v4.06h-1.92zm10.84 5.19c0 .36.16.62.82.62a4.75 4.75 0 0 0 1-.08l.17 1.69a15.35 15.35 0 0 1 -1.76.13c-1.32 0-2.1-.58-2.1-1.89v-4h-1.33v-1.72h1.33v-2.1l1.92-.51v2.61h1.95v1.72h-1.95z" fill="#fff"/><path d="m419.33 314.58v54.3" fill="#8c8c8c" stroke="#b4b4b4" stroke-miterlimit="10" stroke-width="8"/><path d="m446.92 337.57a3.69 3.69 0 0 0 -3.23-1.67c-2 0-3.44 1.56-3.44 4v3h4.39v2h-4.39v6.1h8.42v2h-12.1v-2h1.43v-6.16h-1.4v-2h1.4v-2.91c0-3.77 2.26-6 5.7-6a5.89 5.89 0 0 1 5.11 2.34zm7.48 10.58a4.26 4.26 0 0 0 4.36 3.07c2.74 0 4-1.59 4-3.5 0-2.1-1.56-3.28-4.41-3.28h-.83v-2h.48c2.45 0 4.47-.86 4.47-3.25 0-2.21-1.72-3.26-3.66-3.26a4.33 4.33 0 0 0 -4.14 2.85l-2.13-.81a6.32 6.32 0 0 1 6.29-4.06c3.28 0 6 2.1 6 5a4.23 4.23 0 0 1 -3.5 4.33 4.42 4.42 0 0 1 3.85 4.57c0 3.66-3.07 5.41-6.51 5.41-3 0-5.57-1.4-6.62-4.36zm17.25-13.83v-.19h2.26v18.87h-2.34v-13.81h-3.47v-2h.35c2.47-.02 3.2-.88 3.2-2.87zm8.64 15.31a1.8 1.8 0 1 1 -1.8 1.8 1.8 1.8 0 0 1 1.8-1.8zm18.77-6.06c0 4.87-1.77 9.66-6.83 9.66s-6.83-4.79-6.83-9.66 1.78-9.68 6.83-9.68 6.83 4.79 6.83 9.68zm-2.45.54v-1.11c0-4.52-1.75-7.1-4.38-7.1s-4.39 2.58-4.39 7.1v1.1c0 4.52 1.75 7.1 4.39 7.1s4.39-2.57 4.39-7.09zm19.62-.54c0 4.87-1.77 9.66-6.83 9.66s-6.83-4.79-6.83-9.66 1.78-9.68 6.83-9.68 6.83 4.79 6.83 9.68zm-2.45.54v-1.11c0-4.52-1.75-7.1-4.38-7.1s-4.4 2.59-4.4 7.1v1.1c0 4.52 1.75 7.1 4.39 7.1s4.39-2.57 4.39-7.09z" fill="#0b0b0b"/><path d="m423.05 219.15v-6.4h1.19v6.52a3.67 3.67 0 0 1 -7.34 0v-6.52h1.21v6.4a2.48 2.48 0 1 0 4.94 0zm2.87 2.65.71-.82a3.36 3.36 0 0 0 2.14.87c.81 0 1.42-.37 1.42-1.07s-.77-.94-1.73-1.19-2.2-.61-2.2-2.07c0-1.19 1.09-2.06 2.58-2.06a3.82 3.82 0 0 1 2.46.88l-.68.78a2.59 2.59 0 0 0 -1.75-.68c-.94 0-1.41.41-1.41 1.05s.4.77 1 .94l1.16.34c1 .3 1.73.8 1.73 1.93 0 1.46-1.29 2.13-2.67 2.13a4.26 4.26 0 0 1 -2.76-1.03zm8.08-2.3a2.23 2.23 0 0 0 2.2 2.3 2.84 2.84 0 0 0 1.86-.7l.6.84a4 4 0 0 1 -2.51.88 3.35 3.35 0 0 1 -3.37-3.68c0-2.16 1.26-3.69 3.22-3.69s3 1.55 3 3.68v.37zm0-.94h3.75c0-1.09-.65-2.09-1.77-2.09a2.06 2.06 0 0 0 -1.98 2.09zm12.29 2.36c0 .47.09.87.91.87a6.12 6.12 0 0 0 .88-.09l.13 1a10.36 10.36 0 0 1 -1.26.1c-1.12 0-1.82-.44-1.82-1.65v-4.56h-1.33v-1h1.33v-2.31l1.16-.41v2.73h2v1h-2zm3.46-8.18h1.16v3.66a2.44 2.44 0 0 1 2.07-1 2.26 2.26 0 0 1 2.37 2.41v4.81h-1.15v-4.44c0-1.25-.64-1.72-1.46-1.72a1.81 1.81 0 0 0 -1.82 2v4.2h-1.16zm8.34 0a.87.87 0 0 1 .85.87.86.86 0 1 1 -1.72 0 .87.87 0 0 1 .87-.87zm.57 9.94h-1.16v-7.08h1.16zm1.56-.88.71-.82a3.36 3.36 0 0 0 2.14.87c.81 0 1.42-.37 1.42-1.07s-.77-.94-1.73-1.19-2.2-.61-2.2-2.07c0-1.19 1.09-2.06 2.58-2.06a3.82 3.82 0 0 1 2.46.88l-.68.78a2.59 2.59 0 0 0 -1.75-.68c-.94 0-1.41.41-1.41 1.05s.4.77 1 .94l1.16.34c1 .3 1.73.8 1.73 1.93 0 1.46-1.29 2.13-2.67 2.13a4.26 4.26 0 0 1 -2.76-1.03zm17.11-2.65c0 2.13-1.31 3.68-3.27 3.68s-3.27-1.55-3.27-3.68 1.31-3.69 3.27-3.69 3.27 1.54 3.27 3.69zm-1.21 0v-.09c0-1.42-.71-2.63-2.06-2.63s-2.06 1.25-2.06 2.67v.09c0 1.39.71 2.61 2.06 2.61s2.06-1.22 2.06-2.61zm4.19-3.55v.81a2.48 2.48 0 0 1 2.07-1c1.83 0 3 1.55 3 3.69s-1.18 3.68-3 3.68a2.48 2.48 0 0 1 -2.07-1v3h-1.16v-9.18zm3.88 3.51c0-1.48-.71-2.61-2-2.61a1.85 1.85 0 0 0 -1.87 2.07v1.15a1.85 1.85 0 0 0 1.87 2.07c1.31 0 2-1.14 2-2.61zm4.69 1.81c0 .47.09.87.91.87a6.12 6.12 0 0 0 .88-.09l.13 1a10.36 10.36 0 0 1 -1.26.1c-1.12 0-1.82-.44-1.82-1.65v-4.56h-1.33v-1h1.33v-2.31l1.16-.41v2.73h2v1h-2zm4.06-8.18a.87.87 0 0 1 .85.87.86.86 0 1 1 -1.72 0 .87.87 0 0 1 .87-.87zm.57 9.94h-1.16v-7.08h1.16zm8.28-3.53c0 2.13-1.31 3.68-3.27 3.68s-3.27-1.55-3.27-3.68 1.31-3.69 3.27-3.69 3.27 1.54 3.27 3.69zm-1.21 0v-.09c0-1.42-.71-2.63-2.06-2.63s-2.06 1.21-2.06 2.63v.09c0 1.39.71 2.61 2.06 2.61s2.07-1.18 2.07-2.57zm3.03-3.55h1.16v.81a2.44 2.44 0 0 1 2.07-1 2.26 2.26 0 0 1 2.37 2.41v4.81h-1.16v-4.44c0-1.25-.64-1.72-1.46-1.72a1.82 1.82 0 0 0 -1.82 2v4.2h-1.16zm9.68 7.22a2.22 2.22 0 0 1 -2.47-2.14 2 2 0 0 1 1.89-2l2.5-.34v-.45c0-1.08-.7-1.41-1.58-1.41a4.31 4.31 0 0 0 -2 .55l-.44-.92a5.35 5.35 0 0 1 2.6-.65c1.72 0 2.63.77 2.63 2.26v3.28a1 1 0 0 0 .58 1l-.65.84a1.4 1.4 0 0 1 -1-.85 2.63 2.63 0 0 1 -2.06.83zm0-3.29c-.78.11-1.29.37-1.29 1.09a1.31 1.31 0 0 0 1.45 1.28c.87 0 1.75-.55 1.75-1.38v-1.28zm5.25-6.79h1.16v8.35c0 .47.14.71.68.71h.73l.11 1a11.29 11.29 0 0 1 -1.18.09c-.84 0-1.5-.37-1.5-1.39zm8.82 2.86v.81a2.48 2.48 0 0 1 2.07-1c1.83 0 3 1.55 3 3.69s-1.18 3.68-3 3.68a2.48 2.48 0 0 1 -2.07-1v3h-1.16v-9.18zm3.88 3.51c0-1.48-.71-2.61-2-2.61a1.85 1.85 0 0 0 -1.87 2.07v1.15a1.85 1.85 0 0 0 1.87 2.07c1.31 0 2-1.14 2-2.61zm5 3.71a2.22 2.22 0 0 1 -2.47-2.14 2 2 0 0 1 1.89-2l2.5-.34v-.45c0-1.08-.7-1.41-1.58-1.41a4.31 4.31 0 0 0 -2 .55l-.44-.92a5.35 5.35 0 0 1 2.6-.65c1.72 0 2.63.77 2.63 2.26v3.28a1 1 0 0 0 .58 1l-.65.84a1.4 1.4 0 0 1 -1-.85 2.63 2.63 0 0 1 -2.06.83zm0-3.29c-.78.11-1.29.37-1.29 1.09a1.31 1.31 0 0 0 1.45 1.28c.87 0 1.75-.55 1.75-1.38v-1.28zm8.91-2.9h-.15c-1.19 0-2.27.48-2.27 2.41v3.64h-1.16v-7.08h1.16v1.12a2.21 2.21 0 0 1 2.12-1.25h.34zm3.5 6.19a2.22 2.22 0 0 1 -2.47-2.14 2 2 0 0 1 1.89-2l2.5-.34v-.45c0-1.08-.7-1.41-1.58-1.41a4.31 4.31 0 0 0 -2 .55l-.44-.92a5.35 5.35 0 0 1 2.6-.65c1.72 0 2.63.77 2.63 2.26v3.28a1 1 0 0 0 .58 1l-.65.84a1.4 1.4 0 0 1 -1-.85 2.63 2.63 0 0 1 -2.06.83zm0-3.29c-.78.11-1.29.37-1.29 1.09a1.31 1.31 0 0 0 1.45 1.28c.87 0 1.75-.55 1.75-1.38v-1.28zm7.66-4.07a2.4 2.4 0 0 1 2 1v-.81h1.17v7.14c0 1.76-1.55 2.27-3 2.27a6.14 6.14 0 0 1 -2.63-.57l.4-1a5.76 5.76 0 0 0 2.26.5c1.19 0 1.85-.44 1.85-1.53v-1.35a2.4 2.4 0 0 1 -2 1c-1.76 0-2.87-1.43-2.87-3.29s1.06-3.36 2.82-3.36zm2 3.27c0-1.26-.54-2.23-1.82-2.23s-1.87 1-1.87 2.23v.06c0 1.24.58 2.23 1.87 2.23s1.82-1 1.82-2.23zm6.97-2.1h-.18c-1.19 0-2.27.48-2.27 2.41v3.64h-1.16v-7.08h1.16v1.12a2.21 2.21 0 0 1 2.12-1.25h.34zm3.5 6.19a2.22 2.22 0 0 1 -2.47-2.14 2 2 0 0 1 1.89-2l2.5-.34v-.45c0-1.08-.7-1.41-1.58-1.41a4.31 4.31 0 0 0 -2 .55l-.44-.92a5.35 5.35 0 0 1 2.6-.65c1.72 0 2.63.77 2.63 2.26v3.28a1 1 0 0 0 .58 1l-.65.84a1.4 1.4 0 0 1 -1-.85 2.63 2.63 0 0 1 -2.06.83zm0-3.29c-.78.11-1.29.37-1.29 1.09a1.31 1.31 0 0 0 1.45 1.28c.87 0 1.75-.55 1.75-1.38v-1.28zm6.46-3.93v.81a2.48 2.48 0 0 1 2.07-1c1.83 0 3 1.55 3 3.69s-1.18 3.68-3 3.68a2.48 2.48 0 0 1 -2.07-1v3h-1.16v-9.18zm3.88 3.51c0-1.48-.71-2.61-2-2.61a1.85 1.85 0 0 0 -1.87 2.07v1.15a1.85 1.85 0 0 0 1.87 2.07c1.31 0 2-1.14 2-2.61zm3.02-6.37h1.16v3.66a2.44 2.44 0 0 1 2.07-1 2.26 2.26 0 0 1 2.37 2.41v4.81h-1.16v-4.44c0-1.25-.64-1.72-1.46-1.72a1.81 1.81 0 0 0 -1.82 2v4.2h-1.16zm13.37 8.18c0 .47.09.87.91.87a6.14 6.14 0 0 0 .88-.09l.13 1a10.36 10.36 0 0 1 -1.26.1c-1.12 0-1.82-.44-1.82-1.65v-4.56h-1.35v-1h1.33v-2.31l1.16-.41v2.73h2v1h-2zm9.43-1.77c0 2.13-1.31 3.68-3.27 3.68s-3.27-1.55-3.27-3.68 1.31-3.69 3.27-3.69 3.27 1.54 3.27 3.69zm-1.21 0v-.09c0-1.42-.71-2.63-2.06-2.63s-2.06 1.21-2.06 2.63v.09c0 1.39.71 2.61 2.06 2.61s2.07-1.18 2.07-2.57zm9.27-3.69a2.4 2.4 0 0 1 2 1v-.81h1.17v7.14c0 1.76-1.55 2.27-3 2.27a6.14 6.14 0 0 1 -2.63-.57l.4-1a5.76 5.76 0 0 0 2.26.5c1.19 0 1.85-.44 1.85-1.53v-1.35a2.4 2.4 0 0 1 -2 1c-1.76 0-2.87-1.43-2.87-3.29s1.04-3.36 2.82-3.36zm2 3.27c0-1.26-.54-2.23-1.82-2.23s-1.87 1-1.87 2.23v.06c0 1.24.58 2.23 1.87 2.23s1.82-1 1.82-2.23zm3.95-5.99a.87.87 0 0 1 .85.87.86.86 0 1 1 -1.72 0 .87.87 0 0 1 .87-.87zm.57 9.94h-1.16v-7.08h1.16zm3.7 0-2.22-7.08h1.32l1.7 6 1.69-6h1.29l-2.24 7.09zm5.88-3.18a2.23 2.23 0 0 0 2.2 2.3 2.84 2.84 0 0 0 1.86-.7l.6.84a4 4 0 0 1 -2.51.88 3.35 3.35 0 0 1 -3.37-3.68c0-2.16 1.26-3.69 3.22-3.69s3 1.55 3 3.68v.37zm0-.94h3.75c0-1.09-.65-2.09-1.77-2.09a2.06 2.06 0 0 0 -1.96 2.09zm9.73-2.96h1.32l1.75 5.85 1.66-5.85h1.31l-2.58 8.15a1.7 1.7 0 0 1 -1.88 1.25 8.32 8.32 0 0 1 -1.26-.11l.17-1a5.39 5.39 0 0 0 .94.1.8.8 0 0 0 .89-.71l.07-.33zm13.42 3.55c0 2.13-1.31 3.68-3.27 3.68s-3.27-1.55-3.27-3.68 1.31-3.69 3.27-3.69 3.27 1.54 3.27 3.69zm-1.21 0v-.09c0-1.42-.71-2.63-2.06-2.63s-2.06 1.21-2.06 2.63v.09c0 1.39.71 2.61 2.06 2.61s2.02-1.18 2.02-2.57zm8.56 3.53h-1.17v-.81a2.44 2.44 0 0 1 -2.07 1 2.26 2.26 0 0 1 -2.37-2.41v-4.86h1.16v4.4c0 1.25.64 1.72 1.46 1.72a1.78 1.78 0 0 0 1.82-2v-4.2h1.17zm5.81-6.05h-.18c-1.19 0-2.27.48-2.27 2.41v3.64h-1.16v-7.08h1.16v1.12a2.21 2.21 0 0 1 2.12-1.25h.34zm10.77 6.05h-1.18v-.81a2.44 2.44 0 0 1 -2.07 1 2.26 2.26 0 0 1 -2.37-2.41v-4.86h1.16v4.4c0 1.25.64 1.72 1.46 1.72a1.78 1.78 0 0 0 1.82-2v-4.2h1.17zm1.57-.88.71-.82a3.36 3.36 0 0 0 2.14.87c.81 0 1.42-.37 1.42-1.07s-.77-.94-1.73-1.19-2.2-.61-2.2-2.07c0-1.19 1.09-2.06 2.58-2.06a3.83 3.83 0 0 1 2.46.88l-.68.78a2.59 2.59 0 0 0 -1.75-.68c-.94 0-1.41.41-1.41 1.05s.4.77 1 .94l1.16.34c1 .3 1.73.8 1.73 1.93 0 1.46-1.29 2.13-2.67 2.13a4.26 4.26 0 0 1 -2.76-1.03zm8.03-2.3a2.23 2.23 0 0 0 2.2 2.3 2.84 2.84 0 0 0 1.86-.7l.6.84a4 4 0 0 1 -2.51.88 3.35 3.35 0 0 1 -3.37-3.68c0-2.16 1.26-3.69 3.22-3.69s3 1.55 3 3.68v.37zm0-.94h3.75c0-1.09-.65-2.09-1.77-2.09a2.06 2.06 0 0 0 -1.96 2.09zm10.4-1.93h-.18c-1.19 0-2.27.48-2.27 2.41v3.64h-1.16v-7.08h1.16v1.12a2.21 2.21 0 0 1 2.12-1.25h.34zm.93 5.17.71-.82a3.36 3.36 0 0 0 2.14.87c.81 0 1.42-.37 1.42-1.07s-.77-.94-1.73-1.19-2.2-.61-2.2-2.07c0-1.19 1.09-2.06 2.58-2.06a3.83 3.83 0 0 1 2.46.88l-.68.78a2.59 2.59 0 0 0 -1.75-.68c-.94 0-1.41.41-1.41 1.05s.4.77 1 .94l1.16.34c1 .3 1.73.8 1.73 1.93 0 1.46-1.29 2.13-2.67 2.13a4.26 4.26 0 0 1 -2.76-1.03zm16.31.88h-1.17v-4.46c0-1.26-.64-1.7-1.42-1.7s-1.56.6-1.56 2v4.19h-1.16v-7.11h1.16v.81a2.18 2.18 0 0 1 1.86-1 2.1 2.1 0 0 1 1.92 1.18 2.43 2.43 0 0 1 2.16-1.18 2.28 2.28 0 0 1 2.39 2.37v4.86h-1.16v-4.46c0-1.26-.68-1.7-1.45-1.7s-1.56.6-1.56 2zm12.46-3.53c0 2.13-1.31 3.68-3.27 3.68s-3.27-1.55-3.27-3.68 1.31-3.69 3.27-3.69 3.27 1.54 3.27 3.69zm-1.21 0v-.09c0-1.42-.71-2.63-2.06-2.63s-2.06 1.21-2.06 2.63v.09c0 1.39.71 2.61 2.06 2.61s2.06-1.18 2.06-2.57zm6.64-2.52h-.18c-1.19 0-2.27.48-2.27 2.41v3.64h-1.16v-7.08h1.16v1.12a2.21 2.21 0 0 1 2.12-1.25h.34zm2.17 2.87a2.23 2.23 0 0 0 2.2 2.3 2.84 2.84 0 0 0 1.86-.7l.6.84a4 4 0 0 1 -2.51.88 3.35 3.35 0 0 1 -3.37-3.68c0-2.16 1.26-3.69 3.22-3.69s3 1.55 3 3.68v.37zm0-.94h3.75c0-1.09-.65-2.09-1.77-2.09a2.06 2.06 0 0 0 -1.96 2.09zm11.11-5.82a.87.87 0 0 1 .85.87.86.86 0 1 1 -1.72 0 .87.87 0 0 1 .87-.87zm.57 9.94h-1.16v-7.08h1.16zm2.17-7.08h1.16v.81a2.44 2.44 0 0 1 2.07-1 2.26 2.26 0 0 1 2.37 2.41v4.81h-1.16v-4.44c0-1.25-.64-1.72-1.46-1.72a1.82 1.82 0 0 0 -1.82 2v4.2h-1.16zm9.31 0h1.36v1h-1.41v6.06h-1.16v-6.06h-1.18v-1h1.18v-1.32c0-1.22.82-1.66 1.95-1.66a6.62 6.62 0 0 1 1.14.1l-.09 1c-.27 0-.78-.06-1-.06-.67 0-.82.41-.82.85zm8.87 3.55c0 2.13-1.31 3.68-3.27 3.68s-3.27-1.55-3.27-3.68 1.31-3.69 3.27-3.69 3.27 1.54 3.27 3.69zm-1.21 0v-.09c0-1.42-.71-2.63-2.06-2.63s-2.06 1.21-2.06 2.63v.09c0 1.39.71 2.61 2.06 2.61s2.07-1.18 2.07-2.57zm6.65-2.52h-.18c-1.19 0-2.27.48-2.27 2.41v3.64h-1.16v-7.08h1.16v1.12a2.21 2.21 0 0 1 2.12-1.25h.34zm6.76 6.05h-1.17v-4.46c0-1.26-.64-1.7-1.42-1.7s-1.56.6-1.56 2v4.19h-1.16v-7.11h1.16v.81a2.18 2.18 0 0 1 1.86-1 2.1 2.1 0 0 1 1.92 1.18 2.43 2.43 0 0 1 2.16-1.18 2.28 2.28 0 0 1 2.39 2.37v4.86h-1.16v-4.46c0-1.26-.68-1.7-1.45-1.7s-1.56.6-1.56 2zm8.29.14a2.22 2.22 0 0 1 -2.47-2.14 2 2 0 0 1 1.89-2l2.5-.34v-.45c0-1.08-.7-1.41-1.58-1.41a4.31 4.31 0 0 0 -2 .55l-.44-.92a5.35 5.35 0 0 1 2.6-.65c1.72 0 2.63.77 2.63 2.26v3.28a1 1 0 0 0 .58 1l-.65.84a1.4 1.4 0 0 1 -1-.85 2.63 2.63 0 0 1 -2.06.83zm0-3.29c-.78.11-1.29.37-1.29 1.09a1.31 1.31 0 0 0 1.45 1.28c.87 0 1.75-.55 1.75-1.38v-1.28zm7 1.39c0 .47.09.87.91.87a6.12 6.12 0 0 0 .88-.09l.13 1a10.36 10.36 0 0 1 -1.26.1c-1.12 0-1.82-.44-1.82-1.65v-4.56h-1.33v-1h1.33v-2.31l1.16-.41v2.73h2v1h-2zm4-8.18a.87.87 0 0 1 .85.87.86.86 0 1 1 -1.72 0 .87.87 0 0 1 .87-.87zm.57 9.94h-1.16v-7.08h1.16zm8.32-3.53c0 2.13-1.31 3.68-3.27 3.68s-3.27-1.55-3.27-3.68 1.31-3.69 3.27-3.69 3.27 1.54 3.27 3.69zm-1.21 0v-.09c0-1.42-.71-2.63-2.06-2.63s-2.06 1.21-2.06 2.63v.09c0 1.39.71 2.61 2.06 2.61s2.06-1.18 2.06-2.57zm3.02-3.55h1.16v.81a2.44 2.44 0 0 1 2.07-1 2.26 2.26 0 0 1 2.37 2.41v4.81h-1.16v-4.44c0-1.25-.64-1.72-1.46-1.72a1.82 1.82 0 0 0 -1.82 2v4.2h-1.16zm8.62 5.32a1 1 0 1 1 -1 1 1 1 0 0 1 1-1zm-399.32 8.86h6v1.05h-4.73v3.27h4.34v1.05h-4.34v4.57h-1.27zm13.73 6.41c0 2.13-1.31 3.68-3.27 3.68s-3.27-1.55-3.27-3.68 1.31-3.69 3.27-3.69 3.27 1.5 3.27 3.69zm-1.21 0v-.09c0-1.42-.71-2.63-2.06-2.63s-2.06 1.21-2.06 2.63v.09c0 1.39.71 2.61 2.06 2.61s2.07-1.18 2.07-2.57zm6.65-2.52h-.17c-1.19 0-2.27.48-2.27 2.41v3.64h-1.16v-7.09h1.16v1.12a2.21 2.21 0 0 1 2.12-1.25h.34zm6.02 2.87a2.23 2.23 0 0 0 2.2 2.3 2.84 2.84 0 0 0 1.86-.7l.6.84a4 4 0 0 1 -2.51.88 3.35 3.35 0 0 1 -3.37-3.68c0-2.16 1.26-3.69 3.22-3.69s3 1.55 3 3.68v.37zm0-.94h3.75c0-1.09-.65-2.09-1.77-2.09a2.06 2.06 0 0 0 -1.97 2.1zm8.25.4-2.17-3.35h1.33l1.52 2.44 1.45-2.44h1.35l-2.16 3.35 2.46 3.73h-1.39l-1.78-2.73-1.62 2.75h-1.38zm7.05 3.87a2.22 2.22 0 0 1 -2.47-2.14 2 2 0 0 1 1.89-2l2.5-.34v-.45c0-1.08-.7-1.41-1.58-1.41a4.31 4.31 0 0 0 -2 .55l-.44-.92a5.35 5.35 0 0 1 2.6-.65c1.72 0 2.63.77 2.63 2.26v3.31a1 1 0 0 0 .58 1l-.65.84a1.4 1.4 0 0 1 -1-.85 2.63 2.63 0 0 1 -2.06.8zm0-3.29c-.78.11-1.29.37-1.29 1.09a1.31 1.31 0 0 0 1.45 1.28c.87 0 1.75-.55 1.75-1.38v-1.28zm10.6 3.14h-1.17v-4.46c0-1.26-.64-1.7-1.42-1.7s-1.56.6-1.56 2v4.19h-1.16v-7.09h1.16v.81a2.18 2.18 0 0 1 1.86-1 2.1 2.1 0 0 1 1.92 1.18 2.43 2.43 0 0 1 2.16-1.18 2.28 2.28 0 0 1 2.39 2.37v4.86h-1.17v-4.46c0-1.26-.68-1.7-1.45-1.7s-1.56.6-1.56 2zm7.51-7.08v.81a2.48 2.48 0 0 1 2.07-1c1.83 0 3 1.55 3 3.69s-1.18 3.68-3 3.68a2.48 2.48 0 0 1 -2.07-1v3h-1.16v-9.24zm3.88 3.51c0-1.48-.71-2.61-2-2.61a1.85 1.85 0 0 0 -1.87 2.07v1.15a1.85 1.85 0 0 0 1.87 2.07c1.31 0 2-1.14 2-2.61zm3-6.37h1.16v8.35c0 .47.14.71.68.71h.73l.11 1a11.29 11.29 0 0 1 -1.18.09c-.84 0-1.5-.37-1.5-1.39zm4.59 6.76a2.23 2.23 0 0 0 2.2 2.3 2.84 2.84 0 0 0 1.86-.7l.6.84a4 4 0 0 1 -2.51.88 3.35 3.35 0 0 1 -3.37-3.68c0-2.16 1.26-3.69 3.22-3.69s3 1.55 3 3.68v.37zm0-.94h3.75c0-1.09-.65-2.09-1.77-2.09a2.06 2.06 0 0 0 -1.96 2.1zm8.53 3.6a1.67 1.67 0 0 1 -1.66 1.8h-.2v-.53h.17c.37-.06.72-.18.72-.57h-.11a.91.91 0 0 1 -.94-.92 1 1 0 0 1 1-1 1.12 1.12 0 0 1 1.02 1.22zm5.06-6.56h1.34l1.75 5.85 1.66-5.85h1.31l-2.58 8.15a1.7 1.7 0 0 1 -1.88 1.25 8.32 8.32 0 0 1 -1.26-.11l.17-1a5.39 5.39 0 0 0 .94.1.8.8 0 0 0 .89-.71v-.32zm13.42 3.55c0 2.13-1.31 3.68-3.27 3.68s-3.27-1.55-3.27-3.68 1.31-3.69 3.27-3.69 3.27 1.5 3.27 3.69zm-1.21 0v-.09c0-1.42-.71-2.63-2.06-2.63s-2.06 1.21-2.06 2.63v.09c0 1.39.71 2.61 2.06 2.61s2.06-1.18 2.06-2.57zm8.56 3.53h-1.17v-.81a2.44 2.44 0 0 1 -2.07 1 2.26 2.26 0 0 1 -2.37-2.41v-4.81h1.18v4.44c0 1.25.64 1.72 1.46 1.72a1.78 1.78 0 0 0 1.82-2v-4.2h1.17zm6.77-3.5c0 1.42.7 2.63 2.06 2.63a2 2 0 0 0 1.83-1.19l1 .55a3 3 0 0 1 -2.8 1.66c-2 0-3.27-1.53-3.27-3.68s1.31-3.69 3.27-3.69a3 3 0 0 1 2.8 1.66l-1 .55a2 2 0 0 0 -1.83-1.19c-1.36 0-2.06 1.21-2.06 2.63zm12.58-.03c0 2.13-1.31 3.68-3.27 3.68s-3.27-1.55-3.27-3.68 1.31-3.69 3.27-3.69 3.27 1.5 3.27 3.69zm-1.21 0v-.09c0-1.42-.71-2.63-2.06-2.63s-2.06 1.21-2.06 2.63v.09c0 1.39.71 2.61 2.06 2.61s2.06-1.18 2.06-2.57zm8.56 3.53h-1.13v-.81a2.44 2.44 0 0 1 -2.07 1 2.26 2.26 0 0 1 -2.37-2.41v-4.81h1.16v4.44c0 1.25.64 1.72 1.46 1.72a1.78 1.78 0 0 0 1.82-2v-4.2h1.17zm2.16-9.94h1.16v8.35c0 .47.14.71.68.71h.73l.11 1a11.29 11.29 0 0 1 -1.18.09c-.84 0-1.5-.37-1.5-1.39zm8.5 9.13a2.48 2.48 0 0 1 -2.07 1c-1.83 0-3-1.53-3-3.68s1.18-3.69 3-3.69a2.48 2.48 0 0 1 2.07 1v-3.66h1.21v9.94h-1.17zm-3.88-2.7c0 1.48.71 2.61 2 2.61a1.85 1.85 0 0 0 1.87-2.07v-1.15a1.85 1.85 0 0 0 -1.87-2.07c-1.31 0-2 1.14-2 2.61zm12.87 1.79c0 .47.09.87.91.87a6.14 6.14 0 0 0 .88-.09l.13 1a10.36 10.36 0 0 1 -1.26.1c-1.12 0-1.82-.44-1.82-1.65v-4.56h-1.33v-1h1.33v-2.31l1.16-.41v2.73h2v1h-2zm4.13-1.46a2.23 2.23 0 0 0 2.2 2.3 2.84 2.84 0 0 0 1.86-.7l.6.84a4 4 0 0 1 -2.51.88 3.35 3.35 0 0 1 -3.37-3.68c0-2.16 1.26-3.69 3.22-3.69s3 1.55 3 3.68v.37zm0-.94h3.75c0-1.09-.65-2.09-1.77-2.09a2.06 2.06 0 0 0 -1.96 2.1zm6.73-5.82h1.16v8.35c0 .47.14.71.68.71h.73l.11 1a11.29 11.29 0 0 1 -1.18.09c-.84 0-1.5-.37-1.5-1.39zm3.93 0h1.16v8.35c0 .47.14.71.68.71h.73l.11 1a11.29 11.29 0 0 1 -1.18.09c-.84 0-1.5-.37-1.5-1.39zm9.49 8.22c0 .47.09.87.91.87a6.12 6.12 0 0 0 .88-.09l.13 1a10.36 10.36 0 0 1 -1.26.1c-1.12 0-1.82-.44-1.82-1.65v-4.56h-1.33v-1h1.33v-2.31l1.16-.41v2.73h2v1h-2zm3.46-8.22h1.16v3.66a2.44 2.44 0 0 1 2.07-1 2.26 2.26 0 0 1 2.37 2.41v4.81h-1.12v-4.44c0-1.25-.64-1.72-1.46-1.72a1.81 1.81 0 0 0 -1.82 2v4.2h-1.16zm8.59 6.76a2.23 2.23 0 0 0 2.2 2.3 2.84 2.84 0 0 0 1.86-.7l.6.84a4 4 0 0 1 -2.51.88 3.35 3.35 0 0 1 -3.37-3.68c0-2.16 1.26-3.69 3.22-3.69s3 1.55 3 3.68v.37zm0-.94h3.75c0-1.09-.65-2.09-1.77-2.09a2.06 2.06 0 0 0 -1.97 2.1zm12.09 4.12h-1.2v-4.46c0-1.26-.64-1.7-1.42-1.7s-1.56.6-1.56 2v4.19h-1.16v-7.09h1.14v.81a2.18 2.18 0 0 1 1.86-1 2.1 2.1 0 0 1 1.92 1.18 2.43 2.43 0 0 1 2.22-1.15 2.28 2.28 0 0 1 2.39 2.37v4.86h-1.16v-4.46c0-1.26-.68-1.7-1.45-1.7s-1.56.6-1.56 2zm10.11-9.94h1.16v3.66a2.44 2.44 0 0 1 2.07-1 2.26 2.26 0 0 1 2.37 2.41v4.81h-1.16v-4.44c0-1.25-.64-1.72-1.46-1.72a1.81 1.81 0 0 0 -1.82 2v4.2h-1.16zm13.9 6.41c0 2.13-1.31 3.68-3.27 3.68s-3.27-1.55-3.27-3.68 1.31-3.69 3.27-3.69 3.27 1.5 3.27 3.69zm-1.21 0v-.09c0-1.42-.71-2.63-2.06-2.63s-2.06 1.21-2.06 2.63v.09c0 1.39.71 2.61 2.06 2.61s2.06-1.18 2.06-2.57zm9 2.16 1.28-5.71h1.24l-1.73 7.09h-1.49l-1.46-5.73-1.46 5.68h-1.43l-1.72-7.09h1.25l1.24 5.71 1.49-5.71h1.32zm7.83-8.57h1.17v8.35c0 .47.14.71.68.71h.73l.11 1a11.29 11.29 0 0 1 -1.18.09c-.84 0-1.5-.37-1.5-1.39zm9.9 6.41c0 2.13-1.31 3.68-3.27 3.68s-3.27-1.55-3.27-3.68 1.31-3.69 3.27-3.69 3.27 1.5 3.27 3.69zm-1.21 0v-.09c0-1.42-.71-2.63-2.06-2.63s-2.06 1.21-2.06 2.63v.09c0 1.39.71 2.61 2.06 2.61s2.07-1.18 2.07-2.57zm3.03-3.55h1.16v.81a2.44 2.44 0 0 1 2.07-1 2.26 2.26 0 0 1 2.37 2.41v4.81h-1.15v-4.44c0-1.25-.64-1.72-1.46-1.72a1.82 1.82 0 0 0 -1.82 2v4.2h-1.16zm10.2-.14a2.4 2.4 0 0 1 2 1v-.81h1.17v7.14c0 1.76-1.55 2.27-3 2.27a6.14 6.14 0 0 1 -2.63-.57l.4-1a5.76 5.76 0 0 0 2.26.5c1.19 0 1.85-.44 1.85-1.53v-1.35a2.4 2.4 0 0 1 -2 1c-1.76 0-2.87-1.43-2.87-3.29s1.07-3.36 2.82-3.36zm2 3.27c0-1.26-.54-2.23-1.82-2.23s-1.87 1-1.87 2.23v.06c0 1.24.58 2.23 1.87 2.23s1.82-1 1.82-2.23zm7.75-5.99a.87.87 0 0 1 .85.87.86.86 0 1 1 -1.72 0 .87.87 0 0 1 .87-.87zm.57 9.94h-1.16v-7.09h1.16zm4-1.72c0 .47.09.87.91.87a6.14 6.14 0 0 0 .88-.09l.13 1a10.36 10.36 0 0 1 -1.26.1c-1.12 0-1.82-.44-1.82-1.65v-4.56h-1.33v-1h1.33v-2.31l1.16-.41v2.73h2v1h-2zm9.1 0c0 .47.09.87.91.87a6.12 6.12 0 0 0 .88-.09l.13 1a10.36 10.36 0 0 1 -1.26.1c-1.12 0-1.82-.44-1.82-1.65v-4.56h-1.33v-1h1.32v-2.31l1.16-.41v2.73h2v1h-2zm5.5 1.87a2.22 2.22 0 0 1 -2.47-2.14 2 2 0 0 1 1.89-2l2.5-.34v-.45c0-1.08-.7-1.41-1.58-1.41a4.31 4.31 0 0 0 -2 .55l-.44-.92a5.35 5.35 0 0 1 2.6-.65c1.72 0 2.63.77 2.63 2.26v3.31a1 1 0 0 0 .58 1l-.65.84a1.4 1.4 0 0 1 -1-.85 2.63 2.63 0 0 1 -2.06.8zm0-3.29c-.78.11-1.29.37-1.29 1.09a1.31 1.31 0 0 0 1.45 1.28c.87 0 1.75-.55 1.75-1.38v-1.28zm6.46-.46 3.34-3.48h1.46l-2.7 2.81 2.83 4.27h-1.42l-2.23-3.49-1.28 1.31v2.19h-1.13v-9.94h1.16zm6.79.42a2.23 2.23 0 0 0 2.2 2.3 2.84 2.84 0 0 0 1.86-.7l.6.84a4 4 0 0 1 -2.51.88 3.35 3.35 0 0 1 -3.37-3.68c0-2.16 1.26-3.69 3.22-3.69s3 1.55 3 3.68v.37zm0-.94h3.75c0-1.09-.65-2.09-1.77-2.09a2.06 2.06 0 0 0 -1.97 2.1zm6.08 3.24.71-.82a3.36 3.36 0 0 0 2.14.87c.81 0 1.42-.37 1.42-1.07s-.77-.94-1.73-1.19-2.2-.61-2.2-2.07c0-1.19 1.09-2.06 2.58-2.06a3.83 3.83 0 0 1 2.46.88l-.68.78a2.59 2.59 0 0 0 -1.75-.68c-.94 0-1.41.41-1.41 1.05s.4.77 1 .94l1.16.34c1 .3 1.73.8 1.73 1.93 0 1.46-1.29 2.13-2.67 2.13a4.26 4.26 0 0 1 -2.76-1.03zm12.71-6.2h1.41v1h-1.41v6.06h-1.16v-6.06h-1.18v-1h1.18v-1.32c0-1.22.82-1.66 1.95-1.66a6.62 6.62 0 0 1 1.14.1l-.09 1c-.27 0-.78-.06-1-.06-.67 0-.82.41-.82.85zm8.87 3.55c0 2.13-1.31 3.68-3.27 3.68s-3.27-1.55-3.27-3.68 1.31-3.69 3.27-3.69 3.27 1.5 3.27 3.69zm-1.21 0v-.09c0-1.42-.71-2.63-2.06-2.63s-2.06 1.21-2.06 2.63v.09c0 1.39.71 2.61 2.06 2.61s2.07-1.18 2.07-2.57zm6.63-2.52h-.18c-1.19 0-2.27.48-2.27 2.41v3.64h-1.15v-7.09h1.16v1.12a2.21 2.21 0 0 1 2.12-1.25h.32zm7.08 4.33c0 .47.09.87.91.87a6.12 6.12 0 0 0 .88-.09l.13 1a10.36 10.36 0 0 1 -1.26.1c-1.12 0-1.82-.44-1.82-1.65v-4.56h-1.33v-1h1.33v-2.31l1.16-.41v2.73h2v1h-2zm3.46-8.22h1.16v3.66a2.44 2.44 0 0 1 2.07-1 2.26 2.26 0 0 1 2.37 2.41v4.81h-1.14v-4.44c0-1.25-.64-1.72-1.46-1.72a1.81 1.81 0 0 0 -1.82 2v4.2h-1.16zm8.59 6.76a2.23 2.23 0 0 0 2.2 2.3 2.84 2.84 0 0 0 1.86-.7l.6.84a4 4 0 0 1 -2.51.88 3.35 3.35 0 0 1 -3.37-3.68c0-2.16 1.26-3.69 3.22-3.69s3 1.55 3 3.68v.37zm0-.94h3.75c0-1.09-.65-2.09-1.77-2.09a2.06 2.06 0 0 0 -1.97 2.1zm7.34-5.82a.87.87 0 0 1 .85.87.86.86 0 1 1 -1.72 0 .87.87 0 0 1 .87-.87zm.57 9.94h-1.16v-7.09h1.12zm5.79-6.05h-.18c-1.19 0-2.27.48-2.27 2.41v3.64h-1.16v-7.09h1.16v1.12a2.21 2.21 0 0 1 2.12-1.25h.34zm7.17 6.2a2.22 2.22 0 0 1 -2.47-2.14 2 2 0 0 1 1.89-2l2.5-.34v-.45c0-1.08-.7-1.41-1.58-1.41a4.31 4.31 0 0 0 -2 .55l-.44-.92a5.35 5.35 0 0 1 2.6-.65c1.72 0 2.63.77 2.63 2.26v3.31a1 1 0 0 0 .58 1l-.65.84a1.4 1.4 0 0 1 -1-.85 2.63 2.63 0 0 1 -2.06.8zm0-3.29c-.78.11-1.29.37-1.29 1.09a1.31 1.31 0 0 0 1.45 1.28c.87 0 1.75-.55 1.75-1.38v-1.28zm6.46-3.94v.81a2.48 2.48 0 0 1 2.07-1c1.83 0 3 1.55 3 3.69s-1.18 3.68-3 3.68a2.48 2.48 0 0 1 -2.07-1v3h-1.16v-9.24zm3.88 3.51c0-1.48-.71-2.61-2-2.61a1.85 1.85 0 0 0 -1.87 2.07v1.15a1.85 1.85 0 0 0 1.87 2.07c1.31 0 2-1.14 2-2.61zm4.19-3.51v.81a2.48 2.48 0 0 1 2.07-1c1.83 0 3 1.55 3 3.69s-1.18 3.68-3 3.68a2.48 2.48 0 0 1 -2.07-1v3h-1.16v-9.24zm3.88 3.51c0-1.48-.71-2.61-2-2.61a1.85 1.85 0 0 0 -1.87 2.07v1.15a1.85 1.85 0 0 0 1.87 2.07c1.31 0 2-1.14 2-2.61zm3-6.37h1.16v8.35c0 .47.14.71.68.71h.73l.11 1a11.29 11.29 0 0 1 -1.18.09c-.84 0-1.5-.37-1.5-1.39zm4.59 0a.87.87 0 0 1 .85.87.86.86 0 1 1 -1.72 0 .87.87 0 0 1 .87-.87zm.57 9.94h-1.16v-7.09h1.16zm2.97-3.5c0 1.42.7 2.63 2.06 2.63a2 2 0 0 0 1.83-1.19l1 .55a3 3 0 0 1 -2.8 1.66c-2 0-3.27-1.53-3.27-3.68s1.31-3.69 3.27-3.69a3 3 0 0 1 2.8 1.66l-1 .55a2 2 0 0 0 -1.83-1.19c-1.36 0-2.06 1.21-2.06 2.63zm8.64 3.65a2.22 2.22 0 0 1 -2.47-2.14 2 2 0 0 1 1.89-2l2.5-.34v-.45c0-1.08-.7-1.41-1.58-1.41a4.31 4.31 0 0 0 -2 .55l-.44-.92a5.35 5.35 0 0 1 2.6-.65c1.72 0 2.63.77 2.63 2.26v3.31a1 1 0 0 0 .58 1l-.65.84a1.4 1.4 0 0 1 -1-.85 2.63 2.63 0 0 1 -2.06.8zm0-3.29c-.78.11-1.29.37-1.29 1.09a1.31 1.31 0 0 0 1.45 1.28c.87 0 1.75-.55 1.75-1.38v-1.28zm7 1.42c0 .47.09.87.91.87a6.12 6.12 0 0 0 .88-.09l.13 1a10.36 10.36 0 0 1 -1.26.1c-1.12 0-1.82-.44-1.82-1.65v-4.56h-1.33v-1h1.31v-2.31l1.16-.41v2.73h2v1h-2zm4.05-8.22a.87.87 0 0 1 .85.87.86.86 0 1 1 -1.72 0 .87.87 0 0 1 .87-.87zm.57 9.94h-1.16v-7.09h1.16zm8.29-3.53c0 2.13-1.31 3.68-3.27 3.68s-3.27-1.55-3.27-3.68 1.31-3.69 3.27-3.69 3.27 1.5 3.27 3.69zm-1.21 0v-.09c0-1.42-.71-2.63-2.06-2.63s-2.06 1.21-2.06 2.63v.09c0 1.39.71 2.61 2.06 2.61s2.06-1.18 2.06-2.57zm3.02-3.55h1.16v.81a2.44 2.44 0 0 1 2.07-1 2.26 2.26 0 0 1 2.37 2.41v4.81h-1.16v-4.44c0-1.25-.64-1.72-1.46-1.72a1.82 1.82 0 0 0 -1.82 2v4.2h-1.16zm-434.36 22.36c0 .47.09.87.91.87a6.12 6.12 0 0 0 .88-.09l.13 1a10.36 10.36 0 0 1 -1.26.1c-1.12 0-1.82-.44-1.82-1.65v-4.53h-1.38v-1h1.33v-2.31l1.16-.41v2.73h2v1h-2zm9.46-1.77c0 2.13-1.31 3.68-3.27 3.68s-3.27-1.55-3.27-3.68 1.31-3.69 3.27-3.69 3.27 1.53 3.27 3.69zm-1.21 0v-.09c0-1.42-.71-2.63-2.06-2.63s-2.06 1.21-2.06 2.63v.09c0 1.39.71 2.61 2.06 2.61s2.03-1.18 2.03-2.57zm7.91 3.53h-1.16v-9.94h1.16v3.66a2.48 2.48 0 0 1 2.07-1c1.83 0 3 1.55 3 3.69s-1.18 3.68-3 3.68a2.48 2.48 0 0 1 -2.07-1zm3.88-3.58c0-1.48-.71-2.61-2-2.61a1.85 1.85 0 0 0 -1.87 2.07v1.15a1.85 1.85 0 0 0 1.87 2.07c1.31 0 2-1.14 2-2.61zm3.88.4a2.23 2.23 0 0 0 2.2 2.3 2.84 2.84 0 0 0 1.86-.7l.6.84a4 4 0 0 1 -2.51.88 3.35 3.35 0 0 1 -3.37-3.68c0-2.16 1.26-3.69 3.22-3.69s3 1.55 3 3.68v.37zm0-.94h3.75c0-1.09-.65-2.09-1.77-2.09a2.06 2.06 0 0 0 -1.97 2.1zm11.67-2.96v.81a2.48 2.48 0 0 1 2.07-1c1.83 0 3 1.55 3 3.69s-1.18 3.68-3 3.68a2.48 2.48 0 0 1 -2.07-1v3h-1.13v-9.24zm3.88 3.51c0-1.48-.71-2.61-2-2.61a1.85 1.85 0 0 0 -1.87 2.07v1.15a1.85 1.85 0 0 0 1.87 2.07c1.31 0 2-1.14 2-2.61zm6.64-2.48h-.18c-1.19 0-2.27.48-2.27 2.41v3.64h-1.2v-7.09h1.16v1.12a2.21 2.21 0 0 1 2.12-1.25h.34zm7.48 2.52c0 2.13-1.31 3.68-3.27 3.68s-3.27-1.55-3.27-3.68 1.31-3.69 3.27-3.69 3.27 1.53 3.27 3.69zm-1.21 0v-.09c0-1.42-.71-2.63-2.06-2.63s-2.06 1.21-2.06 2.63v.09c0 1.39.71 2.61 2.06 2.61s2.06-1.18 2.06-2.57zm3.83.03c0 1.42.7 2.63 2.06 2.63a2 2 0 0 0 1.83-1.19l1 .55a3 3 0 0 1 -2.8 1.66c-2 0-3.27-1.53-3.27-3.68s1.31-3.69 3.27-3.69a3 3 0 0 1 2.8 1.66l-1 .55a2 2 0 0 0 -1.83-1.19c-1.36 0-2.06 1.21-2.06 2.63zm7.25.32a2.23 2.23 0 0 0 2.2 2.3 2.84 2.84 0 0 0 1.86-.7l.6.84a4 4 0 0 1 -2.51.88 3.35 3.35 0 0 1 -3.37-3.68c0-2.16 1.26-3.69 3.22-3.69s3 1.55 3 3.68v.37zm0-.94h3.75c0-1.09-.65-2.09-1.77-2.09a2.06 2.06 0 0 0 -1.98 2.1zm6.15 3.24.71-.82a3.36 3.36 0 0 0 2.14.87c.81 0 1.42-.37 1.42-1.07s-.77-.94-1.73-1.19-2.2-.61-2.2-2.07c0-1.19 1.09-2.06 2.58-2.06a3.82 3.82 0 0 1 2.46.88l-.68.78a2.59 2.59 0 0 0 -1.75-.68c-.94 0-1.41.41-1.41 1.05s.4.77 1 .94l1.16.34c1 .3 1.73.8 1.73 1.93 0 1.46-1.29 2.13-2.67 2.13a4.26 4.26 0 0 1 -2.76-1.03zm6.68 0 .71-.82a3.36 3.36 0 0 0 2.14.87c.81 0 1.42-.37 1.42-1.07s-.77-.94-1.73-1.19-2.2-.61-2.2-2.07c0-1.19 1.09-2.06 2.58-2.06a3.82 3.82 0 0 1 2.46.88l-.68.78a2.59 2.59 0 0 0 -1.75-.68c-.94 0-1.41.41-1.41 1.05s.4.77 1 .94l1.16.34c1 .3 1.73.8 1.73 1.93 0 1.46-1.29 2.13-2.67 2.13a4.26 4.26 0 0 1 -2.76-1.03zm8.03-2.3a2.23 2.23 0 0 0 2.2 2.3 2.84 2.84 0 0 0 1.86-.7l.6.84a4 4 0 0 1 -2.51.88 3.35 3.35 0 0 1 -3.37-3.68c0-2.16 1.26-3.69 3.22-3.69s3 1.55 3 3.68v.37zm0-.94h3.75c0-1.09-.65-2.09-1.77-2.09a2.06 2.06 0 0 0 -1.96 2.1zm11.49 3.36a2.48 2.48 0 0 1 -2.07 1c-1.83 0-3-1.53-3-3.68s1.18-3.69 3-3.69a2.48 2.48 0 0 1 2.07 1v-3.66h1.17v9.94h-1.17zm-3.88-2.7c0 1.48.71 2.61 2 2.61a1.85 1.85 0 0 0 1.87-2.07v-1.15a1.85 1.85 0 0 0 -1.87-2.07c-1.31 0-2 1.14-2 2.61zm8.1 1.7a1 1 0 1 1 -1 1 1 1 0 0 1 1-1z" fill="#0b0b0b"/><path d="m417 289h5a4 4 0 0 1 4.22 4.16 4.13 4.13 0 0 1 -4.41 4.16h-2.28v4.23h-2.53zm4.34 2.3h-1.79v3.7h1.79c1.4 0 2.28-.65 2.28-1.83v-.07c-.03-1.16-.91-1.81-2.31-1.81zm8.97 10.43a3 3 0 0 1 -3.25-2.94 2.71 2.71 0 0 1 2.64-2.79l2.85-.39v-.3c0-.83-.56-1.2-1.47-1.2a6.32 6.32 0 0 0 -2.76.75l-1-1.87a7.93 7.93 0 0 1 3.8-1c1.72 0 3.8.47 3.8 3v4c0 .56.3.75.81 1l-1.09 1.74a2.13 2.13 0 0 1 -1.76-1.06 3.24 3.24 0 0 1 -2.57 1.06zm.29-4c-.59.09-1 .43-1 1a1.14 1.14 0 0 0 1.27 1.09 1.57 1.57 0 0 0 1.67-1.72v-.65zm8.54 4.2.07-.3h-.21l-2.89-9.45h2.69l1.72 6.49 1.69-6.49h2.65l-3.23 10.76c-.41 1.4-1.51 1.78-2.92 1.78a15.91 15.91 0 0 1 -2.21-.18l.5-2.13a8.71 8.71 0 0 0 1.29.11.71.71 0 0 0 .85-.59zm14.99-.38h-2.42v-5.45c0-1.35-.63-1.81-1.42-1.81s-1.65.65-1.65 2.15v5.11h-2.42v-9.38h2.42v.83a3.14 3.14 0 0 1 2.4-1 2.71 2.71 0 0 1 2.42 1.27 3.31 3.31 0 0 1 2.84-1.27 3.14 3.14 0 0 1 3.34 3.16v6.4h-2.44v-5.46c0-1.35-.63-1.81-1.42-1.81s-1.65.65-1.65 2.15zm9.72-3.85a2.21 2.21 0 0 0 2.28 1.83 3.37 3.37 0 0 0 2.37-.88l1.2 1.83a5.61 5.61 0 0 1 -3.64 1.26 4.56 4.56 0 0 1 -4.72-4.81v-.11a4.54 4.54 0 0 1 4.54-4.83 4.3 4.3 0 0 1 4.31 4.61v1.09zm0-1.83h3.78a1.8 1.8 0 0 0 -1.85-1.78 1.88 1.88 0 0 0 -1.91 1.78zm8.06-3.7h2.42v.83a3.18 3.18 0 0 1 2.39-1 3.07 3.07 0 0 1 3.25 3.23v6.33h-2.42v-5.46c0-1.33-.63-1.83-1.47-1.83s-1.74.7-1.74 2.15v5.13h-2.42zm13.7 6.58c0 .45.2.79 1 .79a6 6 0 0 0 1.2-.11l.21 2.13a19.36 19.36 0 0 1 -2.22.16c-1.67 0-2.65-.74-2.65-2.39v-5h-1.65v-2.17h1.69v-2.65l2.42-.65v3.3h2.46v2.17h-2.46zm11.19 2.98a3 3 0 0 1 -3.25-2.94 2.71 2.71 0 0 1 2.64-2.74l2.85-.39v-.3c0-.83-.56-1.2-1.47-1.2a6.32 6.32 0 0 0 -2.76.75l-1-1.87a7.93 7.93 0 0 1 3.8-1c1.72 0 3.8.47 3.8 3v4c0 .56.3.75.81 1l-1.09 1.74a2.13 2.13 0 0 1 -1.76-1.06 3.24 3.24 0 0 1 -2.57 1.01zm.29-4c-.59.09-1 .43-1 1a1.14 1.14 0 0 0 1.27 1.09 1.57 1.57 0 0 0 1.67-1.72v-.65zm14.55 3.82h-2.42v-5.45c0-1.35-.63-1.81-1.42-1.81s-1.65.65-1.65 2.15v5.11h-2.42v-9.38h2.42v.83a3.14 3.14 0 0 1 2.4-1 2.71 2.71 0 0 1 2.42 1.27 3.31 3.31 0 0 1 2.83-1.27 3.14 3.14 0 0 1 3.34 3.16v6.4h-2.44v-5.46c0-1.35-.63-1.81-1.42-1.81s-1.65.65-1.65 2.15zm16.43-4.68a4.62 4.62 0 1 1 -9.22 0 4.62 4.62 0 1 1 9.22 0zm-2.48 0c0-1.52-.75-2.62-2.13-2.62s-2.12 1.09-2.13 2.62c0 1.53.75 2.62 2.13 2.62s2.12-1.09 2.13-2.62zm12.23 4.68h-2.42v-.81a3.18 3.18 0 0 1 -2.39 1 3.07 3.07 0 0 1 -3.25-3.23v-6.33h2.42v5.45c0 1.33.63 1.83 1.47 1.83s1.74-.7 1.74-2.15v-5.13h2.42zm2.26-9.38h2.42v.83a3.18 3.18 0 0 1 2.39-1 3.07 3.07 0 0 1 3.25 3.23v6.33h-2.42v-5.46c0-1.33-.63-1.83-1.47-1.83s-1.74.7-1.74 2.15v5.13h-2.42zm13.71 6.58c0 .45.2.79 1 .79a6 6 0 0 0 1.2-.11l.21 2.13a19.36 19.36 0 0 1 -2.22.16c-1.67 0-2.65-.74-2.65-2.39v-5h-1.69v-2.17h1.69v-2.65l2.42-.65v3.3h2.46v2.17h-2.46z" fill="#0b0b0b"/><path d="m376.74 459.15h623.37v2.99h-623.37z" fill="#dadada"/><path d="m417.67 167h7.53a6 6 0 0 1 6.32 6.24c0 3.58-2.69 6.24-6.62 6.24h-3.42v6.35h-3.82zm6.51 3.44h-2.69v5.56h2.69c2.1 0 3.42-1 3.42-2.74v-.11c-.01-1.75-1.33-2.72-3.42-2.72zm13.5 15.65c-2.56 0-4.87-1.61-4.87-4.41 0-2.26 1.48-3.77 4-4.12l4.19-.56v-.46c0-1.24-.83-1.8-2.21-1.8a9.47 9.47 0 0 0 -4.14 1.13l-1.43-2.8a11.89 11.89 0 0 1 5.7-1.56c2.58 0 5.7.7 5.7 4.52v6c0 .83.46 1.13 1.21 1.45l-1.64 2.61a3.2 3.2 0 0 1 -2.64-1.59 4.86 4.86 0 0 1 -3.87 1.59zm.43-5.94c-.89.13-1.48.65-1.48 1.45a1.71 1.71 0 0 0 1.91 1.64 2.35 2.35 0 0 0 2.5-2.58v-1zm12.81 6.23.11-.46h-.27l-4.33-14.18h4l2.58 9.74 2.53-9.74h4l-4.84 16.14c-.62 2.1-2.26 2.66-4.39 2.66a23.76 23.76 0 0 1 -3.31-.27l.75-3.2a13 13 0 0 0 1.94.16 1.07 1.07 0 0 0 1.23-.85zm21.42-14.63h2.66v3.25h-2.69v10.81h-3.63v-10.81h-2.23v-3.25h2.23v-1.45c0-2.45 1.75-3.58 4.25-3.58a24.59 24.59 0 0 1 2.88.19l-.3 3.09a12.52 12.52 0 0 0 -1.77-.13c-1 0-1.43.43-1.43 1zm17.91 7.05c0 4.17-2.77 7.29-6.91 7.29s-6.91-3.15-6.91-7.29 2.74-7.29 6.91-7.29 6.91 3.15 6.91 7.29zm-3.71 0c0-2.29-1.13-3.93-3.2-3.93s-3.17 1.64-3.2 3.93c0 2.29 1.13 3.93 3.2 3.93s3.17-1.64 3.2-3.93zm14.56-3.52h-.65c-2.07 0-3.9.7-3.9 3.71v6.83h-3.63v-14.07h3.63v1.59a4.36 4.36 0 0 1 3.74-1.83h.81zm11.25 4.72a3.31 3.31 0 0 0 3.42 2.74 5.05 5.05 0 0 0 3.55-1.32l1.8 2.74a8.42 8.42 0 0 1 -5.46 1.88 6.84 6.84 0 0 1 -7.07-7.21v-.16c0-4.14 2.82-7.24 6.81-7.24 3.71 0 6.46 2.82 6.46 6.91v1.66zm0-2.74h5.65a2.71 2.71 0 0 0 -2.77-2.66 2.81 2.81 0 0 0 -2.86 2.69zm15.06 1.19-4.28-6.7h4.2l2.15 3.79 2.26-3.79h4.26l-4.36 6.72 4.84 7.34h-4.28l-2.77-4.3-2.53 4.3h-4.22zm14.75 7.64c-2.56 0-4.87-1.61-4.87-4.41 0-2.26 1.48-3.77 4-4.12l4.28-.59v-.46c0-1.24-.83-1.8-2.21-1.8a9.47 9.47 0 0 0 -4.14 1.13l-1.43-2.8a11.89 11.89 0 0 1 5.7-1.56c2.58 0 5.7.7 5.7 4.52v6c0 .83.46 1.13 1.21 1.45l-1.64 2.61a3.2 3.2 0 0 1 -2.64-1.59 4.86 4.86 0 0 1 -3.96 1.62zm.43-5.94c-.89.13-1.48.65-1.48 1.45a1.71 1.71 0 0 0 1.91 1.64 2.35 2.35 0 0 0 2.5-2.58v-1zm21.82 5.67h-3.63v-8.18c0-2-.94-2.72-2.13-2.72-1.4 0-2.47 1-2.47 3.23v7.67h-3.63v-14.07h3.63v1.25a4.71 4.71 0 0 1 3.6-1.51 4.07 4.07 0 0 1 3.63 1.91 5 5 0 0 1 4.25-1.91 4.71 4.71 0 0 1 5 4.73v9.6h-3.66v-8.18c0-2-.94-2.72-2.13-2.72-1.4 0-2.47 1-2.47 3.23zm15.17-14.07v1.25a4.65 4.65 0 0 1 3.55-1.48c3.71 0 6.19 3.07 6.19 7.24v.13c0 4.17-2.56 7.24-6.27 7.24a4.47 4.47 0 0 1 -3.47-1.48v5.65h-3.58v-18.55zm-.11 8.34a2.65 2.65 0 0 0 2.91 2.64c2.07 0 3.2-1.64 3.2-3.87v-.13c0-2.23-1.13-3.87-3.2-3.87a2.65 2.65 0 0 0 -2.91 2.64zm12.53-13.09h3.63v15c0 .59.32.91 1.08.91a7.2 7.2 0 0 0 1.37-.13l.3 3.09a29.89 29.89 0 0 1 -3.07.22c-2 0-3.31-1.08-3.31-3.09zm11.07 13a3.31 3.31 0 0 0 3.42 2.74 5.05 5.05 0 0 0 3.55-1.32l1.8 2.74a8.42 8.42 0 0 1 -5.46 1.88 6.84 6.84 0 0 1 -7.07-7.21v-.16c0-4.14 2.82-7.24 6.81-7.24 3.71 0 6.46 2.82 6.46 6.91v1.66zm0-2.74h5.68a2.71 2.71 0 0 0 -2.77-2.66 2.81 2.81 0 0 0 -2.88 2.69zm19.37 4.04a6.52 6.52 0 0 0 4.11 1.69c1.1 0 2-.3 2-1.13 0-.67-.54-.94-1.72-1.24a24.13 24.13 0 0 1 -3.5-1 3.78 3.78 0 0 1 -2.47-3.66c0-3 2.66-4.49 5.78-4.49a8.08 8.08 0 0 1 5.57 2l-2.31 2.39a4.84 4.84 0 0 0 -3.23-1.29c-1 0-2 .35-2 1.18 0 .65.62.89 1.67 1.16a19.81 19.81 0 0 1 4 1.29 3.72 3.72 0 0 1 2 3.36c0 3-2.56 4.52-5.68 4.52a10.34 10.34 0 0 1 -6.35-2.13zm15.56-1.3a3.31 3.31 0 0 0 3.42 2.74 5.05 5.05 0 0 0 3.55-1.32l1.8 2.74a8.42 8.42 0 0 1 -5.46 1.88 6.84 6.84 0 0 1 -7.07-7.21v-.16c0-4.14 2.82-7.24 6.81-7.24 3.71 0 6.46 2.82 6.46 6.91v1.66zm0-2.74h5.68a2.71 2.71 0 0 0 -2.77-2.66 2.81 2.81 0 0 0 -2.84 2.69zm20.31-1.98h-.65c-2.07 0-3.9.7-3.9 3.71v6.83h-3.63v-14.07h3.63v1.59a4.36 4.36 0 0 1 3.74-1.83h.81zm5.25 10.54-4.3-14.07h4l2.53 9.68 2.58-9.68h4l-4.28 14.07zm12.69-19.5a2.29 2.29 0 1 1 -2.25 2.28 2.28 2.28 0 0 1 2.25-2.28zm1.83 19.5h-3.63v-14.07h3.63zm2.67-7.07c0-4.14 2.85-7.26 6.81-7.26a6.33 6.33 0 0 1 6.11 3.63l-3.23 1.64a2.87 2.87 0 0 0 -2.8-1.91c-2.21 0-3.15 2-3.15 3.87v.16c0 1.83.94 3.85 3.15 3.85a2.87 2.87 0 0 0 2.8-1.91l3.23 1.64a6.44 6.44 0 0 1 -6.16 3.63c-4 0-6.75-3.12-6.75-7.26zm18.32 1.25a3.31 3.31 0 0 0 3.42 2.74 5.05 5.05 0 0 0 3.55-1.32l1.8 2.74a8.42 8.42 0 0 1 -5.46 1.88 6.84 6.84 0 0 1 -7.07-7.21v-.16c0-4.14 2.82-7.24 6.81-7.24 3.71 0 6.46 2.82 6.46 6.91v1.66zm0-2.74h5.68a2.71 2.71 0 0 0 -2.77-2.66 2.81 2.81 0 0 0 -2.88 2.69z" fill="#0b0b0b"/><circle cx="395.71" cy="73.5" fill="#fff" r="6.35"/><circle cx="413.46" cy="73.5" fill="#fff" r="6.35"/><circle cx="431.21" cy="73.5" fill="#fff" r="6.35"/><path d="m376.74 88.45v-19.9a10 10 0 0 1 10-10h603.37a10 10 0 0 1 10 10v19.9" fill="#dadada"/><circle cx="395.71" cy="73.5" fill="#fff" r="6.35"/><circle cx="413.46" cy="73.5" fill="#fff" r="6.35"/><circle cx="431.21" cy="73.5" fill="#fff" r="6.35"/><path d="m379.73 462.14v-374.19h617.4v374.19h2.98v-376.68h-623.37v376.68z" fill="#dadada"/></svg>