<svg xmlns="http://www.w3.org/2000/svg" viewBox="0 0 960 520">
  <defs>
    <style>
      .cls-1{fill:#fff}.cls-2{fill:#0b0b0b}.cls-3{fill:#dadada}
    </style>
  </defs>
  <g id="Layer_3" data-name="Layer 3">
    <path class="cls-1" d="M2.32 0h952.27v519H2.32z"/>
    <circle class="cls-1" cx="25.38" cy="20" r="8.5"/>
    <circle class="cls-1" cx="49.13" cy="20" r="8.5"/>
    <circle class="cls-1" cx="72.88" cy="20" r="8.5"/>
    <path class="cls-2" d="M1 40h958v65H1z"/>
    <path class="cls-1" d="M267 59.73l-10.71 12.98V59.73h-6.06v29.98h6.06V80.6l3.87-4.33 7.92 13.44h7.05l-11.08-18.06 10.41-11.92H267zM229.64 84.27a5.28 5.28 0 0 1-2-1.17 5.52 5.52 0 0 1-1.31-2 7.58 7.58 0 0 1-.48-2.83V59.69h-6v19.48a11 11 0 0 0 .91 4.54 9.89 9.89 0 0 0 2.54 3.45 11.55 11.55 0 0 0 3.86 2.2 15.83 15.83 0 0 0 9.78 0 11.45 11.45 0 0 0 3.85-2.2 9.94 9.94 0 0 0 2.53-3.45 11 11 0 0 0 .91-4.54V59.69h-6v18.59a7.62 7.62 0 0 1-.48 2.83 5.54 5.54 0 0 1-1.31 2 5.3 5.3 0 0 1-2 1.17 8 8 0 0 1-4.91 0M207.73 87.81a3.93 3.93 0 0 0 .83 1.21 3.74 3.74 0 0 0 1.23.82 3.79 3.79 0 0 0 1.47.29 3.72 3.72 0 0 0 1.46-.29 3.78 3.78 0 0 0 1.21-.82 3.94 3.94 0 0 0 .83-1.21 3.67 3.67 0 0 0 .3-1.49 3.52 3.52 0 0 0-.3-1.45 3.85 3.85 0 0 0-.83-1.19 4 4 0 0 0-1.21-.82 3.58 3.58 0 0 0-1.46-.3 3.65 3.65 0 0 0-1.47.3 4 4 0 0 0-1.23.82 3.84 3.84 0 0 0-.83 1.19 3.53 3.53 0 0 0-.3 1.45 3.68 3.68 0 0 0 .3 1.49M198.11 89.71l8.46-29.98h-6.71l-5.66 22.54h-.21l-5.8-22.54h-6.79l8.47 29.98h8.24zM161.31 83.91a7.09 7.09 0 0 1-2.52-2.06 9.28 9.28 0 0 1-1.54-3.11 14.09 14.09 0 0 1-.52-3.93v-.17a14.13 14.13 0 0 1 .52-3.92 9.27 9.27 0 0 1 1.54-3.12 7.07 7.07 0 0 1 2.52-2.06 8.46 8.46 0 0 1 6.93 0 7.2 7.2 0 0 1 2.52 2.06 9.17 9.17 0 0 1 1.55 3.12 14.06 14.06 0 0 1 .52 3.92v.17a14 14 0 0 1-.52 3.93 9.18 9.18 0 0 1-1.55 3.11 7.22 7.22 0 0 1-2.52 2.06 8.46 8.46 0 0 1-6.93 0m-2.54-23.4a13.32 13.32 0 0 0-4.49 3.28 14.3 14.3 0 0 0-2.82 4.89 19.21 19.21 0 0 0 0 12.07 14.45 14.45 0 0 0 2.82 4.89 13.12 13.12 0 0 0 4.49 3.28 15.73 15.73 0 0 0 12 0 13.08 13.08 0 0 0 4.5-3.28 14.45 14.45 0 0 0 2.82-4.89 19.25 19.25 0 0 0 0-12.07 14.31 14.31 0 0 0-2.82-4.89 13.28 13.28 0 0 0-4.5-3.28 15.63 15.63 0 0 0-12 0M125.68 74.6a14.07 14.07 0 0 1 .48-3.69 9.51 9.51 0 0 1 1.46-3.15 7.37 7.37 0 0 1 2.51-2.19 7.54 7.54 0 0 1 3.64-.83 8 8 0 0 1 2.43.35 6.87 6.87 0 0 1 3.43 2.36 10.32 10.32 0 0 1 1.13 1.79l5.31-3a11.19 11.19 0 0 0-2-2.85 12.15 12.15 0 0 0-2.79-2.2 13.79 13.79 0 0 0-3.49-1.4 16.17 16.17 0 0 0-4-.49 14.18 14.18 0 0 0-5.93 1.2 13.54 13.54 0 0 0-4.51 3.28 14.67 14.67 0 0 0-2.89 4.89 17.65 17.65 0 0 0-1 6 19.43 19.43 0 0 0 .91 6 14.55 14.55 0 0 0 2.63 4.99 12.29 12.29 0 0 0 4.29 3.28 13.65 13.65 0 0 0 5.83 1.19 11.57 11.57 0 0 0 2.64-.29 10.76 10.76 0 0 0 2.29-.81 8.75 8.75 0 0 0 1.88-1.23 7.38 7.38 0 0 0 1.4-1.6v3.51h5.31V73.28h-13.56v4.62h7.67v.29a7.59 7.59 0 0 1-.32 2.09 5.79 5.79 0 0 1-1.13 2.1 6.27 6.27 0 0 1-2.15 1.62 7.77 7.77 0 0 1-3.38.65 7.54 7.54 0 0 1-3.64-.83 7.36 7.36 0 0 1-2.51-2.18 9.53 9.53 0 0 1-1.46-3.14 14 14 0 0 1-.48-3.7zM62.29 65.83a2.63 2.63 0 1 0-1.41-3.42 2.63 2.63 0 0 0 1.41 3.42M56.33 69.32a2.63 2.63 0 1 0-1.42-3.42 2.63 2.63 0 0 0 1.42 3.42M54.59 75.95a2.63 2.63 0 1 0-1.41-3.42 2.63 2.63 0 0 0 1.41 3.42M68.95 67.93a2.63 2.63 0 1 0-1.41-3.42 2.63 2.63 0 0 0 1.41 3.42M93 65.83a2.63 2.63 0 1 1 1.41-3.42A2.63 2.63 0 0 1 93 65.83M99 69.32a2.63 2.63 0 1 1 1.42-3.42A2.63 2.63 0 0 1 99 69.32M100.75 75.95a2.63 2.63 0 1 1 1.41-3.42 2.63 2.63 0 0 1-1.41 3.42M86.4 67.93a2.63 2.63 0 1 1 1.41-3.42 2.63 2.63 0 0 1-1.41 3.42M79.06 61.13l3.33 1.75V58l-3.32 1a1.66 1.66 0 0 0-.32-.33l1.34-4.21h-4.8l1.34 4.21a1.7 1.7 0 0 0-.32.33l-3.37-1v4.9l3.33-1.75a1.76 1.76 0 0 0 .34.34l-1.91 5.75a3.1 3.1 0 0 0 2.51 4H78.13a3.1 3.1 0 0 0 2.65-3.07 3.14 3.14 0 0 0-.14-.91l-1.91-5.77a1.8 1.8 0 0 0 .34-.34M77.67 89.35a125.8 125.8 0 0 1 17.63 1.19c1.51-6.36 3.35-10 5.25-12.6L97 76.66a6.54 6.54 0 0 1 0 3.83 7.26 7.26 0 0 1-1.59-3.26L93.66 83a5.29 5.29 0 0 1 2.8-1.22c-1.65 3.56-3.71 4.47-5.05 4.23a2.54 2.54 0 0 1-2.13-3c.38-1.75 2.17-2.21 3-.17 1.6-3.27-1.12-4.29-2.87-3.32 2.69-2.68 3-5.07.83-7.95-3 2.31-3.06 4.6-1.7 7.82-1.77-2-4.51-.94-3.52 2.33 1.27-2 3-.73 2.69 1.14-.22 1.63-2.38 2.95-5.06 2.72-3.84-.35-4.07-3-4.17-5.2.94-.17 2.65.7 4.1 2.74l.55-6.12a6 6 0 0 1-4.6 2c.53-1.65 3-4.37 3-4.37h-7.68s2.44 2.71 3 4.37a6 6 0 0 1-4.6-2l.53 6.13c1.45-2 3.15-2.91 4.1-2.74-.1 2.2-.32 4.85-4.17 5.2-2.68.23-4.84-1.08-5.06-2.72-.3-1.87 1.35-3.1 2.66-1.13 1-3.26-1.75-4.35-3.52-2.33 1.36-3.22 1.32-5.51-1.7-7.82-2.17 2.88-1.86 5.27.83 7.95-1.75-1-4.47.05-2.87 3.32.84-2 2.63-1.58 3 .17a2.54 2.54 0 0 1-2.13 3c-1.34.25-3.4-.67-5-4.23a5.3 5.3 0 0 1 2.76 1.2l-1.74-5.78a7.24 7.24 0 0 1-1.59 3.26 6.55 6.55 0 0 1 0-3.83l-3.58 1.27c1.9 2.59 3.74 6.24 5.25 12.6a126 126 0 0 1 17.62-1.19"/>
    <path class="cls-3" d="M4 520.95V40h952v480.95h4V36H0v484.95h4z"/>
    <g>
      <path class="cls-2" d="M54.76 145.08h10.08c5.22 0 8.46 3.6 8.46 8.35s-3.6 8.35-8.86 8.35h-4.57v8.5h-5.11zm8.71 4.61h-3.6v7.49h3.6c2.81 0 4.57-1.3 4.57-3.67v-.14c-.04-2.37-1.76-3.68-4.57-3.68zM81.54 170.64c-3.42 0-6.51-2.16-6.51-5.9 0-3 2-5 5.29-5.51l5.72-.79v-.61c0-1.66-1.12-2.41-3-2.41a12.68 12.68 0 0 0-5.54 1.51l-1.91-3.74a15.9 15.9 0 0 1 7.63-2.09c3.46 0 7.63.94 7.63 6v8.06c0 1.12.61 1.51 1.62 1.94l-2.2 3.49a4.28 4.28 0 0 1-3.53-2.12 6.51 6.51 0 0 1-5.2 2.17zm.58-8c-1.19.18-2 .86-2 1.94a2.29 2.29 0 0 0 2.56 2.2 3.14 3.14 0 0 0 3.32-3.41v-1.3zM99.25 171l.14-.61H99l-5.79-19h5.4l3.46 13 3.38-13h5.33l-6.48 21.6c-.83 2.81-3 3.56-5.87 3.56a31.88 31.88 0 0 1-4.43-.36l1-4.19a17.36 17.36 0 0 0 2.59.22 1.43 1.43 0 0 0 1.66-1.22zM127.91 151.46h3.6v4.36h-3.6v14.47H123v-14.48h-3v-4.36h3v-1.94c0-3.28 2.34-4.79 5.69-4.79a32.68 32.68 0 0 1 3.85.25l-.4 4.14a16.68 16.68 0 0 0-2.38-.18c-1.37 0-1.91.58-1.91 1.4zM151.88 160.89c0 5.58-3.71 9.75-9.25 9.75s-9.25-4.21-9.25-9.75 3.67-9.75 9.25-9.75 9.25 4.21 9.25 9.75zm-5 0c0-3.06-1.51-5.26-4.28-5.26s-4.25 2.2-4.28 5.26c0 3.06 1.51 5.25 4.28 5.25s4.25-2.2 4.28-5.25zM166.39 156.17h-.86c-2.77 0-5.22.94-5.22 5v9.14h-4.86v-18.85h4.86v2.12a5.83 5.83 0 0 1 5-2.45h1.08zM181.44 162.54a4.43 4.43 0 0 0 4.57 3.67 6.76 6.76 0 0 0 4.75-1.76l2.41 3.67a11.26 11.26 0 0 1-7.31 2.52c-5.18 0-9.47-3.6-9.47-9.65v-.22c0-5.54 3.78-9.68 9.11-9.68 5 0 8.64 3.78 8.64 9.25v2.2zm0-3.67h7.59a3.62 3.62 0 0 0-3.71-3.56 3.77 3.77 0 0 0-3.84 3.56zM201.6 160.42l-5.72-9h5.62l2.88 5.08 3-5.08H213l-5.83 9 6.48 9.83H208l-3.71-5.76-3.38 5.76h-5.65zM221.33 170.64c-3.42 0-6.51-2.16-6.51-5.9 0-3 2-5 5.29-5.51l5.72-.79v-.61c0-1.66-1.12-2.41-3-2.41a12.68 12.68 0 0 0-5.54 1.51l-1.91-3.74a15.9 15.9 0 0 1 7.63-2.09c3.46 0 7.63.94 7.63 6v8.06c0 1.12.61 1.51 1.62 1.94l-2.2 3.49a4.28 4.28 0 0 1-3.53-2.12 6.51 6.51 0 0 1-5.2 2.17zm.58-8c-1.19.18-2 .86-2 1.94a2.29 2.29 0 0 0 2.56 2.2 3.14 3.14 0 0 0 3.35-3.46v-1.3zM251.1 170.28h-4.86v-10.94c0-2.7-1.26-3.64-2.84-3.64-1.87 0-3.31 1.3-3.31 4.32v10.26h-4.86v-18.82h4.86v1.66a6.31 6.31 0 0 1 4.82-2 5.45 5.45 0 0 1 4.86 2.56 6.63 6.63 0 0 1 5.69-2.56 6.3 6.3 0 0 1 6.7 6.33v12.85h-4.9v-10.96c0-2.7-1.26-3.64-2.84-3.64-1.87 0-3.31 1.3-3.31 4.32zM271.4 151.46v1.62a6.23 6.23 0 0 1 4.75-2c5 0 8.28 4.1 8.28 9.68v.24c0 5.58-3.42 9.68-8.39 9.68a6 6 0 0 1-4.64-2v7.56h-4.86v-24.78zm-.14 11.16c0 2 1.51 3.53 3.89 3.53 2.77 0 4.28-2.2 4.28-5.18v-.18c0-3-1.51-5.18-4.28-5.18-2.38 0-3.89 1.51-3.89 3.53zM288 145.08h4.86v20.09c0 .79.43 1.22 1.44 1.22a9.67 9.67 0 0 0 1.84-.18l.4 4.14a40 40 0 0 1-4.1.29c-2.74 0-4.43-1.44-4.43-4.14zM302.83 162.54a4.43 4.43 0 0 0 4.57 3.67 6.76 6.76 0 0 0 4.75-1.76l2.41 3.67a11.26 11.26 0 0 1-7.31 2.52c-5.18 0-9.47-3.6-9.47-9.65v-.22c0-5.54 3.78-9.68 9.11-9.68 5 0 8.64 3.78 8.64 9.25v2.2zm0-3.67h7.59a3.62 3.62 0 0 0-3.71-3.56 3.77 3.77 0 0 0-3.84 3.56zM328.75 164.24a8.72 8.72 0 0 0 5.51 2.27c1.48 0 2.66-.4 2.66-1.51 0-.9-.72-1.26-2.3-1.66a32.19 32.19 0 0 1-4.68-1.33 5.07 5.07 0 0 1-3.31-4.9c0-4 3.56-6 7.74-6a10.81 10.81 0 0 1 7.45 2.66l-3.1 3.2a6.47 6.47 0 0 0-4.32-1.73c-1.33 0-2.66.47-2.66 1.58 0 .86.83 1.19 2.23 1.55a26.53 26.53 0 0 1 5.4 1.73 5 5 0 0 1 2.63 4.5c0 4-3.42 6-7.59 6-3.06 0-6.62-1.15-8.5-2.84zM349.63 162.54a4.43 4.43 0 0 0 4.57 3.67 6.76 6.76 0 0 0 4.75-1.76l2.41 3.67a11.26 11.26 0 0 1-7.31 2.52c-5.18 0-9.47-3.6-9.47-9.65v-.22c0-5.54 3.78-9.68 9.11-9.68 5 0 8.64 3.78 8.64 9.25v2.2zm0-3.67h7.59a3.62 3.62 0 0 0-3.71-3.56 3.77 3.77 0 0 0-3.84 3.56zM376.74 156.17h-.86c-2.77 0-5.22.94-5.22 5v9.14h-4.86v-18.85h4.86v2.12a5.83 5.83 0 0 1 5-2.45h1.08zM383.76 170.28L378 151.46h5.4l3.38 13 3.46-13h5.33l-5.72 18.83zM400.75 144.19a3.06 3.06 0 1 1-3.06 3.06 3.06 3.06 0 0 1 3.06-3.06zm2.45 26.1h-4.86v-18.83h4.86zM406.76 160.82c0-5.54 3.82-9.72 9.11-9.72 3.85 0 6.95 1.91 8.17 4.86l-4.32 2.2a3.85 3.85 0 0 0-3.72-2.56c-3 0-4.21 2.7-4.21 5.18v.22c0 2.45 1.26 5.15 4.21 5.15a3.85 3.85 0 0 0 3.74-2.56l4.32 2.2c-1.22 3-4.43 4.86-8.24 4.86-5.29 0-9-4.18-9-9.72zM431.27 162.54a4.43 4.43 0 0 0 4.57 3.67 6.76 6.76 0 0 0 4.75-1.76l2.41 3.67a11.26 11.26 0 0 1-7.31 2.52c-5.18 0-9.47-3.6-9.47-9.65v-.22c0-5.54 3.78-9.68 9.11-9.68 5 0 8.64 3.78 8.64 9.25v2.2zm0-3.67h7.59a3.62 3.62 0 0 0-3.71-3.56 3.77 3.77 0 0 0-3.84 3.56z"/>
    </g>
    <path fill="#004a1e" d="M51.88 423.16h243.04v34.54H51.88z"/>
    <path fill="#00823b" d="M51.88 419.17h243.04v34.54H51.88z"/>
    <g>
      <path class="cls-1" d="M85.78 430.24h5.32a4.22 4.22 0 0 1 4.46 4.41 4.38 4.38 0 0 1-4.67 4.41h-2.42v4.48h-2.7zm4.6 2.43h-1.9v4h1.9c1.48 0 2.41-.68 2.41-1.94v-.08c0-1.29-.94-1.98-2.42-1.98zM103 436.09h-.46c-1.46 0-2.75.49-2.75 2.62v4.83h-2.61v-9.94h2.56v1.12a3.08 3.08 0 0 1 2.64-1.29h.62zM113.65 438.58a4.89 4.89 0 1 1-9.76 0 4.89 4.89 0 1 1 9.76 0zm-2.62 0c0-1.61-.8-2.77-2.26-2.77s-2.24 1.16-2.26 2.77c0 1.61.8 2.77 2.26 2.77s2.24-1.16 2.26-2.77zM115 438.54a4.83 4.83 0 0 1 4.81-5.13 4.47 4.47 0 0 1 4.31 2.57l-2.28 1.16a2 2 0 0 0-2-1.35c-1.56 0-2.22 1.42-2.22 2.74v.11c0 1.29.67 2.72 2.22 2.72a2 2 0 0 0 2-1.35l2.28 1.16a4.54 4.54 0 0 1-4.35 2.57 4.8 4.8 0 0 1-4.77-5.14zM128 439.46a2.34 2.34 0 0 0 2.41 1.94 3.57 3.57 0 0 0 2.51-.93l1.27 1.94a6 6 0 0 1-3.86 1.33 4.83 4.83 0 0 1-5-5.09v-.11a4.81 4.81 0 0 1 4.81-5.11 4.55 4.55 0 0 1 4.56 4.88v1.16zm0-1.94h4a1.91 1.91 0 0 0-2-1.88 2 2 0 0 0-2 1.88zM138.63 439.46a2.34 2.34 0 0 0 2.41 1.94 3.57 3.57 0 0 0 2.51-.93l1.27 1.94a6 6 0 0 1-3.86 1.33 4.83 4.83 0 0 1-5-5.09v-.11a4.81 4.81 0 0 1 4.81-5.11 4.55 4.55 0 0 1 4.56 4.88v1.16zm0-1.94h4a1.91 1.91 0 0 0-2-1.88 2 2 0 0 0-1.98 1.88zM146.67 438.53c0-2.94 1.75-5.11 4.37-5.11a3.29 3.29 0 0 1 2.51 1v-4.22h2.56v13.3h-2.56v-.85a3.16 3.16 0 0 1-2.45 1c-2.62 0-4.43-2.17-4.43-5.11zm7-.87a1.87 1.87 0 0 0-2.05-1.86c-1.46 0-2.26 1.16-2.26 2.74v.1c0 1.58.8 2.74 2.26 2.74a1.87 1.87 0 0 0 2.05-1.86zM166.37 440.58c0 .48.21.84 1.1.84a6.41 6.41 0 0 0 1.27-.11l.23 2.26a20.39 20.39 0 0 1-2.36.17c-1.77 0-2.81-.78-2.81-2.53v-5.3H162v-2.3h1.79v-2.81l2.56-.68v3.5H169v2.3h-2.6zM180 438.58a4.89 4.89 0 1 1-9.76 0 4.89 4.89 0 1 1 9.76 0zm-2.62 0c0-1.61-.8-2.77-2.26-2.77s-2.24 1.16-2.26 2.77c0 1.61.8 2.77 2.26 2.77s2.24-1.16 2.26-2.77zM189.08 433.61v.85a3.29 3.29 0 0 1 2.51-1c2.62 0 4.37 2.17 4.37 5.11v.1c0 2.94-1.8 5.11-4.43 5.11a3.16 3.16 0 0 1-2.45-1v4h-2.56v-13.17zm-.08 5.89a1.87 1.87 0 0 0 2.05 1.86c1.46 0 2.26-1.16 2.26-2.74v-.1c0-1.58-.8-2.74-2.26-2.74a1.87 1.87 0 0 0-2.05 1.86zM200.71 443.73a3.18 3.18 0 0 1-3.44-3.12 2.88 2.88 0 0 1 2.79-2.91l3-.42V437c0-.87-.59-1.27-1.56-1.27a6.7 6.7 0 0 0-2.93.8l-1-2a8.39 8.39 0 0 1 4-1.1c1.82 0 4 .49 4 3.19v4.25c0 .59.32.8.86 1l-1.16 1.84a2.26 2.26 0 0 1-1.86-1.12 3.44 3.44 0 0 1-2.7 1.14zm.3-4.2c-.63.1-1 .46-1 1a1.21 1.21 0 0 0 1.35 1.16 1.66 1.66 0 0 0 1.77-1.82v-.68zM210.05 443.94l.08-.32h-.19l-3.06-10h2.85l1.82 6.88 1.79-6.88h2.81L212.73 445c-.44 1.48-1.6 1.88-3.1 1.88a16.77 16.77 0 0 1-2.34-.19l.53-2.26a9.18 9.18 0 0 0 1.37.11.75.75 0 0 0 .86-.6zM225.94 443.54h-2.56v-5.78c0-1.42-.67-1.92-1.5-1.92-1 0-1.75.68-1.75 2.28v5.41h-2.56v-9.94h2.56v.87a3.33 3.33 0 0 1 2.54-1.06 2.88 2.88 0 0 1 2.57 1.35 3.5 3.5 0 0 1 3-1.35 3.33 3.33 0 0 1 3.53 3.34v6.78h-2.58v-5.78c0-1.42-.67-1.92-1.5-1.92-1 0-1.75.68-1.75 2.28zM236.23 439.46a2.34 2.34 0 0 0 2.41 1.94 3.57 3.57 0 0 0 2.51-.93l1.27 1.94a6 6 0 0 1-3.86 1.33 4.83 4.83 0 0 1-5-5.09v-.11a4.81 4.81 0 0 1 4.81-5.11 4.55 4.55 0 0 1 4.56 4.88v1.16zm0-1.94h4a1.91 1.91 0 0 0-2-1.88 2 2 0 0 0-1.98 1.88zM244.77 433.61h2.56v.85a3.37 3.37 0 0 1 2.53-1 3.25 3.25 0 0 1 3.44 3.42v6.71h-2.56v-5.78c0-1.41-.67-1.94-1.56-1.94-1 0-1.84.74-1.84 2.28v5.43h-2.56zM259.28 440.58c0 .48.21.84 1.1.84a6.41 6.41 0 0 0 1.27-.11l.23 2.26a20.39 20.39 0 0 1-2.36.17c-1.77 0-2.81-.78-2.81-2.53v-5.3h-1.79v-2.3h1.79v-2.81l2.56-.68v3.5h2.6v2.3h-2.6z"/>
    </g>
    <g>
      <path class="cls-2" d="M62 214.88v-8.57h1.6V215a4.91 4.91 0 0 1-9.82 0v-8.72h1.61v8.57a3.31 3.31 0 1 0 6.61 0zM65.76 218.43l.95-1.1a4.5 4.5 0 0 0 2.87 1.16c1.08 0 1.9-.49 1.9-1.42s-1-1.25-2.32-1.6-2.94-.82-2.94-2.77c0-1.6 1.46-2.75 3.46-2.75a5.12 5.12 0 0 1 3.32 1.16l-.91 1a3.47 3.47 0 0 0-2.34-.91c-1.25 0-1.88.55-1.88 1.41 0 .68.53 1 1.37 1.25.49.13 1.06.3 1.56.46 1.27.4 2.32 1.06 2.32 2.58 0 2-1.73 2.85-3.57 2.85a5.7 5.7 0 0 1-3.79-1.32zM76.47 215.35a3 3 0 0 0 2.94 3.08 3.8 3.8 0 0 0 2.49-.93l.8 1.12a5.28 5.28 0 0 1-3.36 1.18c-2.75 0-4.5-2.07-4.5-4.92s1.69-4.94 4.31-4.94c2.47 0 4 2.07 4 4.92v.49zm0-1.25h5c-.06-1.46-.87-2.79-2.37-2.79a2.75 2.75 0 0 0-2.62 2.79zM93 217.25c0 .63.11 1.16 1.22 1.16a8.29 8.29 0 0 0 1.18-.11l.17 1.37a13.78 13.78 0 0 1-1.69.13c-1.5 0-2.43-.59-2.43-2.2v-6.1h-1.82v-1.37h1.79V207l1.56-.55v3.65h2.64v1.37H93zM97.56 206.31h1.56v4.9a3.27 3.27 0 0 1 2.77-1.27 3 3 0 0 1 3.17 3.23v6.44h-1.56v-5.95c0-1.67-.85-2.3-2-2.3a2.43 2.43 0 0 0-2.38 2.64v5.62h-1.56zM108.68 206.31a1.16 1.16 0 0 1 1.14 1.16 1.15 1.15 0 1 1-2.3 0 1.16 1.16 0 0 1 1.16-1.16zm.76 13.3h-1.56v-9.48h1.56zM111.49 218.43l.95-1.1a4.5 4.5 0 0 0 2.87 1.16c1.08 0 1.9-.49 1.9-1.42s-1-1.25-2.32-1.6-2.94-.82-2.94-2.77c0-1.6 1.46-2.75 3.46-2.75a5.13 5.13 0 0 1 3.29 1.18l-.91 1a3.47 3.47 0 0 0-2.34-.91c-1.25 0-1.88.55-1.88 1.41 0 .68.53 1 1.37 1.25.49.13 1.06.3 1.56.46 1.27.4 2.32 1.06 2.32 2.58 0 2-1.73 2.85-3.57 2.85a5.7 5.7 0 0 1-3.76-1.34zM134.38 214.88c0 2.85-1.75 4.92-4.37 4.92s-4.37-2.07-4.37-4.92 1.75-4.94 4.37-4.94 4.37 2.06 4.37 4.94zm-1.61.06v-.11c0-1.9-1-3.51-2.75-3.51s-2.75 1.62-2.75 3.51v.11c0 1.86 1 3.5 2.75 3.5s2.75-1.65 2.75-3.51zM138.33 210.13v1.08a3.32 3.32 0 0 1 2.77-1.27c2.45 0 4 2.07 4 4.94s-1.58 4.92-4 4.92a3.32 3.32 0 0 1-2.77-1.27v4h-1.56v-12.4zm5.19 4.69c0-2-1-3.5-2.7-3.5a2.47 2.47 0 0 0-2.51 2.77v1.54a2.47 2.47 0 0 0 2.51 2.77c1.75 0 2.7-1.52 2.7-3.5zM149.75 217.25c0 .63.11 1.16 1.22 1.16a8.3 8.3 0 0 0 1.18-.11l.17 1.37a13.78 13.78 0 0 1-1.69.13c-1.5 0-2.43-.59-2.43-2.2v-6.1h-1.79v-1.37h1.79V207l1.56-.55v3.65h2.64v1.37h-2.64zM155.14 206.31a1.16 1.16 0 0 1 1.14 1.16 1.15 1.15 0 1 1-2.3 0 1.16 1.16 0 0 1 1.16-1.16zm.76 13.3h-1.56v-9.48h1.56zM166.95 214.88c0 2.85-1.75 4.92-4.37 4.92s-4.37-2.07-4.37-4.92 1.75-4.94 4.37-4.94 4.37 2.06 4.37 4.94zm-1.61.06v-.11c0-1.9-1-3.51-2.75-3.51s-2.75 1.62-2.75 3.51v.11c0 1.86 1 3.5 2.75 3.5s2.74-1.65 2.74-3.51zM169.33 210.13h1.56v1.08a3.27 3.27 0 0 1 2.77-1.27 3 3 0 0 1 3.17 3.23v6.44h-1.56v-5.95c0-1.67-.85-2.3-2-2.3a2.44 2.44 0 0 0-2.43 2.62v5.62h-1.56zM182.25 219.8c-1.88 0-3.31-1.1-3.31-2.87a2.65 2.65 0 0 1 2.53-2.68l3.34-.46v-.61c0-1.44-.93-1.88-2.11-1.88a5.77 5.77 0 0 0-2.7.7l-.59-1.24a7.16 7.16 0 0 1 3.48-.87c2.3 0 3.51 1 3.51 3v4.43a1.29 1.29 0 0 0 .78 1.29l-.87 1.12a1.88 1.88 0 0 1-1.27-1.14 3.52 3.52 0 0 1-2.79 1.21zm0-4.41c-1 .15-1.73.49-1.73 1.46a1.75 1.75 0 0 0 1.94 1.71c1.16 0 2.34-.74 2.34-1.84V215zM189.23 206.31h1.56v11.17c0 .63.19 1 .91 1 .4 0 .72 0 1-.06l.15 1.31a15.12 15.12 0 0 1-1.58.11c-1.12 0-2-.49-2-1.86zM201 210.13v1.08a3.32 3.32 0 0 1 2.77-1.27c2.45 0 4 2.07 4 4.94s-1.58 4.92-4 4.92a3.32 3.32 0 0 1-2.77-1.27v4h-1.56v-12.4zm5.19 4.69c0-2-1-3.5-2.7-3.5a2.47 2.47 0 0 0-2.49 2.78v1.54a2.47 2.47 0 0 0 2.51 2.77c1.75 0 2.7-1.52 2.7-3.5zM212.87 219.8c-1.88 0-3.31-1.1-3.31-2.87a2.65 2.65 0 0 1 2.53-2.68l3.34-.46v-.61c0-1.44-.93-1.88-2.11-1.88a5.77 5.77 0 0 0-2.74.74l-.59-1.24a7.16 7.16 0 0 1 3.48-.87c2.3 0 3.51 1 3.51 3v4.43a1.29 1.29 0 0 0 .78 1.29l-.87 1.12a1.88 1.88 0 0 1-1.27-1.14 3.52 3.52 0 0 1-2.75 1.17zm0-4.41c-1 .15-1.73.49-1.73 1.46a1.75 1.75 0 0 0 1.94 1.71c1.16 0 2.34-.74 2.34-1.84V215zM224.76 211.51h-.25c-1.6 0-3 .65-3 3.23v4.86h-1.56v-9.48h1.56v1.5a3 3 0 0 1 2.79-1.62h.46zM229.4 219.8c-1.88 0-3.31-1.1-3.31-2.87a2.66 2.66 0 0 1 2.53-2.68l3.34-.46v-.61c0-1.44-.93-1.88-2.11-1.88a5.77 5.77 0 0 0-2.74.74l-.59-1.24a7.16 7.16 0 0 1 3.48-.87c2.3 0 3.51 1 3.51 3v4.43a1.29 1.29 0 0 0 .78 1.29l-.87 1.12a1.88 1.88 0 0 1-1.27-1.14 3.52 3.52 0 0 1-2.75 1.17zm0-4.41c-1 .15-1.73.49-1.73 1.46a1.75 1.75 0 0 0 1.94 1.71c1.16 0 2.34-.74 2.34-1.84V215zM239.61 209.94a3.2 3.2 0 0 1 2.68 1.27v-1.08h1.56v9.56c0 2.36-2.07 3-4.07 3a8.2 8.2 0 0 1-3.51-.76l.53-1.29a7.7 7.7 0 0 0 3 .67c1.6 0 2.47-.59 2.47-2.05v-1.8a3.2 3.2 0 0 1-2.68 1.27c-2.36 0-3.84-1.92-3.84-4.41s1.5-4.38 3.86-4.38zm2.72 4.37c0-1.69-.72-3-2.43-3s-2.51 1.33-2.51 3v.08c0 1.65.78 3 2.51 3s2.43-1.29 2.43-3zM251.57 211.51h-.25c-1.6 0-3 .65-3 3.23v4.86h-1.56v-9.48h1.56v1.5a3 3 0 0 1 2.83-1.67h.46zM256.21 219.8c-1.88 0-3.31-1.1-3.31-2.87a2.65 2.65 0 0 1 2.53-2.68l3.34-.46v-.61c0-1.44-.93-1.88-2.11-1.88a5.77 5.77 0 0 0-2.74.74l-.59-1.24a7.16 7.16 0 0 1 3.48-.87c2.3 0 3.51 1 3.51 3v4.43a1.29 1.29 0 0 0 .78 1.29l-.87 1.12a1.88 1.88 0 0 1-1.27-1.14 3.52 3.52 0 0 1-2.75 1.17zm0-4.41c-1 .15-1.73.49-1.73 1.46a1.75 1.75 0 0 0 1.94 1.71c1.16 0 2.34-.74 2.34-1.84V215zM264.81 210.13v1.08a3.32 3.32 0 0 1 2.77-1.27c2.45 0 4 2.07 4 4.94s-1.58 4.92-4 4.92a3.32 3.32 0 0 1-2.77-1.27v4h-1.56v-12.4zm5.19 4.69c0-2-1-3.5-2.7-3.5a2.47 2.47 0 0 0-2.51 2.77v1.54a2.47 2.47 0 0 0 2.51 2.77c1.75 0 2.7-1.52 2.7-3.5zM274 206.31h1.56v4.9a3.27 3.27 0 0 1 2.77-1.27 3 3 0 0 1 3.17 3.23v6.44H280v-5.95c0-1.67-.85-2.3-2-2.3a2.43 2.43 0 0 0-2.43 2.62v5.62H274zM291.91 217.25c0 .63.11 1.16 1.22 1.16a8.3 8.3 0 0 0 1.18-.11l.17 1.37a13.78 13.78 0 0 1-1.69.13c-1.5 0-2.43-.59-2.43-2.2v-6.1h-1.79v-1.37h1.79V207l1.56-.55v3.65h2.64v1.37h-2.64zM304.48 214.88c0 2.85-1.75 4.92-4.37 4.92s-4.37-2.07-4.37-4.92 1.75-4.94 4.37-4.94 4.37 2.06 4.37 4.94zm-1.61.06v-.11c0-1.9-1-3.51-2.75-3.51s-2.75 1.62-2.75 3.51v.11c0 1.86 1 3.5 2.75 3.5s2.75-1.65 2.75-3.51zM315.24 209.94a3.2 3.2 0 0 1 2.68 1.27v-1.08h1.56v9.56c0 2.36-2.07 3-4.07 3a8.2 8.2 0 0 1-3.51-.76l.53-1.29a7.7 7.7 0 0 0 3 .67c1.6 0 2.47-.59 2.47-2.05v-1.8a3.2 3.2 0 0 1-2.68 1.27c-2.36 0-3.84-1.92-3.84-4.41s1.5-4.38 3.86-4.38zm2.72 4.37c0-1.69-.72-3-2.43-3s-2.51 1.33-2.51 3v.08c0 1.65.78 3 2.51 3s2.43-1.29 2.43-3zM323.17 206.31a1.16 1.16 0 0 1 1.14 1.16 1.15 1.15 0 1 1-2.3 0 1.16 1.16 0 0 1 1.16-1.16zm.76 13.3h-1.56v-9.48h1.56zM328.85 219.61l-3-9.48h1.77l2.28 8 2.26-8h1.77l-3 9.48zM336.68 215.35a3 3 0 0 0 2.94 3.08 3.8 3.8 0 0 0 2.49-.93l.8 1.12a5.28 5.28 0 0 1-3.36 1.18c-2.75 0-4.5-2.07-4.5-4.92s1.69-4.94 4.31-4.94c2.47 0 4 2.07 4 4.92v.49zm0-1.25h5c-.06-1.46-.87-2.79-2.37-2.79a2.75 2.75 0 0 0-2.61 2.79zM349.69 210.13h1.77l2.34 7.87 2.22-7.83h1.75L354.31 221a2.28 2.28 0 0 1-2.51 1.67 11.07 11.07 0 0 1-1.69-.15l.23-1.37a7.21 7.21 0 0 0 1.25.13 1.07 1.07 0 0 0 1.2-1l.09-.44zM367.61 214.88c0 2.85-1.75 4.92-4.37 4.92s-4.37-2.07-4.37-4.92 1.75-4.94 4.37-4.94 4.37 2.06 4.37 4.94zm-1.61.06v-.11c0-1.9-1-3.51-2.75-3.51s-2.75 1.62-2.75 3.51v.11c0 1.86 1 3.5 2.75 3.5s2.75-1.65 2.75-3.51zM377.4 219.61h-1.56v-1.08a3.27 3.27 0 0 1-2.77 1.27 3 3 0 0 1-3.17-3.23v-6.44h1.56v5.95c0 1.67.85 2.3 2 2.3a2.38 2.38 0 0 0 2.43-2.62v-5.62h1.56zM385.13 211.51h-.25c-1.6 0-3 .65-3 3.23v4.86h-1.56v-9.48h1.56v1.5a3 3 0 0 1 2.83-1.67h.46zM399.55 219.61H398v-1.08a3.27 3.27 0 0 1-2.77 1.27 3 3 0 0 1-3.17-3.23v-6.44h1.56v5.95c0 1.67.85 2.3 2 2.3a2.38 2.38 0 0 0 2.43-2.62v-5.62h1.56zM401.6 218.43l.95-1.1a4.5 4.5 0 0 0 2.87 1.16c1.08 0 1.9-.49 1.9-1.42s-1-1.25-2.32-1.6-2.94-.82-2.94-2.77c0-1.6 1.46-2.75 3.46-2.75a5.13 5.13 0 0 1 3.29 1.18l-.91 1a3.47 3.47 0 0 0-2.34-.91c-1.25 0-1.88.55-1.88 1.41 0 .68.53 1 1.37 1.25.49.13 1.06.3 1.56.46 1.27.4 2.32 1.06 2.32 2.58 0 2-1.73 2.85-3.57 2.85a5.7 5.7 0 0 1-3.76-1.34zM412.31 215.35a3 3 0 0 0 2.94 3.08 3.8 3.8 0 0 0 2.49-.93l.8 1.12a5.28 5.28 0 0 1-3.36 1.18c-2.75 0-4.5-2.07-4.5-4.92s1.69-4.94 4.31-4.94c2.47 0 4 2.07 4 4.92v.49zm0-1.25h5c-.06-1.46-.87-2.79-2.37-2.79a2.75 2.75 0 0 0-2.61 2.79zM426.18 211.51h-.25c-1.6 0-3 .65-3 3.23v4.86h-1.56v-9.48h1.56v1.5a3 3 0 0 1 2.83-1.67h.46zM427.38 218.43l.95-1.1a4.5 4.5 0 0 0 2.87 1.16c1.08 0 1.9-.49 1.9-1.42s-1-1.25-2.32-1.6-2.94-.82-2.94-2.77c0-1.6 1.46-2.75 3.46-2.75a5.13 5.13 0 0 1 3.29 1.18l-.91 1a3.47 3.47 0 0 0-2.34-.91c-1.25 0-1.88.55-1.88 1.41 0 .68.53 1 1.37 1.25.49.13 1.06.3 1.56.46 1.27.4 2.32 1.06 2.32 2.58 0 2-1.73 2.85-3.57 2.85a5.7 5.7 0 0 1-3.76-1.34zM449.21 219.61h-1.56v-6c0-1.69-.86-2.28-1.9-2.28s-2.09.8-2.09 2.64v5.6h-1.56v-9.48h1.56v1.08a2.92 2.92 0 0 1 2.49-1.27 2.81 2.81 0 0 1 2.56 1.58 3.25 3.25 0 0 1 2.89-1.58 3.05 3.05 0 0 1 3.19 3.17v6.5h-1.56v-6c0-1.69-.91-2.28-1.94-2.28s-2.09.8-2.09 2.64zM465.84 214.88c0 2.85-1.75 4.92-4.37 4.92s-4.37-2.07-4.37-4.92 1.75-4.94 4.37-4.94 4.37 2.06 4.37 4.94zm-1.61.06v-.11c0-1.9-1-3.51-2.75-3.51s-2.75 1.62-2.75 3.51v.11c0 1.86 1 3.5 2.75 3.5s2.74-1.65 2.74-3.51zM473.07 211.51h-.25c-1.6 0-3 .65-3 3.23v4.86h-1.56v-9.48h1.56v1.5a3 3 0 0 1 2.83-1.67h.46zM475.93 215.35a3 3 0 0 0 2.94 3.08 3.8 3.8 0 0 0 2.49-.93l.8 1.12a5.28 5.28 0 0 1-3.36 1.18c-2.75 0-4.5-2.07-4.5-4.92s1.69-4.94 4.31-4.94c2.47 0 4 2.07 4 4.92v.49zm0-1.25h5c-.06-1.46-.87-2.79-2.37-2.79a2.75 2.75 0 0 0-2.62 2.79zM490.78 206.31a1.16 1.16 0 0 1 1.14 1.16 1.15 1.15 0 1 1-2.3 0 1.16 1.16 0 0 1 1.16-1.16zm.76 13.3H490v-9.48h1.56zM494.41 210.13H496v1.08a3.27 3.27 0 0 1 2.77-1.27 3 3 0 0 1 3.17 3.23v6.44h-1.56v-5.95c0-1.67-.85-2.3-2-2.3A2.44 2.44 0 0 0 496 214v5.62h-1.56zM506.83 210.13h1.88v1.37h-1.88v8.11h-1.56v-8.11h-1.58v-1.37h1.58v-1.77c0-1.63 1.1-2.22 2.6-2.22a8.81 8.81 0 0 1 1.52.13l-.11 1.33c-.36 0-1-.08-1.35-.08-.89 0-1.1.55-1.1 1.14zM518.66 214.88c0 2.85-1.75 4.92-4.37 4.92s-4.37-2.07-4.37-4.92 1.75-4.94 4.37-4.94 4.37 2.06 4.37 4.94zm-1.61.06v-.11c0-1.9-1-3.51-2.75-3.51s-2.75 1.62-2.75 3.51v.11c0 1.86 1 3.5 2.75 3.5s2.7-1.65 2.7-3.51zM525.89 211.51h-.25c-1.6 0-3 .65-3 3.23v4.86H521v-9.48h1.56v1.5a3 3 0 0 1 2.83-1.67h.46zM534.9 219.61h-1.56v-6c0-1.69-.86-2.28-1.9-2.28s-2.09.8-2.09 2.64v5.6h-1.56v-9.48h1.56v1.08a2.92 2.92 0 0 1 2.49-1.27 2.81 2.81 0 0 1 2.56 1.58 3.25 3.25 0 0 1 2.89-1.58 3.05 3.05 0 0 1 3.19 3.17v6.5h-1.56v-6c0-1.69-.91-2.28-1.94-2.28s-2.09.8-2.09 2.64zM545.92 219.8c-1.88 0-3.31-1.1-3.31-2.87a2.65 2.65 0 0 1 2.53-2.68l3.34-.46v-.61c0-1.44-.93-1.88-2.11-1.88a5.77 5.77 0 0 0-2.74.74l-.59-1.24a7.16 7.16 0 0 1 3.48-.87c2.3 0 3.51 1 3.51 3v4.43a1.29 1.29 0 0 0 .78 1.29l-.87 1.12a1.88 1.88 0 0 1-1.27-1.14 3.52 3.52 0 0 1-2.75 1.17zm0-4.41c-1 .15-1.73.49-1.73 1.46a1.75 1.75 0 0 0 1.94 1.71c1.16 0 2.34-.74 2.34-1.84V215zM555.24 217.25c0 .63.11 1.16 1.22 1.16a8.3 8.3 0 0 0 1.18-.11l.17 1.37a13.78 13.78 0 0 1-1.69.13c-1.5 0-2.43-.59-2.43-2.2v-6.1h-1.79v-1.37h1.79V207l1.56-.55v3.65h2.64v1.37h-2.64zM560.63 206.31a1.16 1.16 0 0 1 1.14 1.16 1.15 1.15 0 1 1-2.3 0 1.16 1.16 0 0 1 1.16-1.16zm.76 13.3h-1.56v-9.48h1.56zM572.44 214.88c0 2.85-1.75 4.92-4.37 4.92s-4.37-2.07-4.37-4.92 1.75-4.94 4.37-4.94 4.37 2.06 4.37 4.94zm-1.61.06v-.11c0-1.9-1-3.51-2.75-3.51s-2.75 1.62-2.75 3.51v.11c0 1.86 1 3.5 2.75 3.5s2.74-1.65 2.74-3.51zM574.82 210.13h1.56v1.08a3.27 3.27 0 0 1 2.77-1.27 3 3 0 0 1 3.17 3.23v6.44h-1.56v-5.95c0-1.67-.85-2.3-2-2.3a2.44 2.44 0 0 0-2.43 2.62v5.62h-1.56zM586.31 217.25a1.27 1.27 0 1 1-1.27 1.27 1.27 1.27 0 0 1 1.27-1.27zM53.87 229.11h8v1.41H55.5v4.37h5.81v1.41H55.5v6.12h-1.63zM72.19 237.68c0 2.85-1.75 4.92-4.37 4.92s-4.37-2.07-4.37-4.92 1.75-4.94 4.37-4.94 4.37 2.05 4.37 4.94zm-1.61.06v-.11c0-1.9-1-3.51-2.75-3.51s-2.75 1.61-2.75 3.51v.11c0 1.86 1 3.5 2.75 3.5s2.75-1.65 2.75-3.51zM79.42 234.31h-.25c-1.6 0-3 .65-3 3.23v4.86h-1.59v-9.48h1.56v1.5a3 3 0 0 1 2.86-1.66h.46zM87.48 238.15a3 3 0 0 0 2.94 3.08 3.8 3.8 0 0 0 2.49-.93l.8 1.12a5.28 5.28 0 0 1-3.36 1.18c-2.75 0-4.5-2.07-4.5-4.92s1.69-4.94 4.31-4.94c2.47 0 4 2.07 4 4.92v.49zm0-1.25h5c-.06-1.46-.87-2.79-2.37-2.79a2.75 2.75 0 0 0-2.61 2.79zM98.48 237.41l-2.91-4.48h1.79l2 3.27 1.94-3.27h1.8l-2.89 4.48 3.29 5h-1.86l-2.38-3.69-2.17 3.69h-1.8zM107.87 242.6c-1.88 0-3.31-1.1-3.31-2.87a2.65 2.65 0 0 1 2.53-2.68l3.34-.46V236c0-1.44-.93-1.88-2.11-1.88a5.77 5.77 0 0 0-2.74.74l-.59-1.24a7.16 7.16 0 0 1 3.48-.87c2.3 0 3.51 1 3.51 3v4.43a1.29 1.29 0 0 0 .78 1.29l-.87 1.12a1.88 1.88 0 0 1-1.27-1.14 3.52 3.52 0 0 1-2.75 1.15zm0-4.41c-1 .15-1.73.49-1.73 1.46a1.75 1.75 0 0 0 1.94 1.71c1.16 0 2.34-.74 2.34-1.84v-1.71zM122 242.41h-1.56v-6c0-1.69-.86-2.28-1.9-2.28s-2.09.8-2.09 2.64v5.6h-1.56v-9.48h1.56V234a2.92 2.92 0 0 1 2.49-1.27 2.81 2.81 0 0 1 2.56 1.58 3.25 3.25 0 0 1 2.89-1.58 3.05 3.05 0 0 1 3.19 3.17v6.5H126v-6c0-1.69-.91-2.28-1.94-2.28S122 235 122 236.8zM132 232.93V234a3.32 3.32 0 0 1 2.77-1.27c2.45 0 4 2.07 4 4.94s-1.58 4.92-4 4.92a3.32 3.32 0 0 1-2.77-1.27v4h-1.56v-12.39zm5.19 4.69c0-2-1-3.5-2.7-3.5a2.47 2.47 0 0 0-2.49 2.78v1.54a2.47 2.47 0 0 0 2.51 2.77c1.75 0 2.7-1.52 2.7-3.5zM141.18 229.11h1.56v11.17c0 .63.19 1 .91 1 .4 0 .72 0 1-.06l.15 1.31a15.12 15.12 0 0 1-1.58.11c-1.12 0-2-.49-2-1.86zM147.29 238.15a3 3 0 0 0 2.94 3.08 3.8 3.8 0 0 0 2.49-.93l.8 1.12a5.28 5.28 0 0 1-3.36 1.18c-2.75 0-4.5-2.07-4.5-4.92s1.69-4.94 4.31-4.94c2.47 0 4 2.07 4 4.92v.49zm0-1.25h5c-.06-1.46-.87-2.79-2.37-2.79a2.75 2.75 0 0 0-2.61 2.79zM158.66 241.7a2.24 2.24 0 0 1-2.22 2.41h-.27l-.06-.7h.23c.49-.08 1-.25 1-.76v-.06h-.15a1.21 1.21 0 0 1-1.25-1.23 1.27 1.27 0 0 1 1.27-1.27 1.5 1.5 0 0 1 1.45 1.61zM165.42 232.93h1.77l2.34 7.83 2.22-7.83h1.75l-3.5 10.9a2.28 2.28 0 0 1-2.51 1.67 11.19 11.19 0 0 1-1.69-.15l.23-1.37a7.21 7.21 0 0 0 1.25.13 1.07 1.07 0 0 0 1.2-1l.09-.44zM183.34 237.68c0 2.85-1.75 4.92-4.37 4.92s-4.37-2.07-4.37-4.92 1.75-4.94 4.37-4.94 4.37 2.05 4.37 4.94zm-1.61.06v-.11c0-1.9-1-3.51-2.75-3.51s-2.75 1.61-2.75 3.51v.11c0 1.86 1 3.5 2.75 3.5s2.74-1.65 2.74-3.51zM193.13 242.41h-1.56v-1.08a3.27 3.27 0 0 1-2.77 1.27 3 3 0 0 1-3.17-3.23v-6.44h1.56v5.95c0 1.67.85 2.3 2 2.3a2.38 2.38 0 0 0 2.43-2.62v-5.62h1.56zM202.19 237.71c0 1.9.93 3.51 2.75 3.51a2.71 2.71 0 0 0 2.45-1.6l1.29.74a4 4 0 0 1-3.74 2.22c-2.62 0-4.37-2.05-4.37-4.92s1.75-4.94 4.37-4.94a4 4 0 0 1 3.74 2.22l-1.29.74a2.71 2.71 0 0 0-2.45-1.6c-1.82 0-2.75 1.61-2.75 3.51zM219 237.68c0 2.85-1.75 4.92-4.37 4.92s-4.37-2.07-4.37-4.92 1.75-4.94 4.37-4.94 4.37 2.05 4.37 4.94zm-1.61.06v-.11c0-1.9-1-3.51-2.75-3.51s-2.75 1.61-2.75 3.51v.11c0 1.86 1 3.5 2.75 3.5s2.72-1.65 2.72-3.51zM228.76 242.41h-1.56v-1.08a3.27 3.27 0 0 1-2.77 1.27 3 3 0 0 1-3.17-3.23v-6.44h1.56v5.95c0 1.67.85 2.3 2 2.3a2.38 2.38 0 0 0 2.43-2.62v-5.62h1.56zM231.62 229.11h1.56v11.17c0 .63.19 1 .91 1 .4 0 .72 0 1-.06l.15 1.31a15.12 15.12 0 0 1-1.58.11c-1.12 0-2-.49-2-1.86zM243 241.32a3.32 3.32 0 0 1-2.77 1.27c-2.45 0-4-2.05-4-4.92s1.58-4.94 4-4.94A3.32 3.32 0 0 1 243 234v-4.9h1.56v13.3H243zm-5.19-3.61c0 2 .95 3.5 2.7 3.5a2.47 2.47 0 0 0 2.51-2.77v-1.54a2.47 2.47 0 0 0-2.51-2.77c-1.75 0-2.7 1.52-2.7 3.5zM255 240.05c0 .63.11 1.16 1.22 1.16a8.29 8.29 0 0 0 1.18-.11l.17 1.37a13.78 13.78 0 0 1-1.69.13c-1.5 0-2.43-.59-2.43-2.2v-6.1h-1.79v-1.37h1.79v-3.1l1.56-.55v3.65h2.64v1.37H255zM260.47 238.15a3 3 0 0 0 2.94 3.08 3.8 3.8 0 0 0 2.49-.93l.8 1.12a5.28 5.28 0 0 1-3.36 1.18c-2.75 0-4.5-2.07-4.5-4.92s1.69-4.94 4.31-4.94c2.47 0 4 2.07 4 4.92v.49zm0-1.25h5c-.06-1.46-.87-2.79-2.37-2.79a2.75 2.75 0 0 0-2.61 2.79zM269.43 229.11H271v11.17c0 .63.19 1 .91 1 .4 0 .72 0 1-.06l.15 1.31a15.12 15.12 0 0 1-1.58.11c-1.12 0-2-.49-2-1.86zM274.65 229.11h1.56v11.17c0 .63.19 1 .91 1 .4 0 .72 0 1-.06l.15 1.31a15.12 15.12 0 0 1-1.58.11c-1.12 0-2-.49-2-1.86zM287.34 240.05c0 .63.11 1.16 1.22 1.16a8.3 8.3 0 0 0 1.18-.11l.17 1.37a13.78 13.78 0 0 1-1.69.13c-1.5 0-2.43-.59-2.43-2.2v-6.1H284v-1.37h1.79v-3.1l1.56-.55v3.65H290v1.37h-2.64zM291.93 229.11h1.56V234a3.27 3.27 0 0 1 2.77-1.27 3 3 0 0 1 3.17 3.23v6.44h-1.56v-5.95c0-1.67-.85-2.3-2-2.3a2.43 2.43 0 0 0-2.43 2.62v5.62h-1.56zM303.39 238.15a3 3 0 0 0 2.94 3.08 3.8 3.8 0 0 0 2.49-.93l.8 1.12a5.28 5.28 0 0 1-3.36 1.18c-2.75 0-4.5-2.07-4.5-4.92s1.69-4.94 4.31-4.94c2.47 0 4 2.07 4 4.92v.49zm0-1.25h5c-.06-1.46-.87-2.79-2.37-2.79a2.75 2.75 0 0 0-2.61 2.79zM319.52 242.41H318v-6c0-1.69-.86-2.28-1.9-2.28s-2.1.87-2.1 2.67v5.6h-1.56v-9.48H314V234a2.92 2.92 0 0 1 2.49-1.27 2.81 2.81 0 0 1 2.56 1.58 3.25 3.25 0 0 1 2.89-1.58 3.05 3.05 0 0 1 3.19 3.17v6.5h-1.56v-6c0-1.69-.91-2.28-1.94-2.28s-2.09.8-2.09 2.64zM333 229.11h1.56V234a3.27 3.27 0 0 1 2.77-1.27 3 3 0 0 1 3.17 3.23v6.44H339v-5.95c0-1.67-.85-2.3-2-2.3a2.43 2.43 0 0 0-2.43 2.62v5.62H333zM351.6 237.68c0 2.85-1.75 4.92-4.37 4.92s-4.37-2.07-4.37-4.92 1.75-4.94 4.37-4.94 4.37 2.05 4.37 4.94zm-1.61.06v-.11c0-1.9-1-3.51-2.75-3.51s-2.75 1.61-2.75 3.51v.11c0 1.86 1 3.5 2.75 3.5s2.76-1.65 2.76-3.51zM362 240.56l1.71-7.64h1.65l-2.36 9.49h-2l-1.92-7.6-2 7.6h-1.92l-2.3-9.48h1.67l1.65 7.64 2-7.64H360zM372.46 229.11H374v11.17c0 .63.19 1 .91 1 .4 0 .72 0 1-.06l.15 1.31a15.12 15.12 0 0 1-1.58.11c-1.12 0-2-.49-2-1.86zM385.67 237.68c0 2.85-1.75 4.92-4.37 4.92s-4.37-2.07-4.37-4.92 1.75-4.94 4.37-4.94 4.37 2.05 4.37 4.94zm-1.61.06v-.11c0-1.9-1-3.51-2.75-3.51s-2.75 1.61-2.75 3.51v.11c0 1.86 1 3.5 2.75 3.5s2.75-1.65 2.75-3.51zM388.06 232.93h1.56V234a3.27 3.27 0 0 1 2.77-1.27 3 3 0 0 1 3.17 3.23v6.44H394v-5.95c0-1.67-.85-2.3-2-2.3a2.44 2.44 0 0 0-2.43 2.62v5.62h-1.56zM401.67 232.74a3.2 3.2 0 0 1 2.68 1.27v-1.08h1.56v9.56c0 2.36-2.07 3-4.07 3a8.2 8.2 0 0 1-3.51-.76l.53-1.29a7.7 7.7 0 0 0 3 .67c1.6 0 2.47-.59 2.47-2.05v-1.8a3.2 3.2 0 0 1-2.68 1.27c-2.36 0-3.84-1.92-3.84-4.41s1.51-4.38 3.86-4.38zm2.72 4.37c0-1.69-.72-3-2.43-3s-2.51 1.33-2.51 3v.08c0 1.65.78 3 2.51 3s2.43-1.29 2.43-3zM414.72 229.11a1.16 1.16 0 0 1 1.14 1.16 1.15 1.15 0 1 1-2.3 0 1.16 1.16 0 0 1 1.16-1.16zm.76 13.3h-1.56v-9.48h1.56zM420.78 240.05c0 .63.11 1.16 1.22 1.16a8.29 8.29 0 0 0 1.18-.11l.17 1.37a13.78 13.78 0 0 1-1.69.13c-1.5 0-2.43-.59-2.43-2.2v-6.1h-1.79v-1.37h1.79v-3.1l1.56-.55v3.65h2.64v1.37h-2.64zM433 240.05c0 .63.11 1.16 1.22 1.16a8.3 8.3 0 0 0 1.18-.11l.17 1.37a13.78 13.78 0 0 1-1.69.13c-1.5 0-2.43-.59-2.43-2.2v-6.1h-1.79v-1.37h1.79v-3.1l1.56-.55v3.65h2.64v1.37H433zM440.29 242.6c-1.88 0-3.31-1.1-3.31-2.87a2.65 2.65 0 0 1 2.53-2.68l3.34-.46V236c0-1.44-.93-1.88-2.11-1.88a5.77 5.77 0 0 0-2.74.74l-.59-1.24a7.16 7.16 0 0 1 3.48-.87c2.3 0 3.51 1 3.51 3v4.43a1.29 1.29 0 0 0 .78 1.29l-.87 1.12a1.88 1.88 0 0 1-1.27-1.14 3.52 3.52 0 0 1-2.75 1.15zm0-4.41c-1 .15-1.73.49-1.73 1.46a1.75 1.75 0 0 0 1.94 1.71c1.16 0 2.34-.74 2.34-1.84v-1.71zM448.89 237.58l4.46-4.65h2l-3.61 3.76 3.78 5.72h-1.9l-3-4.67-1.71 1.75v2.93h-1.56v-13.3h1.56zM457.93 238.15a3 3 0 0 0 2.94 3.08 3.8 3.8 0 0 0 2.49-.93l.8 1.12a5.28 5.28 0 0 1-3.36 1.18c-2.75 0-4.5-2.07-4.5-4.92s1.69-4.94 4.31-4.94c2.47 0 4 2.07 4 4.92v.49zm0-1.25h5c-.06-1.46-.87-2.79-2.37-2.79a2.75 2.75 0 0 0-2.61 2.79zM466.08 241.23l.95-1.1a4.5 4.5 0 0 0 2.87 1.16c1.08 0 1.9-.49 1.9-1.42s-1-1.25-2.32-1.6-2.94-.82-2.94-2.77c0-1.6 1.46-2.75 3.46-2.75a5.12 5.12 0 0 1 3.29 1.18l-.91 1A3.47 3.47 0 0 0 470 234c-1.25 0-1.88.55-1.88 1.41 0 .68.53 1 1.37 1.25.49.13 1.06.3 1.56.46 1.27.4 2.32 1.06 2.32 2.58 0 2-1.73 2.85-3.57 2.85a5.7 5.7 0 0 1-3.72-1.32zM483 232.93h1.88v1.37H483v8.11h-1.56v-8.11h-1.58v-1.37h1.58v-1.77c0-1.63 1.1-2.22 2.6-2.22a8.81 8.81 0 0 1 1.52.13l-.11 1.33c-.36 0-1-.08-1.35-.08-.89 0-1.1.55-1.1 1.14zM494.86 237.68c0 2.85-1.75 4.92-4.37 4.92s-4.37-2.07-4.37-4.92 1.75-4.94 4.37-4.94 4.37 2.05 4.37 4.94zm-1.61.06v-.11c0-1.9-1-3.51-2.75-3.51s-2.75 1.61-2.75 3.51v.11c0 1.86 1 3.5 2.75 3.5s2.75-1.65 2.75-3.51zM502.09 234.31h-.25c-1.6 0-3 .65-3 3.23v4.86h-1.56v-9.48h1.56v1.5a3 3 0 0 1 2.83-1.67h.46zM511.53 240.05c0 .63.11 1.16 1.22 1.16a8.3 8.3 0 0 0 1.18-.11l.17 1.37a13.78 13.78 0 0 1-1.69.13c-1.5 0-2.43-.59-2.43-2.2v-6.1h-1.79v-1.37H510v-3.1l1.56-.55v3.65h2.64v1.37h-2.64zM516.12 229.11h1.56V234a3.27 3.27 0 0 1 2.77-1.27 3 3 0 0 1 3.17 3.23v6.44h-1.56v-5.95c0-1.67-.85-2.3-2-2.3a2.43 2.43 0 0 0-2.43 2.62v5.62h-1.56zM527.58 238.15a3 3 0 0 0 2.94 3.08 3.8 3.8 0 0 0 2.49-.93l.8 1.12a5.28 5.28 0 0 1-3.36 1.18c-2.75 0-4.5-2.07-4.5-4.92s1.69-4.94 4.31-4.94c2.47 0 4 2.07 4 4.92v.49zm0-1.25h5c-.06-1.46-.87-2.79-2.37-2.79a2.75 2.75 0 0 0-2.61 2.79zM537.36 229.11a1.16 1.16 0 0 1 1.14 1.16 1.15 1.15 0 1 1-2.3 0 1.16 1.16 0 0 1 1.16-1.16zm.76 13.3h-1.56v-9.48h1.56zM545.84 234.31h-.25c-1.6 0-3 .65-3 3.23v4.86H541v-9.48h1.56v1.5a3 3 0 0 1 2.83-1.67h.46zM555.43 242.6c-1.88 0-3.31-1.1-3.31-2.87a2.65 2.65 0 0 1 2.53-2.68l3.34-.46V236c0-1.44-.93-1.88-2.11-1.88a5.77 5.77 0 0 0-2.74.74l-.59-1.24a7.16 7.16 0 0 1 3.48-.87c2.3 0 3.51 1 3.51 3v4.43a1.29 1.29 0 0 0 .78 1.29l-.87 1.12a1.88 1.88 0 0 1-1.27-1.14 3.52 3.52 0 0 1-2.75 1.15zm0-4.41c-1 .15-1.73.49-1.73 1.46a1.75 1.75 0 0 0 1.94 1.71c1.16 0 2.34-.74 2.34-1.84v-1.71zM564 232.93V234a3.32 3.32 0 0 1 2.77-1.27c2.45 0 4 2.07 4 4.94s-1.58 4.92-4 4.92a3.32 3.32 0 0 1-2.77-1.27v4h-1.56v-12.39zm5.19 4.69c0-2-1-3.5-2.7-3.5a2.47 2.47 0 0 0-2.49 2.78v1.54a2.47 2.47 0 0 0 2.51 2.77c1.75 0 2.7-1.52 2.7-3.5zM574.79 232.93V234a3.32 3.32 0 0 1 2.77-1.27c2.45 0 4 2.07 4 4.94s-1.58 4.92-4 4.92a3.32 3.32 0 0 1-2.77-1.27v4h-1.56v-12.39zm5.19 4.69c0-2-1-3.5-2.7-3.5a2.47 2.47 0 0 0-2.51 2.77v1.54a2.47 2.47 0 0 0 2.51 2.77c1.75 0 2.7-1.52 2.7-3.5zM584 229.11h1.56v11.17c0 .63.19 1 .91 1 .4 0 .72 0 1-.06l.15 1.31a15.12 15.12 0 0 1-1.58.11c-1.12 0-2-.49-2-1.86zM590.06 229.11a1.16 1.16 0 0 1 1.14 1.16 1.15 1.15 0 1 1-2.3 0 1.16 1.16 0 0 1 1.16-1.16zm.76 13.3h-1.56v-9.48h1.56zM594.75 237.71c0 1.9.93 3.51 2.75 3.51a2.71 2.71 0 0 0 2.45-1.6l1.29.74a4 4 0 0 1-3.74 2.22c-2.62 0-4.37-2.05-4.37-4.92s1.75-4.94 4.37-4.94a4 4 0 0 1 3.74 2.22l-1.29.74a2.71 2.71 0 0 0-2.45-1.6c-1.82 0-2.75 1.61-2.75 3.51zM606.28 242.6c-1.88 0-3.31-1.1-3.31-2.87a2.65 2.65 0 0 1 2.53-2.73l3.34-.46V236c0-1.44-.93-1.88-2.11-1.88a5.77 5.77 0 0 0-2.74.74l-.59-1.24a7.16 7.16 0 0 1 3.48-.87c2.3 0 3.51 1 3.51 3v4.43a1.29 1.29 0 0 0 .78 1.29l-.87 1.12a1.88 1.88 0 0 1-1.27-1.14 3.52 3.52 0 0 1-2.75 1.15zm0-4.41c-1 .15-1.73.49-1.73 1.46a1.75 1.75 0 0 0 1.94 1.71c1.16 0 2.34-.74 2.34-1.84v-1.71zM615.6 240.05c0 .63.11 1.16 1.22 1.16a8.3 8.3 0 0 0 1.18-.11l.17 1.37a13.78 13.78 0 0 1-1.69.13c-1.5 0-2.43-.59-2.43-2.2v-6.1h-1.79v-1.37H614v-3.1l1.56-.55v3.65h2.64v1.37h-2.6zM621 229.11a1.16 1.16 0 0 1 1.14 1.16 1.15 1.15 0 1 1-2.3 0 1.16 1.16 0 0 1 1.16-1.16zm.76 13.3h-1.56v-9.48h1.56zM632.79 237.68c0 2.85-1.75 4.92-4.37 4.92s-4.37-2.07-4.37-4.92 1.75-4.94 4.37-4.94 4.37 2.05 4.37 4.94zm-1.61.06v-.11c0-1.9-1-3.51-2.75-3.51s-2.75 1.61-2.75 3.51v.11c0 1.86 1 3.5 2.75 3.5s2.75-1.65 2.75-3.51zM635.17 232.93h1.56V234a3.27 3.27 0 0 1 2.77-1.27 3 3 0 0 1 3.17 3.23v6.44h-1.56v-5.95c0-1.67-.85-2.3-2-2.3a2.44 2.44 0 0 0-2.43 2.62v5.62h-1.56zM55.92 262.85c0 .63.11 1.16 1.22 1.16a8.3 8.3 0 0 0 1.18-.11l.17 1.37a13.78 13.78 0 0 1-1.69.13c-1.5 0-2.43-.59-2.43-2.2v-6.1h-1.79v-1.37h1.79v-3.1l1.56-.55v3.65h2.64v1.37h-2.65zM68.5 260.48c0 2.85-1.75 4.92-4.37 4.92s-4.37-2.07-4.37-4.92 1.75-4.94 4.37-4.94 4.37 2.05 4.37 4.94zm-1.61.06v-.11c0-1.9-1-3.51-2.75-3.51s-2.75 1.61-2.75 3.51v.11c0 1.86 1 3.5 2.75 3.5s2.74-1.64 2.74-3.51zM77.5 265.21h-1.56v-13.3h1.56v4.9a3.32 3.32 0 0 1 2.77-1.27c2.45 0 4 2.07 4 4.94s-1.58 4.92-4 4.92a3.32 3.32 0 0 1-2.77-1.27zm5.19-4.79c0-2-1-3.5-2.7-3.5a2.47 2.47 0 0 0-2.51 2.77v1.54A2.47 2.47 0 0 0 80 264c1.75 0 2.7-1.52 2.7-3.5zM87.84 261a3 3 0 0 0 2.95 3 3.8 3.8 0 0 0 2.49-.93l.8 1.12a5.28 5.28 0 0 1-3.36 1.18c-2.75 0-4.5-2.07-4.5-4.92s1.69-4.94 4.31-4.94c2.47 0 4 2.07 4 4.92v.57zm0-1.25h5c-.06-1.46-.87-2.79-2.37-2.79a2.75 2.75 0 0 0-2.61 2.74zM103.46 255.73v1.08a3.32 3.32 0 0 1 2.77-1.27c2.45 0 4 2.07 4 4.94s-1.58 4.92-4 4.92a3.32 3.32 0 0 1-2.77-1.27v4h-1.56v-12.4zm5.19 4.69c0-2-1-3.5-2.7-3.5a2.47 2.47 0 0 0-2.51 2.77v1.54a2.47 2.47 0 0 0 2.51 2.77c1.75 0 2.7-1.52 2.7-3.5zM117.5 257.11h-.25c-1.6 0-3 .65-3 3.23v4.86h-1.56v-9.48h1.56v1.5a3 3 0 0 1 2.83-1.67h.46zM127.45 260.48c0 2.85-1.75 4.92-4.37 4.92s-4.37-2.07-4.37-4.92 1.75-4.94 4.37-4.94 4.37 2.05 4.37 4.94zm-1.61.06v-.11c0-1.9-1-3.51-2.75-3.51s-2.75 1.61-2.75 3.51v.11c0 1.86 1 3.5 2.75 3.5s2.75-1.64 2.75-3.51zM130.93 260.51c0 1.9.93 3.51 2.75 3.51a2.71 2.71 0 0 0 2.45-1.6l1.29.74a4 4 0 0 1-3.74 2.22c-2.62 0-4.37-2.05-4.37-4.92s1.75-4.94 4.37-4.94a4 4 0 0 1 3.74 2.22l-1.29.74a2.71 2.71 0 0 0-2.45-1.6c-1.82 0-2.75 1.61-2.75 3.51zM140.61 261a3 3 0 0 0 2.94 3.08 3.8 3.8 0 0 0 2.49-.93l.8 1.12a5.28 5.28 0 0 1-3.36 1.18c-2.75 0-4.5-2.07-4.5-4.92s1.69-4.94 4.31-4.94c2.47 0 4 2.07 4 4.92v.49zm0-1.25h5c-.06-1.46-.87-2.79-2.37-2.79a2.75 2.75 0 0 0-2.61 2.74zM148.77 264l.95-1.1a4.5 4.5 0 0 0 2.87 1.16c1.08 0 1.9-.49 1.9-1.42s-1-1.25-2.32-1.6-2.94-.82-2.94-2.77c0-1.6 1.46-2.75 3.46-2.75a5.12 5.12 0 0 1 3.29 1.18l-.91 1a3.47 3.47 0 0 0-2.34-.91c-1.25 0-1.88.55-1.88 1.41 0 .68.53 1 1.37 1.25.49.13 1.06.3 1.56.46 1.27.4 2.32 1.06 2.32 2.58 0 2-1.73 2.85-3.57 2.85a5.7 5.7 0 0 1-3.76-1.34zM157.67 264l.95-1.1a4.5 4.5 0 0 0 2.87 1.16c1.08 0 1.9-.49 1.9-1.42s-1-1.25-2.32-1.6-2.94-.82-2.94-2.77c0-1.6 1.46-2.75 3.46-2.75a5.12 5.12 0 0 1 3.29 1.18l-.91 1a3.47 3.47 0 0 0-2.34-.91c-1.25 0-1.88.55-1.88 1.41 0 .68.53 1 1.37 1.25.49.13 1.06.3 1.56.46 1.27.4 2.32 1.06 2.32 2.58 0 2-1.73 2.85-3.57 2.85a5.7 5.7 0 0 1-3.76-1.34zM168.38 261a3 3 0 0 0 2.94 3.08 3.8 3.8 0 0 0 2.49-.93l.8 1.12a5.28 5.28 0 0 1-3.36 1.18c-2.75 0-4.5-2.07-4.5-4.92s1.69-4.94 4.31-4.94c2.47 0 4 2.07 4 4.92v.49zm0-1.25h5c-.06-1.46-.87-2.79-2.37-2.79a2.75 2.75 0 0 0-2.62 2.74zM183.71 264.12a3.32 3.32 0 0 1-2.77 1.27c-2.45 0-4-2.05-4-4.92s1.58-4.94 4-4.94a3.32 3.32 0 0 1 2.77 1.27v-4.9h1.56v13.3h-1.56zm-5.19-3.61c0 2 .95 3.5 2.7 3.5a2.47 2.47 0 0 0 2.51-2.77v-1.54a2.47 2.47 0 0 0-2.51-2.77c-1.75 0-2.7 1.52-2.7 3.5zM189.31 262.85a1.27 1.27 0 1 1-1.27 1.27 1.27 1.27 0 0 1 1.27-1.27z"/>
    </g>
    <g>
      <path class="cls-2" d="M53.82 308.33h11.33v3.07h-7.92v3.6h7.3v3.07h-7.3v4h8.38v3.07H53.82zM68 312.58h3.24v1.08a4.26 4.26 0 0 1 3.19-1.32 4.11 4.11 0 0 1 4.34 4.32v8.47h-3.2v-7.3c0-1.78-.84-2.45-2-2.45-1.32 0-2.33.94-2.33 2.88v6.86H68zM86.37 321.39c0 .6.26 1.06 1.39 1.06a8 8 0 0 0 1.61-.14l.29 2.86a25.91 25.91 0 0 1-3 .22c-2.23 0-3.55-1-3.55-3.19v-6.7h-2.24v-2.9h2.26V309l3.24-.86v4.42h3.29v2.9h-3.29zM94.65 320a3 3 0 0 0 3 2.45 4.51 4.51 0 0 0 3.17-1.18l1.61 2.45a7.51 7.51 0 0 1-4.87 1.68 6.1 6.1 0 0 1-6.31-6.43v-.14c0-3.7 2.52-6.46 6.07-6.46 3.31 0 5.76 2.52 5.76 6.17V320zm0-2.45h5.06a2.41 2.41 0 0 0-2.47-2.38 2.51 2.51 0 0 0-2.57 2.36zM112.72 315.72h-.58c-1.85 0-3.48.62-3.48 3.31v6.1h-3.24v-12.55h3.24V314a3.89 3.89 0 0 1 3.34-1.63h.72zM124.17 321.39c0 .6.26 1.06 1.39 1.06a8 8 0 0 0 1.61-.14l.29 2.86a25.91 25.91 0 0 1-3 .22c-2.23 0-3.55-1-3.55-3.19v-6.7h-2.26v-2.9h2.26V309l3.24-.86v4.42h3.29v2.9h-3.29zM129.73 308.33H133v5.33a4.26 4.26 0 0 1 3.19-1.32 4.11 4.11 0 0 1 4.34 4.32v8.47h-3.24v-7.3c0-1.78-.84-2.45-2-2.45-1.32 0-2.33.94-2.33 2.88v6.86h-3.24zM146.15 320a3 3 0 0 0 3 2.45 4.51 4.51 0 0 0 3.17-1.18l1.61 2.45a7.51 7.51 0 0 1-4.87 1.68 6.1 6.1 0 0 1-6.31-6.43v-.14c0-3.7 2.52-6.46 6.07-6.46 3.31 0 5.76 2.52 5.76 6.17V320zm0-2.45h5.06a2.41 2.41 0 0 0-2.47-2.38 2.51 2.51 0 0 0-2.57 2.36zM166 325.37c-2.28 0-4.34-1.44-4.34-3.94 0-2 1.32-3.36 3.53-3.67l3.82-.53v-.41c0-1.1-.74-1.61-2-1.61a8.45 8.45 0 0 0-3.7 1l-1.27-2.5a10.61 10.61 0 0 1 5.09-1.39c2.3 0 5.09.62 5.09 4v5.38c0 .74.41 1 1.08 1.3l-1.46 2.33a2.85 2.85 0 0 1-2.35-1.42 4.34 4.34 0 0 1-3.49 1.46zm.38-5.3c-.79.12-1.32.58-1.32 1.3a1.53 1.53 0 0 0 1.7 1.46 2.1 2.1 0 0 0 2.23-2.3v-.86zM185.87 325.13h-3.24v-7.3c0-1.8-.84-2.42-1.9-2.42-1.25 0-2.21.86-2.21 2.88v6.84h-3.24v-12.55h3.24v1.1a4.21 4.21 0 0 1 3.22-1.34A3.63 3.63 0 0 1 185 314a4.42 4.42 0 0 1 3.79-1.7 4.2 4.2 0 0 1 4.46 4.22v8.57H190v-7.3c0-1.8-.84-2.42-1.9-2.42-1.25 0-2.21.86-2.21 2.88zM207.86 318.87c0 3.72-2.47 6.5-6.17 6.5s-6.17-2.81-6.17-6.5c0-3.7 2.45-6.5 6.17-6.5s6.17 2.81 6.17 6.5zm-3.31 0c0-2-1-3.5-2.86-3.5s-2.83 1.46-2.86 3.5c0 2 1 3.5 2.86 3.5s2.83-1.46 2.86-3.5zM220.91 325.13h-3.24v-1.08a4.26 4.26 0 0 1-3.19 1.32 4.11 4.11 0 0 1-4.34-4.32v-8.47h3.24v7.3c0 1.78.84 2.45 2 2.45 1.32 0 2.33-.94 2.33-2.88v-6.86h3.24zM223.93 312.58h3.24v1.08a4.26 4.26 0 0 1 3.19-1.32 4.11 4.11 0 0 1 4.34 4.32v8.47h-3.24v-7.3c0-1.78-.84-2.45-2-2.45-1.32 0-2.33.94-2.33 2.88v6.86h-3.24zM242.27 321.39c0 .6.26 1.06 1.39 1.06a8 8 0 0 0 1.61-.14l.29 2.86a25.91 25.91 0 0 1-3 .22c-2.23 0-3.55-1-3.55-3.19v-6.7h-2.26v-2.9H239V309l3.24-.86v4.42h3.29v2.9h-3.29zM255.85 325.64l.1-.41h-.24l-3.86-12.65h3.6l2.3 8.69 2.26-8.69h3.55L259.24 327c-.55 1.87-2 2.38-3.91 2.38a21.32 21.32 0 0 1-3-.24l.67-2.86a11.57 11.57 0 0 0 1.73.14 1 1 0 0 0 1.12-.78zM276.81 318.87c0 3.72-2.47 6.5-6.17 6.5s-6.17-2.81-6.17-6.5c0-3.7 2.45-6.5 6.17-6.5s6.17 2.81 6.17 6.5zm-3.31 0c0-2-1-3.5-2.86-3.5s-2.83 1.46-2.86 3.5c0 2 1 3.5 2.86 3.5s2.83-1.46 2.86-3.5zM289.86 325.13h-3.24v-1.08a4.26 4.26 0 0 1-3.19 1.32 4.11 4.11 0 0 1-4.34-4.32v-8.47h3.24v7.3c0 1.78.84 2.45 2 2.45 1.32 0 2.33-.94 2.33-2.88v-6.86h3.24zM310.07 321l1.54-8.45H315l-2.9 12.55h-3.8l-1.88-8.1-2 8.16h-3.79l-2.9-12.55h3.53l1.49 8.45 2.18-8.45H308zM320.58 325.37c-2.28 0-4.34-1.44-4.34-3.94 0-2 1.32-3.36 3.53-3.67l3.82-.53v-.41c0-1.1-.74-1.61-2-1.61a8.45 8.45 0 0 0-3.7 1l-1.27-2.5a10.61 10.61 0 0 1 5.09-1.39c2.3 0 5.09.62 5.09 4v5.38c0 .74.41 1 1.08 1.3l-1.46 2.33a2.85 2.85 0 0 1-2.35-1.42 4.34 4.34 0 0 1-3.49 1.46zm.38-5.3c-.79.12-1.32.58-1.32 1.3a1.53 1.53 0 0 0 1.7 1.46 2.1 2.1 0 0 0 2.23-2.3v-.86zM329.85 312.58h3.24v1.08a4.26 4.26 0 0 1 3.19-1.32 4.11 4.11 0 0 1 4.34 4.32v8.47h-3.24v-7.3c0-1.78-.84-2.45-2-2.45-1.32 0-2.33.94-2.33 2.88v6.86h-3.24zM348.18 321.39c0 .6.26 1.06 1.39 1.06a8 8 0 0 0 1.61-.14l.29 2.86a25.91 25.91 0 0 1-3 .22c-2.23 0-3.55-1-3.55-3.19v-6.7h-2.26v-2.9h2.26V309l3.24-.86v4.42h3.29v2.9h-3.29zM363.69 321.39c0 .6.26 1.06 1.39 1.06a8 8 0 0 0 1.61-.14l.29 2.86a25.91 25.91 0 0 1-3 .22c-2.23 0-3.55-1-3.55-3.19v-6.7h-2.26v-2.9h2.26V309l3.24-.86v4.42H367v2.9h-3.29zM380.94 318.87c0 3.72-2.47 6.5-6.17 6.5s-6.17-2.81-6.17-6.5c0-3.7 2.45-6.5 6.17-6.5s6.17 2.81 6.17 6.5zm-3.31 0c0-2-1-3.5-2.86-3.5s-2.83 1.46-2.86 3.5c0 2 1 3.5 2.86 3.5s2.83-1.46 2.86-3.5zM392.37 312.58v1.08a4.15 4.15 0 0 1 3.17-1.32c3.31 0 5.52 2.74 5.52 6.46v.12c0 3.72-2.28 6.46-5.59 6.46a4 4 0 0 1-3.1-1.32v5h-3.24v-16.48zm-.1 7.44a2.36 2.36 0 0 0 2.59 2.35c1.85 0 2.86-1.46 2.86-3.46v-.12c0-2-1-3.46-2.86-3.46a2.36 2.36 0 0 0-2.59 2.35zM407.05 325.37c-2.28 0-4.34-1.44-4.34-3.94 0-2 1.32-3.36 3.53-3.67l3.82-.53v-.41c0-1.1-.74-1.61-2-1.61a8.45 8.45 0 0 0-3.7 1l-1.27-2.5a10.61 10.61 0 0 1 5.09-1.39c2.3 0 5.09.62 5.09 4v5.38c0 .74.41 1 1.08 1.3l-1.46 2.33a2.85 2.85 0 0 1-2.35-1.42 4.34 4.34 0 0 1-3.49 1.46zm.38-5.3c-.79.12-1.32.58-1.32 1.3a1.53 1.53 0 0 0 1.7 1.46 2.1 2.1 0 0 0 2.23-2.3v-.86zM418.86 325.64l.1-.41h-.24l-3.86-12.65h3.6l2.3 8.69 2.26-8.69h3.55L422.25 327c-.55 1.87-2 2.38-3.91 2.38a21.32 21.32 0 0 1-3-.24l.67-2.86a11.57 11.57 0 0 0 1.73.14 1 1 0 0 0 1.12-.78z"/>
    </g>
    <path class="cls-2" d="M223.11 351.9v36H55.7v-36h167.41m2-2H53.7v40h171.41v-40z"/>
    <path class="cls-2" d="M73.92 364.31a3.29 3.29 0 0 0-2.92-1.49c-1.8 0-3.07 1.39-3.07 3.53V369h3.91v1.78H68v5.5h7.51V378H64.68v-1.78h1.25v-5.5h-1.25V369h1.25v-2.6c0-3.36 2-5.38 5.09-5.38a5.25 5.25 0 0 1 4.56 2.09z"/>
  </g>
  <g id="Layer_2" data-name="Layer 2">
    <path class="cls-3" d="M0 40V10A10 10 0 0 1 10 0h940a10 10 0 0 1 10 10v30"/>
    <circle class="cls-1" cx="25.38" cy="20" r="8.5"/>
    <circle class="cls-1" cx="49.13" cy="20" r="8.5"/>
    <circle class="cls-1" cx="72.88" cy="20" r="8.5"/>
    <path class="cls-3" d="M0 516.94h960v4H0z"/>
    <path class="cls-3" d="M4 520.95V40h952v480.95h4V36H0v484.95h4z"/>
  </g>
</svg>
