<svg viewBox="0 0 960 549.29" xmlns="http://www.w3.org/2000/svg"><path d="m2.32 0h952.27v519h-952.27z" fill="#fff"/><circle cx="25.38" cy="20" fill="#fff" r="8.5"/><circle cx="49.13" cy="20" fill="#fff" r="8.5"/><circle cx="72.88" cy="20" fill="#fff" r="8.5"/><path d="m1 40h958v65h-958z" fill="#0b0b0b"/><path d="m267 59.73-10.71 12.98v-12.98h-6.06v29.98h6.06v-9.11l3.87-4.33 7.92 13.44h7.05l-11.08-18.06 10.41-11.92z" fill="#fff"/><path d="m229.64 84.27a5.28 5.28 0 0 1 -2-1.17 5.52 5.52 0 0 1 -1.31-2 7.58 7.58 0 0 1 -.48-2.83v-18.58h-6v19.48a11 11 0 0 0 .91 4.54 9.89 9.89 0 0 0 2.54 3.45 11.55 11.55 0 0 0 3.86 2.2 15.83 15.83 0 0 0 9.78 0 11.45 11.45 0 0 0 3.85-2.2 9.94 9.94 0 0 0 2.53-3.45 11 11 0 0 0 .91-4.54v-19.48h-6v18.59a7.62 7.62 0 0 1 -.48 2.83 5.54 5.54 0 0 1 -1.31 2 5.3 5.3 0 0 1 -2 1.17 8 8 0 0 1 -4.91 0" fill="#fff"/><path d="m207.73 87.81a3.93 3.93 0 0 0 .83 1.21 3.74 3.74 0 0 0 1.23.82 3.79 3.79 0 0 0 1.47.29 3.72 3.72 0 0 0 1.46-.29 3.78 3.78 0 0 0 1.21-.82 3.94 3.94 0 0 0 .83-1.21 3.67 3.67 0 0 0 .3-1.49 3.52 3.52 0 0 0 -.3-1.45 3.85 3.85 0 0 0 -.83-1.19 4 4 0 0 0 -1.21-.82 3.58 3.58 0 0 0 -1.46-.3 3.65 3.65 0 0 0 -1.47.3 4 4 0 0 0 -1.23.82 3.84 3.84 0 0 0 -.83 1.19 3.53 3.53 0 0 0 -.3 1.45 3.68 3.68 0 0 0 .3 1.49" fill="#fff"/><path d="m198.11 89.71 8.46-29.98h-6.71l-5.66 22.54h-.21l-5.8-22.54h-6.79l8.47 29.98z" fill="#fff"/><path d="m161.31 83.91a7.09 7.09 0 0 1 -2.52-2.06 9.28 9.28 0 0 1 -1.54-3.11 14.09 14.09 0 0 1 -.52-3.93v-.17a14.13 14.13 0 0 1 .52-3.92 9.27 9.27 0 0 1 1.54-3.12 7.07 7.07 0 0 1 2.52-2.06 8.46 8.46 0 0 1 6.93 0 7.2 7.2 0 0 1 2.52 2.06 9.17 9.17 0 0 1 1.55 3.12 14.06 14.06 0 0 1 .52 3.92v.17a14 14 0 0 1 -.52 3.93 9.18 9.18 0 0 1 -1.55 3.11 7.22 7.22 0 0 1 -2.52 2.06 8.46 8.46 0 0 1 -6.93 0m-2.54-23.4a13.32 13.32 0 0 0 -4.49 3.28 14.3 14.3 0 0 0 -2.82 4.89 19.21 19.21 0 0 0 0 12.07 14.45 14.45 0 0 0 2.82 4.89 13.12 13.12 0 0 0 4.49 3.28 15.73 15.73 0 0 0 12 0 13.08 13.08 0 0 0 4.5-3.28 14.45 14.45 0 0 0 2.82-4.89 19.25 19.25 0 0 0 0-12.07 14.31 14.31 0 0 0 -2.82-4.89 13.28 13.28 0 0 0 -4.5-3.28 15.63 15.63 0 0 0 -12 0" fill="#fff"/><path d="m125.68 74.6a14.07 14.07 0 0 1 .48-3.69 9.51 9.51 0 0 1 1.46-3.15 7.37 7.37 0 0 1 2.51-2.19 7.54 7.54 0 0 1 3.64-.83 8 8 0 0 1 2.43.35 6.87 6.87 0 0 1 3.43 2.36 10.32 10.32 0 0 1 1.13 1.79l5.31-3a11.19 11.19 0 0 0 -2-2.85 12.15 12.15 0 0 0 -2.79-2.2 13.79 13.79 0 0 0 -3.49-1.4 16.17 16.17 0 0 0 -4-.49 14.18 14.18 0 0 0 -5.93 1.2 13.54 13.54 0 0 0 -4.51 3.28 14.67 14.67 0 0 0 -2.89 4.89 17.65 17.65 0 0 0 -1 6 19.43 19.43 0 0 0 .91 6 14.55 14.55 0 0 0 2.63 4.99 12.29 12.29 0 0 0 4.29 3.28 13.65 13.65 0 0 0 5.83 1.19 11.57 11.57 0 0 0 2.64-.29 10.76 10.76 0 0 0 2.29-.81 8.75 8.75 0 0 0 1.88-1.23 7.38 7.38 0 0 0 1.4-1.6v3.51h5.31v-16.43h-13.56v4.62h7.67v.29a7.59 7.59 0 0 1 -.32 2.09 5.79 5.79 0 0 1 -1.13 2.1 6.27 6.27 0 0 1 -2.15 1.62 7.77 7.77 0 0 1 -3.38.65 7.54 7.54 0 0 1 -3.64-.83 7.36 7.36 0 0 1 -2.51-2.18 9.53 9.53 0 0 1 -1.46-3.14 14 14 0 0 1 -.48-3.7z" fill="#fff"/><path d="m62.29 65.83a2.63 2.63 0 1 0 -1.41-3.42 2.63 2.63 0 0 0 1.41 3.42" fill="#fff"/><path d="m56.33 69.32a2.63 2.63 0 1 0 -1.42-3.42 2.63 2.63 0 0 0 1.42 3.42" fill="#fff"/><path d="m54.59 75.95a2.63 2.63 0 1 0 -1.41-3.42 2.63 2.63 0 0 0 1.41 3.42" fill="#fff"/><path d="m68.95 67.93a2.63 2.63 0 1 0 -1.41-3.42 2.63 2.63 0 0 0 1.41 3.42" fill="#fff"/><path d="m93 65.83a2.63 2.63 0 1 1 1.41-3.42 2.63 2.63 0 0 1 -1.41 3.42" fill="#fff"/><path d="m99 69.32a2.63 2.63 0 1 1 1.42-3.42 2.63 2.63 0 0 1 -1.42 3.42" fill="#fff"/><path d="m100.75 75.95a2.63 2.63 0 1 1 1.41-3.42 2.63 2.63 0 0 1 -1.41 3.42" fill="#fff"/><path d="m86.4 67.93a2.63 2.63 0 1 1 1.41-3.42 2.63 2.63 0 0 1 -1.41 3.42" fill="#fff"/><path d="m79.06 61.13 3.33 1.75v-4.88l-3.32 1a1.66 1.66 0 0 0 -.32-.33l1.34-4.21h-4.8l1.34 4.21a1.7 1.7 0 0 0 -.32.33l-3.37-1v4.9l3.33-1.75a1.76 1.76 0 0 0 .34.34l-1.91 5.75a3.1 3.1 0 0 0 2.51 4h.07.39.39.07a3.1 3.1 0 0 0 2.65-3.07 3.14 3.14 0 0 0 -.14-.91l-1.91-5.77a1.8 1.8 0 0 0 .34-.34" fill="#fff"/><path d="m77.67 89.35a125.8 125.8 0 0 1 17.63 1.19c1.51-6.36 3.35-10 5.25-12.6l-3.55-1.28a6.54 6.54 0 0 1 0 3.83 7.26 7.26 0 0 1 -1.59-3.26l-1.75 5.77a5.29 5.29 0 0 1 2.8-1.22c-1.65 3.56-3.71 4.47-5.05 4.23a2.54 2.54 0 0 1 -2.13-3c.38-1.75 2.17-2.21 3-.17 1.6-3.27-1.12-4.29-2.87-3.32 2.69-2.68 3-5.07.83-7.95-3 2.31-3.06 4.6-1.7 7.82-1.77-2-4.51-.94-3.52 2.33 1.27-2 3-.73 2.69 1.14-.22 1.63-2.38 2.95-5.06 2.72-3.84-.35-4.07-3-4.17-5.2.94-.17 2.65.7 4.1 2.74l.55-6.12a6 6 0 0 1 -4.6 2c.53-1.65 3-4.37 3-4.37h-7.68s2.44 2.71 3 4.37a6 6 0 0 1 -4.6-2l.53 6.13c1.45-2 3.15-2.91 4.1-2.74-.1 2.2-.32 4.85-4.17 5.2-2.68.23-4.84-1.08-5.06-2.72-.3-1.87 1.35-3.1 2.66-1.13 1-3.26-1.75-4.35-3.52-2.33 1.36-3.22 1.32-5.51-1.7-7.82-2.17 2.88-1.86 5.27.83 7.95-1.75-1-4.47.05-2.87 3.32.84-2 2.63-1.58 3 .17a2.54 2.54 0 0 1 -2.13 3c-1.34.25-3.4-.67-5-4.23a5.3 5.3 0 0 1 2.76 1.2l-1.74-5.78a7.24 7.24 0 0 1 -1.59 3.26 6.55 6.55 0 0 1 0-3.83l-3.58 1.27c1.9 2.59 3.74 6.24 5.25 12.6a126 126 0 0 1 17.62-1.19" fill="#fff"/><path d="m4 549.29v-509.29h952v509.29h4v-513.29h-960v513.29z" fill="#dadada"/><path d="m54.76 145.08h10.08c5.22 0 8.46 3.6 8.46 8.35s-3.6 8.35-8.86 8.35h-4.57v8.5h-5.11zm8.71 4.61h-3.6v7.49h3.6c2.81 0 4.57-1.3 4.57-3.67v-.14c-.04-2.37-1.76-3.68-4.57-3.68z" fill="#0b0b0b"/><path d="m81.54 170.64c-3.42 0-6.51-2.16-6.51-5.9 0-3 2-5 5.29-5.51l5.72-.79v-.61c0-1.66-1.12-2.41-3-2.41a12.68 12.68 0 0 0 -5.54 1.51l-1.91-3.74a15.9 15.9 0 0 1 7.63-2.09c3.46 0 7.63.94 7.63 6v8.06c0 1.12.61 1.51 1.62 1.94l-2.2 3.49a4.28 4.28 0 0 1 -3.53-2.12 6.51 6.51 0 0 1 -5.2 2.17zm.58-8c-1.19.18-2 .86-2 1.94a2.29 2.29 0 0 0 2.56 2.2 3.14 3.14 0 0 0 3.32-3.41v-1.3z" fill="#0b0b0b"/><path d="m99.25 171 .14-.61h-.39l-5.79-19h5.4l3.46 13 3.38-13h5.33l-6.48 21.6c-.83 2.81-3 3.56-5.87 3.56a31.88 31.88 0 0 1 -4.43-.36l1-4.19a17.36 17.36 0 0 0 2.59.22 1.43 1.43 0 0 0 1.66-1.22z" fill="#0b0b0b"/><path d="m127.91 151.46h3.6v4.36h-3.6v14.47h-4.91v-14.48h-3v-4.36h3v-1.94c0-3.28 2.34-4.79 5.69-4.79a32.68 32.68 0 0 1 3.85.25l-.4 4.14a16.68 16.68 0 0 0 -2.38-.18c-1.37 0-1.91.58-1.91 1.4z" fill="#0b0b0b"/><path d="m151.88 160.89c0 5.58-3.71 9.75-9.25 9.75s-9.25-4.21-9.25-9.75c0-5.54 3.67-9.75 9.25-9.75s9.25 4.21 9.25 9.75zm-5 0c0-3.06-1.51-5.26-4.28-5.26s-4.25 2.2-4.28 5.26c0 3.06 1.51 5.25 4.28 5.25s4.25-2.2 4.28-5.25z" fill="#0b0b0b"/><path d="m166.39 156.17h-.86c-2.77 0-5.22.94-5.22 5v9.14h-4.86v-18.85h4.86v2.12a5.83 5.83 0 0 1 5-2.45h1.08z" fill="#0b0b0b"/><path d="m181.44 162.54a4.43 4.43 0 0 0 4.57 3.67 6.76 6.76 0 0 0 4.75-1.76l2.41 3.67a11.26 11.26 0 0 1 -7.31 2.52c-5.18 0-9.47-3.6-9.47-9.65v-.22c0-5.54 3.78-9.68 9.11-9.68 5 0 8.64 3.78 8.64 9.25v2.2zm0-3.67h7.59a3.62 3.62 0 0 0 -3.71-3.56 3.77 3.77 0 0 0 -3.84 3.56z" fill="#0b0b0b"/><path d="m201.6 160.42-5.72-9h5.62l2.88 5.08 3-5.08h5.62l-5.83 9 6.48 9.83h-5.65l-3.71-5.76-3.38 5.76h-5.65z" fill="#0b0b0b"/><path d="m221.33 170.64c-3.42 0-6.51-2.16-6.51-5.9 0-3 2-5 5.29-5.51l5.72-.79v-.61c0-1.66-1.12-2.41-3-2.41a12.68 12.68 0 0 0 -5.54 1.51l-1.91-3.74a15.9 15.9 0 0 1 7.63-2.09c3.46 0 7.63.94 7.63 6v8.06c0 1.12.61 1.51 1.62 1.94l-2.2 3.49a4.28 4.28 0 0 1 -3.53-2.12 6.51 6.51 0 0 1 -5.2 2.17zm.58-8c-1.19.18-2 .86-2 1.94a2.29 2.29 0 0 0 2.56 2.2 3.14 3.14 0 0 0 3.35-3.46v-1.3z" fill="#0b0b0b"/><path d="m251.1 170.28h-4.86v-10.94c0-2.7-1.26-3.64-2.84-3.64-1.87 0-3.31 1.3-3.31 4.32v10.26h-4.86v-18.82h4.86v1.66a6.31 6.31 0 0 1 4.82-2 5.45 5.45 0 0 1 4.86 2.56 6.63 6.63 0 0 1 5.69-2.56 6.3 6.3 0 0 1 6.7 6.33v12.85h-4.9v-10.96c0-2.7-1.26-3.64-2.84-3.64-1.87 0-3.31 1.3-3.31 4.32z" fill="#0b0b0b"/><path d="m271.4 151.46v1.62a6.23 6.23 0 0 1 4.75-2c5 0 8.28 4.1 8.28 9.68v.24c0 5.58-3.42 9.68-8.39 9.68a6 6 0 0 1 -4.64-2v7.56h-4.86v-24.78zm-.14 11.16c0 2 1.51 3.53 3.89 3.53 2.77 0 4.28-2.2 4.28-5.18v-.18c0-3-1.51-5.18-4.28-5.18-2.38 0-3.89 1.51-3.89 3.53z" fill="#0b0b0b"/><path d="m288 145.08h4.86v20.09c0 .79.43 1.22 1.44 1.22a9.67 9.67 0 0 0 1.84-.18l.4 4.14a40 40 0 0 1 -4.1.29c-2.74 0-4.43-1.44-4.43-4.14z" fill="#0b0b0b"/><path d="m302.83 162.54a4.43 4.43 0 0 0 4.57 3.67 6.76 6.76 0 0 0 4.75-1.76l2.41 3.67a11.26 11.26 0 0 1 -7.31 2.52c-5.18 0-9.47-3.6-9.47-9.65v-.22c0-5.54 3.78-9.68 9.11-9.68 5 0 8.64 3.78 8.64 9.25v2.2zm0-3.67h7.59a3.62 3.62 0 0 0 -3.71-3.56 3.77 3.77 0 0 0 -3.84 3.56z" fill="#0b0b0b"/><path d="m328.75 164.24a8.72 8.72 0 0 0 5.51 2.27c1.48 0 2.66-.4 2.66-1.51 0-.9-.72-1.26-2.3-1.66a32.19 32.19 0 0 1 -4.68-1.33 5.07 5.07 0 0 1 -3.31-4.9c0-4 3.56-6 7.74-6a10.81 10.81 0 0 1 7.45 2.66l-3.1 3.2a6.47 6.47 0 0 0 -4.32-1.73c-1.33 0-2.66.47-2.66 1.58 0 .86.83 1.19 2.23 1.55a26.53 26.53 0 0 1 5.4 1.73 5 5 0 0 1 2.63 4.5c0 4-3.42 6-7.59 6-3.06 0-6.62-1.15-8.5-2.84z" fill="#0b0b0b"/><path d="m349.63 162.54a4.43 4.43 0 0 0 4.57 3.67 6.76 6.76 0 0 0 4.75-1.76l2.41 3.67a11.26 11.26 0 0 1 -7.31 2.52c-5.18 0-9.47-3.6-9.47-9.65v-.22c0-5.54 3.78-9.68 9.11-9.68 5 0 8.64 3.78 8.64 9.25v2.2zm0-3.67h7.59a3.62 3.62 0 0 0 -3.71-3.56 3.77 3.77 0 0 0 -3.84 3.56z" fill="#0b0b0b"/><path d="m376.74 156.17h-.86c-2.77 0-5.22.94-5.22 5v9.14h-4.86v-18.85h4.86v2.12a5.83 5.83 0 0 1 5-2.45h1.08z" fill="#0b0b0b"/><path d="m383.76 170.28-5.76-18.82h5.4l3.38 13 3.46-13h5.33l-5.72 18.83z" fill="#0b0b0b"/><path d="m400.75 144.19a3.06 3.06 0 1 1 -3.06 3.06 3.06 3.06 0 0 1 3.06-3.06zm2.45 26.1h-4.86v-18.83h4.86z" fill="#0b0b0b"/><path d="m406.76 160.82c0-5.54 3.82-9.72 9.11-9.72 3.85 0 6.95 1.91 8.17 4.86l-4.32 2.2a3.85 3.85 0 0 0 -3.72-2.56c-3 0-4.21 2.7-4.21 5.18v.22c0 2.45 1.26 5.15 4.21 5.15a3.85 3.85 0 0 0 3.74-2.56l4.32 2.2c-1.22 3-4.43 4.86-8.24 4.86-5.29 0-9-4.18-9-9.72z" fill="#0b0b0b"/><path d="m431.27 162.54a4.43 4.43 0 0 0 4.57 3.67 6.76 6.76 0 0 0 4.75-1.76l2.41 3.67a11.26 11.26 0 0 1 -7.31 2.52c-5.18 0-9.47-3.6-9.47-9.65v-.22c0-5.54 3.78-9.68 9.11-9.68 5 0 8.64 3.78 8.64 9.25v2.2zm0-3.67h7.59a3.62 3.62 0 0 0 -3.71-3.56 3.77 3.77 0 0 0 -3.84 3.56z" fill="#0b0b0b"/><path d="m52.25 451.5h121v34.54h-121z" fill="#004a1e"/><path d="m52.24 447.52h121.03v34.54h-121.03z" fill="#00823b"/><g fill="#0b0b0b"><path d="m62 214.88v-8.57h1.6v8.69a4.91 4.91 0 0 1 -9.82 0v-8.72h1.61v8.57a3.31 3.31 0 1 0 6.61 0z"/><path d="m65.76 218.43.95-1.1a4.5 4.5 0 0 0 2.87 1.16c1.08 0 1.9-.49 1.9-1.42s-1-1.25-2.32-1.6-2.94-.82-2.94-2.77c0-1.6 1.46-2.75 3.46-2.75a5.12 5.12 0 0 1 3.32 1.16l-.91 1a3.47 3.47 0 0 0 -2.34-.91c-1.25 0-1.88.55-1.88 1.41 0 .68.53 1 1.37 1.25.49.13 1.06.3 1.56.46 1.27.4 2.32 1.06 2.32 2.58 0 2-1.73 2.85-3.57 2.85a5.7 5.7 0 0 1 -3.79-1.32z"/><path d="m76.47 215.35a3 3 0 0 0 2.94 3.08 3.8 3.8 0 0 0 2.49-.93l.8 1.12a5.28 5.28 0 0 1 -3.36 1.18c-2.75 0-4.5-2.07-4.5-4.92s1.69-4.94 4.31-4.94c2.47 0 4 2.07 4 4.92v.49zm0-1.25h5c-.06-1.46-.87-2.79-2.37-2.79a2.75 2.75 0 0 0 -2.62 2.79z"/><path d="m93 217.25c0 .63.11 1.16 1.22 1.16a8.29 8.29 0 0 0 1.18-.11l.17 1.37a13.78 13.78 0 0 1 -1.69.13c-1.5 0-2.43-.59-2.43-2.2v-6.1h-1.82v-1.37h1.79v-3.13l1.56-.55v3.65h2.64v1.37h-2.62z"/><path d="m97.56 206.31h1.56v4.9a3.27 3.27 0 0 1 2.77-1.27 3 3 0 0 1 3.17 3.23v6.44h-1.56v-5.95c0-1.67-.85-2.3-2-2.3a2.43 2.43 0 0 0 -2.38 2.64v5.62h-1.56z"/><path d="m108.68 206.31a1.16 1.16 0 0 1 1.14 1.16 1.15 1.15 0 1 1 -2.3 0 1.16 1.16 0 0 1 1.16-1.16zm.76 13.3h-1.56v-9.48h1.56z"/><path d="m111.49 218.43.95-1.1a4.5 4.5 0 0 0 2.87 1.16c1.08 0 1.9-.49 1.9-1.42s-1-1.25-2.32-1.6-2.94-.82-2.94-2.77c0-1.6 1.46-2.75 3.46-2.75a5.13 5.13 0 0 1 3.29 1.18l-.91 1a3.47 3.47 0 0 0 -2.34-.91c-1.25 0-1.88.55-1.88 1.41 0 .68.53 1 1.37 1.25.49.13 1.06.3 1.56.46 1.27.4 2.32 1.06 2.32 2.58 0 2-1.73 2.85-3.57 2.85a5.7 5.7 0 0 1 -3.76-1.34z"/><path d="m134.38 214.88c0 2.85-1.75 4.92-4.37 4.92s-4.37-2.07-4.37-4.92 1.75-4.94 4.37-4.94 4.37 2.06 4.37 4.94zm-1.61.06v-.11c0-1.9-1-3.51-2.75-3.51s-2.75 1.62-2.75 3.51v.11c0 1.86 1 3.5 2.75 3.5s2.75-1.65 2.75-3.51z"/><path d="m138.33 210.13v1.08a3.32 3.32 0 0 1 2.77-1.27c2.45 0 4 2.07 4 4.94s-1.58 4.92-4 4.92a3.32 3.32 0 0 1 -2.77-1.27v4h-1.56v-12.4zm5.19 4.69c0-2-1-3.5-2.7-3.5a2.47 2.47 0 0 0 -2.51 2.77v1.54a2.47 2.47 0 0 0 2.51 2.77c1.75 0 2.7-1.52 2.7-3.5z"/><path d="m149.75 217.25c0 .63.11 1.16 1.22 1.16a8.3 8.3 0 0 0 1.18-.11l.17 1.37a13.78 13.78 0 0 1 -1.69.13c-1.5 0-2.43-.59-2.43-2.2v-6.1h-1.79v-1.37h1.79v-3.13l1.56-.55v3.65h2.64v1.37h-2.64z"/><path d="m155.14 206.31a1.16 1.16 0 0 1 1.14 1.16 1.15 1.15 0 1 1 -2.3 0 1.16 1.16 0 0 1 1.16-1.16zm.76 13.3h-1.56v-9.48h1.56z"/><path d="m166.95 214.88c0 2.85-1.75 4.92-4.37 4.92s-4.37-2.07-4.37-4.92 1.75-4.94 4.37-4.94 4.37 2.06 4.37 4.94zm-1.61.06v-.11c0-1.9-1-3.51-2.75-3.51s-2.75 1.62-2.75 3.51v.11c0 1.86 1 3.5 2.75 3.5s2.74-1.65 2.74-3.51z"/><path d="m169.33 210.13h1.56v1.08a3.27 3.27 0 0 1 2.77-1.27 3 3 0 0 1 3.17 3.23v6.44h-1.56v-5.95c0-1.67-.85-2.3-2-2.3a2.44 2.44 0 0 0 -2.43 2.62v5.62h-1.56z"/><path d="m182.25 219.8c-1.88 0-3.31-1.1-3.31-2.87a2.65 2.65 0 0 1 2.53-2.68l3.34-.46v-.61c0-1.44-.93-1.88-2.11-1.88a5.77 5.77 0 0 0 -2.7.7l-.59-1.24a7.16 7.16 0 0 1 3.48-.87c2.3 0 3.51 1 3.51 3v4.43a1.29 1.29 0 0 0 .78 1.29l-.87 1.12a1.88 1.88 0 0 1 -1.27-1.14 3.52 3.52 0 0 1 -2.79 1.21zm0-4.41c-1 .15-1.73.49-1.73 1.46a1.75 1.75 0 0 0 1.94 1.71c1.16 0 2.34-.74 2.34-1.84v-1.72z"/><path d="m189.23 206.31h1.56v11.17c0 .63.19 1 .91 1 .4 0 .72 0 1-.06l.15 1.31a15.12 15.12 0 0 1 -1.58.11c-1.12 0-2-.49-2-1.86z"/><path d="m201 210.13v1.08a3.32 3.32 0 0 1 2.77-1.27c2.45 0 4 2.07 4 4.94s-1.58 4.92-4 4.92a3.32 3.32 0 0 1 -2.77-1.27v4h-1.56v-12.4zm5.19 4.69c0-2-1-3.5-2.7-3.5a2.47 2.47 0 0 0 -2.49 2.78v1.54a2.47 2.47 0 0 0 2.51 2.77c1.75 0 2.7-1.52 2.7-3.5z"/><path d="m212.87 219.8c-1.88 0-3.31-1.1-3.31-2.87a2.65 2.65 0 0 1 2.53-2.68l3.34-.46v-.61c0-1.44-.93-1.88-2.11-1.88a5.77 5.77 0 0 0 -2.74.74l-.59-1.24a7.16 7.16 0 0 1 3.48-.87c2.3 0 3.51 1 3.51 3v4.43a1.29 1.29 0 0 0 .78 1.29l-.87 1.12a1.88 1.88 0 0 1 -1.27-1.14 3.52 3.52 0 0 1 -2.75 1.17zm0-4.41c-1 .15-1.73.49-1.73 1.46a1.75 1.75 0 0 0 1.94 1.71c1.16 0 2.34-.74 2.34-1.84v-1.72z"/><path d="m224.76 211.51h-.25c-1.6 0-3 .65-3 3.23v4.86h-1.56v-9.48h1.56v1.5a3 3 0 0 1 2.79-1.62h.46z"/><path d="m229.4 219.8c-1.88 0-3.31-1.1-3.31-2.87a2.66 2.66 0 0 1 2.53-2.68l3.34-.46v-.61c0-1.44-.93-1.88-2.11-1.88a5.77 5.77 0 0 0 -2.74.74l-.59-1.24a7.16 7.16 0 0 1 3.48-.87c2.3 0 3.51 1 3.51 3v4.43a1.29 1.29 0 0 0 .78 1.29l-.87 1.12a1.88 1.88 0 0 1 -1.27-1.14 3.52 3.52 0 0 1 -2.75 1.17zm0-4.41c-1 .15-1.73.49-1.73 1.46a1.75 1.75 0 0 0 1.94 1.71c1.16 0 2.34-.74 2.34-1.84v-1.72z"/><path d="m239.61 209.94a3.2 3.2 0 0 1 2.68 1.27v-1.08h1.56v9.56c0 2.36-2.07 3-4.07 3a8.2 8.2 0 0 1 -3.51-.76l.53-1.29a7.7 7.7 0 0 0 3 .67c1.6 0 2.47-.59 2.47-2.05v-1.8a3.2 3.2 0 0 1 -2.68 1.27c-2.36 0-3.84-1.92-3.84-4.41s1.5-4.38 3.86-4.38zm2.72 4.37c0-1.69-.72-3-2.43-3s-2.51 1.33-2.51 3v.08c0 1.65.78 3 2.51 3s2.43-1.29 2.43-3z"/><path d="m251.57 211.51h-.25c-1.6 0-3 .65-3 3.23v4.86h-1.56v-9.48h1.56v1.5a3 3 0 0 1 2.83-1.67h.46z"/><path d="m256.21 219.8c-1.88 0-3.31-1.1-3.31-2.87a2.65 2.65 0 0 1 2.53-2.68l3.34-.46v-.61c0-1.44-.93-1.88-2.11-1.88a5.77 5.77 0 0 0 -2.74.74l-.59-1.24a7.16 7.16 0 0 1 3.48-.87c2.3 0 3.51 1 3.51 3v4.43a1.29 1.29 0 0 0 .78 1.29l-.87 1.12a1.88 1.88 0 0 1 -1.27-1.14 3.52 3.52 0 0 1 -2.75 1.17zm0-4.41c-1 .15-1.73.49-1.73 1.46a1.75 1.75 0 0 0 1.94 1.71c1.16 0 2.34-.74 2.34-1.84v-1.72z"/><path d="m264.81 210.13v1.08a3.32 3.32 0 0 1 2.77-1.27c2.45 0 4 2.07 4 4.94s-1.58 4.92-4 4.92a3.32 3.32 0 0 1 -2.77-1.27v4h-1.56v-12.4zm5.19 4.69c0-2-1-3.5-2.7-3.5a2.47 2.47 0 0 0 -2.51 2.77v1.54a2.47 2.47 0 0 0 2.51 2.77c1.75 0 2.7-1.52 2.7-3.5z"/><path d="m274 206.31h1.56v4.9a3.27 3.27 0 0 1 2.77-1.27 3 3 0 0 1 3.17 3.23v6.44h-1.5v-5.95c0-1.67-.85-2.3-2-2.3a2.43 2.43 0 0 0 -2.43 2.62v5.62h-1.57z"/><path d="m291.91 217.25c0 .63.11 1.16 1.22 1.16a8.3 8.3 0 0 0 1.18-.11l.17 1.37a13.78 13.78 0 0 1 -1.69.13c-1.5 0-2.43-.59-2.43-2.2v-6.1h-1.79v-1.37h1.79v-3.13l1.56-.55v3.65h2.64v1.37h-2.64z"/><path d="m304.48 214.88c0 2.85-1.75 4.92-4.37 4.92s-4.37-2.07-4.37-4.92 1.75-4.94 4.37-4.94 4.37 2.06 4.37 4.94zm-1.61.06v-.11c0-1.9-1-3.51-2.75-3.51s-2.75 1.62-2.75 3.51v.11c0 1.86 1 3.5 2.75 3.5s2.75-1.65 2.75-3.51z"/><path d="m315.24 209.94a3.2 3.2 0 0 1 2.68 1.27v-1.08h1.56v9.56c0 2.36-2.07 3-4.07 3a8.2 8.2 0 0 1 -3.51-.76l.53-1.29a7.7 7.7 0 0 0 3 .67c1.6 0 2.47-.59 2.47-2.05v-1.8a3.2 3.2 0 0 1 -2.68 1.27c-2.36 0-3.84-1.92-3.84-4.41s1.5-4.38 3.86-4.38zm2.72 4.37c0-1.69-.72-3-2.43-3s-2.51 1.33-2.51 3v.08c0 1.65.78 3 2.51 3s2.43-1.29 2.43-3z"/><path d="m323.17 206.31a1.16 1.16 0 0 1 1.14 1.16 1.15 1.15 0 1 1 -2.3 0 1.16 1.16 0 0 1 1.16-1.16zm.76 13.3h-1.56v-9.48h1.56z"/><path d="m328.85 219.61-3-9.48h1.77l2.28 8 2.26-8h1.77l-3 9.48z"/><path d="m336.68 215.35a3 3 0 0 0 2.94 3.08 3.8 3.8 0 0 0 2.49-.93l.8 1.12a5.28 5.28 0 0 1 -3.36 1.18c-2.75 0-4.5-2.07-4.5-4.92s1.69-4.94 4.31-4.94c2.47 0 4 2.07 4 4.92v.49zm0-1.25h5c-.06-1.46-.87-2.79-2.37-2.79a2.75 2.75 0 0 0 -2.61 2.79z"/><path d="m349.69 210.13h1.77l2.34 7.87 2.22-7.83h1.75l-3.46 10.83a2.28 2.28 0 0 1 -2.51 1.67 11.07 11.07 0 0 1 -1.69-.15l.23-1.37a7.21 7.21 0 0 0 1.25.13 1.07 1.07 0 0 0 1.2-1l.09-.44z"/><path d="m367.61 214.88c0 2.85-1.75 4.92-4.37 4.92s-4.37-2.07-4.37-4.92 1.75-4.94 4.37-4.94 4.37 2.06 4.37 4.94zm-1.61.06v-.11c0-1.9-1-3.51-2.75-3.51s-2.75 1.62-2.75 3.51v.11c0 1.86 1 3.5 2.75 3.5s2.75-1.65 2.75-3.51z"/><path d="m377.4 219.61h-1.56v-1.08a3.27 3.27 0 0 1 -2.77 1.27 3 3 0 0 1 -3.17-3.23v-6.44h1.56v5.95c0 1.67.85 2.3 2 2.3a2.38 2.38 0 0 0 2.43-2.62v-5.62h1.56z"/><path d="m385.13 211.51h-.25c-1.6 0-3 .65-3 3.23v4.86h-1.56v-9.48h1.56v1.5a3 3 0 0 1 2.83-1.67h.46z"/><path d="m399.55 219.61h-1.55v-1.08a3.27 3.27 0 0 1 -2.77 1.27 3 3 0 0 1 -3.17-3.23v-6.44h1.56v5.95c0 1.67.85 2.3 2 2.3a2.38 2.38 0 0 0 2.43-2.62v-5.62h1.56z"/><path d="m401.6 218.43.95-1.1a4.5 4.5 0 0 0 2.87 1.16c1.08 0 1.9-.49 1.9-1.42s-1-1.25-2.32-1.6-2.94-.82-2.94-2.77c0-1.6 1.46-2.75 3.46-2.75a5.13 5.13 0 0 1 3.29 1.18l-.91 1a3.47 3.47 0 0 0 -2.34-.91c-1.25 0-1.88.55-1.88 1.41 0 .68.53 1 1.37 1.25.49.13 1.06.3 1.56.46 1.27.4 2.32 1.06 2.32 2.58 0 2-1.73 2.85-3.57 2.85a5.7 5.7 0 0 1 -3.76-1.34z"/><path d="m412.31 215.35a3 3 0 0 0 2.94 3.08 3.8 3.8 0 0 0 2.49-.93l.8 1.12a5.28 5.28 0 0 1 -3.36 1.18c-2.75 0-4.5-2.07-4.5-4.92s1.69-4.94 4.31-4.94c2.47 0 4 2.07 4 4.92v.49zm0-1.25h5c-.06-1.46-.87-2.79-2.37-2.79a2.75 2.75 0 0 0 -2.61 2.79z"/><path d="m426.18 211.51h-.25c-1.6 0-3 .65-3 3.23v4.86h-1.56v-9.48h1.56v1.5a3 3 0 0 1 2.83-1.67h.46z"/><path d="m427.38 218.43.95-1.1a4.5 4.5 0 0 0 2.87 1.16c1.08 0 1.9-.49 1.9-1.42s-1-1.25-2.32-1.6-2.94-.82-2.94-2.77c0-1.6 1.46-2.75 3.46-2.75a5.13 5.13 0 0 1 3.29 1.18l-.91 1a3.47 3.47 0 0 0 -2.34-.91c-1.25 0-1.88.55-1.88 1.41 0 .68.53 1 1.37 1.25.49.13 1.06.3 1.56.46 1.27.4 2.32 1.06 2.32 2.58 0 2-1.73 2.85-3.57 2.85a5.7 5.7 0 0 1 -3.76-1.34z"/><path d="m449.21 219.61h-1.56v-6c0-1.69-.86-2.28-1.9-2.28s-2.09.8-2.09 2.64v5.6h-1.56v-9.48h1.56v1.08a2.92 2.92 0 0 1 2.49-1.27 2.81 2.81 0 0 1 2.56 1.58 3.25 3.25 0 0 1 2.89-1.58 3.05 3.05 0 0 1 3.19 3.17v6.5h-1.56v-6c0-1.69-.91-2.28-1.94-2.28s-2.09.8-2.09 2.64z"/><path d="m465.84 214.88c0 2.85-1.75 4.92-4.37 4.92s-4.37-2.07-4.37-4.92 1.75-4.94 4.37-4.94 4.37 2.06 4.37 4.94zm-1.61.06v-.11c0-1.9-1-3.51-2.75-3.51s-2.75 1.62-2.75 3.51v.11c0 1.86 1 3.5 2.75 3.5s2.74-1.65 2.74-3.51z"/><path d="m473.07 211.51h-.25c-1.6 0-3 .65-3 3.23v4.86h-1.56v-9.48h1.56v1.5a3 3 0 0 1 2.83-1.67h.46z"/><path d="m475.93 215.35a3 3 0 0 0 2.94 3.08 3.8 3.8 0 0 0 2.49-.93l.8 1.12a5.28 5.28 0 0 1 -3.36 1.18c-2.75 0-4.5-2.07-4.5-4.92s1.69-4.94 4.31-4.94c2.47 0 4 2.07 4 4.92v.49zm0-1.25h5c-.06-1.46-.87-2.79-2.37-2.79a2.75 2.75 0 0 0 -2.62 2.79z"/><path d="m490.78 206.31a1.16 1.16 0 0 1 1.14 1.16 1.15 1.15 0 1 1 -2.3 0 1.16 1.16 0 0 1 1.16-1.16zm.76 13.3h-1.54v-9.48h1.56z"/><path d="m494.41 210.13h1.59v1.08a3.27 3.27 0 0 1 2.77-1.27 3 3 0 0 1 3.17 3.23v6.44h-1.56v-5.95c0-1.67-.85-2.3-2-2.3a2.44 2.44 0 0 0 -2.38 2.64v5.62h-1.56z"/><path d="m506.83 210.13h1.88v1.37h-1.88v8.11h-1.56v-8.11h-1.58v-1.37h1.58v-1.77c0-1.63 1.1-2.22 2.6-2.22a8.81 8.81 0 0 1 1.52.13l-.11 1.33c-.36 0-1-.08-1.35-.08-.89 0-1.1.55-1.1 1.14z"/><path d="m518.66 214.88c0 2.85-1.75 4.92-4.37 4.92s-4.37-2.07-4.37-4.92 1.75-4.94 4.37-4.94 4.37 2.06 4.37 4.94zm-1.61.06v-.11c0-1.9-1-3.51-2.75-3.51s-2.75 1.62-2.75 3.51v.11c0 1.86 1 3.5 2.75 3.5s2.7-1.65 2.7-3.51z"/><path d="m525.89 211.51h-.25c-1.6 0-3 .65-3 3.23v4.86h-1.64v-9.48h1.56v1.5a3 3 0 0 1 2.83-1.67h.46z"/><path d="m534.9 219.61h-1.56v-6c0-1.69-.86-2.28-1.9-2.28s-2.09.8-2.09 2.64v5.6h-1.56v-9.48h1.56v1.08a2.92 2.92 0 0 1 2.49-1.27 2.81 2.81 0 0 1 2.56 1.58 3.25 3.25 0 0 1 2.89-1.58 3.05 3.05 0 0 1 3.19 3.17v6.5h-1.56v-6c0-1.69-.91-2.28-1.94-2.28s-2.09.8-2.09 2.64z"/><path d="m545.92 219.8c-1.88 0-3.31-1.1-3.31-2.87a2.65 2.65 0 0 1 2.53-2.68l3.34-.46v-.61c0-1.44-.93-1.88-2.11-1.88a5.77 5.77 0 0 0 -2.74.74l-.59-1.24a7.16 7.16 0 0 1 3.48-.87c2.3 0 3.51 1 3.51 3v4.43a1.29 1.29 0 0 0 .78 1.29l-.87 1.12a1.88 1.88 0 0 1 -1.27-1.14 3.52 3.52 0 0 1 -2.75 1.17zm0-4.41c-1 .15-1.73.49-1.73 1.46a1.75 1.75 0 0 0 1.94 1.71c1.16 0 2.34-.74 2.34-1.84v-1.72z"/><path d="m555.24 217.25c0 .63.11 1.16 1.22 1.16a8.3 8.3 0 0 0 1.18-.11l.17 1.37a13.78 13.78 0 0 1 -1.69.13c-1.5 0-2.43-.59-2.43-2.2v-6.1h-1.79v-1.37h1.79v-3.13l1.56-.55v3.65h2.64v1.37h-2.64z"/><path d="m560.63 206.31a1.16 1.16 0 0 1 1.14 1.16 1.15 1.15 0 1 1 -2.3 0 1.16 1.16 0 0 1 1.16-1.16zm.76 13.3h-1.56v-9.48h1.56z"/><path d="m572.44 214.88c0 2.85-1.75 4.92-4.37 4.92s-4.37-2.07-4.37-4.92 1.75-4.94 4.37-4.94 4.37 2.06 4.37 4.94zm-1.61.06v-.11c0-1.9-1-3.51-2.75-3.51s-2.75 1.62-2.75 3.51v.11c0 1.86 1 3.5 2.75 3.5s2.74-1.65 2.74-3.51z"/><path d="m574.82 210.13h1.56v1.08a3.27 3.27 0 0 1 2.77-1.27 3 3 0 0 1 3.17 3.23v6.44h-1.56v-5.95c0-1.67-.85-2.3-2-2.3a2.44 2.44 0 0 0 -2.43 2.62v5.62h-1.56z"/><path d="m586.31 217.25a1.27 1.27 0 1 1 -1.27 1.27 1.27 1.27 0 0 1 1.27-1.27z"/><path d="m53.87 229.11h8v1.41h-6.37v4.37h5.81v1.41h-5.81v6.12h-1.63z"/><path d="m72.19 237.68c0 2.85-1.75 4.92-4.37 4.92s-4.37-2.07-4.37-4.92 1.75-4.94 4.37-4.94 4.37 2.05 4.37 4.94zm-1.61.06v-.11c0-1.9-1-3.51-2.75-3.51s-2.75 1.61-2.75 3.51v.11c0 1.86 1 3.5 2.75 3.5s2.75-1.65 2.75-3.51z"/><path d="m79.42 234.31h-.25c-1.6 0-3 .65-3 3.23v4.86h-1.59v-9.48h1.56v1.5a3 3 0 0 1 2.86-1.66h.46z"/><path d="m87.48 238.15a3 3 0 0 0 2.94 3.08 3.8 3.8 0 0 0 2.49-.93l.8 1.12a5.28 5.28 0 0 1 -3.36 1.18c-2.75 0-4.5-2.07-4.5-4.92s1.69-4.94 4.31-4.94c2.47 0 4 2.07 4 4.92v.49zm0-1.25h5c-.06-1.46-.87-2.79-2.37-2.79a2.75 2.75 0 0 0 -2.61 2.79z"/><path d="m98.48 237.41-2.91-4.48h1.79l2 3.27 1.94-3.27h1.8l-2.89 4.48 3.29 5h-1.86l-2.38-3.69-2.17 3.69h-1.8z"/><path d="m107.87 242.6c-1.88 0-3.31-1.1-3.31-2.87a2.65 2.65 0 0 1 2.53-2.68l3.34-.46v-.59c0-1.44-.93-1.88-2.11-1.88a5.77 5.77 0 0 0 -2.74.74l-.59-1.24a7.16 7.16 0 0 1 3.48-.87c2.3 0 3.51 1 3.51 3v4.43a1.29 1.29 0 0 0 .78 1.29l-.87 1.12a1.88 1.88 0 0 1 -1.27-1.14 3.52 3.52 0 0 1 -2.75 1.15zm0-4.41c-1 .15-1.73.49-1.73 1.46a1.75 1.75 0 0 0 1.94 1.71c1.16 0 2.34-.74 2.34-1.84v-1.71z"/><path d="m122 242.41h-1.56v-6c0-1.69-.86-2.28-1.9-2.28s-2.09.8-2.09 2.64v5.6h-1.56v-9.48h1.56v1.11a2.92 2.92 0 0 1 2.49-1.27 2.81 2.81 0 0 1 2.56 1.58 3.25 3.25 0 0 1 2.89-1.58 3.05 3.05 0 0 1 3.19 3.17v6.5h-1.58v-6c0-1.69-.91-2.28-1.94-2.28s-2.06.88-2.06 2.68z"/><path d="m132 232.93v1.07a3.32 3.32 0 0 1 2.77-1.27c2.45 0 4 2.07 4 4.94s-1.58 4.92-4 4.92a3.32 3.32 0 0 1 -2.77-1.27v4h-1.56v-12.39zm5.19 4.69c0-2-1-3.5-2.7-3.5a2.47 2.47 0 0 0 -2.49 2.78v1.54a2.47 2.47 0 0 0 2.51 2.77c1.75 0 2.7-1.52 2.7-3.5z"/><path d="m141.18 229.11h1.56v11.17c0 .63.19 1 .91 1 .4 0 .72 0 1-.06l.15 1.31a15.12 15.12 0 0 1 -1.58.11c-1.12 0-2-.49-2-1.86z"/><path d="m147.29 238.15a3 3 0 0 0 2.94 3.08 3.8 3.8 0 0 0 2.49-.93l.8 1.12a5.28 5.28 0 0 1 -3.36 1.18c-2.75 0-4.5-2.07-4.5-4.92s1.69-4.94 4.31-4.94c2.47 0 4 2.07 4 4.92v.49zm0-1.25h5c-.06-1.46-.87-2.79-2.37-2.79a2.75 2.75 0 0 0 -2.61 2.79z"/><path d="m158.66 241.7a2.24 2.24 0 0 1 -2.22 2.41h-.27l-.06-.7h.23c.49-.08 1-.25 1-.76v-.06h-.15a1.21 1.21 0 0 1 -1.25-1.23 1.27 1.27 0 0 1 1.27-1.27 1.5 1.5 0 0 1 1.45 1.61z"/><path d="m165.42 232.93h1.77l2.34 7.83 2.22-7.83h1.75l-3.5 10.9a2.28 2.28 0 0 1 -2.51 1.67 11.19 11.19 0 0 1 -1.69-.15l.23-1.37a7.21 7.21 0 0 0 1.25.13 1.07 1.07 0 0 0 1.2-1l.09-.44z"/><path d="m183.34 237.68c0 2.85-1.75 4.92-4.37 4.92s-4.37-2.07-4.37-4.92 1.75-4.94 4.37-4.94 4.37 2.05 4.37 4.94zm-1.61.06v-.11c0-1.9-1-3.51-2.75-3.51s-2.75 1.61-2.75 3.51v.11c0 1.86 1 3.5 2.75 3.5s2.74-1.65 2.74-3.51z"/><path d="m193.13 242.41h-1.56v-1.08a3.27 3.27 0 0 1 -2.77 1.27 3 3 0 0 1 -3.17-3.23v-6.44h1.56v5.95c0 1.67.85 2.3 2 2.3a2.38 2.38 0 0 0 2.43-2.62v-5.62h1.56z"/><path d="m202.19 237.71c0 1.9.93 3.51 2.75 3.51a2.71 2.71 0 0 0 2.45-1.6l1.29.74a4 4 0 0 1 -3.74 2.22c-2.62 0-4.37-2.05-4.37-4.92s1.75-4.94 4.37-4.94a4 4 0 0 1 3.74 2.22l-1.29.74a2.71 2.71 0 0 0 -2.45-1.6c-1.82 0-2.75 1.61-2.75 3.51z"/><path d="m219 237.68c0 2.85-1.75 4.92-4.37 4.92s-4.37-2.07-4.37-4.92 1.75-4.94 4.37-4.94 4.37 2.05 4.37 4.94zm-1.61.06v-.11c0-1.9-1-3.51-2.75-3.51s-2.75 1.61-2.75 3.51v.11c0 1.86 1 3.5 2.75 3.5s2.72-1.65 2.72-3.51z"/><path d="m228.76 242.41h-1.56v-1.08a3.27 3.27 0 0 1 -2.77 1.27 3 3 0 0 1 -3.17-3.23v-6.44h1.56v5.95c0 1.67.85 2.3 2 2.3a2.38 2.38 0 0 0 2.43-2.62v-5.62h1.56z"/><path d="m231.62 229.11h1.56v11.17c0 .63.19 1 .91 1 .4 0 .72 0 1-.06l.15 1.31a15.12 15.12 0 0 1 -1.58.11c-1.12 0-2-.49-2-1.86z"/><path d="m243 241.32a3.32 3.32 0 0 1 -2.77 1.27c-2.45 0-4-2.05-4-4.92s1.58-4.94 4-4.94a3.32 3.32 0 0 1 2.77 1.27v-4.9h1.56v13.3h-1.56zm-5.19-3.61c0 2 .95 3.5 2.7 3.5a2.47 2.47 0 0 0 2.51-2.77v-1.54a2.47 2.47 0 0 0 -2.51-2.77c-1.75 0-2.7 1.52-2.7 3.5z"/><path d="m255 240.05c0 .63.11 1.16 1.22 1.16a8.29 8.29 0 0 0 1.18-.11l.17 1.37a13.78 13.78 0 0 1 -1.69.13c-1.5 0-2.43-.59-2.43-2.2v-6.1h-1.79v-1.37h1.79v-3.1l1.56-.55v3.65h2.64v1.37h-2.65z"/><path d="m260.47 238.15a3 3 0 0 0 2.94 3.08 3.8 3.8 0 0 0 2.49-.93l.8 1.12a5.28 5.28 0 0 1 -3.36 1.18c-2.75 0-4.5-2.07-4.5-4.92s1.69-4.94 4.31-4.94c2.47 0 4 2.07 4 4.92v.49zm0-1.25h5c-.06-1.46-.87-2.79-2.37-2.79a2.75 2.75 0 0 0 -2.61 2.79z"/><path d="m269.43 229.11h1.57v11.17c0 .63.19 1 .91 1 .4 0 .72 0 1-.06l.15 1.31a15.12 15.12 0 0 1 -1.58.11c-1.12 0-2-.49-2-1.86z"/><path d="m274.65 229.11h1.56v11.17c0 .63.19 1 .91 1 .4 0 .72 0 1-.06l.15 1.31a15.12 15.12 0 0 1 -1.58.11c-1.12 0-2-.49-2-1.86z"/><path d="m287.34 240.05c0 .63.11 1.16 1.22 1.16a8.3 8.3 0 0 0 1.18-.11l.17 1.37a13.78 13.78 0 0 1 -1.69.13c-1.5 0-2.43-.59-2.43-2.2v-6.1h-1.79v-1.37h1.79v-3.1l1.56-.55v3.65h2.65v1.37h-2.64z"/><path d="m291.93 229.11h1.56v4.89a3.27 3.27 0 0 1 2.77-1.27 3 3 0 0 1 3.17 3.23v6.44h-1.56v-5.95c0-1.67-.85-2.3-2-2.3a2.43 2.43 0 0 0 -2.43 2.62v5.62h-1.56z"/><path d="m303.39 238.15a3 3 0 0 0 2.94 3.08 3.8 3.8 0 0 0 2.49-.93l.8 1.12a5.28 5.28 0 0 1 -3.36 1.18c-2.75 0-4.5-2.07-4.5-4.92s1.69-4.94 4.31-4.94c2.47 0 4 2.07 4 4.92v.49zm0-1.25h5c-.06-1.46-.87-2.79-2.37-2.79a2.75 2.75 0 0 0 -2.61 2.79z"/><path d="m319.52 242.41h-1.52v-6c0-1.69-.86-2.28-1.9-2.28s-2.1.87-2.1 2.67v5.6h-1.56v-9.48h1.56v1.08a2.92 2.92 0 0 1 2.49-1.27 2.81 2.81 0 0 1 2.56 1.58 3.25 3.25 0 0 1 2.89-1.58 3.05 3.05 0 0 1 3.19 3.17v6.5h-1.56v-6c0-1.69-.91-2.28-1.94-2.28s-2.09.8-2.09 2.64z"/><path d="m333 229.11h1.56v4.89a3.27 3.27 0 0 1 2.77-1.27 3 3 0 0 1 3.17 3.23v6.44h-1.5v-5.95c0-1.67-.85-2.3-2-2.3a2.43 2.43 0 0 0 -2.43 2.62v5.62h-1.57z"/><path d="m351.6 237.68c0 2.85-1.75 4.92-4.37 4.92s-4.37-2.07-4.37-4.92 1.75-4.94 4.37-4.94 4.37 2.05 4.37 4.94zm-1.61.06v-.11c0-1.9-1-3.51-2.75-3.51s-2.75 1.61-2.75 3.51v.11c0 1.86 1 3.5 2.75 3.5s2.76-1.65 2.76-3.51z"/><path d="m362 240.56 1.71-7.64h1.65l-2.36 9.49h-2l-1.92-7.6-2 7.6h-1.92l-2.3-9.48h1.67l1.65 7.64 2-7.64h1.82z"/><path d="m372.46 229.11h1.54v11.17c0 .63.19 1 .91 1 .4 0 .72 0 1-.06l.15 1.31a15.12 15.12 0 0 1 -1.58.11c-1.12 0-2-.49-2-1.86z"/><path d="m385.67 237.68c0 2.85-1.75 4.92-4.37 4.92s-4.37-2.07-4.37-4.92 1.75-4.94 4.37-4.94 4.37 2.05 4.37 4.94zm-1.61.06v-.11c0-1.9-1-3.51-2.75-3.51s-2.75 1.61-2.75 3.51v.11c0 1.86 1 3.5 2.75 3.5s2.75-1.65 2.75-3.51z"/><path d="m388.06 232.93h1.56v1.07a3.27 3.27 0 0 1 2.77-1.27 3 3 0 0 1 3.17 3.23v6.44h-1.56v-5.95c0-1.67-.85-2.3-2-2.3a2.44 2.44 0 0 0 -2.43 2.62v5.62h-1.56z"/><path d="m401.67 232.74a3.2 3.2 0 0 1 2.68 1.27v-1.08h1.56v9.56c0 2.36-2.07 3-4.07 3a8.2 8.2 0 0 1 -3.51-.76l.53-1.29a7.7 7.7 0 0 0 3 .67c1.6 0 2.47-.59 2.47-2.05v-1.8a3.2 3.2 0 0 1 -2.68 1.27c-2.36 0-3.84-1.92-3.84-4.41s1.51-4.38 3.86-4.38zm2.72 4.37c0-1.69-.72-3-2.43-3s-2.51 1.33-2.51 3v.08c0 1.65.78 3 2.51 3s2.43-1.29 2.43-3z"/><path d="m414.72 229.11a1.16 1.16 0 0 1 1.14 1.16 1.15 1.15 0 1 1 -2.3 0 1.16 1.16 0 0 1 1.16-1.16zm.76 13.3h-1.56v-9.48h1.56z"/><path d="m420.78 240.05c0 .63.11 1.16 1.22 1.16a8.29 8.29 0 0 0 1.18-.11l.17 1.37a13.78 13.78 0 0 1 -1.69.13c-1.5 0-2.43-.59-2.43-2.2v-6.1h-1.79v-1.37h1.79v-3.1l1.56-.55v3.65h2.64v1.37h-2.64z"/><path d="m433 240.05c0 .63.11 1.16 1.22 1.16a8.3 8.3 0 0 0 1.18-.11l.17 1.37a13.78 13.78 0 0 1 -1.69.13c-1.5 0-2.43-.59-2.43-2.2v-6.1h-1.79v-1.37h1.79v-3.1l1.56-.55v3.65h2.64v1.37h-2.65z"/><path d="m440.29 242.6c-1.88 0-3.31-1.1-3.31-2.87a2.65 2.65 0 0 1 2.53-2.68l3.34-.46v-.59c0-1.44-.93-1.88-2.11-1.88a5.77 5.77 0 0 0 -2.74.74l-.59-1.24a7.16 7.16 0 0 1 3.48-.87c2.3 0 3.51 1 3.51 3v4.43a1.29 1.29 0 0 0 .78 1.29l-.87 1.12a1.88 1.88 0 0 1 -1.27-1.14 3.52 3.52 0 0 1 -2.75 1.15zm0-4.41c-1 .15-1.73.49-1.73 1.46a1.75 1.75 0 0 0 1.94 1.71c1.16 0 2.34-.74 2.34-1.84v-1.71z"/><path d="m448.89 237.58 4.46-4.65h2l-3.61 3.76 3.78 5.72h-1.9l-3-4.67-1.71 1.75v2.93h-1.56v-13.3h1.56z"/><path d="m457.93 238.15a3 3 0 0 0 2.94 3.08 3.8 3.8 0 0 0 2.49-.93l.8 1.12a5.28 5.28 0 0 1 -3.36 1.18c-2.75 0-4.5-2.07-4.5-4.92s1.69-4.94 4.31-4.94c2.47 0 4 2.07 4 4.92v.49zm0-1.25h5c-.06-1.46-.87-2.79-2.37-2.79a2.75 2.75 0 0 0 -2.61 2.79z"/><path d="m466.08 241.23.95-1.1a4.5 4.5 0 0 0 2.87 1.16c1.08 0 1.9-.49 1.9-1.42s-1-1.25-2.32-1.6-2.94-.82-2.94-2.77c0-1.6 1.46-2.75 3.46-2.75a5.12 5.12 0 0 1 3.29 1.18l-.91 1a3.47 3.47 0 0 0 -2.38-.93c-1.25 0-1.88.55-1.88 1.41 0 .68.53 1 1.37 1.25.49.13 1.06.3 1.56.46 1.27.4 2.32 1.06 2.32 2.58 0 2-1.73 2.85-3.57 2.85a5.7 5.7 0 0 1 -3.72-1.32z"/><path d="m483 232.93h1.88v1.37h-1.88v8.11h-1.56v-8.11h-1.58v-1.37h1.58v-1.77c0-1.63 1.1-2.22 2.6-2.22a8.81 8.81 0 0 1 1.52.13l-.11 1.33c-.36 0-1-.08-1.35-.08-.89 0-1.1.55-1.1 1.14z"/><path d="m494.86 237.68c0 2.85-1.75 4.92-4.37 4.92s-4.37-2.07-4.37-4.92 1.75-4.94 4.37-4.94 4.37 2.05 4.37 4.94zm-1.61.06v-.11c0-1.9-1-3.51-2.75-3.51s-2.75 1.61-2.75 3.51v.11c0 1.86 1 3.5 2.75 3.5s2.75-1.65 2.75-3.51z"/><path d="m502.09 234.31h-.25c-1.6 0-3 .65-3 3.23v4.86h-1.56v-9.48h1.56v1.5a3 3 0 0 1 2.83-1.67h.46z"/><path d="m511.53 240.05c0 .63.11 1.16 1.22 1.16a8.3 8.3 0 0 0 1.18-.11l.17 1.37a13.78 13.78 0 0 1 -1.69.13c-1.5 0-2.43-.59-2.43-2.2v-6.1h-1.79v-1.37h1.81v-3.1l1.56-.55v3.65h2.64v1.37h-2.64z"/><path d="m516.12 229.11h1.56v4.89a3.27 3.27 0 0 1 2.77-1.27 3 3 0 0 1 3.17 3.23v6.44h-1.56v-5.95c0-1.67-.85-2.3-2-2.3a2.43 2.43 0 0 0 -2.43 2.62v5.62h-1.56z"/><path d="m527.58 238.15a3 3 0 0 0 2.94 3.08 3.8 3.8 0 0 0 2.49-.93l.8 1.12a5.28 5.28 0 0 1 -3.36 1.18c-2.75 0-4.5-2.07-4.5-4.92s1.69-4.94 4.31-4.94c2.47 0 4 2.07 4 4.92v.49zm0-1.25h5c-.06-1.46-.87-2.79-2.37-2.79a2.75 2.75 0 0 0 -2.61 2.79z"/><path d="m537.36 229.11a1.16 1.16 0 0 1 1.14 1.16 1.15 1.15 0 1 1 -2.3 0 1.16 1.16 0 0 1 1.16-1.16zm.76 13.3h-1.56v-9.48h1.56z"/><path d="m545.84 234.31h-.25c-1.6 0-3 .65-3 3.23v4.86h-1.59v-9.48h1.56v1.5a3 3 0 0 1 2.83-1.67h.46z"/><path d="m555.43 242.6c-1.88 0-3.31-1.1-3.31-2.87a2.65 2.65 0 0 1 2.53-2.68l3.34-.46v-.59c0-1.44-.93-1.88-2.11-1.88a5.77 5.77 0 0 0 -2.74.74l-.59-1.24a7.16 7.16 0 0 1 3.48-.87c2.3 0 3.51 1 3.51 3v4.43a1.29 1.29 0 0 0 .78 1.29l-.87 1.12a1.88 1.88 0 0 1 -1.27-1.14 3.52 3.52 0 0 1 -2.75 1.15zm0-4.41c-1 .15-1.73.49-1.73 1.46a1.75 1.75 0 0 0 1.94 1.71c1.16 0 2.34-.74 2.34-1.84v-1.71z"/><path d="m564 232.93v1.07a3.32 3.32 0 0 1 2.77-1.27c2.45 0 4 2.07 4 4.94s-1.58 4.92-4 4.92a3.32 3.32 0 0 1 -2.77-1.27v4h-1.56v-12.39zm5.19 4.69c0-2-1-3.5-2.7-3.5a2.47 2.47 0 0 0 -2.49 2.78v1.54a2.47 2.47 0 0 0 2.51 2.77c1.75 0 2.7-1.52 2.7-3.5z"/><path d="m574.79 232.93v1.07a3.32 3.32 0 0 1 2.77-1.27c2.45 0 4 2.07 4 4.94s-1.58 4.92-4 4.92a3.32 3.32 0 0 1 -2.77-1.27v4h-1.56v-12.39zm5.19 4.69c0-2-1-3.5-2.7-3.5a2.47 2.47 0 0 0 -2.51 2.77v1.54a2.47 2.47 0 0 0 2.51 2.77c1.75 0 2.7-1.52 2.7-3.5z"/><path d="m584 229.11h1.56v11.17c0 .63.19 1 .91 1 .4 0 .72 0 1-.06l.15 1.31a15.12 15.12 0 0 1 -1.58.11c-1.12 0-2-.49-2-1.86z"/><path d="m590.06 229.11a1.16 1.16 0 0 1 1.14 1.16 1.15 1.15 0 1 1 -2.3 0 1.16 1.16 0 0 1 1.16-1.16zm.76 13.3h-1.56v-9.48h1.56z"/><path d="m594.75 237.71c0 1.9.93 3.51 2.75 3.51a2.71 2.71 0 0 0 2.45-1.6l1.29.74a4 4 0 0 1 -3.74 2.22c-2.62 0-4.37-2.05-4.37-4.92s1.75-4.94 4.37-4.94a4 4 0 0 1 3.74 2.22l-1.29.74a2.71 2.71 0 0 0 -2.45-1.6c-1.82 0-2.75 1.61-2.75 3.51z"/><path d="m606.28 242.6c-1.88 0-3.31-1.1-3.31-2.87a2.65 2.65 0 0 1 2.53-2.73l3.34-.46v-.54c0-1.44-.93-1.88-2.11-1.88a5.77 5.77 0 0 0 -2.74.74l-.59-1.24a7.16 7.16 0 0 1 3.48-.87c2.3 0 3.51 1 3.51 3v4.43a1.29 1.29 0 0 0 .78 1.29l-.87 1.12a1.88 1.88 0 0 1 -1.27-1.14 3.52 3.52 0 0 1 -2.75 1.15zm0-4.41c-1 .15-1.73.49-1.73 1.46a1.75 1.75 0 0 0 1.94 1.71c1.16 0 2.34-.74 2.34-1.84v-1.71z"/><path d="m615.6 240.05c0 .63.11 1.16 1.22 1.16a8.3 8.3 0 0 0 1.18-.11l.17 1.37a13.78 13.78 0 0 1 -1.69.13c-1.5 0-2.43-.59-2.43-2.2v-6.1h-1.79v-1.37h1.74v-3.1l1.56-.55v3.65h2.64v1.37h-2.6z"/><path d="m621 229.11a1.16 1.16 0 0 1 1.14 1.16 1.15 1.15 0 1 1 -2.3 0 1.16 1.16 0 0 1 1.16-1.16zm.76 13.3h-1.56v-9.48h1.56z"/><path d="m632.79 237.68c0 2.85-1.75 4.92-4.37 4.92s-4.37-2.07-4.37-4.92 1.75-4.94 4.37-4.94 4.37 2.05 4.37 4.94zm-1.61.06v-.11c0-1.9-1-3.51-2.75-3.51s-2.75 1.61-2.75 3.51v.11c0 1.86 1 3.5 2.75 3.5s2.75-1.65 2.75-3.51z"/><path d="m635.17 232.93h1.56v1.07a3.27 3.27 0 0 1 2.77-1.27 3 3 0 0 1 3.17 3.23v6.44h-1.56v-5.95c0-1.67-.85-2.3-2-2.3a2.44 2.44 0 0 0 -2.43 2.62v5.62h-1.56z"/><path d="m55.92 262.85c0 .63.11 1.16 1.22 1.16a8.3 8.3 0 0 0 1.18-.11l.17 1.37a13.78 13.78 0 0 1 -1.69.13c-1.5 0-2.43-.59-2.43-2.2v-6.1h-1.79v-1.37h1.79v-3.1l1.56-.55v3.65h2.64v1.37h-2.65z"/><path d="m68.5 260.48c0 2.85-1.75 4.92-4.37 4.92s-4.37-2.07-4.37-4.92 1.75-4.94 4.37-4.94 4.37 2.05 4.37 4.94zm-1.61.06v-.11c0-1.9-1-3.51-2.75-3.51s-2.75 1.61-2.75 3.51v.11c0 1.86 1 3.5 2.75 3.5s2.74-1.64 2.74-3.51z"/><path d="m77.5 265.21h-1.56v-13.3h1.56v4.9a3.32 3.32 0 0 1 2.77-1.27c2.45 0 4 2.07 4 4.94s-1.58 4.92-4 4.92a3.32 3.32 0 0 1 -2.77-1.27zm5.19-4.79c0-2-1-3.5-2.7-3.5a2.47 2.47 0 0 0 -2.51 2.77v1.54a2.47 2.47 0 0 0 2.52 2.77c1.75 0 2.7-1.52 2.7-3.5z"/><path d="m87.84 261a3 3 0 0 0 2.95 3 3.8 3.8 0 0 0 2.49-.93l.8 1.12a5.28 5.28 0 0 1 -3.36 1.18c-2.75 0-4.5-2.07-4.5-4.92s1.69-4.94 4.31-4.94c2.47 0 4 2.07 4 4.92v.57zm0-1.25h5c-.06-1.46-.87-2.79-2.37-2.79a2.75 2.75 0 0 0 -2.61 2.74z"/><path d="m103.46 255.73v1.08a3.32 3.32 0 0 1 2.77-1.27c2.45 0 4 2.07 4 4.94s-1.58 4.92-4 4.92a3.32 3.32 0 0 1 -2.77-1.27v4h-1.56v-12.4zm5.19 4.69c0-2-1-3.5-2.7-3.5a2.47 2.47 0 0 0 -2.51 2.77v1.54a2.47 2.47 0 0 0 2.51 2.77c1.75 0 2.7-1.52 2.7-3.5z"/><path d="m117.5 257.11h-.25c-1.6 0-3 .65-3 3.23v4.86h-1.56v-9.48h1.56v1.5a3 3 0 0 1 2.83-1.67h.46z"/><path d="m127.45 260.48c0 2.85-1.75 4.92-4.37 4.92s-4.37-2.07-4.37-4.92 1.75-4.94 4.37-4.94 4.37 2.05 4.37 4.94zm-1.61.06v-.11c0-1.9-1-3.51-2.75-3.51s-2.75 1.61-2.75 3.51v.11c0 1.86 1 3.5 2.75 3.5s2.75-1.64 2.75-3.51z"/><path d="m130.93 260.51c0 1.9.93 3.51 2.75 3.51a2.71 2.71 0 0 0 2.45-1.6l1.29.74a4 4 0 0 1 -3.74 2.22c-2.62 0-4.37-2.05-4.37-4.92s1.75-4.94 4.37-4.94a4 4 0 0 1 3.74 2.22l-1.29.74a2.71 2.71 0 0 0 -2.45-1.6c-1.82 0-2.75 1.61-2.75 3.51z"/><path d="m140.61 261a3 3 0 0 0 2.94 3.08 3.8 3.8 0 0 0 2.49-.93l.8 1.12a5.28 5.28 0 0 1 -3.36 1.18c-2.75 0-4.5-2.07-4.5-4.92s1.69-4.94 4.31-4.94c2.47 0 4 2.07 4 4.92v.49zm0-1.25h5c-.06-1.46-.87-2.79-2.37-2.79a2.75 2.75 0 0 0 -2.61 2.74z"/><path d="m148.77 264 .95-1.1a4.5 4.5 0 0 0 2.87 1.16c1.08 0 1.9-.49 1.9-1.42s-1-1.25-2.32-1.6-2.94-.82-2.94-2.77c0-1.6 1.46-2.75 3.46-2.75a5.12 5.12 0 0 1 3.29 1.18l-.91 1a3.47 3.47 0 0 0 -2.34-.91c-1.25 0-1.88.55-1.88 1.41 0 .68.53 1 1.37 1.25.49.13 1.06.3 1.56.46 1.27.4 2.32 1.06 2.32 2.58 0 2-1.73 2.85-3.57 2.85a5.7 5.7 0 0 1 -3.76-1.34z"/><path d="m157.67 264 .95-1.1a4.5 4.5 0 0 0 2.87 1.16c1.08 0 1.9-.49 1.9-1.42s-1-1.25-2.32-1.6-2.94-.82-2.94-2.77c0-1.6 1.46-2.75 3.46-2.75a5.12 5.12 0 0 1 3.29 1.18l-.91 1a3.47 3.47 0 0 0 -2.34-.91c-1.25 0-1.88.55-1.88 1.41 0 .68.53 1 1.37 1.25.49.13 1.06.3 1.56.46 1.27.4 2.32 1.06 2.32 2.58 0 2-1.73 2.85-3.57 2.85a5.7 5.7 0 0 1 -3.76-1.34z"/><path d="m168.38 261a3 3 0 0 0 2.94 3.08 3.8 3.8 0 0 0 2.49-.93l.8 1.12a5.28 5.28 0 0 1 -3.36 1.18c-2.75 0-4.5-2.07-4.5-4.92s1.69-4.94 4.31-4.94c2.47 0 4 2.07 4 4.92v.49zm0-1.25h5c-.06-1.46-.87-2.79-2.37-2.79a2.75 2.75 0 0 0 -2.62 2.74z"/><path d="m183.71 264.12a3.32 3.32 0 0 1 -2.77 1.27c-2.45 0-4-2.05-4-4.92s1.58-4.94 4-4.94a3.32 3.32 0 0 1 2.77 1.27v-4.9h1.56v13.3h-1.56zm-5.19-3.61c0 2 .95 3.5 2.7 3.5a2.47 2.47 0 0 0 2.51-2.77v-1.54a2.47 2.47 0 0 0 -2.51-2.77c-1.75 0-2.7 1.52-2.7 3.5z"/><path d="m189.31 262.85a1.27 1.27 0 1 1 -1.27 1.27 1.27 1.27 0 0 1 1.27-1.27z"/><path d="m54.06 308.18h5.32a4.22 4.22 0 0 1 4.46 4.41 4.38 4.38 0 0 1 -4.67 4.41h-2.41v4.48h-2.7zm4.6 2.43h-1.9v4h1.9c1.48 0 2.41-.68 2.41-1.94v-.08c0-1.29-.93-1.98-2.41-1.98z"/><path d="m68.19 321.67a3.18 3.18 0 0 1 -3.44-3.12 2.87 2.87 0 0 1 2.79-2.91l3-.42v-.32c0-.87-.59-1.27-1.56-1.27a6.7 6.7 0 0 0 -2.93.8l-1-2a8.39 8.39 0 0 1 4-1.1c1.82 0 4 .49 4 3.19v4.25c0 .59.32.8.86 1l-1.16 1.84a2.26 2.26 0 0 1 -1.75-1.06 3.44 3.44 0 0 1 -2.81 1.12zm.3-4.2c-.63.1-1 .46-1 1a1.21 1.21 0 0 0 1.35 1.16 1.66 1.66 0 0 0 1.77-1.82v-.68z"/><path d="m77.54 321.88.08-.32h-.19l-3.06-10h2.85l1.78 6.86 1.79-6.88h2.81l-3.42 11.4c-.44 1.48-1.6 1.88-3.1 1.88a16.79 16.79 0 0 1 -2.34-.19l.53-2.26a9.18 9.18 0 0 0 1.37.11.75.75 0 0 0 .9-.6z"/><path d="m93.42 321.48h-2.56v-5.78c0-1.42-.67-1.92-1.5-1.92-1 0-1.75.68-1.75 2.28v5.41h-2.61v-9.94h2.56v.87a3.33 3.33 0 0 1 2.54-1.06 2.88 2.88 0 0 1 2.57 1.35 3.5 3.5 0 0 1 3-1.35 3.33 3.33 0 0 1 3.53 3.34v6.78h-2.53v-5.78c0-1.42-.67-1.92-1.5-1.92-1 0-1.75.68-1.75 2.28z"/><path d="m103.72 317.4a2.34 2.34 0 0 0 2.41 1.94 3.57 3.57 0 0 0 2.51-.93l1.27 1.94a6 6 0 0 1 -3.86 1.33 4.83 4.83 0 0 1 -5-5.09v-.11a4.81 4.81 0 0 1 4.81-5.11 4.55 4.55 0 0 1 4.56 4.88v1.16zm0-1.94h4a1.91 1.91 0 0 0 -2-1.88 2 2 0 0 0 -1.98 1.88z"/><path d="m112.26 311.54h2.56v.85a3.37 3.37 0 0 1 2.53-1 3.25 3.25 0 0 1 3.44 3.42v6.71h-2.56v-5.78c0-1.41-.67-1.94-1.56-1.94-1 0-1.84.74-1.84 2.28v5.43h-2.56z"/><path d="m126.77 318.52c0 .48.21.84 1.1.84a6.41 6.41 0 0 0 1.27-.11l.23 2.26a20.39 20.39 0 0 1 -2.36.17c-1.77 0-2.81-.78-2.81-2.53v-5.3h-1.79v-2.3h1.79v-2.81l2.56-.68v3.5h2.6v2.3h-2.6z"/><path d="m141.55 314h-.46c-1.46 0-2.75.49-2.75 2.62v4.83h-2.56v-9.94h2.56v1.12a3.08 3.08 0 0 1 2.64-1.29h.57z"/><path d="m145.14 317.4a2.34 2.34 0 0 0 2.41 1.94 3.57 3.57 0 0 0 2.51-.93l1.27 1.94a6 6 0 0 1 -3.86 1.33 4.83 4.83 0 0 1 -5-5.09v-.11a4.81 4.81 0 0 1 4.81-5.11 4.55 4.55 0 0 1 4.56 4.88v1.16zm0-1.94h4a1.91 1.91 0 0 0 -2-1.88 2 2 0 0 0 -1.98 1.88z"/><path d="m157 311.54h1.9v2.3h-1.9v7.64h-2.57v-7.64h-1.58v-2.3h1.58v-1c0-1.73 1.24-2.53 3-2.53a17.49 17.49 0 0 1 2 .13l-.21 2.19a8.73 8.73 0 0 0 -1.25-.1c-.72 0-1 .3-1 .74z"/><path d="m162.57 317.4a2.34 2.34 0 0 0 2.41 1.94 3.57 3.57 0 0 0 2.51-.93l1.27 1.94a6 6 0 0 1 -3.86 1.33 4.83 4.83 0 0 1 -5-5.09v-.11a4.81 4.81 0 0 1 4.81-5.11 4.55 4.55 0 0 1 4.56 4.88v1.16zm0-1.94h4a1.91 1.91 0 0 0 -2-1.88 2 2 0 0 0 -1.98 1.88z"/><path d="m176.87 314h-.46c-1.46 0-2.75.49-2.75 2.62v4.83h-2.56v-9.94h2.56v1.12a3.08 3.08 0 0 1 2.64-1.29h.57z"/><path d="m180.46 317.4a2.34 2.34 0 0 0 2.41 1.94 3.57 3.57 0 0 0 2.51-.93l1.27 1.94a6 6 0 0 1 -3.86 1.33 4.83 4.83 0 0 1 -5-5.09v-.11a4.81 4.81 0 0 1 4.81-5.11 4.55 4.55 0 0 1 4.56 4.88v1.16zm0-1.94h4a1.91 1.91 0 0 0 -2-1.88 2 2 0 0 0 -1.98 1.88z"/><path d="m189 311.54h2.56v.85a3.37 3.37 0 0 1 2.53-1 3.25 3.25 0 0 1 3.44 3.42v6.71h-2.53v-5.78c0-1.41-.67-1.94-1.56-1.94-1 0-1.84.74-1.84 2.28v5.43h-2.6z"/><path d="m199.33 316.48a4.83 4.83 0 0 1 4.81-5.13 4.47 4.47 0 0 1 4.31 2.57l-2.28 1.16a2 2 0 0 0 -2-1.35c-1.56 0-2.22 1.42-2.22 2.74v.11c0 1.29.67 2.72 2.22 2.72a2 2 0 0 0 2-1.35l2.28 1.16a4.54 4.54 0 0 1 -4.35 2.57 4.8 4.8 0 0 1 -4.77-5.13z"/><path d="m212.27 317.4a2.34 2.34 0 0 0 2.41 1.94 3.57 3.57 0 0 0 2.51-.93l1.27 1.94a6 6 0 0 1 -3.86 1.33 4.83 4.83 0 0 1 -5-5.09v-.11a4.81 4.81 0 0 1 4.81-5.11 4.55 4.55 0 0 1 4.56 4.88v1.16zm0-1.94h4a1.91 1.91 0 0 0 -2-1.88 2 2 0 0 0 -1.98 1.88z"/><path d="m225.15 311.54h2.56v.85a3.37 3.37 0 0 1 2.53-1 3.25 3.25 0 0 1 3.44 3.42v6.71h-2.56v-5.78c0-1.41-.67-1.94-1.56-1.94-1 0-1.84.74-1.84 2.28v5.43h-2.56z"/><path d="m244.45 321.48h-2.56v-.85a3.37 3.37 0 0 1 -2.53 1 3.25 3.25 0 0 1 -3.44-3.42v-6.71h2.56v5.78c0 1.41.67 1.94 1.56 1.94 1 0 1.84-.74 1.84-2.28v-5.43h2.56z"/><path d="m255.23 321.48h-2.56v-5.78c0-1.42-.67-1.92-1.5-1.92-1 0-1.75.68-1.75 2.28v5.41h-2.56v-9.94h2.56v.87a3.33 3.33 0 0 1 2.54-1.06 2.88 2.88 0 0 1 2.57 1.35 3.5 3.5 0 0 1 3-1.35 3.33 3.33 0 0 1 3.53 3.34v6.78h-2.58v-5.78c0-1.42-.67-1.92-1.5-1.92-1 0-1.75.68-1.75 2.28z"/><path d="m272.82 316.56c0 2.94-1.8 5.11-4.43 5.11a3.16 3.16 0 0 1 -2.45-1v.85h-2.56v-13.3h2.56v4.22a3.29 3.29 0 0 1 2.51-1c2.62 0 4.37 2.17 4.37 5.11zm-7 .87a1.87 1.87 0 0 0 2.05 1.86c1.46 0 2.26-1.16 2.26-2.74v-.1c0-1.58-.8-2.74-2.26-2.74a1.87 1.87 0 0 0 -2.05 1.86z"/><path d="m276.87 317.4a2.34 2.34 0 0 0 2.41 1.94 3.57 3.57 0 0 0 2.51-.93l1.27 1.94a6 6 0 0 1 -3.86 1.33 4.83 4.83 0 0 1 -5-5.09v-.11a4.81 4.81 0 0 1 4.81-5.11 4.55 4.55 0 0 1 4.56 4.88v1.16zm0-1.94h4a1.91 1.91 0 0 0 -2-1.88 2 2 0 0 0 -1.98 1.88z"/><path d="m291.17 314h-.46c-1.46 0-2.75.49-2.75 2.62v4.83h-2.56v-9.94h2.6v1.12a3.08 3.08 0 0 1 2.64-1.29h.57z"/></g><path d="m63.12 338.48v-.67h-3.72v-1.37h5.19v7h-1.49v-1.79a4 4 0 0 1 -3.69 2c-3.63 0-5.7-3-5.7-6.82s2.2-6.84 5.79-6.84a5.48 5.48 0 0 1 4.9 2.75l-1.39.72a3.7 3.7 0 0 0 -3.51-2.05c-2.77 0-4.07 2.53-4.07 5.28v.31c0 2.75 1.31 5.28 4.08 5.28s3.61-2.28 3.61-3.8z" fill="#6e6e6e"/><path d="m68.19 330.18a1.16 1.16 0 0 1 1.14 1.16 1.15 1.15 0 1 1 -2.3 0 1.16 1.16 0 0 1 1.16-1.16zm.76 13.3h-1.55v-9.48h1.6z" fill="#6e6e6e"/><path d="m74 343.48-3-9.48h1.77l2.28 8 2.26-8h1.79l-3 9.48z" fill="#6e6e6e"/><path d="m82 339.23a3 3 0 0 0 3 3.07 3.8 3.8 0 0 0 2.49-.93l.8 1.12a5.28 5.28 0 0 1 -3.36 1.18c-2.75 0-4.5-2.07-4.5-4.92s1.69-4.94 4.31-4.94c2.47 0 4 2.07 4 4.92v.49zm0-1.25h5c-.06-1.46-.87-2.79-2.37-2.79a2.75 2.75 0 0 0 -2.57 2.81z" fill="#6e6e6e"/><path d="m94.64 334h1.77l2.34 7.83 2.25-7.83h1.75l-3.46 10.9a2.28 2.28 0 0 1 -2.51 1.67 11.07 11.07 0 0 1 -1.69-.15l.23-1.37a7.21 7.21 0 0 0 1.25.13 1.07 1.07 0 0 0 1.2-1l.09-.44z" fill="#6e6e6e"/><path d="m112.77 338.75c0 2.85-1.75 4.92-4.37 4.92s-4.4-2.07-4.4-4.92 1.75-4.94 4.37-4.94 4.4 2.05 4.4 4.94zm-1.61.06v-.11c0-1.9-1-3.51-2.75-3.51s-2.75 1.62-2.75 3.51v.11c0 1.86 1 3.5 2.75 3.5s2.74-1.64 2.74-3.5z" fill="#6e6e6e"/><path d="m122.66 343.48h-1.56v-1.08a3.27 3.27 0 0 1 -2.77 1.27 3 3 0 0 1 -3.17-3.23v-6.44h1.56v5.95c0 1.67.85 2.3 2 2.3a2.38 2.38 0 0 0 2.43-2.62v-5.63h1.56z" fill="#6e6e6e"/><path d="m130.55 335.39h-.25c-1.6 0-3 .65-3 3.23v4.86h-1.56v-9.48h1.56v1.5a3 3 0 0 1 2.83-1.67h.46z" fill="#6e6e6e"/><path d="m144.55 343.48h-1.55v-1.08a3.27 3.27 0 0 1 -2.77 1.27 3 3 0 0 1 -3.17-3.23v-6.44h1.56v5.95c0 1.67.85 2.3 2 2.3a2.38 2.38 0 0 0 2.43-2.62v-5.63h1.56z" fill="#6e6e6e"/><path d="m146.78 342.3.95-1.1a4.5 4.5 0 0 0 2.87 1.16c1.08 0 1.9-.49 1.9-1.42s-1-1.25-2.32-1.6-2.94-.82-2.94-2.77c0-1.6 1.46-2.75 3.46-2.75a5.12 5.12 0 0 1 3.3 1.18l-.91 1a3.47 3.47 0 0 0 -2.34-.91c-1.25 0-1.88.55-1.88 1.41 0 .68.53 1 1.37 1.25.49.13 1.06.3 1.56.46 1.27.4 2.32 1.06 2.32 2.58 0 2-1.73 2.85-3.57 2.85a5.7 5.7 0 0 1 -3.77-1.34z" fill="#6e6e6e"/><path d="m157.59 339.23a3 3 0 0 0 2.94 3.08 3.8 3.8 0 0 0 2.49-.93l.8 1.12a5.28 5.28 0 0 1 -3.36 1.18c-2.75 0-4.5-2.07-4.5-4.92s1.69-4.94 4.31-4.94c2.47 0 4 2.07 4 4.92v.49zm0-1.25h5c-.06-1.46-.87-2.79-2.37-2.79a2.75 2.75 0 0 0 -2.62 2.81z" fill="#6e6e6e"/><path d="m171.51 335.39h-.25c-1.6 0-3 .65-3 3.23v4.86h-1.56v-9.48h1.56v1.5a3 3 0 0 1 2.83-1.67h.46z" fill="#6e6e6e"/><path d="m172.71 342.3.95-1.1a4.5 4.5 0 0 0 2.87 1.16c1.08 0 1.9-.49 1.9-1.42s-1-1.25-2.32-1.6-2.94-.82-2.94-2.77c0-1.6 1.46-2.75 3.46-2.75a5.12 5.12 0 0 1 3.29 1.18l-.91 1a3.47 3.47 0 0 0 -2.34-.91c-1.25 0-1.88.55-1.88 1.41 0 .68.53 1 1.37 1.25.49.13 1.06.3 1.56.46 1.27.4 2.32 1.06 2.32 2.58 0 2-1.73 2.85-3.57 2.85a5.7 5.7 0 0 1 -3.76-1.34z" fill="#6e6e6e"/><path d="m194.54 343.48h-1.54v-6c0-1.69-.86-2.28-1.9-2.28s-2.09.8-2.09 2.64v5.6h-1.56v-9.44h1.55v1.08a2.92 2.92 0 0 1 2.49-1.27 2.81 2.81 0 0 1 2.56 1.58 3.25 3.25 0 0 1 2.89-1.58 3.05 3.05 0 0 1 3.19 3.17v6.5h-1.56v-6c0-1.69-.91-2.28-1.94-2.28s-2.09.8-2.09 2.64z" fill="#6e6e6e"/><path d="m211.26 338.75c0 2.85-1.75 4.92-4.37 4.92s-4.37-2.07-4.37-4.92 1.75-4.94 4.37-4.94 4.37 2.05 4.37 4.94zm-1.61.06v-.11c0-1.9-1-3.51-2.75-3.51s-2.75 1.62-2.75 3.51v.11c0 1.86 1 3.5 2.75 3.5s2.74-1.64 2.74-3.5z" fill="#6e6e6e"/><path d="m218.57 335.39h-.25c-1.6 0-3 .65-3 3.23v4.86h-1.56v-9.48h1.56v1.5a3 3 0 0 1 2.83-1.67h.46z" fill="#6e6e6e"/><path d="m221.42 339.23a3 3 0 0 0 2.94 3.08 3.8 3.8 0 0 0 2.49-.93l.8 1.12a5.28 5.28 0 0 1 -3.36 1.18c-2.75 0-4.5-2.07-4.5-4.92s1.69-4.94 4.31-4.94c2.47 0 4 2.07 4 4.92v.49zm0-1.25h5c-.06-1.46-.87-2.79-2.37-2.79a2.75 2.75 0 0 0 -2.61 2.81z" fill="#6e6e6e"/><path d="m236.28 330.18a1.16 1.16 0 0 1 1.14 1.16 1.15 1.15 0 1 1 -2.3 0 1.16 1.16 0 0 1 1.16-1.16zm.76 13.3h-1.56v-9.48h1.52z" fill="#6e6e6e"/><path d="m240.08 334h1.56v1.08a3.27 3.27 0 0 1 2.77-1.27 3 3 0 0 1 3.17 3.23v6.44h-1.58v-5.95c0-1.67-.85-2.3-2-2.3a2.44 2.44 0 0 0 -2.43 2.62v5.62h-1.56z" fill="#6e6e6e"/><path d="m252.77 334h1.88v1.37h-1.88v8.11h-1.56v-8.11h-1.58v-1.37h1.58v-1.77c0-1.63 1.1-2.22 2.6-2.22a8.81 8.81 0 0 1 1.52.13l-.11 1.33c-.36 0-1-.08-1.35-.08-.89 0-1.1.55-1.1 1.14z" fill="#6e6e6e"/><path d="m264.82 338.75c0 2.85-1.75 4.92-4.37 4.92s-4.37-2.07-4.37-4.92 1.75-4.94 4.37-4.94 4.37 2.05 4.37 4.94zm-1.61.06v-.11c0-1.9-1-3.51-2.75-3.51s-2.75 1.62-2.75 3.51v.11c0 1.86 1 3.5 2.75 3.5s2.74-1.64 2.74-3.5z" fill="#6e6e6e"/><path d="m272.13 335.39h-.25c-1.6 0-3 .65-3 3.23v4.86h-1.56v-9.48h1.56v1.5a3 3 0 0 1 2.83-1.67h.46z" fill="#6e6e6e"/><path d="m281.25 343.48h-1.56v-6c0-1.69-.86-2.28-1.9-2.28s-2.09.8-2.09 2.64v5.6h-1.56v-9.44h1.56v1.08a2.92 2.92 0 0 1 2.49-1.27 2.81 2.81 0 0 1 2.56 1.58 3.25 3.25 0 0 1 2.89-1.58 3.05 3.05 0 0 1 3.19 3.17v6.5h-1.56v-6c0-1.69-.91-2.28-1.94-2.28s-2.09.8-2.09 2.64z" fill="#6e6e6e"/><path d="m292.4 343.67c-1.88 0-3.31-1.1-3.31-2.87a2.65 2.65 0 0 1 2.53-2.68l3.34-.46v-.61c0-1.44-.93-1.88-2.11-1.88a5.77 5.77 0 0 0 -2.74.74l-.59-1.24a7.16 7.16 0 0 1 3.48-.87c2.3 0 3.51 1 3.51 3v4.43a1.29 1.29 0 0 0 .78 1.29l-.87 1.12a1.88 1.88 0 0 1 -1.27-1.14 3.52 3.52 0 0 1 -2.75 1.17zm0-4.41c-1 .15-1.73.49-1.73 1.46a1.75 1.75 0 0 0 1.94 1.71c1.16 0 2.34-.74 2.34-1.84v-1.71z" fill="#6e6e6e"/><path d="m302 341.13c0 .63.11 1.16 1.22 1.16a8.3 8.3 0 0 0 1.18-.11l.17 1.37a13.78 13.78 0 0 1 -1.69.13c-1.5 0-2.43-.59-2.43-2.2v-6.1h-1.79v-1.38h1.79v-3.1l1.56-.55v3.65h2.64v1.37h-2.65z" fill="#6e6e6e"/><path d="m307.55 330.18a1.16 1.16 0 0 1 1.14 1.16 1.15 1.15 0 1 1 -2.3 0 1.16 1.16 0 0 1 1.16-1.16zm.76 13.3h-1.56v-9.48h1.56z" fill="#6e6e6e"/><path d="m319.52 338.75c0 2.85-1.75 4.92-4.37 4.92s-4.37-2.07-4.37-4.92 1.75-4.94 4.37-4.94 4.37 2.05 4.37 4.94zm-1.61.06v-.11c0-1.9-1-3.51-2.75-3.51s-2.75 1.62-2.75 3.51v.11c0 1.86 1 3.5 2.75 3.5s2.74-1.64 2.74-3.5z" fill="#6e6e6e"/><path d="m322 334h1.56v1.08a3.27 3.27 0 0 1 2.77-1.27 3 3 0 0 1 3.17 3.23v6.44h-1.56v-5.95c0-1.67-.85-2.3-2-2.3a2.44 2.44 0 0 0 -2.43 2.62v5.62h-1.51z" fill="#6e6e6e"/><path d="m333.52 341.13a1.27 1.27 0 1 1 -1.27 1.27 1.27 1.27 0 0 1 1.27-1.27z" fill="#6e6e6e"/><path d="m343 330.18h8v1.41h-6.33v4.41h5.81v1.41h-5.81v6.12h-1.67z" fill="#6e6e6e"/><path d="m361.24 338.75c0 2.85-1.75 4.92-4.37 4.92s-4.37-2.07-4.37-4.92 1.75-4.94 4.37-4.94 4.37 2.05 4.37 4.94zm-1.61.06v-.11c0-1.9-1-3.51-2.75-3.51s-2.75 1.62-2.75 3.51v.11c0 1.86 1 3.5 2.75 3.5s2.75-1.64 2.75-3.5z" fill="#6e6e6e"/><path d="m368.55 335.39h-.25c-1.6 0-3 .65-3 3.23v4.86h-1.56v-9.48h1.56v1.5a3 3 0 0 1 2.83-1.67h.46z" fill="#6e6e6e"/><path d="m376.19 339.23a3 3 0 0 0 2.94 3.08 3.8 3.8 0 0 0 2.49-.93l.8 1.12a5.28 5.28 0 0 1 -3.36 1.18c-2.75 0-4.5-2.07-4.5-4.92s1.69-4.94 4.31-4.94c2.47 0 4 2.07 4 4.92v.49zm0-1.25h5c-.06-1.46-.87-2.79-2.37-2.79a2.75 2.75 0 0 0 -2.61 2.81z" fill="#6e6e6e"/><path d="m387.29 338.48-2.91-4.48h1.79l2 3.27 1.94-3.27h1.8l-2.89 4.48 3.29 5h-1.86l-2.37-3.69-2.17 3.69h-1.81z" fill="#6e6e6e"/><path d="m396.86 343.67c-1.88 0-3.31-1.1-3.31-2.87a2.66 2.66 0 0 1 2.53-2.68l3.34-.46v-.61c0-1.44-.93-1.88-2.11-1.88a5.77 5.77 0 0 0 -2.74.74l-.59-1.24a7.16 7.16 0 0 1 3.48-.87c2.3 0 3.51 1 3.51 3v4.43a1.29 1.29 0 0 0 .78 1.29l-.87 1.12a1.88 1.88 0 0 1 -1.27-1.14 3.52 3.52 0 0 1 -2.75 1.17zm0-4.41c-1 .15-1.73.49-1.73 1.46a1.75 1.75 0 0 0 1.94 1.71c1.16 0 2.34-.74 2.34-1.84v-1.71z" fill="#6e6e6e"/><path d="m411.11 343.48h-1.56v-6c0-1.69-.86-2.28-1.9-2.28s-2.09.8-2.09 2.64v5.6h-1.56v-9.44h1.56v1.08a2.92 2.92 0 0 1 2.49-1.27 2.81 2.81 0 0 1 2.56 1.58 3.25 3.25 0 0 1 2.89-1.58 3.05 3.05 0 0 1 3.2 3.19v6.5h-1.56v-6c0-1.69-.91-2.28-1.94-2.28s-2.09.8-2.09 2.64z" fill="#6e6e6e"/><path d="m421.22 334v1.08a3.32 3.32 0 0 1 2.77-1.27c2.45 0 4 2.07 4 4.94s-1.58 4.92-4 4.92a3.32 3.32 0 0 1 -2.77-1.27v4h-1.56v-12.4zm5.19 4.69c0-2-1-3.5-2.7-3.5a2.47 2.47 0 0 0 -2.51 2.81v1.54a2.47 2.47 0 0 0 2.51 2.77c1.75 0 2.7-1.52 2.7-3.5z" fill="#6e6e6e"/><path d="m430.46 330.18h1.54v11.17c0 .63.19 1 .91 1 .4 0 .72 0 1-.06l.15 1.31a15.12 15.12 0 0 1 -1.58.11c-1.12 0-2-.49-2-1.86z" fill="#6e6e6e"/><path d="m436.78 339.23a3 3 0 0 0 2.94 3.08 3.8 3.8 0 0 0 2.49-.93l.8 1.12a5.28 5.28 0 0 1 -3.36 1.18c-2.75 0-4.5-2.07-4.5-4.92s1.69-4.94 4.31-4.94c2.47 0 4 2.07 4 4.92v.49zm0-1.25h5c-.06-1.46-.87-2.79-2.37-2.79a2.75 2.75 0 0 0 -2.61 2.81z" fill="#6e6e6e"/><path d="m448.43 342.78a2.24 2.24 0 0 1 -2.22 2.41h-.27l-.06-.7h.23c.49-.08 1-.25 1-.76v-.06h-.15a1.21 1.21 0 0 1 -1.25-1.23 1.27 1.27 0 0 1 1.27-1.27 1.5 1.5 0 0 1 1.45 1.61z" fill="#6e6e6e"/><path d="m454.78 334h1.77l2.34 7.83 2.21-7.83h1.75l-3.46 10.9a2.28 2.28 0 0 1 -2.51 1.67 11.07 11.07 0 0 1 -1.69-.15l.23-1.37a7.21 7.21 0 0 0 1.25.13 1.07 1.07 0 0 0 1.2-1l.09-.44z" fill="#6e6e6e"/><path d="m472.9 338.75c0 2.85-1.75 4.92-4.37 4.92s-4.37-2.07-4.37-4.92 1.75-4.94 4.37-4.94 4.37 2.05 4.37 4.94zm-1.61.06v-.11c0-1.9-1-3.51-2.75-3.51s-2.75 1.62-2.75 3.51v.11c0 1.86 1 3.5 2.75 3.5s2.75-1.64 2.75-3.5z" fill="#6e6e6e"/><path d="m482.8 343.48h-1.56v-1.08a3.27 3.27 0 0 1 -2.77 1.27 3 3 0 0 1 -3.17-3.23v-6.44h1.56v5.95c0 1.67.85 2.3 2 2.3a2.38 2.38 0 0 0 2.43-2.62v-5.63h1.56z" fill="#6e6e6e"/><path d="m491.86 338.79c0 1.9.93 3.51 2.75 3.51a2.71 2.71 0 0 0 2.45-1.6l1.29.74a4 4 0 0 1 -3.74 2.22c-2.62 0-4.37-2.05-4.37-4.92s1.75-4.94 4.37-4.94a4 4 0 0 1 3.74 2.22l-1.29.74a2.71 2.71 0 0 0 -2.45-1.6c-1.82 0-2.75 1.62-2.75 3.51z" fill="#6e6e6e"/><path d="m508.79 338.75c0 2.85-1.75 4.92-4.37 4.92s-4.37-2.07-4.37-4.92 1.75-4.94 4.37-4.94 4.37 2.05 4.37 4.94zm-1.61.06v-.11c0-1.9-1-3.51-2.75-3.51s-2.75 1.62-2.75 3.51v.11c0 1.86 1 3.5 2.75 3.5s2.74-1.64 2.74-3.5z" fill="#6e6e6e"/><path d="m518.69 343.48h-1.56v-1.08a3.27 3.27 0 0 1 -2.77 1.27 3 3 0 0 1 -3.17-3.23v-6.44h1.56v5.95c0 1.67.85 2.3 2 2.3a2.38 2.38 0 0 0 2.43-2.62v-5.63h1.56z" fill="#6e6e6e"/><path d="m521.67 330.18h1.56v11.17c0 .63.19 1 .91 1 .4 0 .72 0 1-.06l.15 1.31a15.12 15.12 0 0 1 -1.58.11c-1.12 0-2-.49-2-1.86z" fill="#6e6e6e"/><path d="m533.18 342.4a3.32 3.32 0 0 1 -2.77 1.27c-2.45 0-4-2.05-4-4.92s1.58-4.94 4-4.94a3.32 3.32 0 0 1 2.77 1.27v-4.9h1.56v13.3h-1.56zm-5.18-3.61c0 2 .95 3.5 2.7 3.5a2.47 2.47 0 0 0 2.51-2.77v-1.52a2.47 2.47 0 0 0 -2.51-2.77c-1.75 0-2.7 1.52-2.7 3.5z" fill="#6e6e6e"/><path d="m56.55 363.13c0 .63.11 1.16 1.22 1.16a8.29 8.29 0 0 0 1.18-.11l.17 1.37a13.78 13.78 0 0 1 -1.69.13c-1.5 0-2.43-.59-2.43-2.2v-6.1h-1.8v-1.38h1.8v-3.1l1.56-.55v3.65h2.64v1.37h-2.65z" fill="#6e6e6e"/><path d="m62.36 361.23a3 3 0 0 0 2.94 3.08 3.8 3.8 0 0 0 2.49-.93l.8 1.12a5.28 5.28 0 0 1 -3.36 1.18c-2.75 0-4.5-2.07-4.5-4.92s1.69-4.94 4.31-4.94c2.47 0 4 2.07 4 4.92v.49zm0-1.25h5c-.06-1.46-.87-2.79-2.37-2.79a2.75 2.75 0 0 0 -2.61 2.81z" fill="#6e6e6e"/><path d="m71.39 352.18h1.56v11.17c0 .63.19 1 .91 1 .4 0 .72 0 1-.06l.15 1.31a15.12 15.12 0 0 1 -1.58.11c-1.12 0-2-.49-2-1.86z" fill="#6e6e6e"/><path d="m76.59 352.18h1.56v11.17c0 .63.19 1 .91 1 .4 0 .72 0 1-.06l.15 1.31a15.12 15.12 0 0 1 -1.58.11c-1.12 0-2-.49-2-1.86z" fill="#6e6e6e"/><path d="m88.39 363.13c0 .63.11 1.16 1.22 1.16a8.29 8.29 0 0 0 1.18-.11l.17 1.37a13.78 13.78 0 0 1 -1.69.13c-1.5 0-2.43-.59-2.43-2.2v-6.1h-1.84v-1.38h1.79v-3.1l1.56-.55v3.65h2.65v1.37h-2.61z" fill="#6e6e6e"/><path d="m93.14 352.18h1.56v4.9a3.27 3.27 0 0 1 2.77-1.27 3 3 0 0 1 3.17 3.23v6.44h-1.55v-5.95c0-1.67-.85-2.3-2-2.3a2.43 2.43 0 0 0 -2.43 2.62v5.62h-1.52z" fill="#6e6e6e"/><path d="m104.67 361.23a3 3 0 0 0 2.94 3.08 3.8 3.8 0 0 0 2.49-.93l.8 1.12a5.28 5.28 0 0 1 -3.36 1.18c-2.75 0-4.5-2.07-4.5-4.92s1.69-4.94 4.31-4.94c2.47 0 4 2.07 4 4.92v.49zm0-1.25h5c-.06-1.46-.87-2.79-2.37-2.79a2.75 2.75 0 0 0 -2.61 2.81z" fill="#6e6e6e"/><path d="m120.86 365.48h-1.56v-6c0-1.69-.86-2.28-1.9-2.28s-2.09.8-2.09 2.64v5.6h-1.56v-9.44h1.56v1.08a2.92 2.92 0 0 1 2.49-1.27 2.81 2.81 0 0 1 2.56 1.58 3.25 3.25 0 0 1 2.89-1.58 3.05 3.05 0 0 1 3.19 3.17v6.5h-1.56v-6c0-1.69-.91-2.28-1.94-2.28s-2.09.8-2.09 2.64z" fill="#6e6e6e"/><path d="m142.6 363.64 1.71-7.64h1.69l-2.32 9.48h-2l-1.92-7.6-2 7.6h-1.92l-2.3-9.48h1.67l1.65 7.64 2-7.64h1.77z" fill="#6e6e6e"/><path d="m148.16 352.18h1.56v4.9a3.27 3.27 0 0 1 2.77-1.27 3 3 0 0 1 3.17 3.23v6.44h-1.56v-5.95c0-1.67-.85-2.3-2-2.3a2.43 2.43 0 0 0 -2.43 2.62v5.62h-1.56z" fill="#6e6e6e"/><path d="m159.7 361.23a3 3 0 0 0 2.94 3.08 3.8 3.8 0 0 0 2.49-.93l.8 1.12a5.28 5.28 0 0 1 -3.36 1.18c-2.75 0-4.5-2.07-4.5-4.92s1.69-4.94 4.31-4.94c2.47 0 4 2.07 4 4.92v.49zm0-1.25h5c-.06-1.46-.87-2.79-2.37-2.79a2.75 2.75 0 0 0 -2.61 2.81z" fill="#6e6e6e"/><path d="m173.62 357.39h-.25c-1.6 0-3 .65-3 3.23v4.86h-1.56v-9.48h1.56v1.5a3 3 0 0 1 2.83-1.67h.46z" fill="#6e6e6e"/><path d="m176.47 361.23a3 3 0 0 0 2.94 3.08 3.8 3.8 0 0 0 2.49-.93l.8 1.12a5.28 5.28 0 0 1 -3.36 1.18c-2.75 0-4.5-2.07-4.5-4.92s1.69-4.94 4.31-4.94c2.47 0 4 2.07 4 4.92v.49zm0-1.25h5c-.06-1.46-.87-2.79-2.37-2.79a2.75 2.75 0 0 0 -2.61 2.81z" fill="#6e6e6e"/><path d="m192.6 363.13c0 .63.11 1.16 1.22 1.16a8.3 8.3 0 0 0 1.18-.11l.17 1.37a13.78 13.78 0 0 1 -1.69.13c-1.5 0-2.43-.59-2.43-2.2v-6.1h-1.79v-1.38h1.74v-3.1l1.56-.55v3.65h2.64v1.37h-2.6z" fill="#6e6e6e"/><path d="m205.52 360.75c0 2.85-1.75 4.92-4.37 4.92s-4.37-2.07-4.37-4.92 1.75-4.94 4.37-4.94 4.37 2.05 4.37 4.94zm-1.61.06v-.11c0-1.9-1-3.51-2.75-3.51s-2.75 1.62-2.75 3.51v.11c0 1.86 1 3.5 2.75 3.5s2.75-1.64 2.75-3.5z" fill="#6e6e6e"/><path d="m214.95 356h1.88v1.37h-1.88v8.11h-1.56v-8.11h-1.58v-1.37h1.58v-1.77c0-1.63 1.1-2.22 2.6-2.22a8.81 8.81 0 0 1 1.52.13l-.11 1.33c-.36 0-1-.08-1.35-.08-.89 0-1.1.55-1.1 1.14z" fill="#6e6e6e"/><path d="m219.77 352.18a1.16 1.16 0 0 1 1.14 1.16 1.15 1.15 0 1 1 -2.3 0 1.16 1.16 0 0 1 1.16-1.16zm.76 13.3h-1.53v-9.48h1.56z" fill="#6e6e6e"/><path d="m223.57 356h1.56v1.08a3.27 3.27 0 0 1 2.77-1.27 3 3 0 0 1 3.17 3.23v6.44h-1.56v-5.95c0-1.67-.85-2.3-2-2.3a2.44 2.44 0 0 0 -2.43 2.62v5.62h-1.56z" fill="#6e6e6e"/><path d="m240.29 364.4a3.32 3.32 0 0 1 -2.77 1.27c-2.45 0-4-2.05-4-4.92s1.58-4.94 4-4.94a3.32 3.32 0 0 1 2.77 1.27v-4.9h1.56v13.3h-1.56zm-5.19-3.61c0 2 .95 3.5 2.7 3.5a2.47 2.47 0 0 0 2.51-2.77v-1.52a2.47 2.47 0 0 0 -2.51-2.77c-1.75 0-2.7 1.52-2.7 3.5z" fill="#6e6e6e"/><path d="m251.94 363.13c0 .63.11 1.16 1.22 1.16a8.29 8.29 0 0 0 1.18-.11l.17 1.37a13.78 13.78 0 0 1 -1.69.13c-1.5 0-2.43-.59-2.43-2.2v-6.1h-1.79v-1.38h1.79v-3.1l1.56-.55v3.65h2.64v1.37h-2.64z" fill="#6e6e6e"/><path d="m256.69 352.18h1.56v4.9a3.27 3.27 0 0 1 2.77-1.27 3 3 0 0 1 3.17 3.23v6.44h-1.56v-5.95c0-1.67-.85-2.3-2-2.3a2.43 2.43 0 0 0 -2.43 2.62v5.62h-1.56z" fill="#6e6e6e"/><path d="m268.22 361.23a3 3 0 0 0 2.94 3.08 3.8 3.8 0 0 0 2.49-.93l.8 1.12a5.28 5.28 0 0 1 -3.36 1.18c-2.75 0-4.5-2.07-4.5-4.92s1.69-4.94 4.31-4.94c2.47 0 4 2.07 4 4.92v.49zm0-1.25h5c-.06-1.46-.87-2.79-2.37-2.79a2.75 2.75 0 0 0 -2.61 2.81z" fill="#6e6e6e"/><path d="m283.08 352.18a1.16 1.16 0 0 1 1.14 1.16 1.15 1.15 0 1 1 -2.3 0 1.16 1.16 0 0 1 1.16-1.16zm.76 13.3h-1.56v-9.48h1.56z" fill="#6e6e6e"/><path d="m286.88 356h1.56v1.08a3.27 3.27 0 0 1 2.77-1.27 3 3 0 0 1 3.17 3.23v6.44h-1.56v-5.95c0-1.67-.85-2.3-2-2.3a2.44 2.44 0 0 0 -2.43 2.62v5.62h-1.56z" fill="#6e6e6e"/><path d="m299.29 365.48-3-9.48h1.71l2.28 8 2.26-8h1.77l-3 9.48z" fill="#6e6e6e"/><path d="m314.41 360.75c0 2.85-1.75 4.92-4.37 4.92s-4.37-2.07-4.37-4.92 1.75-4.94 4.37-4.94 4.37 2.05 4.37 4.94zm-1.61.06v-.11c0-1.9-1-3.51-2.75-3.51s-2.75 1.62-2.75 3.51v.11c0 1.86 1 3.5 2.75 3.5s2.74-1.64 2.74-3.5z" fill="#6e6e6e"/><path d="m317.68 352.18a1.16 1.16 0 0 1 1.14 1.16 1.15 1.15 0 1 1 -2.3 0 1.16 1.16 0 0 1 1.16-1.16zm.76 13.3h-1.56v-9.48h1.56z" fill="#6e6e6e"/><path d="m322.52 360.79c0 1.9.93 3.51 2.75 3.51a2.71 2.71 0 0 0 2.45-1.6l1.29.74a4 4 0 0 1 -3.74 2.22c-2.62 0-4.37-2.05-4.37-4.92s1.75-4.94 4.37-4.94a4 4 0 0 1 3.73 2.2l-1.29.74a2.71 2.71 0 0 0 -2.45-1.6c-1.82 0-2.75 1.62-2.75 3.51z" fill="#6e6e6e"/><path d="m332.35 361.23a3 3 0 0 0 2.94 3.08 3.8 3.8 0 0 0 2.49-.93l.8 1.12a5.28 5.28 0 0 1 -3.36 1.18c-2.75 0-4.5-2.07-4.5-4.92s1.69-4.94 4.31-4.94c2.47 0 4 2.07 4 4.92v.49zm0-1.25h5c-.06-1.46-.87-2.79-2.37-2.79a2.75 2.75 0 0 0 -2.62 2.81z" fill="#6e6e6e"/><path d="m346.4 356h1.6v1.08a3.27 3.27 0 0 1 2.77-1.27 3 3 0 0 1 3.17 3.23v6.44h-1.56v-5.95c0-1.67-.85-2.3-2-2.3a2.44 2.44 0 0 0 -2.43 2.62v5.62h-1.55z" fill="#6e6e6e"/><path d="m364.3 365.48h-1.56v-1.08a3.27 3.27 0 0 1 -2.77 1.27 3 3 0 0 1 -3.17-3.23v-6.44h1.56v5.95c0 1.67.85 2.3 2 2.3a2.38 2.38 0 0 0 2.43-2.62v-5.63h1.56z" fill="#6e6e6e"/><path d="m374.45 365.48h-1.56v-6c0-1.69-.86-2.28-1.9-2.28s-2.09.8-2.09 2.64v5.6h-1.56v-9.44h1.56v1.08a2.92 2.92 0 0 1 2.49-1.27 2.81 2.81 0 0 1 2.56 1.58 3.25 3.25 0 0 1 2.89-1.58 3.05 3.05 0 0 1 3.16 3.19v6.5h-1.56v-6c0-1.69-.91-2.28-1.94-2.28s-2.09.8-2.09 2.64z" fill="#6e6e6e"/><path d="m384.56 365.48h-1.56v-13.3h1.56v4.9a3.32 3.32 0 0 1 2.77-1.27c2.45 0 4 2.07 4 4.94s-1.58 4.92-4 4.92a3.32 3.32 0 0 1 -2.77-1.27zm5.19-4.79c0-2-1-3.5-2.7-3.5a2.47 2.47 0 0 0 -2.51 2.77v1.54a2.47 2.47 0 0 0 2.51 2.77c1.75 0 2.7-1.52 2.7-3.5z" fill="#6e6e6e"/><path d="m394.91 361.23a3 3 0 0 0 2.94 3.08 3.8 3.8 0 0 0 2.49-.93l.8 1.12a5.28 5.28 0 0 1 -3.36 1.18c-2.75 0-4.5-2.07-4.5-4.92s1.69-4.94 4.31-4.94c2.47 0 4 2.07 4 4.92v.49zm0-1.25h5c-.06-1.46-.87-2.79-2.37-2.79a2.75 2.75 0 0 0 -2.61 2.81z" fill="#6e6e6e"/><path d="m408.84 357.39h-.25c-1.6 0-3 .65-3 3.23v4.86h-1.59v-9.48h1.56v1.5a3 3 0 0 1 2.83-1.67h.46z" fill="#6e6e6e"/><path d="m73.43 465.43c0-3.82 2.39-6.84 6.23-6.84a5.48 5.48 0 0 1 5.51 3.78l-2.57.86a3.06 3.06 0 0 0 -2.94-2.2c-2.39 0-3.46 2.15-3.46 4.31v.11c0 2.18 1 4.39 3.46 4.39a3.1 3.1 0 0 0 2.94-2.2l2.58.85a5.53 5.53 0 0 1 -5.55 3.78c-3.83 0-6.2-3.02-6.2-6.84z" fill="#fff"/><path d="m96.19 467.12a4.89 4.89 0 1 1 -9.76 0 4.89 4.89 0 1 1 9.76 0zm-2.62 0c0-1.61-.8-2.77-2.26-2.77s-2.24 1.16-2.26 2.77c0 1.61.8 2.77 2.26 2.77s2.24-1.16 2.26-2.77z" fill="#fff"/><path d="m98.07 462.14h2.56v.86a3.37 3.37 0 0 1 2.53-1 3.25 3.25 0 0 1 3.44 3.42v6.71h-2.6v-5.83c0-1.41-.67-1.94-1.56-1.94-1 0-1.84.74-1.84 2.28v5.43h-2.53z" fill="#fff"/><path d="m112.59 469.11c0 .48.21.84 1.1.84a6.41 6.41 0 0 0 1.27-.11l.23 2.26a20.39 20.39 0 0 1 -2.36.17c-1.77 0-2.81-.78-2.81-2.53v-5.3h-1.79v-2.3h1.77v-2.81l2.56-.68v3.5h2.6v2.3h-2.6z" fill="#fff"/><path d="m118.27 458.3a1.62 1.62 0 1 1 -1.62 1.62 1.61 1.61 0 0 1 1.62-1.62zm1.29 13.77h-2.56v-9.94h2.56z" fill="#fff"/><path d="m122 462.14h2.56v.86a3.37 3.37 0 0 1 2.53-1 3.25 3.25 0 0 1 3.44 3.42v6.71h-2.56v-5.83c0-1.41-.67-1.94-1.56-1.94-1 0-1.84.74-1.84 2.28v5.43h-2.57z" fill="#fff"/><path d="m141.26 472.08h-2.56v-.85a3.37 3.37 0 0 1 -2.53 1 3.25 3.25 0 0 1 -3.44-3.42v-6.71h2.56v5.78c0 1.41.67 1.94 1.56 1.94 1 0 1.84-.74 1.84-2.28v-5.43h2.56z" fill="#fff"/><path d="m145.8 468a2.34 2.34 0 0 0 2.41 1.94 3.57 3.57 0 0 0 2.51-.93l1.27 1.94a6 6 0 0 1 -3.86 1.33 4.83 4.83 0 0 1 -5-5.09v-.11a4.81 4.81 0 0 1 4.81-5.11 4.55 4.55 0 0 1 4.56 4.88v1.15zm0-1.94h4a1.91 1.91 0 0 0 -2-1.88 2 2 0 0 0 -1.98 1.88z" fill="#fff"/><path d="m0 40v-30a10 10 0 0 1 10-10h940a10 10 0 0 1 10 10v30" fill="#dadada"/><circle cx="25.38" cy="20" fill="#fff" r="8.5"/><circle cx="49.13" cy="20" fill="#fff" r="8.5"/><circle cx="72.88" cy="20" fill="#fff" r="8.5"/><path d="m0 545.29h960v4h-960z" fill="#dadada"/><path d="m4 549.29v-509.29h952v509.29h4v-513.29h-960v513.29z" fill="#dadada"/><rect xmlns="http://www.w3.org/2000/svg" x="53.391" y="377.244" width="369.279" height="39.887" style="stroke: rgb(0, 0, 0); fill: rgb(255, 255, 255); stroke-width: 2px;"/></svg>
