<svg xmlns="http://www.w3.org/2000/svg" viewBox="0 0 960 640">
  <defs>
    <style>
      .cls-1{fill:#fff}.cls-3{fill:#0b0b0b}.cls-4{fill:#dadada}
    </style>
  </defs>
  <g id="Layer_3" data-name="Layer 3">
    <path class="cls-1" d="M3.87 37.18h952.27v598.78H3.87z"/>
    <path fill="#28a197" d="M51.93 130.55h596.85v267.93H51.93z"/>
    <circle class="cls-1" cx="25.38" cy="20" r="8.5"/>
    <circle class="cls-1" cx="49.13" cy="20" r="8.5"/>
    <circle class="cls-1" cx="72.88" cy="20" r="8.5"/>
    <path class="cls-3" d="M1 40h958v65H1z"/>
    <path class="cls-1" d="M267 59.73l-10.71 12.98V59.73h-6.06v29.98h6.06V80.6l3.87-4.33 7.92 13.44h7.05l-11.08-18.06 10.41-11.92H267zM229.64 84.27a5.27 5.27 0 0 1-2-1.17 5.51 5.51 0 0 1-1.31-2 7.58 7.58 0 0 1-.48-2.83V59.69h-6v19.48a11 11 0 0 0 .91 4.54 9.9 9.9 0 0 0 2.54 3.45 11.54 11.54 0 0 0 3.86 2.2 15.83 15.83 0 0 0 9.78 0 11.45 11.45 0 0 0 3.86-2.2 9.94 9.94 0 0 0 2.53-3.45 11 11 0 0 0 .91-4.54V59.69h-6v18.59a7.6 7.6 0 0 1-.48 2.83 5.52 5.52 0 0 1-1.31 2 5.3 5.3 0 0 1-2 1.17 8 8 0 0 1-4.91 0M207.73 87.81a3.93 3.93 0 0 0 .83 1.21 3.74 3.74 0 0 0 1.22.82 3.8 3.8 0 0 0 1.47.29 3.72 3.72 0 0 0 1.46-.29 3.77 3.77 0 0 0 1.21-.82 3.92 3.92 0 0 0 .83-1.21 3.66 3.66 0 0 0 .3-1.49 3.52 3.52 0 0 0-.3-1.45 3.84 3.84 0 0 0-.83-1.19 4 4 0 0 0-1.21-.82 3.58 3.58 0 0 0-1.46-.3 3.65 3.65 0 0 0-1.47.3 4 4 0 0 0-1.22.82 3.84 3.84 0 0 0-.83 1.19 3.53 3.53 0 0 0-.3 1.45 3.68 3.68 0 0 0 .3 1.49M198.11 89.71l8.46-29.98h-6.71l-5.67 22.54h-.2l-5.8-22.54h-6.79l8.47 29.98h8.24z"/>
    <g>
      <path class="cls-1" d="M161.31 83.91a7.08 7.08 0 0 1-2.52-2.06 9.28 9.28 0 0 1-1.54-3.11 14.11 14.11 0 0 1-.52-3.93v-.17a14.15 14.15 0 0 1 .52-3.92 9.27 9.27 0 0 1 1.54-3.12 7.07 7.07 0 0 1 2.52-2.06 8.46 8.46 0 0 1 6.93 0 7.2 7.2 0 0 1 2.52 2.06 9.15 9.15 0 0 1 1.55 3.13 14 14 0 0 1 .52 3.92v.17a14 14 0 0 1-.52 3.93 9.16 9.16 0 0 1-1.55 3.11 7.21 7.21 0 0 1-2.52 2.06 8.46 8.46 0 0 1-6.93 0m-2.54-23.4a13.34 13.34 0 0 0-4.49 3.28 14.3 14.3 0 0 0-2.82 4.89 19.22 19.22 0 0 0 0 12.07 14.45 14.45 0 0 0 2.82 4.89 13.13 13.13 0 0 0 4.49 3.28 15.73 15.73 0 0 0 12 0 13.08 13.08 0 0 0 4.5-3.28 14.44 14.44 0 0 0 2.82-4.89 19.26 19.26 0 0 0 0-12.07 14.29 14.29 0 0 0-2.82-4.89 13.28 13.28 0 0 0-4.5-3.28 15.63 15.63 0 0 0-12 0M125.68 74.6a14.07 14.07 0 0 1 .48-3.69 9.49 9.49 0 0 1 1.46-3.15 7.37 7.37 0 0 1 2.51-2.19 7.54 7.54 0 0 1 3.64-.83 8 8 0 0 1 2.43.35 6.87 6.87 0 0 1 3.43 2.36 10.29 10.29 0 0 1 1.13 1.79l5.31-3a11.17 11.17 0 0 0-2-2.85 12.14 12.14 0 0 0-2.79-2.2 13.78 13.78 0 0 0-3.49-1.4 16.17 16.17 0 0 0-4-.49 14.18 14.18 0 0 0-5.93 1.2 13.54 13.54 0 0 0-4.52 3.28 14.65 14.65 0 0 0-2.88 4.89 17.64 17.64 0 0 0-1 6 19.45 19.45 0 0 0 .91 6 14.57 14.57 0 0 0 2.63 4.99 12.3 12.3 0 0 0 4.3 3.28 13.65 13.65 0 0 0 5.83 1.19 11.57 11.57 0 0 0 2.64-.29 10.73 10.73 0 0 0 2.29-.81 8.77 8.77 0 0 0 1.88-1.23 7.39 7.39 0 0 0 1.4-1.6v3.51h5.31V73.28h-13.57v4.62h7.67v.29a7.57 7.57 0 0 1-.32 2.09 5.78 5.78 0 0 1-1.13 2.1 6.27 6.27 0 0 1-2.15 1.62 7.77 7.77 0 0 1-3.38.65 7.54 7.54 0 0 1-3.64-.83 7.36 7.36 0 0 1-2.51-2.18 9.51 9.51 0 0 1-1.46-3.14 14 14 0 0 1-.48-3.7zM62.29 65.83a2.63 2.63 0 1 0-1.41-3.42 2.63 2.63 0 0 0 1.41 3.42M56.33 69.32a2.63 2.63 0 1 0-1.42-3.42 2.63 2.63 0 0 0 1.42 3.42M54.59 75.95a2.63 2.63 0 1 0-1.42-3.41 2.63 2.63 0 0 0 1.42 3.41M68.95 67.93a2.63 2.63 0 1 0-1.41-3.42 2.63 2.63 0 0 0 1.41 3.42M93 65.83a2.63 2.63 0 1 1 1.42-3.42A2.63 2.63 0 0 1 93 65.83M99 69.32a2.63 2.63 0 1 1 1.42-3.42A2.63 2.63 0 0 1 99 69.32M100.75 75.95a2.63 2.63 0 1 1 1.41-3.41 2.63 2.63 0 0 1-1.41 3.41M86.4 67.93a2.63 2.63 0 1 1 1.41-3.42 2.63 2.63 0 0 1-1.41 3.42M79.06 61.13l3.33 1.75V58l-3.32 1a1.64 1.64 0 0 0-.32-.33l1.34-4.21h-4.8l1.34 4.21a1.7 1.7 0 0 0-.32.33l-3.37-1v4.9l3.33-1.75a1.8 1.8 0 0 0 .34.34l-1.91 5.75a3.1 3.1 0 0 0 2.51 4h.46a3 3 0 0 0 .39 0h.07a3.1 3.1 0 0 0 2.51-4l-1.91-5.77a1.78 1.78 0 0 0 .34-.34M77.67 89.35a125.81 125.81 0 0 1 17.63 1.19c1.51-6.36 3.35-10 5.25-12.6L97 76.66a6.54 6.54 0 0 1 0 3.83 7.25 7.25 0 0 1-1.59-3.26L93.66 83a5.3 5.3 0 0 1 2.8-1.22c-1.65 3.56-3.71 4.47-5 4.23a2.54 2.54 0 0 1-2.13-3c.38-1.75 2.17-2.21 3-.17 1.6-3.27-1.12-4.29-2.87-3.32 2.69-2.68 3-5.07.83-7.95-3 2.31-3.06 4.6-1.7 7.82-1.77-2-4.51-.94-3.52 2.33 1.27-2 3-.73 2.69 1.14-.22 1.63-2.38 2.95-5.06 2.72-3.84-.35-4.07-3-4.17-5.2.94-.17 2.65.7 4.1 2.74l.5-6.12a6 6 0 0 1-4.61 2c.53-1.65 3-4.37 3-4.37h-7.67s2.43 2.71 3 4.37a6 6 0 0 1-4.61-2l.53 6.13c1.45-2 3.15-2.91 4.1-2.74-.1 2.2-.32 4.85-4.17 5.2-2.68.23-4.83-1.08-5.06-2.72-.29-1.87 1.36-3.1 2.67-1.13 1-3.26-1.75-4.35-3.52-2.33 1.36-3.22 1.32-5.51-1.7-7.82-2.17 2.88-1.86 5.27.83 7.95-1.75-1-4.47.05-2.87 3.32.84-2 2.63-1.58 3 .17a2.54 2.54 0 0 1-2.13 3c-1.34.25-3.4-.67-5-4.23a5.31 5.31 0 0 1 2.76 1.2l-1.74-5.78a7.25 7.25 0 0 1-1.59 3.26 6.54 6.54 0 0 1 0-3.83l-3.58 1.27c1.9 2.59 3.74 6.24 5.25 12.6a126 126 0 0 1 17.62-1.19"/>
    </g>
    <g>
      <path class="cls-1" d="M166.23 169.69h7.63l-11.23 19.92v13.68h-6.87v-13.68l-11.23-19.92h7.82l6.87 13zM196.57 190.76c0 7.44-4.94 13-12.34 13s-12.34-5.62-12.34-13c0-7.39 4.9-13 12.34-13s12.34 5.62 12.34 13zm-6.62 0c0-4.08-2-7-5.71-7s-5.67 2.93-5.71 7c0 4.08 2 7 5.71 7s5.66-2.93 5.71-7zM222.24 203.29h-6.48v-2.16a8.52 8.52 0 0 1-6.38 2.64c-5.47 0-8.69-3.79-8.69-8.64v-16.95h6.48v14.59c0 3.55 1.68 4.9 3.94 4.9 2.64 0 4.66-1.87 4.66-5.76v-13.73h6.48zM242.46 184.47h-1.15c-3.7 0-7 1.25-7 6.62v12.19h-6.48v-25.1h6.48V181a7.78 7.78 0 0 1 6.67-3.26h1.44zM264.59 178.18v2.16a8.3 8.3 0 0 1 6.34-2.64c6.62 0 11 5.47 11 12.91v.24c0 7.44-4.56 12.91-11.18 12.91a8 8 0 0 1-6.19-2.64v10.08h-6.48v-33zm-.19 14.88c0 2.69 2 4.7 5.18 4.7 3.7 0 5.71-2.93 5.71-6.91v-.24c0-4-2-6.91-5.71-6.91-3.17 0-5.18 2-5.18 4.71zM293.41 203.77c-4.56 0-8.69-2.88-8.69-7.87 0-4 2.64-6.72 7.06-7.34l7.63-1.06v-.82c0-2.21-1.49-3.22-3.94-3.22a16.91 16.91 0 0 0-7.39 2l-2.54-5a21.2 21.2 0 0 1 10.18-2.78c4.61 0 10.18 1.25 10.18 8.06v10.75c0 1.49.82 2 2.16 2.59l-2.93 4.66a5.71 5.71 0 0 1-4.7-2.83c-1.59 1.95-4.04 2.86-7.02 2.86zm.77-10.61c-1.58.24-2.64 1.15-2.64 2.59s1.25 2.93 3.41 2.93c3 0 4.46-2 4.46-4.61v-1.73zM316.38 204.3l.19-.82h-.48l-7.73-25.3h7.2l4.61 17.38 4.51-17.38h7.1L323.15 207c-1.1 3.74-4 4.75-7.83 4.75a42.5 42.5 0 0 1-5.9-.48l1.34-5.71a23.25 23.25 0 0 0 3.46.29 1.9 1.9 0 0 0 2.16-1.55zM356 203.29h-6.48V188.7c0-3.6-1.68-4.85-3.79-4.85-2.5 0-4.42 1.73-4.42 5.76v13.68h-6.48v-25.11h6.48v2.21a8.42 8.42 0 0 1 6.43-2.69 7.27 7.27 0 0 1 6.48 3.41c1.78-2.5 4.61-3.41 7.58-3.41 5.62 0 8.93 4 8.93 8.45v17.14h-6.53V188.7c0-3.6-1.68-4.85-3.79-4.85-2.5 0-4.42 1.73-4.42 5.76zM381.58 193a5.91 5.91 0 0 0 6.1 4.9 9 9 0 0 0 6.34-2.35l3.22 4.9a15 15 0 0 1-9.74 3.36c-6.91 0-12.62-4.8-12.62-12.87v-.29c0-7.39 5-12.91 12.14-12.91 6.63 0 11.52 5 11.52 12.34V193zm0-4.9h10.13a4.83 4.83 0 0 0-4.94-4.75 5 5 0 0 0-5.14 4.72zM402.83 178.18h6.48v2.16a8.52 8.52 0 0 1 6.38-2.64c5.47 0 8.69 3.79 8.69 8.64v16.95h-6.48V188.7c0-3.55-1.68-4.9-3.94-4.9-2.64 0-4.66 1.87-4.66 5.76v13.73h-6.48zM438.57 195.8c0 1.2.53 2.11 2.78 2.11a16.06 16.06 0 0 0 3.22-.29l.58 5.71a51.71 51.71 0 0 1-6 .43c-4.46 0-7.1-2-7.1-6.38V184h-4.51v-5.81h4.51v-7.1l6.48-1.73v8.83h6.58V184h-6.58zM484.07 195.08l3.07-16.9H494l-5.81 25.11h-7.68L476.78 187l-4 16.32h-7.58l-5.81-25.11h7.06l3 16.9 4.37-16.9H480zM504.65 203.77c-4.56 0-8.69-2.88-8.69-7.87 0-4 2.64-6.72 7.06-7.34l7.63-1.06v-.82c0-2.21-1.49-3.22-3.94-3.22a16.91 16.91 0 0 0-7.39 2l-2.54-5A21.2 21.2 0 0 1 507 177.7c4.61 0 10.18 1.25 10.18 8.06v10.75c0 1.49.82 2 2.16 2.59l-2.93 4.66a5.71 5.71 0 0 1-4.7-2.83c-1.63 1.93-4.08 2.84-7.06 2.84zm.77-10.61c-1.58.24-2.64 1.15-2.64 2.59s1.25 2.93 3.41 2.93c3 0 4.46-2 4.46-4.61v-1.73zM525.41 195.22a11.63 11.63 0 0 0 7.34 3c2 0 3.55-.53 3.55-2 0-1.2-1-1.68-3.07-2.21a43 43 0 0 1-6.24-1.78 6.76 6.76 0 0 1-4.42-6.53c0-5.38 4.75-8 10.32-8 4.22 0 7.92 1.54 9.94 3.55l-4.13 4.27a8.63 8.63 0 0 0-5.76-2.3c-1.78 0-3.55.62-3.55 2.11 0 1.15 1.1 1.58 3 2.06a35.41 35.41 0 0 1 7.2 2.3 6.64 6.64 0 0 1 3.5 6c0 5.33-4.56 8.07-10.13 8.07-4.08 0-8.83-1.54-11.33-3.79zM238.46 247.22a11.63 11.63 0 0 0 7.34 3c2 0 3.55-.53 3.55-2 0-1.2-1-1.68-3.07-2.21a43 43 0 0 1-6.24-1.78 6.76 6.76 0 0 1-4.42-6.53c0-5.38 4.75-8 10.32-8 4.22 0 7.92 1.54 9.94 3.55l-4.13 4.27a8.63 8.63 0 0 0-5.76-2.3c-1.78 0-3.55.62-3.55 2.11 0 1.15 1.1 1.58 3 2.06a35.44 35.44 0 0 1 7.2 2.3 6.64 6.64 0 0 1 3.5 6c0 5.33-4.56 8.07-10.13 8.07-4.08 0-8.83-1.54-11.33-3.79zM281.69 255.29h-6.48v-2.16a8.52 8.52 0 0 1-6.38 2.64c-5.47 0-8.69-3.79-8.69-8.64v-16.95h6.48v14.59c0 3.55 1.68 4.9 3.94 4.9 2.64 0 4.66-1.87 4.66-5.76v-13.73h6.48zM286 242.66c0-7.39 5.09-13 12.14-13 5.14 0 9.26 2.54 10.9 6.48l-5.76 2.93a5.13 5.13 0 0 0-5-3.41c-3.94 0-5.62 3.6-5.62 6.91v.29c0 3.26 1.68 6.86 5.62 6.86a5.13 5.13 0 0 0 5-3.41l5.76 2.93c-1.63 3.94-5.91 6.48-11 6.48-7.06 0-12-5.57-12-13zM311.26 242.66c0-7.39 5.09-13 12.14-13 5.14 0 9.26 2.54 10.9 6.48l-5.76 2.93a5.13 5.13 0 0 0-5-3.41c-3.94 0-5.62 3.6-5.62 6.91v.29c0 3.26 1.68 6.86 5.62 6.86a5.13 5.13 0 0 0 5-3.41l5.76 2.93c-1.63 3.94-5.91 6.48-11 6.48-7.06 0-12-5.57-12-13zM343.27 245a5.91 5.91 0 0 0 6.1 4.9 9 9 0 0 0 6.34-2.35l3.22 4.9a15 15 0 0 1-9.74 3.36c-6.91 0-12.62-4.8-12.62-12.87v-.29c0-7.39 5-12.91 12.14-12.91 6.63 0 11.52 5 11.52 12.34V245zm0-4.9h10.13a4.83 4.83 0 0 0-4.94-4.75 5 5 0 0 0-5.14 4.72zM366.27 247.22a11.63 11.63 0 0 0 7.34 3c2 0 3.55-.53 3.55-2 0-1.2-1-1.68-3.07-2.21a43 43 0 0 1-6.24-1.78 6.76 6.76 0 0 1-4.42-6.53c0-5.38 4.75-8 10.32-8 4.22 0 7.92 1.54 9.94 3.55l-4.13 4.27a8.63 8.63 0 0 0-5.76-2.3c-1.78 0-3.55.62-3.55 2.11 0 1.15 1.1 1.58 3 2.06a35.41 35.41 0 0 1 7.2 2.3 6.64 6.64 0 0 1 3.5 6c0 5.33-4.56 8.07-10.13 8.07-4.08 0-8.83-1.54-11.33-3.79zM390.08 247.22a11.63 11.63 0 0 0 7.34 3c2 0 3.55-.53 3.55-2 0-1.2-1-1.68-3.07-2.21a43 43 0 0 1-6.24-1.78 6.76 6.76 0 0 1-4.42-6.53c0-5.38 4.75-8 10.32-8 4.22 0 7.92 1.54 9.94 3.55l-4.13 4.27a8.63 8.63 0 0 0-5.76-2.3c-1.78 0-3.55.62-3.55 2.11 0 1.15 1.1 1.58 3 2.06a35.41 35.41 0 0 1 7.2 2.3 6.64 6.64 0 0 1 3.5 6c0 5.33-4.56 8.07-10.13 8.07-4.08 0-8.83-1.54-11.33-3.79zM420.8 230.18h4.8V236h-4.8v19.3h-6.48V236h-4v-5.81h4v-2.59c0-4.37 3.12-6.38 7.58-6.38a43.74 43.74 0 0 1 5.14.34l-.53 5.52a22.41 22.41 0 0 0-3.17-.24c-1.82 0-2.54.77-2.54 1.87zM450.34 255.29h-6.48v-2.16a8.52 8.52 0 0 1-6.38 2.64c-5.47 0-8.69-3.79-8.69-8.64v-16.95h6.48v14.59c0 3.55 1.68 4.9 3.94 4.9 2.64 0 4.66-1.87 4.66-5.76v-13.73h6.48zM455.92 221.69h6.48v26.79c0 1.06.58 1.63 1.92 1.63a12.79 12.79 0 0 0 2.45-.24l.53 5.52a53.25 53.25 0 0 1-5.47.38c-3.65 0-5.9-1.92-5.9-5.52zM125.88 300.89h3l-7.2 13.25v9.15h-2.75v-9.15l-7.23-13.25h3.14l5.54 10.66zM143.58 315.32c0 4.8-2.94 8.29-7.36 8.29s-7.36-3.49-7.36-8.29 2.94-8.32 7.36-8.32 7.36 3.46 7.36 8.32zm-2.72.1v-.19c0-3.2-1.6-5.92-4.64-5.92s-4.64 2.72-4.64 5.92v.19c0 3.14 1.6 5.89 4.64 5.89s4.64-2.76 4.64-5.89zM159.93 323.29h-2.63v-1.82a5.5 5.5 0 0 1-4.67 2.14 5.09 5.09 0 0 1-5.34-5.44v-10.85h2.62v10c0 2.82 1.44 3.87 3.3 3.87 2.18 0 4.1-1.44 4.1-4.42v-9.47h2.62zM172.8 309.66h-.42c-2.69 0-5.12 1.09-5.12 5.44v8.19h-2.62v-16h2.62v2.53A5 5 0 0 1 172 307h.77zM187.2 307.32v1.82a5.59 5.59 0 0 1 4.67-2.14c4.13 0 6.78 3.49 6.78 8.32s-2.66 8.29-6.78 8.29a5.59 5.59 0 0 1-4.67-2.14v6.69h-2.62v-20.84zm8.74 7.9c0-3.33-1.6-5.89-4.54-5.89-2.78 0-4.22 2-4.22 4.67v2.59c0 2.66 1.44 4.67 4.22 4.67 2.94 0 4.54-2.56 4.54-5.89zM207 323.61c-3.17 0-5.57-1.86-5.57-4.83 0-2.5 1.7-4.16 4.26-4.51l5.63-.77v-1c0-2.43-1.57-3.17-3.55-3.17a9.73 9.73 0 0 0-4.61 1.25l-1-2.08A12 12 0 0 1 208 307c3.87 0 5.92 1.73 5.92 5.09v7.46a2.16 2.16 0 0 0 1.31 2.18l-1.47 1.89a3.16 3.16 0 0 1-2.14-1.92 5.93 5.93 0 0 1-4.62 1.91zm0-7.42c-1.76.26-2.91.83-2.91 2.46 0 1.86 1.5 2.88 3.26 2.88 2 0 3.94-1.25 3.94-3.1v-2.88zM216.55 307.32h3l3.94 13.18 3.74-13.18h2.94l-5.82 18.37c-.7 2.24-2.27 2.82-4.22 2.82a18.87 18.87 0 0 1-2.85-.26l.38-2.3a12.17 12.17 0 0 0 2.11.22 1.81 1.81 0 0 0 2-1.6l.16-.74zM245.2 323.29h-2.62v-10c0-2.85-1.44-3.84-3.2-3.84s-3.52 1.34-3.52 4.45v9.44h-2.62v-16h2.62v1.82a4.91 4.91 0 0 1 4.19-2.14 4.73 4.73 0 0 1 4.32 2.66 5.47 5.47 0 0 1 4.86-2.66 5.15 5.15 0 0 1 5.38 5.34v10.94H252v-10c0-2.85-1.54-3.84-3.26-3.84s-3.52 1.34-3.52 4.45zM261.16 316.12c.19 3 2.08 5.18 5 5.18a6.4 6.4 0 0 0 4.19-1.57l1.34 1.89a8.9 8.9 0 0 1-5.66 2c-4.64 0-7.58-3.49-7.58-8.29s2.85-8.32 7.26-8.32c4.16 0 6.82 3.49 6.82 8.29v.83zm0-2.11h8.45c-.1-2.46-1.47-4.7-4-4.7s-4.29 2.27-4.42 4.69zM276.22 307.32h2.62v1.82a5.5 5.5 0 0 1 4.67-2.14 5.09 5.09 0 0 1 5.34 5.44v10.85h-2.62v-10c0-2.82-1.44-3.87-3.3-3.87a4.1 4.1 0 0 0-4.1 4.42v9.47h-2.62zM297.35 319.32c0 1.06.19 2 2 2a13.9 13.9 0 0 0 2-.19l.29 2.3a23.27 23.27 0 0 1-2.85.22c-2.53 0-4.1-1-4.1-3.71v-10.31h-3v-2.3h3v-5.22l2.62-.93v6.14h4.45v2.3h-4.45zM321.89 309.66h-.42c-2.69 0-5.12 1.09-5.12 5.44v8.19h-2.62v-16h2.62v2.53a5 5 0 0 1 4.77-2.82h.77zM326.56 316.12c.19 3 2.08 5.18 5 5.18a6.4 6.4 0 0 0 4.19-1.57l1.34 1.89a8.9 8.9 0 0 1-5.66 2c-4.64 0-7.58-3.49-7.58-8.29s2.85-8.32 7.26-8.32c4.16 0 6.82 3.49 6.82 8.29v.83zm0-2.11H335c-.1-2.46-1.47-4.7-4-4.7s-4.28 2.27-4.41 4.69zM345 307.32h3.17v2.3H345v13.66h-2.62v-13.65h-2.66v-2.3h2.66v-3c0-2.75 1.86-3.74 4.38-3.74a14.79 14.79 0 0 1 2.56.22l-.19 2.24c-.61-.06-1.76-.13-2.27-.13-1.5 0-1.86.93-1.86 1.92zM352.88 316.12c.19 3 2.08 5.18 5 5.18a6.4 6.4 0 0 0 4.19-1.57l1.34 1.89a8.9 8.9 0 0 1-5.66 2c-4.64 0-7.58-3.49-7.58-8.29S353 307 357.39 307c4.16 0 6.82 3.49 6.82 8.29v.83zm0-2.11h8.45c-.1-2.46-1.47-4.7-4-4.7s-4.33 2.27-4.42 4.69zM376.1 309.66h-.42c-2.69 0-5.12 1.09-5.12 5.44v8.19h-2.62v-16h2.62v2.53a5 5 0 0 1 4.77-2.82h.77zM380.76 316.12c.19 3 2.08 5.18 5 5.18a6.4 6.4 0 0 0 4.19-1.57l1.34 1.89a8.9 8.9 0 0 1-5.66 2c-4.64 0-7.58-3.49-7.58-8.29s2.85-8.32 7.26-8.32c4.16 0 6.82 3.49 6.82 8.29v.83zm0-2.11h8.45c-.1-2.46-1.47-4.7-4-4.7s-4.29 2.27-4.41 4.69zM395.82 307.32h2.62v1.82a5.5 5.5 0 0 1 4.67-2.14 5.09 5.09 0 0 1 5.34 5.44v10.85h-2.62v-10c0-2.82-1.44-3.87-3.3-3.87a4.1 4.1 0 0 0-4.1 4.42v9.47h-2.62zM414.94 315.39c0 3.2 1.57 5.92 4.64 5.92a4.56 4.56 0 0 0 4.13-2.69l2.18 1.25a6.78 6.78 0 0 1-6.3 3.74c-4.42 0-7.36-3.46-7.36-8.29s2.94-8.32 7.36-8.32a6.78 6.78 0 0 1 6.3 3.74l-2.18 1.26a4.56 4.56 0 0 0-4.13-2.69c-3.07 0-4.64 2.72-4.64 5.92zM431.12 316.12c.19 3 2.08 5.18 5 5.18a6.4 6.4 0 0 0 4.19-1.57l1.34 1.89a8.9 8.9 0 0 1-5.66 2c-4.64 0-7.58-3.49-7.58-8.29s2.85-8.32 7.26-8.32c4.16 0 6.82 3.49 6.82 8.29v.83zm0-2.11h8.45c-.1-2.46-1.47-4.7-4-4.7s-4.29 2.27-4.42 4.69zM454.8 307.32h2.62v1.82a5.5 5.5 0 0 1 4.67-2.14 5.09 5.09 0 0 1 5.34 5.44v10.85h-2.62v-10c0-2.82-1.44-3.87-3.3-3.87a4.1 4.1 0 0 0-4.1 4.42v9.47h-2.61zM484.55 323.29h-2.62v-1.82a5.5 5.5 0 0 1-4.67 2.14 5.09 5.09 0 0 1-5.34-5.44v-10.85h2.62v10c0 2.82 1.44 3.87 3.3 3.87 2.18 0 4.1-1.44 4.1-4.42v-9.47h2.62zM501.23 323.29h-2.62v-10c0-2.85-1.44-3.84-3.2-3.84s-3.52 1.34-3.52 4.45v9.44h-2.62v-16h2.62v1.82a4.91 4.91 0 0 1 4.19-2.14 4.73 4.73 0 0 1 4.32 2.66 5.47 5.47 0 0 1 4.86-2.66 5.15 5.15 0 0 1 5.38 5.34v10.94H508v-10c0-2.85-1.54-3.84-3.26-3.84s-3.52 1.34-3.52 4.45zM517.93 323.29h-2.62v-22.4h2.62v8.26a5.59 5.59 0 0 1 4.67-2.15c4.13 0 6.78 3.49 6.78 8.32s-2.66 8.29-6.78 8.29a5.59 5.59 0 0 1-4.67-2.14zm8.74-8.06c0-3.33-1.6-5.89-4.54-5.89-2.78 0-4.22 2-4.22 4.67v2.59c0 2.66 1.44 4.67 4.22 4.67 2.94 0 4.54-2.56 4.54-5.89zM535.21 316.12c.19 3 2.08 5.18 5 5.18a6.4 6.4 0 0 0 4.19-1.57l1.34 1.89a8.9 8.9 0 0 1-5.66 2c-4.64 0-7.58-3.49-7.58-8.29s2.85-8.32 7.26-8.32c4.16 0 6.82 3.49 6.82 8.29v.83zm0-2.11h8.45c-.1-2.46-1.47-4.7-4-4.7s-4.29 2.27-4.42 4.69zM558.43 309.66H558c-2.69 0-5.12 1.09-5.12 5.44v8.19h-2.62v-16h2.62v2.53a5 5 0 0 1 4.77-2.82h.77zM571.55 300.89a2 2 0 0 1 1.92 2 1.94 1.94 0 1 1-3.87 0 2 2 0 0 1 1.95-2zm1.28 22.4h-2.63v-16h2.62zM576.14 321.31l1.6-1.86a7.57 7.57 0 0 0 4.83 2c1.82 0 3.2-.83 3.2-2.4 0-1.73-1.73-2.11-3.9-2.69s-5-1.38-5-4.67c0-2.69 2.46-4.64 5.82-4.64a8.62 8.62 0 0 1 5.54 2l-1.54 1.76a5.85 5.85 0 0 0-3.94-1.54c-2.11 0-3.17.93-3.17 2.37 0 1.15.9 1.73 2.3 2.11.83.22 1.79.51 2.62.77 2.14.67 3.9 1.79 3.9 4.35 0 3.3-2.91 4.8-6 4.8a9.6 9.6 0 0 1-6.26-2.36zM265.22 349.85h-9.86v9.44h-4.54v-22.4h4.54v8.86h9.86v-8.86h4.54v22.4h-4.54zM281.68 336.89v22.4H277v-14.82h-4v-4.1h.9c2.69 0 3.33-1 3.33-3.2v-.29zM295.87 359.29v-5.06H284.7v-4.83l10.3-12.51h5.41v13.25h3.26v4.1h-3.26v5.06zm0-9.15v-8.38l-6.94 8.38zM313.45 336.89v22.4h-4.64v-14.82h-4.06v-4.1h.9c2.69 0 3.33-1 3.33-3.2v-.29zM321.3 352.44a4.15 4.15 0 0 0 4.29 3.1c2.85 0 3.84-1.44 3.84-2.88 0-1.76-1.31-2.75-4.35-2.75h-1.34v-4h1.06c2.72 0 4.26-.8 4.26-2.62 0-1.6-1.38-2.59-3.33-2.59a4.23 4.23 0 0 0-4.19 3l-4.26-1.31c.9-3.87 4.67-5.79 8.42-5.79 4.61 0 8.06 2.4 8.06 6.4a4.7 4.7 0 0 1-3.68 4.67 5.14 5.14 0 0 1 4.1 5.15c0 4.54-3.74 6.82-8.61 6.82-4.26 0-8-2-8.83-6zM338.12 336.89h15.1V341h-10.56v4.77h9.73v4.1h-9.73v5.34h11.17v4.1h-15.71zM367.16 341.18H355.8v-4.29h16v4.35l-8.67 18h-5.31zM393.55 352.35l3.14-15.46h4.93l-5 22.4h-5.57l-3.39-16.06-3.33 16.06h-5.54l-5-22.4h4.93l3 15.46 3.39-15.46h5.09zM415.86 352.06l-6.62-8.29v15.52h-4.54v-22.4h4.61l6.62 8.74 6.82-8.74h4.42v22.4h-4.54v-15.52l-6.63 8.29zM445.66 350.75v-13.89h4.48v14.56c0 5-3.84 8.19-9.12 8.19s-9.12-3.2-9.12-8.19v-14.56h4.48v13.89c0 3.26 2 4.77 4.64 4.77s4.64-1.52 4.64-4.77z"/>
    </g>
    <g>
      <path class="cls-3" d="M67.5 436.13l2.35-11.59h3.7l-3.74 16.8h-4.18l-2.54-12-2.5 12h-4.15l-3.75-16.8h3.7l2.28 11.59 2.54-11.59H65zM75.78 424.53H79v5.33a4.26 4.26 0 0 1 3.19-1.32 4.11 4.11 0 0 1 4.34 4.32v8.47h-3.21V434c0-1.78-.84-2.45-2-2.45-1.32 0-2.33.94-2.33 2.88v6.86h-3.21zM93.08 441.57c-2.28 0-4.34-1.44-4.34-3.94 0-2 1.32-3.36 3.53-3.67l3.82-.53V433c0-1.1-.74-1.61-2-1.61a8.45 8.45 0 0 0-3.7 1l-1.27-2.5a10.61 10.61 0 0 1 5.09-1.39c2.3 0 5.09.62 5.09 4v5.38c0 .74.41 1 1.08 1.3l-1.46 2.33a2.85 2.85 0 0 1-2.35-1.42 4.34 4.34 0 0 1-3.49 1.48zm.38-5.3c-.79.12-1.32.58-1.32 1.3a1.53 1.53 0 0 0 1.7 1.46 2.1 2.1 0 0 0 2.23-2.3v-.86zM106.86 437.59c0 .6.26 1.06 1.39 1.06a8 8 0 0 0 1.61-.14l.29 2.86a25.91 25.91 0 0 1-3 .22c-2.23 0-3.55-1-3.55-3.19v-6.7h-2.26v-2.9h2.26v-3.55l3.24-.86v4.42h3.29v2.9h-3.29zM118.23 424.53h3.24v5.33a4.26 4.26 0 0 1 3.19-1.32 4.11 4.11 0 0 1 4.34 4.32v8.47h-3.24V434c0-1.78-.84-2.45-2-2.45-1.32 0-2.33.94-2.33 2.88v6.86h-3.24zM135.54 441.57c-2.28 0-4.34-1.44-4.34-3.94 0-2 1.32-3.36 3.53-3.67l3.82-.53V433c0-1.1-.74-1.61-2-1.61a8.45 8.45 0 0 0-3.7 1l-1.27-2.5a10.61 10.61 0 0 1 5.09-1.39c2.3 0 5.09.62 5.09 4v5.38c0 .74.41 1 1.08 1.3l-1.46 2.33a2.85 2.85 0 0 1-2.35-1.42 4.34 4.34 0 0 1-3.49 1.48zm.38-5.3c-.79.12-1.32.58-1.32 1.3a1.53 1.53 0 0 0 1.7 1.46 2.1 2.1 0 0 0 2.23-2.3v-.86zM148 428.78v1.08a4.15 4.15 0 0 1 3.17-1.32c3.31 0 5.52 2.74 5.52 6.46v.12c0 3.72-2.28 6.46-5.59 6.46a4 4 0 0 1-3.1-1.32v5h-3.2v-16.48zm-.1 7.44a2.36 2.36 0 0 0 2.59 2.35c1.85 0 2.86-1.46 2.86-3.46V435c0-2-1-3.46-2.86-3.46a2.36 2.36 0 0 0-2.59 2.35zM162.37 428.78v1.08a4.15 4.15 0 0 1 3.17-1.32c3.31 0 5.52 2.74 5.52 6.46v.12c0 3.72-2.28 6.46-5.59 6.46a4 4 0 0 1-3.1-1.32v5h-3.24v-16.48zm-.1 7.44a2.36 2.36 0 0 0 2.59 2.35c1.85 0 2.86-1.46 2.86-3.46V435c0-2-1-3.46-2.86-3.46a2.36 2.36 0 0 0-2.59 2.35zM176.17 436.17a3 3 0 0 0 3 2.45 4.51 4.51 0 0 0 3.17-1.18l1.61 2.45a7.51 7.51 0 0 1-4.87 1.68 6.1 6.1 0 0 1-6.31-6.43V435c0-3.7 2.52-6.46 6.07-6.46 3.31 0 5.76 2.52 5.76 6.17v1.46zm0-2.45h5.06a2.41 2.41 0 0 0-2.47-2.38 2.51 2.51 0 0 0-2.57 2.38zM186.95 428.78h3.24v1.08a4.26 4.26 0 0 1 3.19-1.32 4.11 4.11 0 0 1 4.34 4.32v8.47h-3.24V434c0-1.78-.84-2.45-2-2.45-1.32 0-2.33.94-2.33 2.88v6.86h-3.24zM201.66 437.3a5.81 5.81 0 0 0 3.67 1.51c1 0 1.78-.26 1.78-1s-.48-.84-1.54-1.1a21.42 21.42 0 0 1-3.12-.89 3.38 3.38 0 0 1-2.21-3.26c0-2.69 2.38-4 5.16-4a7.21 7.21 0 0 1 5 1.78l-2.06 2.14a4.32 4.32 0 0 0-2.88-1.15c-.89 0-1.78.31-1.78 1.06 0 .58.55.79 1.49 1a17.69 17.69 0 0 1 3.6 1.15 3.32 3.32 0 0 1 1.75 3c0 2.66-2.28 4-5.06 4a9.23 9.23 0 0 1-5.66-1.9zM218.67 428.78h3.24v1.08a4.26 4.26 0 0 1 3.19-1.32 4.11 4.11 0 0 1 4.34 4.32v8.47h-3.24V434c0-1.78-.84-2.45-2-2.45-1.32 0-2.33.94-2.33 2.88v6.86h-3.24zM235.09 436.17a3 3 0 0 0 3 2.45 4.51 4.51 0 0 0 3.17-1.18l1.61 2.45a7.51 7.51 0 0 1-4.87 1.68 6.1 6.1 0 0 1-6.31-6.43V435c0-3.7 2.52-6.46 6.07-6.46 3.31 0 5.76 2.52 5.76 6.17v1.46zm0-2.45h5.06a2.41 2.41 0 0 0-2.47-2.38 2.51 2.51 0 0 0-2.57 2.38zM248.53 434.76l-3.82-6h3.75l1.92 3.38 2-3.38h3.77l-3.89 6 4.32 6.55h-3.82l-2.47-3.84-2.26 3.84h-3.77zM262.88 437.59c0 .6.26 1.06 1.39 1.06a8 8 0 0 0 1.61-.14l.29 2.86a25.91 25.91 0 0 1-3 .22c-2.23 0-3.55-1-3.55-3.19v-6.7h-2.26v-2.9h2.26v-3.55l3.24-.86v4.42h3.29v2.9h-3.29zM64.38 479l2.3-11h1.67l-3 13.3h-1.9l-2.83-10.87-2.82 10.9h-2L52.9 468h1.65l2.36 11 2.81-11h1.77zM71.14 477.08a3 3 0 0 0 2.94 3.08 3.8 3.8 0 0 0 2.49-.93l.8 1.12a5.28 5.28 0 0 1-3.37 1.17c-2.75 0-4.5-2.07-4.5-4.92s1.69-4.94 4.31-4.94c2.47 0 4 2.07 4 4.92v.49zm0-1.25h5c-.06-1.46-.87-2.79-2.37-2.79a2.75 2.75 0 0 0-2.61 2.78zM85.2 468h1.56v4.9a3.27 3.27 0 0 1 2.77-1.27 3 3 0 0 1 3.17 3.23v6.44h-1.55v-5.95c0-1.67-.85-2.3-2-2.3a2.43 2.43 0 0 0-2.43 2.62v5.62H85.2zM98.27 481.52c-1.88 0-3.31-1.1-3.31-2.87a2.66 2.66 0 0 1 2.53-2.65l3.34-.46v-.61c0-1.44-.93-1.88-2.11-1.88a5.77 5.77 0 0 0-2.74.74l-.59-1.24a7.16 7.16 0 0 1 3.48-.87c2.3 0 3.51 1 3.51 3v4.43a1.29 1.29 0 0 0 .78 1.29l-.87 1.12a1.88 1.88 0 0 1-1.27-1.14 3.52 3.52 0 0 1-2.75 1.14zm0-4.41c-1 .15-1.73.49-1.73 1.46a1.75 1.75 0 0 0 1.94 1.71c1.16 0 2.34-.74 2.34-1.84v-1.71zM107.35 481.33l-3-9.48h1.77l2.28 8 2.26-8h1.77l-3 9.48zM115.37 477.08a3 3 0 0 0 2.94 3.08 3.8 3.8 0 0 0 2.49-.93l.8 1.12a5.28 5.28 0 0 1-3.36 1.18c-2.75 0-4.5-2.07-4.5-4.92s1.69-4.94 4.31-4.94c2.47 0 4 2.07 4 4.92v.49zm0-1.25h5c-.06-1.46-.87-2.79-2.37-2.79a2.75 2.75 0 0 0-2.61 2.78zM128.62 480.16l.95-1.1a4.5 4.5 0 0 0 2.87 1.16c1.08 0 1.9-.49 1.9-1.42s-1-1.25-2.32-1.6-2.94-.82-2.94-2.77c0-1.6 1.46-2.75 3.46-2.75a5.13 5.13 0 0 1 3.29 1.18l-.91 1a3.47 3.47 0 0 0-2.34-.91c-1.25 0-1.88.55-1.88 1.41 0 .68.53 1 1.37 1.25.49.13 1.06.3 1.56.46 1.27.4 2.32 1.06 2.32 2.58 0 2-1.73 2.85-3.57 2.85a5.7 5.7 0 0 1-3.76-1.34zM139.43 477.08a3 3 0 0 0 2.94 3.08 3.8 3.8 0 0 0 2.49-.93l.8 1.12a5.28 5.28 0 0 1-3.36 1.18c-2.75 0-4.5-2.07-4.5-4.92s1.69-4.94 4.31-4.94c2.47 0 4 2.07 4 4.92v.49zm0-1.25h5c-.06-1.46-.87-2.79-2.37-2.79a2.75 2.75 0 0 0-2.62 2.78zM148.51 471.85h1.56v1.08a3.27 3.27 0 0 1 2.77-1.27 3 3 0 0 1 3.17 3.23v6.44h-1.56v-5.95c0-1.67-.85-2.3-2-2.3a2.44 2.44 0 0 0-2.43 2.62v5.62h-1.56zM161.43 479c0 .63.11 1.16 1.22 1.16a8.3 8.3 0 0 0 1.18-.11l.17 1.37a13.78 13.78 0 0 1-1.69.13c-1.5 0-2.43-.59-2.43-2.2v-6.1h-1.79v-1.37h1.79v-3.1l1.56-.55v3.65h2.64v1.37h-2.64zM169.69 471.85h1.77l2.34 7.83 2.22-7.83h1.75l-3.46 10.9a2.28 2.28 0 0 1-2.51 1.67 11.07 11.07 0 0 1-1.69-.15l.23-1.37a7.21 7.21 0 0 0 1.25.13 1.07 1.07 0 0 0 1.2-1l.09-.44zM187.82 476.6c0 2.85-1.75 4.92-4.37 4.92s-4.37-2.07-4.37-4.92 1.75-4.94 4.37-4.94 4.37 2.05 4.37 4.94zm-1.61.06v-.11c0-1.9-1-3.51-2.75-3.51s-2.75 1.62-2.75 3.51v.11c0 1.86 1 3.5 2.75 3.5s2.74-1.64 2.74-3.5zM197.71 481.33h-1.56v-1.08a3.27 3.27 0 0 1-2.77 1.27 3 3 0 0 1-3.17-3.23v-6.44h1.56v5.95c0 1.67.85 2.3 2 2.3a2.38 2.38 0 0 0 2.43-2.62v-5.62h1.56zM208.34 481.52c-1.88 0-3.31-1.1-3.31-2.87a2.65 2.65 0 0 1 2.53-2.68l3.34-.46v-.61c0-1.44-.93-1.88-2.11-1.88a5.77 5.77 0 0 0-2.74.74l-.59-1.24a7.16 7.16 0 0 1 3.48-.87c2.3 0 3.51 1 3.51 3v4.43a1.29 1.29 0 0 0 .78 1.29l-.87 1.12a1.88 1.88 0 0 1-1.27-1.14 3.52 3.52 0 0 1-2.75 1.17zm0-4.41c-1 .15-1.73.49-1.73 1.46a1.75 1.75 0 0 0 1.94 1.71c1.16 0 2.34-.74 2.34-1.84v-1.71zM221.5 476.64c0 1.9.93 3.51 2.75 3.51a2.71 2.71 0 0 0 2.45-1.6l1.29.74a4 4 0 0 1-3.74 2.22c-2.62 0-4.37-2.05-4.37-4.92s1.75-4.94 4.37-4.94a4 4 0 0 1 3.74 2.22l-1.29.74a2.71 2.71 0 0 0-2.45-1.6c-1.82 0-2.75 1.62-2.75 3.51zM238.43 476.6c0 2.85-1.75 4.92-4.37 4.92s-4.37-2.07-4.37-4.92 1.75-4.94 4.37-4.94 4.37 2.05 4.37 4.94zm-1.61.06v-.11c0-1.9-1-3.51-2.75-3.51s-2.75 1.62-2.75 3.51v.11c0 1.86 1 3.5 2.75 3.5s2.75-1.64 2.75-3.5zM240.9 471.85h1.56v1.08a3.27 3.27 0 0 1 2.77-1.27 3 3 0 0 1 3.17 3.23v6.44h-1.56v-5.95c0-1.67-.85-2.3-2-2.3a2.44 2.44 0 0 0-2.43 2.62v5.62h-1.51zM253.59 471.85h1.88v1.37h-1.88v8.11H252v-8.11h-1.58v-1.37H252v-1.77c0-1.63 1.1-2.22 2.6-2.22a8.81 8.81 0 0 1 1.52.13l-.11 1.33c-.36 0-1-.08-1.35-.08-.89 0-1.1.55-1.1 1.14zM258.42 468a1.16 1.16 0 0 1 1.14 1.16 1.15 1.15 0 1 1-2.3 0 1.16 1.16 0 0 1 1.16-1.16zm.76 13.3h-1.56v-9.48h1.56zM267.06 473.24h-.25c-1.6 0-3 .65-3 3.23v4.86h-1.56v-9.48h1.56v1.5a3 3 0 0 1 2.83-1.67h.46zM276.18 481.33h-1.56v-6c0-1.69-.86-2.28-1.9-2.28s-2.09.8-2.09 2.64v5.6h-1.56v-9.48h1.56v1.08a2.92 2.92 0 0 1 2.49-1.27 2.81 2.81 0 0 1 2.56 1.58 3.25 3.25 0 0 1 2.89-1.58 3.05 3.05 0 0 1 3.19 3.17v6.5h-1.56v-6c0-1.69-.91-2.28-1.94-2.28s-2.09.8-2.09 2.64zM287.34 481.52c-1.88 0-3.31-1.1-3.31-2.87a2.65 2.65 0 0 1 2.53-2.68l3.34-.46v-.61c0-1.44-.93-1.88-2.11-1.88a5.77 5.77 0 0 0-2.74.74l-.59-1.24a7.16 7.16 0 0 1 3.48-.87c2.3 0 3.51 1 3.51 3v4.43a1.29 1.29 0 0 0 .78 1.29l-.87 1.12a1.88 1.88 0 0 1-1.27-1.14 3.52 3.52 0 0 1-2.75 1.17zm0-4.41c-1 .15-1.73.49-1.73 1.46a1.75 1.75 0 0 0 1.94 1.71c1.16 0 2.34-.74 2.34-1.84v-1.71zM296.93 479c0 .63.11 1.16 1.22 1.16a8.3 8.3 0 0 0 1.18-.11l.17 1.37a13.78 13.78 0 0 1-1.69.13c-1.5 0-2.43-.59-2.43-2.2v-6.1h-1.79v-1.37h1.79v-3.1l1.56-.55v3.65h2.64v1.37h-2.64zM302.48 468a1.16 1.16 0 0 1 1.14 1.16 1.15 1.15 0 1 1-2.3 0 1.16 1.16 0 0 1 1.16-1.16zm.76 13.3h-1.56v-9.48h1.56zM314.45 476.6c0 2.85-1.75 4.92-4.37 4.92s-4.37-2.07-4.37-4.92 1.75-4.94 4.37-4.94 4.37 2.05 4.37 4.94zm-1.61.06v-.11c0-1.9-1-3.51-2.75-3.51s-2.75 1.62-2.75 3.51v.11c0 1.86 1 3.5 2.75 3.5s2.74-1.64 2.74-3.5zM316.92 471.85h1.56v1.08a3.27 3.27 0 0 1 2.77-1.27 3 3 0 0 1 3.17 3.23v6.44h-1.56v-5.95c0-1.67-.85-2.3-2-2.3a2.44 2.44 0 0 0-2.43 2.62v5.62h-1.56zM333.43 477.08a3 3 0 0 0 2.94 3.08 3.8 3.8 0 0 0 2.49-.93l.8 1.12a5.28 5.28 0 0 1-3.36 1.18c-2.75 0-4.5-2.07-4.5-4.92s1.69-4.94 4.31-4.94c2.47 0 4 2.07 4 4.92v.49zm0-1.25h5c-.06-1.46-.87-2.79-2.37-2.79a2.75 2.75 0 0 0-2.61 2.78zM349.62 481.33h-1.56v-6c0-1.69-.86-2.28-1.9-2.28s-2.09.8-2.09 2.64v5.6h-1.56v-9.48h1.56v1.08a2.92 2.92 0 0 1 2.49-1.27 2.81 2.81 0 0 1 2.56 1.58 3.25 3.25 0 0 1 2.89-1.58 3.05 3.05 0 0 1 3.19 3.17v6.5h-1.56v-6c0-1.69-.91-2.28-1.94-2.28s-2.09.8-2.09 2.64zM360.77 481.52c-1.88 0-3.31-1.1-3.31-2.87A2.65 2.65 0 0 1 360 476l3.34-.46v-.61c0-1.44-.93-1.88-2.11-1.88a5.77 5.77 0 0 0-2.74.74l-.59-1.24a7.16 7.16 0 0 1 3.48-.87c2.3 0 3.51 1 3.51 3v4.43a1.29 1.29 0 0 0 .78 1.29l-.87 1.12a1.88 1.88 0 0 1-1.27-1.14 3.52 3.52 0 0 1-2.76 1.14zm0-4.41c-1 .15-1.73.49-1.73 1.46a1.75 1.75 0 0 0 1.94 1.71c1.16 0 2.34-.74 2.34-1.84v-1.71zM368.71 468a1.16 1.16 0 0 1 1.14 1.16 1.15 1.15 0 1 1-2.3 0 1.16 1.16 0 0 1 1.16-1.16zm.76 13.3h-1.56v-9.48h1.56zM372.45 468H374v11.17c0 .63.19 1 .91 1 .4 0 .72 0 1-.06l.15 1.31a15.12 15.12 0 0 1-1.58.11c-1.12 0-2-.49-2-1.86zM378.78 479a1.27 1.27 0 1 1-1.27 1.27 1.27 1.27 0 0 1 1.27-1.27zM53.84 512.53h6.72a5.34 5.34 0 0 1 5.64 5.57c0 3.19-2.4 5.57-5.9 5.57h-3v5.66h-3.46zm5.81 3.07h-2.4v5h2.4c1.87 0 3-.86 3-2.45v-.1c.05-1.58-1.13-2.45-3-2.45zM71.7 529.57c-2.28 0-4.34-1.44-4.34-3.94 0-2 1.32-3.36 3.53-3.67l3.82-.53V521c0-1.1-.74-1.61-2-1.61a8.45 8.45 0 0 0-3.7 1l-1.27-2.5a10.61 10.61 0 0 1 5.09-1.39c2.3 0 5.09.62 5.09 4v5.38c0 .74.41 1 1.08 1.3l-1.46 2.33a2.85 2.85 0 0 1-2.35-1.42 4.34 4.34 0 0 1-3.49 1.48zm.38-5.3c-.79.12-1.32.58-1.32 1.3a1.53 1.53 0 0 0 1.7 1.46 2.1 2.1 0 0 0 2.23-2.3v-.86zM83.51 529.84l.1-.41h-.24l-3.87-12.65h3.6l2.3 8.69 2.26-8.69h3.55l-4.32 14.4c-.55 1.87-2 2.38-3.91 2.38a21.34 21.34 0 0 1-3-.24l.67-2.86a11.57 11.57 0 0 0 1.73.14 1 1 0 0 0 1.13-.76zM103.57 529.33h-3.24V522c0-1.8-.84-2.42-1.9-2.42-1.25 0-2.21.86-2.21 2.88v6.84H93v-12.52h3.24v1.1a4.21 4.21 0 0 1 3.22-1.34 3.63 3.63 0 0 1 3.24 1.7 4.42 4.42 0 0 1 3.79-1.7 4.2 4.2 0 0 1 4.46 4.22v8.57h-3.26V522c0-1.8-.84-2.42-1.9-2.42-1.25 0-2.21.86-2.21 2.88zM116.58 524.17a3 3 0 0 0 3 2.45 4.51 4.51 0 0 0 3.17-1.18l1.61 2.45a7.51 7.51 0 0 1-4.87 1.68 6.1 6.1 0 0 1-6.31-6.43V523c0-3.7 2.52-6.46 6.07-6.46 3.31 0 5.76 2.52 5.76 6.17v1.46zm0-2.45h5.06a2.41 2.41 0 0 0-2.47-2.38 2.51 2.51 0 0 0-2.57 2.38zM127.35 516.78h3.24v1.08a4.26 4.26 0 0 1 3.19-1.32 4.11 4.11 0 0 1 4.34 4.32v8.47h-3.24V522c0-1.78-.84-2.45-2-2.45-1.32 0-2.33.94-2.33 2.88v6.86h-3.24zM145.69 525.59c0 .6.26 1.06 1.39 1.06a8 8 0 0 0 1.61-.14l.29 2.86a25.91 25.91 0 0 1-3 .22c-2.23 0-3.55-1-3.55-3.19v-6.7h-2.23v-2.9h2.26v-3.55l3.24-.86v4.42h3.3v2.9h-3.29zM158.08 525.3a5.81 5.81 0 0 0 3.67 1.51c1 0 1.78-.26 1.78-1S163 525 162 524.7a21.42 21.42 0 0 1-3.12-.89 3.38 3.38 0 0 1-2.21-3.26c0-2.69 2.38-4 5.16-4a7.21 7.21 0 0 1 5 1.78l-2.06 2.14a4.32 4.32 0 0 0-2.88-1.15c-.89 0-1.78.31-1.78 1.06 0 .58.55.79 1.49 1a17.69 17.69 0 0 1 3.6 1.15 3.32 3.32 0 0 1 1.75 3c0 2.66-2.28 4-5.06 4a9.23 9.23 0 0 1-5.66-1.9zM180 529.33h-3.24v-1.08a4.26 4.26 0 0 1-3.19 1.32 4.11 4.11 0 0 1-4.34-4.32v-8.47h3.24v7.3c0 1.78.84 2.45 2 2.45 1.32 0 2.33-.94 2.33-2.88v-6.86h3.2zM193.57 529.33h-3.24V522c0-1.8-.84-2.42-1.9-2.42-1.25 0-2.21.86-2.21 2.88v6.84H183v-12.52h3.24v1.1a4.21 4.21 0 0 1 3.22-1.34 3.63 3.63 0 0 1 3.24 1.7 4.42 4.42 0 0 1 3.79-1.7 4.2 4.2 0 0 1 4.46 4.22v8.57h-3.26V522c0-1.8-.84-2.42-1.9-2.42-1.25 0-2.21.86-2.21 2.88zM214.45 529.33h-3.24V522c0-1.8-.84-2.42-1.9-2.42-1.25 0-2.21.86-2.21 2.88v6.84h-3.24v-12.52h3.24v1.1a4.21 4.21 0 0 1 3.22-1.34 3.63 3.63 0 0 1 3.24 1.7 4.42 4.42 0 0 1 3.79-1.7 4.2 4.2 0 0 1 4.46 4.22v8.57h-3.26V522c0-1.8-.84-2.42-1.9-2.42-1.25 0-2.21.86-2.21 2.88zM228.35 529.57c-2.28 0-4.34-1.44-4.34-3.94 0-2 1.32-3.36 3.53-3.67l3.82-.53V521c0-1.1-.74-1.61-2-1.61a8.45 8.45 0 0 0-3.7 1l-1.27-2.5a10.61 10.61 0 0 1 5.09-1.39c2.3 0 5.09.62 5.09 4v5.38c0 .74.41 1 1.08 1.3l-1.46 2.33a2.85 2.85 0 0 1-2.35-1.42 4.34 4.34 0 0 1-3.49 1.48zm.38-5.3c-.79.12-1.32.58-1.32 1.3a1.53 1.53 0 0 0 1.7 1.46 2.1 2.1 0 0 0 2.23-2.3v-.86zM244.91 519.92h-.58c-1.85 0-3.48.62-3.48 3.31v6.1h-3.24v-12.55h3.24v1.42a3.89 3.89 0 0 1 3.34-1.63h.72zM249.66 529.84l.1-.41h-.24l-3.86-12.65h3.6l2.3 8.69 2.26-8.69h3.55l-4.37 14.4c-.55 1.87-2 2.38-3.91 2.38a21.32 21.32 0 0 1-3-.24l.67-2.86a11.57 11.57 0 0 0 1.73.14 1 1 0 0 0 1.17-.76zM53.89 556h4.67a3.94 3.94 0 0 1 4.12 4.18 4.06 4.06 0 0 1-4.31 4.16h-2.85v5h-1.63zm4.33 1.41h-2.7V563h2.7a2.56 2.56 0 0 0 2.74-2.7v-.09a2.59 2.59 0 0 0-2.74-2.77zM67.4 569.52c-1.88 0-3.31-1.1-3.31-2.87a2.65 2.65 0 0 1 2.53-2.65l3.34-.46v-.61c0-1.44-.93-1.88-2.11-1.88a5.77 5.77 0 0 0-2.74.74l-.59-1.24a7.16 7.16 0 0 1 3.48-.87c2.3 0 3.51 1 3.51 3v4.43a1.29 1.29 0 0 0 .78 1.29l-.87 1.12a1.88 1.88 0 0 1-1.27-1.14 3.52 3.52 0 0 1-2.75 1.14zm0-4.41c-1 .15-1.73.49-1.73 1.46a1.75 1.75 0 0 0 1.94 1.71c1.16 0 2.34-.74 2.34-1.84v-1.71zM73.42 559.85h1.77l2.34 7.83 2.22-7.83h1.75L78 570.76a2.28 2.28 0 0 1-2.51 1.67 11.07 11.07 0 0 1-1.69-.15l.23-1.37a7.21 7.21 0 0 0 1.25.13 1.07 1.07 0 0 0 1.2-1l.09-.44zM90.63 569.33h-1.55v-6c0-1.69-.86-2.28-1.9-2.28s-2.09.8-2.09 2.64v5.6h-1.56v-9.48h1.56v1.08a2.92 2.92 0 0 1 2.49-1.27 2.81 2.81 0 0 1 2.56 1.58 3.25 3.25 0 0 1 2.86-1.54 3.05 3.05 0 0 1 3.19 3.17v6.5h-1.53v-6c0-1.69-.91-2.28-1.94-2.28s-2.09.8-2.09 2.64zM100.25 565.08a3 3 0 0 0 2.94 3.08 3.8 3.8 0 0 0 2.49-.93l.8 1.12a5.28 5.28 0 0 1-3.36 1.18c-2.75 0-4.5-2.07-4.5-4.92s1.69-4.94 4.31-4.94c2.47 0 4 2.07 4 4.92v.49zm0-1.25h5c-.06-1.46-.87-2.79-2.37-2.79a2.75 2.75 0 0 0-2.61 2.78zM109.33 559.85h1.56v1.08a3.27 3.27 0 0 1 2.77-1.27 3 3 0 0 1 3.17 3.23v6.44h-1.56v-5.95c0-1.67-.85-2.3-2-2.3a2.44 2.44 0 0 0-2.43 2.62v5.62h-1.56zM122.25 567c0 .63.11 1.16 1.22 1.16a8.29 8.29 0 0 0 1.18-.11l.17 1.37a13.78 13.78 0 0 1-1.69.13c-1.5 0-2.43-.59-2.43-2.2v-6.1h-1.79v-1.37h1.79v-3.1l1.56-.55v3.65h2.64v1.37h-2.64zM134 559.85h1.88v1.37H134v8.11h-1.6v-8.11h-1.58v-1.37h1.58v-1.77c0-1.63 1.1-2.22 2.6-2.22a8.81 8.81 0 0 1 1.52.13l-.11 1.33c-.36 0-1-.08-1.35-.08-.89 0-1.1.55-1.1 1.14zM146 564.6c0 2.85-1.75 4.92-4.37 4.92s-4.37-2.07-4.37-4.92 1.75-4.94 4.37-4.94 4.37 2.05 4.37 4.94zm-1.61.06v-.11c0-1.9-1-3.51-2.75-3.51s-2.75 1.62-2.75 3.51v.11c0 1.86 1 3.5 2.75 3.5s2.75-1.64 2.75-3.5zM153.31 561.24h-.25c-1.6 0-3 .65-3 3.23v4.86h-1.56v-9.48h1.5v1.5a3 3 0 0 1 2.83-1.67h.46zM156.39 559.85a1.27 1.27 0 1 1-1.27 1.27 1.27 1.27 0 0 1 1.27-1.27zm0 7.12a1.27 1.27 0 1 1-1.27 1.27 1.27 1.27 0 0 1 1.27-1.24zM220.21 556h1.63v11.83h5.32v1.46h-7zM237.12 564.6c0 2.85-1.75 4.92-4.37 4.92s-4.37-2.07-4.37-4.92 1.75-4.94 4.37-4.94 4.37 2.05 4.37 4.94zm-1.61.06v-.11c0-1.9-1-3.51-2.75-3.51s-2.75 1.62-2.75 3.51v.11c0 1.86 1 3.5 2.75 3.5s2.74-1.64 2.74-3.5zM240.63 564.64c0 1.9.93 3.51 2.75 3.51a2.71 2.71 0 0 0 2.45-1.6l1.29.74a4 4 0 0 1-3.74 2.22c-2.62 0-4.37-2.05-4.37-4.92s1.75-4.94 4.37-4.94a4 4 0 0 1 3.74 2.22l-1.29.74a2.71 2.71 0 0 0-2.45-1.6c-1.82 0-2.75 1.62-2.75 3.51zM251 564.51l4.46-4.65h2l-3.61 3.76 3.78 5.72h-1.9l-3-4.67-1.73 1.74v2.93h-1.56V556H251zM267.16 569.52c-1.88 0-3.31-1.1-3.31-2.87a2.66 2.66 0 0 1 2.53-2.68l3.34-.46v-.61c0-1.44-.93-1.88-2.11-1.88a5.77 5.77 0 0 0-2.74.74l-.59-1.24a7.16 7.16 0 0 1 3.48-.87c2.3 0 3.51 1 3.51 3v4.43a1.29 1.29 0 0 0 .78 1.29l-.87 1.12a1.88 1.88 0 0 1-1.27-1.14 3.52 3.52 0 0 1-2.75 1.17zm0-4.41c-1 .15-1.73.49-1.73 1.46a1.75 1.75 0 0 0 1.94 1.71c1.16 0 2.34-.74 2.34-1.84v-1.71zM274.3 559.85h1.56v1.08a3.27 3.27 0 0 1 2.77-1.27 3 3 0 0 1 3.17 3.23v6.44h-1.56v-5.95c0-1.67-.85-2.3-2-2.3a2.44 2.44 0 0 0-2.43 2.62v5.62h-1.51zM291 568.25a3.32 3.32 0 0 1-2.77 1.27c-2.45 0-4-2.05-4-4.92s1.58-4.94 4-4.94a3.32 3.32 0 0 1 2.77 1.27V556h1.56v13.3H291zm-5.19-3.61c0 2 .95 3.5 2.7 3.5a2.47 2.47 0 0 0 2.51-2.77v-1.54a2.47 2.47 0 0 0-2.51-2.77c-1.75 0-2.7 1.52-2.7 3.5zM311 567l2.3-11h1.67l-3 13.3H310l-2.83-10.87-2.81 10.87h-2l-2.87-13.3h1.65l2.36 11 2.81-11h1.77zM317.73 565.08a3 3 0 0 0 2.94 3.08 3.8 3.8 0 0 0 2.49-.93l.8 1.12a5.28 5.28 0 0 1-3.36 1.18c-2.75 0-4.5-2.07-4.5-4.92s1.69-4.94 4.31-4.94c2.47 0 4 2.07 4 4.92v.49zm0-1.25h5c-.06-1.46-.87-2.79-2.37-2.79a2.75 2.75 0 0 0-2.61 2.78zM327.61 556a1.16 1.16 0 0 1 1.14 1.16 1.15 1.15 0 1 1-2.3 0 1.16 1.16 0 0 1 1.16-1.16zm.76 13.3h-1.56v-9.48h1.56zM336.26 561.24H336c-1.6 0-3 .65-3 3.23v4.86h-1.56v-9.48H333v1.5a3 3 0 0 1 2.83-1.67h.46zM344.81 559.85h1.88v1.37h-1.88v8.11h-1.56v-8.11h-1.58v-1.37h1.58v-1.77c0-1.63 1.1-2.22 2.6-2.22a8.81 8.81 0 0 1 1.52.13l-.11 1.33c-.36 0-1-.08-1.35-.08-.89 0-1.1.55-1.1 1.14zM349.63 556a1.16 1.16 0 0 1 1.14 1.16 1.15 1.15 0 1 1-2.3 0 1.16 1.16 0 0 1 1.16-1.16zm.76 13.3h-1.56v-9.48h1.56zM352.62 568.16l.95-1.1a4.5 4.5 0 0 0 2.87 1.16c1.08 0 1.9-.49 1.9-1.42s-1-1.25-2.32-1.6-2.94-.82-2.94-2.77c0-1.6 1.46-2.75 3.46-2.75a5.12 5.12 0 0 1 3.29 1.18l-.91 1a3.47 3.47 0 0 0-2.34-.91c-1.25 0-1.88.55-1.88 1.41 0 .68.53 1 1.37 1.25.49.13 1.06.3 1.56.46 1.27.4 2.32 1.06 2.32 2.58 0 2-1.73 2.85-3.57 2.85a5.7 5.7 0 0 1-3.76-1.34zM362.36 556h1.56v4.9a3.27 3.27 0 0 1 2.77-1.27 3 3 0 0 1 3.17 3.23v6.44h-1.56v-5.95c0-1.67-.85-2.3-2-2.3a2.43 2.43 0 0 0-2.43 2.62v5.62h-1.56zM373.63 556a1.16 1.16 0 0 1 1.14 1.16 1.15 1.15 0 1 1-2.3 0 1.16 1.16 0 0 1 1.16-1.16zm.76 13.3h-1.56v-9.48h1.56zM377.43 559.85H379v1.08a3.27 3.27 0 0 1 2.77-1.27 3 3 0 0 1 3.17 3.23v6.44h-1.56v-5.95c0-1.67-.85-2.3-2-2.3a2.44 2.44 0 0 0-2.43 2.62v5.62h-1.56zM391.2 559.66a3.2 3.2 0 0 1 2.68 1.27v-1.08h1.56v9.56c0 2.36-2.07 3-4.07 3a8.2 8.2 0 0 1-3.51-.76l.53-1.29a7.7 7.7 0 0 0 3 .67c1.6 0 2.47-.59 2.47-2.05v-1.8a3.2 3.2 0 0 1-2.68 1.27c-2.36 0-3.84-1.92-3.84-4.41s1.51-4.38 3.86-4.38zm2.72 4.37c0-1.69-.72-3-2.43-3s-2.51 1.33-2.51 3v.08c0 1.65.78 3 2.51 3s2.43-1.29 2.43-3zM405 559.85v1.08a3.32 3.32 0 0 1 2.77-1.27c2.45 0 4 2.07 4 4.94s-1.58 4.92-4 4.92a3.32 3.32 0 0 1-2.77-1.27v4h-1.56v-12.4zm5.19 4.69c0-2-1-3.5-2.7-3.5a2.47 2.47 0 0 0-2.51 2.77v1.54a2.47 2.47 0 0 0 2.51 2.77c1.75 0 2.7-1.52 2.7-3.5zM415.37 565.08a3 3 0 0 0 2.94 3.08 3.8 3.8 0 0 0 2.49-.93l.8 1.12a5.28 5.28 0 0 1-3.36 1.18c-2.75 0-4.5-2.07-4.5-4.92s1.69-4.94 4.31-4.94c2.47 0 4 2.07 4 4.92v.49zm0-1.25h5c-.06-1.46-.87-2.79-2.37-2.79a2.75 2.75 0 0 0-2.61 2.78zM429.3 561.24h-.25c-1.6 0-3 .65-3 3.23v4.86h-1.56v-9.48H426v1.5a3 3 0 0 1 2.83-1.67h.46zM438.42 569.33h-1.56v-6c0-1.69-.86-2.28-1.9-2.28s-2.09.8-2.09 2.64v5.6h-1.56v-9.48h1.56v1.08a2.92 2.92 0 0 1 2.49-1.27 2.81 2.81 0 0 1 2.56 1.58 3.25 3.25 0 0 1 2.89-1.58 3.05 3.05 0 0 1 3.19 3.17v6.5h-1.56v-6c0-1.69-.91-2.28-1.94-2.28s-2.09.8-2.09 2.64zM447.76 556a1.16 1.16 0 0 1 1.14 1.16 1.15 1.15 0 1 1-2.3 0 1.16 1.16 0 0 1 1.16-1.16zm.76 13.3H447v-9.48h1.56zM454 567c0 .63.11 1.16 1.22 1.16a8.29 8.29 0 0 0 1.18-.11l.17 1.37a13.78 13.78 0 0 1-1.69.13c-1.5 0-2.43-.59-2.43-2.2v-6.1h-1.79v-1.37h1.79v-3.1l1.56-.55v3.65h2.64v1.37H454zM52.47 588h9.12v1.46h-3.75v11.83h-1.63V589.5h-3.74zM70.25 596.6c0 2.85-1.75 4.92-4.37 4.92s-4.37-2.07-4.37-4.92 1.75-4.94 4.37-4.94 4.37 2.05 4.37 4.94zm-1.61.06v-.11c0-1.9-1-3.51-2.75-3.51s-2.75 1.62-2.75 3.51v.11c0 1.86 1 3.5 2.75 3.5s2.74-1.64 2.74-3.5zM75 599c0 .63.11 1.16 1.22 1.16a8.29 8.29 0 0 0 1.18-.11l.17 1.37a13.78 13.78 0 0 1-1.69.13c-1.5 0-2.43-.59-2.43-2.2v-6.1h-1.78v-1.37h1.79v-3.1l1.56-.55v3.65h2.64v1.37H75zM82.37 601.52c-1.88 0-3.31-1.1-3.31-2.87a2.65 2.65 0 0 1 2.53-2.65l3.34-.46v-.61c0-1.44-.93-1.88-2.11-1.88a5.77 5.77 0 0 0-2.74.74l-.59-1.24a7.16 7.16 0 0 1 3.48-.87c2.3 0 3.51 1 3.51 3v4.43a1.29 1.29 0 0 0 .78 1.29l-.87 1.12a1.88 1.88 0 0 1-1.27-1.14 3.52 3.52 0 0 1-2.75 1.14zm0-4.41c-1 .15-1.73.49-1.73 1.46a1.75 1.75 0 0 0 1.94 1.71c1.16 0 2.34-.74 2.34-1.84v-1.71zM89.46 588H91v11.17c0 .63.19 1 .91 1 .4 0 .72 0 1-.06l.15 1.31a15.12 15.12 0 0 1-1.58.11c-1.12 0-2-.49-2-1.86zM101.79 601.52c-1.88 0-3.31-1.1-3.31-2.87A2.65 2.65 0 0 1 101 596l3.34-.46v-.61c0-1.44-.93-1.88-2.11-1.88a5.77 5.77 0 0 0-2.74.74l-.59-1.24a7.16 7.16 0 0 1 3.48-.87c2.3 0 3.51 1 3.51 3v4.43a1.29 1.29 0 0 0 .78 1.29l-.87 1.12a1.88 1.88 0 0 1-1.27-1.14 3.52 3.52 0 0 1-2.74 1.14zm0-4.41c-1 .15-1.73.49-1.73 1.46a1.75 1.75 0 0 0 1.94 1.71c1.16 0 2.34-.74 2.34-1.84v-1.71zM116 601.33h-1.56v-6c0-1.69-.86-2.28-1.9-2.28s-2.09.8-2.09 2.64v5.6h-1.56v-9.48h1.56v1.08a2.92 2.92 0 0 1 2.49-1.27 2.81 2.81 0 0 1 2.56 1.58 3.25 3.25 0 0 1 2.89-1.58 3.05 3.05 0 0 1 3.19 3.17v6.5h-1.56v-6c0-1.69-.91-2.28-1.94-2.28s-2.09.8-2.09 2.64zM132.76 596.6c0 2.85-1.75 4.92-4.37 4.92s-4.39-2.07-4.39-4.92 1.75-4.94 4.37-4.94 4.39 2.05 4.39 4.94zm-1.61.06v-.11c0-1.9-1-3.51-2.75-3.51s-2.75 1.62-2.75 3.51v.11c0 1.86 1 3.5 2.75 3.5s2.74-1.64 2.74-3.5zM142.66 601.33h-1.56v-1.08a3.27 3.27 0 0 1-2.77 1.27 3 3 0 0 1-3.17-3.23v-6.44h1.56v5.95c0 1.67.85 2.3 2 2.3a2.38 2.38 0 0 0 2.43-2.62v-5.62h1.56zM145.7 591.85h1.56v1.08a3.27 3.27 0 0 1 2.77-1.27 3 3 0 0 1 3.17 3.23v6.44h-1.56v-5.95c0-1.67-.85-2.3-2-2.3a2.44 2.44 0 0 0-2.43 2.62v5.62h-1.51zM158.62 599c0 .63.11 1.16 1.22 1.16A8.29 8.29 0 0 0 161 600l.17 1.37a13.78 13.78 0 0 1-1.69.13c-1.5 0-2.43-.59-2.43-2.2v-6.1h-1.79v-1.37h1.79v-3.1l1.56-.55v3.65h2.64v1.37h-2.64zM164.43 591.85a1.27 1.27 0 1 1-1.27 1.27 1.27 1.27 0 0 1 1.27-1.27zm0 7.12a1.27 1.27 0 1 1-1.27 1.27 1.27 1.27 0 0 1 1.27-1.24zM226.8 590.47a2.61 2.61 0 0 0-2.28-1.18 2.49 2.49 0 0 0-2.43 2.79v2.09h3.1v1.41h-3.1v4.35H228v1.41h-8.55v-1.41h1v-4.35h-1v-1.41h1v-2.05c0-2.66 1.6-4.25 4-4.25a4.16 4.16 0 0 1 3.61 1.65zM240.22 594.7c0 3.44-1.25 6.82-4.83 6.82s-4.83-3.38-4.83-6.82 1.25-6.84 4.83-6.84 4.83 3.39 4.83 6.84zm-1.73.38v-.78c0-3.19-1.23-5-3.1-5s-3.1 1.82-3.1 5v.78c0 3.19 1.23 5 3.1 5s3.1-1.81 3.1-5zM243.83 599a1.27 1.27 0 1 1-1.27 1.27 1.27 1.27 0 0 1 1.27-1.27zM257.09 594.7c0 3.44-1.25 6.82-4.83 6.82s-4.83-3.38-4.83-6.82 1.25-6.84 4.83-6.84 4.83 3.39 4.83 6.84zm-1.73.38v-.78c0-3.19-1.23-5-3.1-5s-3.1 1.82-3.1 5v.78c0 3.19 1.23 5 3.1 5s3.1-1.81 3.1-5zM269.21 594.7c0 3.44-1.25 6.82-4.83 6.82s-4.83-3.38-4.83-6.82 1.25-6.84 4.83-6.84 4.83 3.39 4.83 6.84zm-1.73.38v-.78c0-3.19-1.23-5-3.1-5s-3.1 1.82-3.1 5v.78c0 3.19 1.23 5 3.1 5s3.1-1.81 3.1-5z"/>
    </g>
  </g>
  <g id="Layer_2" data-name="Layer 2">
    <path class="cls-4" d="M0 40V10A10 10 0 0 1 10 0h940a10 10 0 0 1 10 10v30"/>
    <circle class="cls-1" cx="25.38" cy="20" r="8.5"/>
    <circle class="cls-1" cx="49.13" cy="20" r="8.5"/>
    <circle class="cls-1" cx="72.88" cy="20" r="8.5"/>
    <path class="cls-4" d="M0 636h960v4H0z"/>
    <path class="cls-4" d="M4 640V40h952v600h4V36H0v604h4z"/>
  </g>
</svg>
