<svg width="72" height="46" xmlns="http://www.w3.org/2000/svg"><g fill="none" fill-rule="evenodd"><path d="M65.363.015H6.429l-.736.001c-.207.002-.414.004-.62.01a8.97 8.97 0 0 0-1.35.119 4.546 4.546 0 0 0-1.284.423A4.314 4.314 0 0 0 .552 2.455 4.53 4.53 0 0 0 .13 3.738c-.081.446-.107.9-.12 1.35a29.58 29.58 0 0 0-.01.62v34.576c.002.206.005.413.01.62.013.45.039.904.12 1.349.08.452.213.873.422 1.284a4.304 4.304 0 0 0 1.887 1.886c.41.21.831.343 1.283.424.445.08.9.106 1.35.118.207.005.414.008.62.01H66.1c.206-.002.413-.005.62-.01a9.11 9.11 0 0 0 1.35-.118 4.557 4.557 0 0 0 1.284-.424 4.298 4.298 0 0 0 1.887-1.886c.21-.411.342-.832.422-1.284.08-.445.107-.9.119-1.35.006-.206.008-.413.01-.62l.001-.736V6.445l-.001-.737a29.58 29.58 0 0 0-.01-.62 8.923 8.923 0 0 0-.119-1.35 4.502 4.502 0 0 0-.422-1.283A4.328 4.328 0 0 0 69.353.568 4.555 4.555 0 0 0 68.07.145c-.446-.08-.9-.107-1.35-.119a33.078 33.078 0 0 0-.621-.01h-.736" fill="#5F6368"/><path d="M65.363 1.547l.725.001c.196.002.393.004.59.01.344.009.746.027 1.12.095.326.058.599.147.86.28a2.771 2.771 0 0 1 1.217 1.218c.133.26.221.532.28.86.067.37.085.774.094 1.12.006.194.009.39.01.59l.001.724v33.102l-.001.73c-.001.194-.004.39-.01.585a7.532 7.532 0 0 1-.095 1.123 2.976 2.976 0 0 1-.28.856 2.77 2.77 0 0 1-1.218 1.218c-.26.133-.532.222-.855.28a7.755 7.755 0 0 1-1.116.095c-.198.005-.396.007-.598.008-.24.002-.483.002-.724.002H6.419c-.237 0-.476 0-.719-.002-.198 0-.395-.003-.586-.008a7.808 7.808 0 0 1-1.12-.095 3 3 0 0 1-.862-.282 2.744 2.744 0 0 1-.704-.512 2.75 2.75 0 0 1-.51-.704 3.001 3.001 0 0 1-.281-.86 7.663 7.663 0 0 1-.096-1.119 29.607 29.607 0 0 1-.008-.587l-.001-.576V5.718c.002-.196.004-.392.01-.588a7.63 7.63 0 0 1 .096-1.122c.057-.324.146-.597.28-.86a2.768 2.768 0 0 1 1.216-1.215c.26-.133.534-.222.86-.28a7.631 7.631 0 0 1 1.12-.095c.197-.006.393-.008.588-.01h59.661" fill="#FFFFFE"/><g fill-rule="nonzero"><path d="M34.157 16.228v5.553h3.418c.815 0 1.488-.274 2.021-.822.547-.547.82-1.2.82-1.955 0-.74-.273-1.385-.82-1.933-.533-.563-1.206-.844-2.02-.844h-3.42v.001zm0 7.508v6.442h-2.043V14.273h5.417c1.376 0 2.545.46 3.507 1.377.977.918 1.466 2.036 1.466 3.354 0 1.348-.489 2.474-1.466 3.376-.947.904-2.117 1.355-3.507 1.355h-3.374v.001zm10.41 3.11c0 .533.226.977.678 1.333.451.355.98.533 1.587.533.859 0 1.623-.319 2.297-.955.674-.637 1.01-1.385 1.01-2.243-.637-.504-1.525-.755-2.664-.755-.83 0-1.52.2-2.075.6-.555.4-.833.894-.833 1.487m2.643-7.908c1.51 0 2.7.404 3.575 1.21.872.808 1.309 1.915 1.309 3.322v6.708H50.14v-1.51h-.089c-.843 1.243-1.968 1.865-3.374 1.865-1.199 0-2.202-.355-3.008-1.066-.806-.71-1.21-1.6-1.21-2.665 0-1.126.425-2.021 1.276-2.688.851-.666 1.987-1 3.408-1 1.212 0 2.212.222 2.996.666v-.467c0-.71-.282-1.313-.844-1.81a2.891 2.891 0 0 0-1.975-.744c-1.14 0-2.042.482-2.708 1.445l-1.799-1.134c.992-1.421 2.457-2.132 4.397-2.132m16.094.355l-6.816 15.683H54.38l2.53-5.487-4.484-10.196h2.22l3.241 7.82h.044l3.153-7.82z" fill="#5F6368"/><path d="M25.904 22.347c0-.643-.054-1.264-.157-1.858h-8.614v3.52h4.934a4.232 4.232 0 0 1-1.824 2.777v2.286h2.944c1.724-1.591 2.717-3.943 2.717-6.725" fill="#4285F4"/><path d="M17.133 31.278c2.465 0 4.54-.81 6.054-2.206l-2.944-2.286c-.82.552-1.875.875-3.11.875-2.382 0-4.404-1.607-5.127-3.773H8.973v2.355a9.133 9.133 0 0 0 8.16 5.035" fill="#34A853"/><path d="M12.006 23.888a5.495 5.495 0 0 1 0-3.498v-2.355H8.973A9.095 9.095 0 0 0 8 22.14c0 1.476.351 2.87.973 4.104l3.033-2.355z" fill="#FABB05"/><path d="M17.133 16.618c1.346 0 2.553.463 3.504 1.37v.002l2.607-2.609C21.661 13.906 19.597 13 17.134 13a9.133 9.133 0 0 0-8.161 5.035l3.033 2.355c.723-2.165 2.745-3.772 5.127-3.772" fill="#E94235"/></g></g></svg>